%TF.GenerationSoftware,KiCad,Pcbnew,9.0.7*%
%TF.CreationDate,2026-02-22T18:01:21-05:00*%
%TF.ProjectId,mini-dyno,6d696e69-2d64-4796-9e6f-2e6b69636164,rev?*%
%TF.SameCoordinates,Original*%
%TF.FileFunction,Soldermask,Bot*%
%TF.FilePolarity,Negative*%
%FSLAX46Y46*%
G04 Gerber Fmt 4.6, Leading zero omitted, Abs format (unit mm)*
G04 Created by KiCad (PCBNEW 9.0.7) date 2026-02-22 18:01:21*
%MOMM*%
%LPD*%
G01*
G04 APERTURE LIST*
G04 APERTURE END LIST*
G36*
X186250168Y-103111445D02*
G01*
X186474025Y-103184181D01*
X186683748Y-103291040D01*
X186874172Y-103429391D01*
X187040609Y-103595828D01*
X187178960Y-103786252D01*
X187285819Y-103995975D01*
X187358555Y-104219832D01*
X187395376Y-104452311D01*
X187395376Y-104687689D01*
X187358555Y-104920168D01*
X187285819Y-105144025D01*
X187178960Y-105353748D01*
X187040609Y-105544172D01*
X186874172Y-105710609D01*
X186683748Y-105848960D01*
X186474025Y-105955819D01*
X186250168Y-106028555D01*
X186017689Y-106065376D01*
X185782311Y-106065376D01*
X185549832Y-106028555D01*
X185325975Y-105955819D01*
X185116252Y-105848960D01*
X184925828Y-105710609D01*
X184759391Y-105544172D01*
X184621040Y-105353748D01*
X184514181Y-105144025D01*
X184441445Y-104920168D01*
X184404624Y-104687689D01*
X184404624Y-104452311D01*
X184441445Y-104219832D01*
X184514181Y-103995975D01*
X184621040Y-103786252D01*
X184759391Y-103595828D01*
X184925828Y-103429391D01*
X185116252Y-103291040D01*
X185325975Y-103184181D01*
X185549832Y-103111445D01*
X185782311Y-103074624D01*
X186017689Y-103074624D01*
X186250168Y-103111445D01*
G37*
G36*
X188432228Y-100834448D02*
G01*
X188577117Y-100894463D01*
X188707515Y-100981592D01*
X188818408Y-101092485D01*
X188905537Y-101222883D01*
X188965552Y-101367772D01*
X188996148Y-101521586D01*
X188996148Y-101678414D01*
X188965552Y-101832228D01*
X188905537Y-101977117D01*
X188818408Y-102107515D01*
X188707515Y-102218408D01*
X188577117Y-102305537D01*
X188432228Y-102365552D01*
X188278414Y-102396148D01*
X188121586Y-102396148D01*
X187967772Y-102365552D01*
X187822883Y-102305537D01*
X187692485Y-102218408D01*
X187581592Y-102107515D01*
X187494463Y-101977117D01*
X187434448Y-101832228D01*
X187403852Y-101678414D01*
X187403852Y-101521586D01*
X187434448Y-101367772D01*
X187494463Y-101222883D01*
X187581592Y-101092485D01*
X187692485Y-100981592D01*
X187822883Y-100894463D01*
X187967772Y-100834448D01*
X188121586Y-100803852D01*
X188278414Y-100803852D01*
X188432228Y-100834448D01*
G37*
G36*
X188432228Y-98334448D02*
G01*
X188577117Y-98394463D01*
X188707515Y-98481592D01*
X188818408Y-98592485D01*
X188905537Y-98722883D01*
X188965552Y-98867772D01*
X188996148Y-99021586D01*
X188996148Y-99178414D01*
X188965552Y-99332228D01*
X188905537Y-99477117D01*
X188818408Y-99607515D01*
X188707515Y-99718408D01*
X188577117Y-99805537D01*
X188432228Y-99865552D01*
X188278414Y-99896148D01*
X188121586Y-99896148D01*
X187967772Y-99865552D01*
X187822883Y-99805537D01*
X187692485Y-99718408D01*
X187581592Y-99607515D01*
X187494463Y-99477117D01*
X187434448Y-99332228D01*
X187403852Y-99178414D01*
X187403852Y-99021586D01*
X187434448Y-98867772D01*
X187494463Y-98722883D01*
X187581592Y-98592485D01*
X187692485Y-98481592D01*
X187822883Y-98394463D01*
X187967772Y-98334448D01*
X188121586Y-98303852D01*
X188278414Y-98303852D01*
X188432228Y-98334448D01*
G37*
G36*
X146542208Y-97849254D02*
G01*
X146643943Y-97907991D01*
X146727009Y-97991057D01*
X146785746Y-98092792D01*
X146816150Y-98206263D01*
X146820000Y-98265000D01*
X146820000Y-99265000D01*
X146816150Y-99323737D01*
X146785746Y-99437208D01*
X146727009Y-99538943D01*
X146643943Y-99622009D01*
X146542208Y-99680746D01*
X146428737Y-99711150D01*
X146311263Y-99711150D01*
X146197792Y-99680746D01*
X146096057Y-99622009D01*
X146012991Y-99538943D01*
X145954254Y-99437208D01*
X145923850Y-99323737D01*
X145920000Y-99265000D01*
X145920000Y-98265000D01*
X145923850Y-98206263D01*
X145954254Y-98092792D01*
X146012991Y-97991057D01*
X146096057Y-97907991D01*
X146197792Y-97849254D01*
X146311263Y-97818850D01*
X146428737Y-97818850D01*
X146542208Y-97849254D01*
G37*
G36*
X149402208Y-97849254D02*
G01*
X149503943Y-97907991D01*
X149587009Y-97991057D01*
X149645746Y-98092792D01*
X149676150Y-98206263D01*
X149680000Y-98265000D01*
X149680000Y-99265000D01*
X149676150Y-99323737D01*
X149645746Y-99437208D01*
X149587009Y-99538943D01*
X149503943Y-99622009D01*
X149402208Y-99680746D01*
X149288737Y-99711150D01*
X149171263Y-99711150D01*
X149057792Y-99680746D01*
X148956057Y-99622009D01*
X148872991Y-99538943D01*
X148814254Y-99437208D01*
X148783850Y-99323737D01*
X148780000Y-99265000D01*
X148780000Y-98265000D01*
X148783850Y-98206263D01*
X148814254Y-98092792D01*
X148872991Y-97991057D01*
X148956057Y-97907991D01*
X149057792Y-97849254D01*
X149171263Y-97818850D01*
X149288737Y-97818850D01*
X149402208Y-97849254D01*
G37*
G36*
X148304805Y-98997836D02*
G01*
X148372628Y-99036994D01*
X148428006Y-99092372D01*
X148467164Y-99160195D01*
X148487433Y-99235842D01*
X148487433Y-99314158D01*
X148467164Y-99389805D01*
X148428006Y-99457628D01*
X148372628Y-99513006D01*
X148304805Y-99552164D01*
X148229158Y-99572433D01*
X148150842Y-99572433D01*
X148075195Y-99552164D01*
X148007372Y-99513006D01*
X147951994Y-99457628D01*
X147912836Y-99389805D01*
X147892567Y-99314158D01*
X147892567Y-99235842D01*
X147912836Y-99160195D01*
X147951994Y-99092372D01*
X148007372Y-99036994D01*
X148075195Y-98997836D01*
X148150842Y-98977567D01*
X148229158Y-98977567D01*
X148304805Y-98997836D01*
G37*
G36*
X147524805Y-98547836D02*
G01*
X147592628Y-98586994D01*
X147648006Y-98642372D01*
X147687164Y-98710195D01*
X147707433Y-98785842D01*
X147707433Y-98864158D01*
X147687164Y-98939805D01*
X147648006Y-99007628D01*
X147592628Y-99063006D01*
X147524805Y-99102164D01*
X147449158Y-99122433D01*
X147370842Y-99122433D01*
X147295195Y-99102164D01*
X147227372Y-99063006D01*
X147171994Y-99007628D01*
X147132836Y-98939805D01*
X147112567Y-98864158D01*
X147112567Y-98785842D01*
X147132836Y-98710195D01*
X147171994Y-98642372D01*
X147227372Y-98586994D01*
X147295195Y-98547836D01*
X147370842Y-98527567D01*
X147449158Y-98527567D01*
X147524805Y-98547836D01*
G37*
G36*
X148304805Y-98087836D02*
G01*
X148372628Y-98126994D01*
X148428006Y-98182372D01*
X148467164Y-98250195D01*
X148487433Y-98325842D01*
X148487433Y-98404158D01*
X148467164Y-98479805D01*
X148428006Y-98547628D01*
X148372628Y-98603006D01*
X148304805Y-98642164D01*
X148229158Y-98662433D01*
X148150842Y-98662433D01*
X148075195Y-98642164D01*
X148007372Y-98603006D01*
X147951994Y-98547628D01*
X147912836Y-98479805D01*
X147892567Y-98404158D01*
X147892567Y-98325842D01*
X147912836Y-98250195D01*
X147951994Y-98182372D01*
X148007372Y-98126994D01*
X148075195Y-98087836D01*
X148150842Y-98067567D01*
X148229158Y-98067567D01*
X148304805Y-98087836D01*
G37*
G36*
X147524805Y-97647836D02*
G01*
X147592628Y-97686994D01*
X147648006Y-97742372D01*
X147687164Y-97810195D01*
X147707433Y-97885842D01*
X147707433Y-97964158D01*
X147687164Y-98039805D01*
X147648006Y-98107628D01*
X147592628Y-98163006D01*
X147524805Y-98202164D01*
X147449158Y-98222433D01*
X147370842Y-98222433D01*
X147295195Y-98202164D01*
X147227372Y-98163006D01*
X147171994Y-98107628D01*
X147132836Y-98039805D01*
X147112567Y-97964158D01*
X147112567Y-97885842D01*
X147132836Y-97810195D01*
X147171994Y-97742372D01*
X147227372Y-97686994D01*
X147295195Y-97647836D01*
X147370842Y-97627567D01*
X147449158Y-97627567D01*
X147524805Y-97647836D01*
G37*
G36*
X188432228Y-96334448D02*
G01*
X188577117Y-96394463D01*
X188707515Y-96481592D01*
X188818408Y-96592485D01*
X188905537Y-96722883D01*
X188965552Y-96867772D01*
X188996148Y-97021586D01*
X188996148Y-97178414D01*
X188965552Y-97332228D01*
X188905537Y-97477117D01*
X188818408Y-97607515D01*
X188707515Y-97718408D01*
X188577117Y-97805537D01*
X188432228Y-97865552D01*
X188278414Y-97896148D01*
X188121586Y-97896148D01*
X187967772Y-97865552D01*
X187822883Y-97805537D01*
X187692485Y-97718408D01*
X187581592Y-97607515D01*
X187494463Y-97477117D01*
X187434448Y-97332228D01*
X187403852Y-97178414D01*
X187403852Y-97021586D01*
X187434448Y-96867772D01*
X187494463Y-96722883D01*
X187581592Y-96592485D01*
X187692485Y-96481592D01*
X187822883Y-96394463D01*
X187967772Y-96334448D01*
X188121586Y-96303852D01*
X188278414Y-96303852D01*
X188432228Y-96334448D01*
G37*
G36*
X148304805Y-97187836D02*
G01*
X148372628Y-97226994D01*
X148428006Y-97282372D01*
X148467164Y-97350195D01*
X148487433Y-97425842D01*
X148487433Y-97504158D01*
X148467164Y-97579805D01*
X148428006Y-97647628D01*
X148372628Y-97703006D01*
X148304805Y-97742164D01*
X148229158Y-97762433D01*
X148150842Y-97762433D01*
X148075195Y-97742164D01*
X148007372Y-97703006D01*
X147951994Y-97647628D01*
X147912836Y-97579805D01*
X147892567Y-97504158D01*
X147892567Y-97425842D01*
X147912836Y-97350195D01*
X147951994Y-97282372D01*
X148007372Y-97226994D01*
X148075195Y-97187836D01*
X148150842Y-97167567D01*
X148229158Y-97167567D01*
X148304805Y-97187836D01*
G37*
G36*
X147524805Y-96737836D02*
G01*
X147592628Y-96776994D01*
X147648006Y-96832372D01*
X147687164Y-96900195D01*
X147707433Y-96975842D01*
X147707433Y-97054158D01*
X147687164Y-97129805D01*
X147648006Y-97197628D01*
X147592628Y-97253006D01*
X147524805Y-97292164D01*
X147449158Y-97312433D01*
X147370842Y-97312433D01*
X147295195Y-97292164D01*
X147227372Y-97253006D01*
X147171994Y-97197628D01*
X147132836Y-97129805D01*
X147112567Y-97054158D01*
X147112567Y-96975842D01*
X147132836Y-96900195D01*
X147171994Y-96832372D01*
X147227372Y-96776994D01*
X147295195Y-96737836D01*
X147370842Y-96717567D01*
X147449158Y-96717567D01*
X147524805Y-96737836D01*
G37*
G36*
X148304805Y-96297836D02*
G01*
X148372628Y-96336994D01*
X148428006Y-96392372D01*
X148467164Y-96460195D01*
X148487433Y-96535842D01*
X148487433Y-96614158D01*
X148467164Y-96689805D01*
X148428006Y-96757628D01*
X148372628Y-96813006D01*
X148304805Y-96852164D01*
X148229158Y-96872433D01*
X148150842Y-96872433D01*
X148075195Y-96852164D01*
X148007372Y-96813006D01*
X147951994Y-96757628D01*
X147912836Y-96689805D01*
X147892567Y-96614158D01*
X147892567Y-96535842D01*
X147912836Y-96460195D01*
X147951994Y-96392372D01*
X148007372Y-96336994D01*
X148075195Y-96297836D01*
X148150842Y-96277567D01*
X148229158Y-96277567D01*
X148304805Y-96297836D01*
G37*
G36*
X147524805Y-95837836D02*
G01*
X147592628Y-95876994D01*
X147648006Y-95932372D01*
X147687164Y-96000195D01*
X147707433Y-96075842D01*
X147707433Y-96154158D01*
X147687164Y-96229805D01*
X147648006Y-96297628D01*
X147592628Y-96353006D01*
X147524805Y-96392164D01*
X147449158Y-96412433D01*
X147370842Y-96412433D01*
X147295195Y-96392164D01*
X147227372Y-96353006D01*
X147171994Y-96297628D01*
X147132836Y-96229805D01*
X147112567Y-96154158D01*
X147112567Y-96075842D01*
X147132836Y-96000195D01*
X147171994Y-95932372D01*
X147227372Y-95876994D01*
X147295195Y-95837836D01*
X147370842Y-95817567D01*
X147449158Y-95817567D01*
X147524805Y-95837836D01*
G37*
G36*
X148304805Y-95397836D02*
G01*
X148372628Y-95436994D01*
X148428006Y-95492372D01*
X148467164Y-95560195D01*
X148487433Y-95635842D01*
X148487433Y-95714158D01*
X148467164Y-95789805D01*
X148428006Y-95857628D01*
X148372628Y-95913006D01*
X148304805Y-95952164D01*
X148229158Y-95972433D01*
X148150842Y-95972433D01*
X148075195Y-95952164D01*
X148007372Y-95913006D01*
X147951994Y-95857628D01*
X147912836Y-95789805D01*
X147892567Y-95714158D01*
X147892567Y-95635842D01*
X147912836Y-95560195D01*
X147951994Y-95492372D01*
X148007372Y-95436994D01*
X148075195Y-95397836D01*
X148150842Y-95377567D01*
X148229158Y-95377567D01*
X148304805Y-95397836D01*
G37*
G36*
X147524805Y-94947836D02*
G01*
X147592628Y-94986994D01*
X147648006Y-95042372D01*
X147687164Y-95110195D01*
X147707433Y-95185842D01*
X147707433Y-95264158D01*
X147687164Y-95339805D01*
X147648006Y-95407628D01*
X147592628Y-95463006D01*
X147524805Y-95502164D01*
X147449158Y-95522433D01*
X147370842Y-95522433D01*
X147295195Y-95502164D01*
X147227372Y-95463006D01*
X147171994Y-95407628D01*
X147132836Y-95339805D01*
X147112567Y-95264158D01*
X147112567Y-95185842D01*
X147132836Y-95110195D01*
X147171994Y-95042372D01*
X147227372Y-94986994D01*
X147295195Y-94947836D01*
X147370842Y-94927567D01*
X147449158Y-94927567D01*
X147524805Y-94947836D01*
G37*
G36*
X189000000Y-95400000D02*
G01*
X187400000Y-95400000D01*
X187400000Y-93800000D01*
X189000000Y-93800000D01*
X189000000Y-95400000D01*
G37*
G36*
X148304805Y-94487836D02*
G01*
X148372628Y-94526994D01*
X148428006Y-94582372D01*
X148467164Y-94650195D01*
X148487433Y-94725842D01*
X148487433Y-94804158D01*
X148467164Y-94879805D01*
X148428006Y-94947628D01*
X148372628Y-95003006D01*
X148304805Y-95042164D01*
X148229158Y-95062433D01*
X148150842Y-95062433D01*
X148075195Y-95042164D01*
X148007372Y-95003006D01*
X147951994Y-94947628D01*
X147912836Y-94879805D01*
X147892567Y-94804158D01*
X147892567Y-94725842D01*
X147912836Y-94650195D01*
X147951994Y-94582372D01*
X148007372Y-94526994D01*
X148075195Y-94487836D01*
X148150842Y-94467567D01*
X148229158Y-94467567D01*
X148304805Y-94487836D01*
G37*
G36*
X146542208Y-93059254D02*
G01*
X146643943Y-93117991D01*
X146727009Y-93201057D01*
X146785746Y-93302792D01*
X146816150Y-93416263D01*
X146820000Y-93475000D01*
X146820000Y-94475000D01*
X146816150Y-94533737D01*
X146785746Y-94647208D01*
X146727009Y-94748943D01*
X146643943Y-94832009D01*
X146542208Y-94890746D01*
X146428737Y-94921150D01*
X146311263Y-94921150D01*
X146197792Y-94890746D01*
X146096057Y-94832009D01*
X146012991Y-94748943D01*
X145954254Y-94647208D01*
X145923850Y-94533737D01*
X145920000Y-94475000D01*
X145920000Y-93475000D01*
X145923850Y-93416263D01*
X145954254Y-93302792D01*
X146012991Y-93201057D01*
X146096057Y-93117991D01*
X146197792Y-93059254D01*
X146311263Y-93028850D01*
X146428737Y-93028850D01*
X146542208Y-93059254D01*
G37*
G36*
X149402208Y-93059254D02*
G01*
X149503943Y-93117991D01*
X149587009Y-93201057D01*
X149645746Y-93302792D01*
X149676150Y-93416263D01*
X149680000Y-93475000D01*
X149680000Y-94475000D01*
X149676150Y-94533737D01*
X149645746Y-94647208D01*
X149587009Y-94748943D01*
X149503943Y-94832009D01*
X149402208Y-94890746D01*
X149288737Y-94921150D01*
X149171263Y-94921150D01*
X149057792Y-94890746D01*
X148956057Y-94832009D01*
X148872991Y-94748943D01*
X148814254Y-94647208D01*
X148783850Y-94533737D01*
X148780000Y-94475000D01*
X148780000Y-93475000D01*
X148783850Y-93416263D01*
X148814254Y-93302792D01*
X148872991Y-93201057D01*
X148956057Y-93117991D01*
X149057792Y-93059254D01*
X149171263Y-93028850D01*
X149288737Y-93028850D01*
X149402208Y-93059254D01*
G37*
G36*
X147524805Y-94047836D02*
G01*
X147592628Y-94086994D01*
X147648006Y-94142372D01*
X147687164Y-94210195D01*
X147707433Y-94285842D01*
X147707433Y-94364158D01*
X147687164Y-94439805D01*
X147648006Y-94507628D01*
X147592628Y-94563006D01*
X147524805Y-94602164D01*
X147449158Y-94622433D01*
X147370842Y-94622433D01*
X147295195Y-94602164D01*
X147227372Y-94563006D01*
X147171994Y-94507628D01*
X147132836Y-94439805D01*
X147112567Y-94364158D01*
X147112567Y-94285842D01*
X147132836Y-94210195D01*
X147171994Y-94142372D01*
X147227372Y-94086994D01*
X147295195Y-94047836D01*
X147370842Y-94027567D01*
X147449158Y-94027567D01*
X147524805Y-94047836D01*
G37*
G36*
X148304805Y-93597836D02*
G01*
X148372628Y-93636994D01*
X148428006Y-93692372D01*
X148467164Y-93760195D01*
X148487433Y-93835842D01*
X148487433Y-93914158D01*
X148467164Y-93989805D01*
X148428006Y-94057628D01*
X148372628Y-94113006D01*
X148304805Y-94152164D01*
X148229158Y-94172433D01*
X148150842Y-94172433D01*
X148075195Y-94152164D01*
X148007372Y-94113006D01*
X147951994Y-94057628D01*
X147912836Y-93989805D01*
X147892567Y-93914158D01*
X147892567Y-93835842D01*
X147912836Y-93760195D01*
X147951994Y-93692372D01*
X148007372Y-93636994D01*
X148075195Y-93597836D01*
X148150842Y-93577567D01*
X148229158Y-93577567D01*
X148304805Y-93597836D01*
G37*
G36*
X147524805Y-93137836D02*
G01*
X147592628Y-93176994D01*
X147648006Y-93232372D01*
X147687164Y-93300195D01*
X147707433Y-93375842D01*
X147707433Y-93454158D01*
X147687164Y-93529805D01*
X147648006Y-93597628D01*
X147592628Y-93653006D01*
X147524805Y-93692164D01*
X147449158Y-93712433D01*
X147370842Y-93712433D01*
X147295195Y-93692164D01*
X147227372Y-93653006D01*
X147171994Y-93597628D01*
X147132836Y-93529805D01*
X147112567Y-93454158D01*
X147112567Y-93375842D01*
X147132836Y-93300195D01*
X147171994Y-93232372D01*
X147227372Y-93176994D01*
X147295195Y-93137836D01*
X147370842Y-93117567D01*
X147449158Y-93117567D01*
X147524805Y-93137836D01*
G37*
G36*
X186250168Y-90311445D02*
G01*
X186474025Y-90384181D01*
X186683748Y-90491040D01*
X186874172Y-90629391D01*
X187040609Y-90795828D01*
X187178960Y-90986252D01*
X187285819Y-91195975D01*
X187358555Y-91419832D01*
X187395376Y-91652311D01*
X187395376Y-91887689D01*
X187358555Y-92120168D01*
X187285819Y-92344025D01*
X187178960Y-92553748D01*
X187040609Y-92744172D01*
X186874172Y-92910609D01*
X186683748Y-93048960D01*
X186474025Y-93155819D01*
X186250168Y-93228555D01*
X186017689Y-93265376D01*
X185782311Y-93265376D01*
X185549832Y-93228555D01*
X185325975Y-93155819D01*
X185116252Y-93048960D01*
X184925828Y-92910609D01*
X184759391Y-92744172D01*
X184621040Y-92553748D01*
X184514181Y-92344025D01*
X184441445Y-92120168D01*
X184404624Y-91887689D01*
X184404624Y-91652311D01*
X184441445Y-91419832D01*
X184514181Y-91195975D01*
X184621040Y-90986252D01*
X184759391Y-90795828D01*
X184925828Y-90629391D01*
X185116252Y-90491040D01*
X185325975Y-90384181D01*
X185549832Y-90311445D01*
X185782311Y-90274624D01*
X186017689Y-90274624D01*
X186250168Y-90311445D01*
G37*
G36*
X177032228Y-88534448D02*
G01*
X177177117Y-88594463D01*
X177307515Y-88681592D01*
X177418408Y-88792485D01*
X177505537Y-88922883D01*
X177565552Y-89067772D01*
X177596148Y-89221586D01*
X177596148Y-89378414D01*
X177565552Y-89532228D01*
X177505537Y-89677117D01*
X177418408Y-89807515D01*
X177307515Y-89918408D01*
X177177117Y-90005537D01*
X177032228Y-90065552D01*
X176878414Y-90096148D01*
X176721586Y-90096148D01*
X176567772Y-90065552D01*
X176422883Y-90005537D01*
X176292485Y-89918408D01*
X176181592Y-89807515D01*
X176094463Y-89677117D01*
X176034448Y-89532228D01*
X176003852Y-89378414D01*
X176003852Y-89221586D01*
X176034448Y-89067772D01*
X176094463Y-88922883D01*
X176181592Y-88792485D01*
X176292485Y-88681592D01*
X176422883Y-88594463D01*
X176567772Y-88534448D01*
X176721586Y-88503852D01*
X176878414Y-88503852D01*
X177032228Y-88534448D01*
G37*
G36*
X179572228Y-88534448D02*
G01*
X179717117Y-88594463D01*
X179847515Y-88681592D01*
X179958408Y-88792485D01*
X180045537Y-88922883D01*
X180105552Y-89067772D01*
X180136148Y-89221586D01*
X180136148Y-89378414D01*
X180105552Y-89532228D01*
X180045537Y-89677117D01*
X179958408Y-89807515D01*
X179847515Y-89918408D01*
X179717117Y-90005537D01*
X179572228Y-90065552D01*
X179418414Y-90096148D01*
X179261586Y-90096148D01*
X179107772Y-90065552D01*
X178962883Y-90005537D01*
X178832485Y-89918408D01*
X178721592Y-89807515D01*
X178634463Y-89677117D01*
X178574448Y-89532228D01*
X178543852Y-89378414D01*
X178543852Y-89221586D01*
X178574448Y-89067772D01*
X178634463Y-88922883D01*
X178721592Y-88792485D01*
X178832485Y-88681592D01*
X178962883Y-88594463D01*
X179107772Y-88534448D01*
X179261586Y-88503852D01*
X179418414Y-88503852D01*
X179572228Y-88534448D01*
G37*
G36*
X186742208Y-82109254D02*
G01*
X186843943Y-82167991D01*
X186927009Y-82251057D01*
X186985746Y-82352792D01*
X187016150Y-82466263D01*
X187020000Y-82525000D01*
X187020000Y-83525000D01*
X187016150Y-83583737D01*
X186985746Y-83697208D01*
X186927009Y-83798943D01*
X186843943Y-83882009D01*
X186742208Y-83940746D01*
X186628737Y-83971150D01*
X186511263Y-83971150D01*
X186397792Y-83940746D01*
X186296057Y-83882009D01*
X186212991Y-83798943D01*
X186154254Y-83697208D01*
X186123850Y-83583737D01*
X186120000Y-83525000D01*
X186120000Y-82525000D01*
X186123850Y-82466263D01*
X186154254Y-82352792D01*
X186212991Y-82251057D01*
X186296057Y-82167991D01*
X186397792Y-82109254D01*
X186511263Y-82078850D01*
X186628737Y-82078850D01*
X186742208Y-82109254D01*
G37*
G36*
X189602208Y-82109254D02*
G01*
X189703943Y-82167991D01*
X189787009Y-82251057D01*
X189845746Y-82352792D01*
X189876150Y-82466263D01*
X189880000Y-82525000D01*
X189880000Y-83525000D01*
X189876150Y-83583737D01*
X189845746Y-83697208D01*
X189787009Y-83798943D01*
X189703943Y-83882009D01*
X189602208Y-83940746D01*
X189488737Y-83971150D01*
X189371263Y-83971150D01*
X189257792Y-83940746D01*
X189156057Y-83882009D01*
X189072991Y-83798943D01*
X189014254Y-83697208D01*
X188983850Y-83583737D01*
X188980000Y-83525000D01*
X188980000Y-82525000D01*
X188983850Y-82466263D01*
X189014254Y-82352792D01*
X189072991Y-82251057D01*
X189156057Y-82167991D01*
X189257792Y-82109254D01*
X189371263Y-82078850D01*
X189488737Y-82078850D01*
X189602208Y-82109254D01*
G37*
G36*
X188504805Y-83307836D02*
G01*
X188572628Y-83346994D01*
X188628006Y-83402372D01*
X188667164Y-83470195D01*
X188687433Y-83545842D01*
X188687433Y-83624158D01*
X188667164Y-83699805D01*
X188628006Y-83767628D01*
X188572628Y-83823006D01*
X188504805Y-83862164D01*
X188429158Y-83882433D01*
X188350842Y-83882433D01*
X188275195Y-83862164D01*
X188207372Y-83823006D01*
X188151994Y-83767628D01*
X188112836Y-83699805D01*
X188092567Y-83624158D01*
X188092567Y-83545842D01*
X188112836Y-83470195D01*
X188151994Y-83402372D01*
X188207372Y-83346994D01*
X188275195Y-83307836D01*
X188350842Y-83287567D01*
X188429158Y-83287567D01*
X188504805Y-83307836D01*
G37*
G36*
X187724805Y-82847836D02*
G01*
X187792628Y-82886994D01*
X187848006Y-82942372D01*
X187887164Y-83010195D01*
X187907433Y-83085842D01*
X187907433Y-83164158D01*
X187887164Y-83239805D01*
X187848006Y-83307628D01*
X187792628Y-83363006D01*
X187724805Y-83402164D01*
X187649158Y-83422433D01*
X187570842Y-83422433D01*
X187495195Y-83402164D01*
X187427372Y-83363006D01*
X187371994Y-83307628D01*
X187332836Y-83239805D01*
X187312567Y-83164158D01*
X187312567Y-83085842D01*
X187332836Y-83010195D01*
X187371994Y-82942372D01*
X187427372Y-82886994D01*
X187495195Y-82847836D01*
X187570842Y-82827567D01*
X187649158Y-82827567D01*
X187724805Y-82847836D01*
G37*
G36*
X188504805Y-82397836D02*
G01*
X188572628Y-82436994D01*
X188628006Y-82492372D01*
X188667164Y-82560195D01*
X188687433Y-82635842D01*
X188687433Y-82714158D01*
X188667164Y-82789805D01*
X188628006Y-82857628D01*
X188572628Y-82913006D01*
X188504805Y-82952164D01*
X188429158Y-82972433D01*
X188350842Y-82972433D01*
X188275195Y-82952164D01*
X188207372Y-82913006D01*
X188151994Y-82857628D01*
X188112836Y-82789805D01*
X188092567Y-82714158D01*
X188092567Y-82635842D01*
X188112836Y-82560195D01*
X188151994Y-82492372D01*
X188207372Y-82436994D01*
X188275195Y-82397836D01*
X188350842Y-82377567D01*
X188429158Y-82377567D01*
X188504805Y-82397836D01*
G37*
G36*
X187724805Y-81957836D02*
G01*
X187792628Y-81996994D01*
X187848006Y-82052372D01*
X187887164Y-82120195D01*
X187907433Y-82195842D01*
X187907433Y-82274158D01*
X187887164Y-82349805D01*
X187848006Y-82417628D01*
X187792628Y-82473006D01*
X187724805Y-82512164D01*
X187649158Y-82532433D01*
X187570842Y-82532433D01*
X187495195Y-82512164D01*
X187427372Y-82473006D01*
X187371994Y-82417628D01*
X187332836Y-82349805D01*
X187312567Y-82274158D01*
X187312567Y-82195842D01*
X187332836Y-82120195D01*
X187371994Y-82052372D01*
X187427372Y-81996994D01*
X187495195Y-81957836D01*
X187570842Y-81937567D01*
X187649158Y-81937567D01*
X187724805Y-81957836D01*
G37*
G36*
X188504805Y-81497836D02*
G01*
X188572628Y-81536994D01*
X188628006Y-81592372D01*
X188667164Y-81660195D01*
X188687433Y-81735842D01*
X188687433Y-81814158D01*
X188667164Y-81889805D01*
X188628006Y-81957628D01*
X188572628Y-82013006D01*
X188504805Y-82052164D01*
X188429158Y-82072433D01*
X188350842Y-82072433D01*
X188275195Y-82052164D01*
X188207372Y-82013006D01*
X188151994Y-81957628D01*
X188112836Y-81889805D01*
X188092567Y-81814158D01*
X188092567Y-81735842D01*
X188112836Y-81660195D01*
X188151994Y-81592372D01*
X188207372Y-81536994D01*
X188275195Y-81497836D01*
X188350842Y-81477567D01*
X188429158Y-81477567D01*
X188504805Y-81497836D01*
G37*
G36*
X187724805Y-81047836D02*
G01*
X187792628Y-81086994D01*
X187848006Y-81142372D01*
X187887164Y-81210195D01*
X187907433Y-81285842D01*
X187907433Y-81364158D01*
X187887164Y-81439805D01*
X187848006Y-81507628D01*
X187792628Y-81563006D01*
X187724805Y-81602164D01*
X187649158Y-81622433D01*
X187570842Y-81622433D01*
X187495195Y-81602164D01*
X187427372Y-81563006D01*
X187371994Y-81507628D01*
X187332836Y-81439805D01*
X187312567Y-81364158D01*
X187312567Y-81285842D01*
X187332836Y-81210195D01*
X187371994Y-81142372D01*
X187427372Y-81086994D01*
X187495195Y-81047836D01*
X187570842Y-81027567D01*
X187649158Y-81027567D01*
X187724805Y-81047836D01*
G37*
G36*
X144630000Y-81550000D02*
G01*
X142930000Y-81550000D01*
X142930000Y-79850000D01*
X144630000Y-79850000D01*
X144630000Y-81550000D01*
G37*
G36*
X146566742Y-79886601D02*
G01*
X146720687Y-79950367D01*
X146859234Y-80042941D01*
X146977059Y-80160766D01*
X147069633Y-80299313D01*
X147133399Y-80453258D01*
X147165907Y-80616685D01*
X147165907Y-80783315D01*
X147133399Y-80946742D01*
X147069633Y-81100687D01*
X146977059Y-81239234D01*
X146859234Y-81357059D01*
X146720687Y-81449633D01*
X146566742Y-81513399D01*
X146403315Y-81545907D01*
X146236685Y-81545907D01*
X146073258Y-81513399D01*
X145919313Y-81449633D01*
X145780766Y-81357059D01*
X145662941Y-81239234D01*
X145570367Y-81100687D01*
X145506601Y-80946742D01*
X145474093Y-80783315D01*
X145474093Y-80616685D01*
X145506601Y-80453258D01*
X145570367Y-80299313D01*
X145662941Y-80160766D01*
X145780766Y-80042941D01*
X145919313Y-79950367D01*
X146073258Y-79886601D01*
X146236685Y-79854093D01*
X146403315Y-79854093D01*
X146566742Y-79886601D01*
G37*
G36*
X149106742Y-79886601D02*
G01*
X149260687Y-79950367D01*
X149399234Y-80042941D01*
X149517059Y-80160766D01*
X149609633Y-80299313D01*
X149673399Y-80453258D01*
X149705907Y-80616685D01*
X149705907Y-80783315D01*
X149673399Y-80946742D01*
X149609633Y-81100687D01*
X149517059Y-81239234D01*
X149399234Y-81357059D01*
X149260687Y-81449633D01*
X149106742Y-81513399D01*
X148943315Y-81545907D01*
X148776685Y-81545907D01*
X148613258Y-81513399D01*
X148459313Y-81449633D01*
X148320766Y-81357059D01*
X148202941Y-81239234D01*
X148110367Y-81100687D01*
X148046601Y-80946742D01*
X148014093Y-80783315D01*
X148014093Y-80616685D01*
X148046601Y-80453258D01*
X148110367Y-80299313D01*
X148202941Y-80160766D01*
X148320766Y-80042941D01*
X148459313Y-79950367D01*
X148613258Y-79886601D01*
X148776685Y-79854093D01*
X148943315Y-79854093D01*
X149106742Y-79886601D01*
G37*
G36*
X151646742Y-79886601D02*
G01*
X151800687Y-79950367D01*
X151939234Y-80042941D01*
X152057059Y-80160766D01*
X152149633Y-80299313D01*
X152213399Y-80453258D01*
X152245907Y-80616685D01*
X152245907Y-80783315D01*
X152213399Y-80946742D01*
X152149633Y-81100687D01*
X152057059Y-81239234D01*
X151939234Y-81357059D01*
X151800687Y-81449633D01*
X151646742Y-81513399D01*
X151483315Y-81545907D01*
X151316685Y-81545907D01*
X151153258Y-81513399D01*
X150999313Y-81449633D01*
X150860766Y-81357059D01*
X150742941Y-81239234D01*
X150650367Y-81100687D01*
X150586601Y-80946742D01*
X150554093Y-80783315D01*
X150554093Y-80616685D01*
X150586601Y-80453258D01*
X150650367Y-80299313D01*
X150742941Y-80160766D01*
X150860766Y-80042941D01*
X150999313Y-79950367D01*
X151153258Y-79886601D01*
X151316685Y-79854093D01*
X151483315Y-79854093D01*
X151646742Y-79886601D01*
G37*
G36*
X188504805Y-80607836D02*
G01*
X188572628Y-80646994D01*
X188628006Y-80702372D01*
X188667164Y-80770195D01*
X188687433Y-80845842D01*
X188687433Y-80924158D01*
X188667164Y-80999805D01*
X188628006Y-81067628D01*
X188572628Y-81123006D01*
X188504805Y-81162164D01*
X188429158Y-81182433D01*
X188350842Y-81182433D01*
X188275195Y-81162164D01*
X188207372Y-81123006D01*
X188151994Y-81067628D01*
X188112836Y-80999805D01*
X188092567Y-80924158D01*
X188092567Y-80845842D01*
X188112836Y-80770195D01*
X188151994Y-80702372D01*
X188207372Y-80646994D01*
X188275195Y-80607836D01*
X188350842Y-80587567D01*
X188429158Y-80587567D01*
X188504805Y-80607836D01*
G37*
G36*
X187724805Y-80147836D02*
G01*
X187792628Y-80186994D01*
X187848006Y-80242372D01*
X187887164Y-80310195D01*
X187907433Y-80385842D01*
X187907433Y-80464158D01*
X187887164Y-80539805D01*
X187848006Y-80607628D01*
X187792628Y-80663006D01*
X187724805Y-80702164D01*
X187649158Y-80722433D01*
X187570842Y-80722433D01*
X187495195Y-80702164D01*
X187427372Y-80663006D01*
X187371994Y-80607628D01*
X187332836Y-80539805D01*
X187312567Y-80464158D01*
X187312567Y-80385842D01*
X187332836Y-80310195D01*
X187371994Y-80242372D01*
X187427372Y-80186994D01*
X187495195Y-80147836D01*
X187570842Y-80127567D01*
X187649158Y-80127567D01*
X187724805Y-80147836D01*
G37*
G36*
X188504805Y-79707836D02*
G01*
X188572628Y-79746994D01*
X188628006Y-79802372D01*
X188667164Y-79870195D01*
X188687433Y-79945842D01*
X188687433Y-80024158D01*
X188667164Y-80099805D01*
X188628006Y-80167628D01*
X188572628Y-80223006D01*
X188504805Y-80262164D01*
X188429158Y-80282433D01*
X188350842Y-80282433D01*
X188275195Y-80262164D01*
X188207372Y-80223006D01*
X188151994Y-80167628D01*
X188112836Y-80099805D01*
X188092567Y-80024158D01*
X188092567Y-79945842D01*
X188112836Y-79870195D01*
X188151994Y-79802372D01*
X188207372Y-79746994D01*
X188275195Y-79707836D01*
X188350842Y-79687567D01*
X188429158Y-79687567D01*
X188504805Y-79707836D01*
G37*
G36*
X187724805Y-79257836D02*
G01*
X187792628Y-79296994D01*
X187848006Y-79352372D01*
X187887164Y-79420195D01*
X187907433Y-79495842D01*
X187907433Y-79574158D01*
X187887164Y-79649805D01*
X187848006Y-79717628D01*
X187792628Y-79773006D01*
X187724805Y-79812164D01*
X187649158Y-79832433D01*
X187570842Y-79832433D01*
X187495195Y-79812164D01*
X187427372Y-79773006D01*
X187371994Y-79717628D01*
X187332836Y-79649805D01*
X187312567Y-79574158D01*
X187312567Y-79495842D01*
X187332836Y-79420195D01*
X187371994Y-79352372D01*
X187427372Y-79296994D01*
X187495195Y-79257836D01*
X187570842Y-79237567D01*
X187649158Y-79237567D01*
X187724805Y-79257836D01*
G37*
G36*
X188504805Y-78797836D02*
G01*
X188572628Y-78836994D01*
X188628006Y-78892372D01*
X188667164Y-78960195D01*
X188687433Y-79035842D01*
X188687433Y-79114158D01*
X188667164Y-79189805D01*
X188628006Y-79257628D01*
X188572628Y-79313006D01*
X188504805Y-79352164D01*
X188429158Y-79372433D01*
X188350842Y-79372433D01*
X188275195Y-79352164D01*
X188207372Y-79313006D01*
X188151994Y-79257628D01*
X188112836Y-79189805D01*
X188092567Y-79114158D01*
X188092567Y-79035842D01*
X188112836Y-78960195D01*
X188151994Y-78892372D01*
X188207372Y-78836994D01*
X188275195Y-78797836D01*
X188350842Y-78777567D01*
X188429158Y-78777567D01*
X188504805Y-78797836D01*
G37*
G36*
X186742208Y-77319254D02*
G01*
X186843943Y-77377991D01*
X186927009Y-77461057D01*
X186985746Y-77562792D01*
X187016150Y-77676263D01*
X187020000Y-77735000D01*
X187020000Y-78735000D01*
X187016150Y-78793737D01*
X186985746Y-78907208D01*
X186927009Y-79008943D01*
X186843943Y-79092009D01*
X186742208Y-79150746D01*
X186628737Y-79181150D01*
X186511263Y-79181150D01*
X186397792Y-79150746D01*
X186296057Y-79092009D01*
X186212991Y-79008943D01*
X186154254Y-78907208D01*
X186123850Y-78793737D01*
X186120000Y-78735000D01*
X186120000Y-77735000D01*
X186123850Y-77676263D01*
X186154254Y-77562792D01*
X186212991Y-77461057D01*
X186296057Y-77377991D01*
X186397792Y-77319254D01*
X186511263Y-77288850D01*
X186628737Y-77288850D01*
X186742208Y-77319254D01*
G37*
G36*
X189602208Y-77319254D02*
G01*
X189703943Y-77377991D01*
X189787009Y-77461057D01*
X189845746Y-77562792D01*
X189876150Y-77676263D01*
X189880000Y-77735000D01*
X189880000Y-78735000D01*
X189876150Y-78793737D01*
X189845746Y-78907208D01*
X189787009Y-79008943D01*
X189703943Y-79092009D01*
X189602208Y-79150746D01*
X189488737Y-79181150D01*
X189371263Y-79181150D01*
X189257792Y-79150746D01*
X189156057Y-79092009D01*
X189072991Y-79008943D01*
X189014254Y-78907208D01*
X188983850Y-78793737D01*
X188980000Y-78735000D01*
X188980000Y-77735000D01*
X188983850Y-77676263D01*
X189014254Y-77562792D01*
X189072991Y-77461057D01*
X189156057Y-77377991D01*
X189257792Y-77319254D01*
X189371263Y-77288850D01*
X189488737Y-77288850D01*
X189602208Y-77319254D01*
G37*
G36*
X187724805Y-78357836D02*
G01*
X187792628Y-78396994D01*
X187848006Y-78452372D01*
X187887164Y-78520195D01*
X187907433Y-78595842D01*
X187907433Y-78674158D01*
X187887164Y-78749805D01*
X187848006Y-78817628D01*
X187792628Y-78873006D01*
X187724805Y-78912164D01*
X187649158Y-78932433D01*
X187570842Y-78932433D01*
X187495195Y-78912164D01*
X187427372Y-78873006D01*
X187371994Y-78817628D01*
X187332836Y-78749805D01*
X187312567Y-78674158D01*
X187312567Y-78595842D01*
X187332836Y-78520195D01*
X187371994Y-78452372D01*
X187427372Y-78396994D01*
X187495195Y-78357836D01*
X187570842Y-78337567D01*
X187649158Y-78337567D01*
X187724805Y-78357836D01*
G37*
G36*
X159200000Y-78600000D02*
G01*
X157400000Y-78600000D01*
X157400000Y-76800000D01*
X159200000Y-76800000D01*
X159200000Y-78600000D01*
G37*
G36*
X167400000Y-78600000D02*
G01*
X165600000Y-78600000D01*
X165600000Y-76800000D01*
X167400000Y-76800000D01*
X167400000Y-78600000D01*
G37*
G36*
X188504805Y-77897836D02*
G01*
X188572628Y-77936994D01*
X188628006Y-77992372D01*
X188667164Y-78060195D01*
X188687433Y-78135842D01*
X188687433Y-78214158D01*
X188667164Y-78289805D01*
X188628006Y-78357628D01*
X188572628Y-78413006D01*
X188504805Y-78452164D01*
X188429158Y-78472433D01*
X188350842Y-78472433D01*
X188275195Y-78452164D01*
X188207372Y-78413006D01*
X188151994Y-78357628D01*
X188112836Y-78289805D01*
X188092567Y-78214158D01*
X188092567Y-78135842D01*
X188112836Y-78060195D01*
X188151994Y-77992372D01*
X188207372Y-77936994D01*
X188275195Y-77897836D01*
X188350842Y-77877567D01*
X188429158Y-77877567D01*
X188504805Y-77897836D01*
G37*
G36*
X139035000Y-78090000D02*
G01*
X137335000Y-78090000D01*
X137335000Y-76390000D01*
X139035000Y-76390000D01*
X139035000Y-78090000D01*
G37*
G36*
X187724805Y-77447836D02*
G01*
X187792628Y-77486994D01*
X187848006Y-77542372D01*
X187887164Y-77610195D01*
X187907433Y-77685842D01*
X187907433Y-77764158D01*
X187887164Y-77839805D01*
X187848006Y-77907628D01*
X187792628Y-77963006D01*
X187724805Y-78002164D01*
X187649158Y-78022433D01*
X187570842Y-78022433D01*
X187495195Y-78002164D01*
X187427372Y-77963006D01*
X187371994Y-77907628D01*
X187332836Y-77839805D01*
X187312567Y-77764158D01*
X187312567Y-77685842D01*
X187332836Y-77610195D01*
X187371994Y-77542372D01*
X187427372Y-77486994D01*
X187495195Y-77447836D01*
X187570842Y-77427567D01*
X187649158Y-77427567D01*
X187724805Y-77447836D01*
G37*
G36*
X158561256Y-74298754D02*
G01*
X158724257Y-74366271D01*
X158870954Y-74464291D01*
X158995709Y-74589046D01*
X159093729Y-74735743D01*
X159161246Y-74898744D01*
X159195666Y-75071785D01*
X159195666Y-75248215D01*
X159161246Y-75421256D01*
X159093729Y-75584257D01*
X158995709Y-75730954D01*
X158870954Y-75855709D01*
X158724257Y-75953729D01*
X158561256Y-76021246D01*
X158388215Y-76055666D01*
X158211785Y-76055666D01*
X158038744Y-76021246D01*
X157875743Y-75953729D01*
X157729046Y-75855709D01*
X157604291Y-75730954D01*
X157506271Y-75584257D01*
X157438754Y-75421256D01*
X157404334Y-75248215D01*
X157404334Y-75071785D01*
X157438754Y-74898744D01*
X157506271Y-74735743D01*
X157604291Y-74589046D01*
X157729046Y-74464291D01*
X157875743Y-74366271D01*
X158038744Y-74298754D01*
X158211785Y-74264334D01*
X158388215Y-74264334D01*
X158561256Y-74298754D01*
G37*
G36*
X166761256Y-74298754D02*
G01*
X166924257Y-74366271D01*
X167070954Y-74464291D01*
X167195709Y-74589046D01*
X167293729Y-74735743D01*
X167361246Y-74898744D01*
X167395666Y-75071785D01*
X167395666Y-75248215D01*
X167361246Y-75421256D01*
X167293729Y-75584257D01*
X167195709Y-75730954D01*
X167070954Y-75855709D01*
X166924257Y-75953729D01*
X166761256Y-76021246D01*
X166588215Y-76055666D01*
X166411785Y-76055666D01*
X166238744Y-76021246D01*
X166075743Y-75953729D01*
X165929046Y-75855709D01*
X165804291Y-75730954D01*
X165706271Y-75584257D01*
X165638754Y-75421256D01*
X165604334Y-75248215D01*
X165604334Y-75071785D01*
X165638754Y-74898744D01*
X165706271Y-74735743D01*
X165804291Y-74589046D01*
X165929046Y-74464291D01*
X166075743Y-74366271D01*
X166238744Y-74298754D01*
X166411785Y-74264334D01*
X166588215Y-74264334D01*
X166761256Y-74298754D01*
G37*
G36*
X138431742Y-73886601D02*
G01*
X138585687Y-73950367D01*
X138724234Y-74042941D01*
X138842059Y-74160766D01*
X138934633Y-74299313D01*
X138998399Y-74453258D01*
X139030907Y-74616685D01*
X139030907Y-74783315D01*
X138998399Y-74946742D01*
X138934633Y-75100687D01*
X138842059Y-75239234D01*
X138724234Y-75357059D01*
X138585687Y-75449633D01*
X138431742Y-75513399D01*
X138268315Y-75545907D01*
X138101685Y-75545907D01*
X137938258Y-75513399D01*
X137784313Y-75449633D01*
X137645766Y-75357059D01*
X137527941Y-75239234D01*
X137435367Y-75100687D01*
X137371601Y-74946742D01*
X137339093Y-74783315D01*
X137339093Y-74616685D01*
X137371601Y-74453258D01*
X137435367Y-74299313D01*
X137527941Y-74160766D01*
X137645766Y-74042941D01*
X137784313Y-73950367D01*
X137938258Y-73886601D01*
X138101685Y-73854093D01*
X138268315Y-73854093D01*
X138431742Y-73886601D01*
G37*
G36*
X138431742Y-71346601D02*
G01*
X138585687Y-71410367D01*
X138724234Y-71502941D01*
X138842059Y-71620766D01*
X138934633Y-71759313D01*
X138998399Y-71913258D01*
X139030907Y-72076685D01*
X139030907Y-72243315D01*
X138998399Y-72406742D01*
X138934633Y-72560687D01*
X138842059Y-72699234D01*
X138724234Y-72817059D01*
X138585687Y-72909633D01*
X138431742Y-72973399D01*
X138268315Y-73005907D01*
X138101685Y-73005907D01*
X137938258Y-72973399D01*
X137784313Y-72909633D01*
X137645766Y-72817059D01*
X137527941Y-72699234D01*
X137435367Y-72560687D01*
X137371601Y-72406742D01*
X137339093Y-72243315D01*
X137339093Y-72076685D01*
X137371601Y-71913258D01*
X137435367Y-71759313D01*
X137527941Y-71620766D01*
X137645766Y-71502941D01*
X137784313Y-71410367D01*
X137938258Y-71346601D01*
X138101685Y-71314093D01*
X138268315Y-71314093D01*
X138431742Y-71346601D01*
G37*
M02*
