%TF.GenerationSoftware,KiCad,Pcbnew,9.0.7*%
%TF.CreationDate,2026-02-22T18:01:21-05:00*%
%TF.ProjectId,mini-dyno,6d696e69-2d64-4796-9e6f-2e6b69636164,rev?*%
%TF.SameCoordinates,Original*%
%TF.FileFunction,Soldermask,Top*%
%TF.FilePolarity,Negative*%
%FSLAX46Y46*%
G04 Gerber Fmt 4.6, Leading zero omitted, Abs format (unit mm)*
G04 Created by KiCad (PCBNEW 9.0.7) date 2026-02-22 18:01:21*
%MOMM*%
%LPD*%
G01*
G04 APERTURE LIST*
G04 APERTURE END LIST*
G36*
X156950000Y-106400000D02*
G01*
X156250000Y-106400000D01*
X156250000Y-105700000D01*
X156950000Y-105700000D01*
X156950000Y-106400000D01*
G37*
G36*
X157950000Y-106400000D02*
G01*
X157550000Y-106400000D01*
X157550000Y-105600000D01*
X157950000Y-105600000D01*
X157950000Y-106400000D01*
G37*
G36*
X158750000Y-106400000D02*
G01*
X158350000Y-106400000D01*
X158350000Y-105600000D01*
X158750000Y-105600000D01*
X158750000Y-106400000D01*
G37*
G36*
X159550000Y-106400000D02*
G01*
X159150000Y-106400000D01*
X159150000Y-105600000D01*
X159550000Y-105600000D01*
X159550000Y-106400000D01*
G37*
G36*
X160350000Y-106400000D02*
G01*
X159950000Y-106400000D01*
X159950000Y-105600000D01*
X160350000Y-105600000D01*
X160350000Y-106400000D01*
G37*
G36*
X161150000Y-106400000D02*
G01*
X160750000Y-106400000D01*
X160750000Y-105600000D01*
X161150000Y-105600000D01*
X161150000Y-106400000D01*
G37*
G36*
X161950000Y-106400000D02*
G01*
X161550000Y-106400000D01*
X161550000Y-105600000D01*
X161950000Y-105600000D01*
X161950000Y-106400000D01*
G37*
G36*
X162750000Y-106400000D02*
G01*
X162350000Y-106400000D01*
X162350000Y-105600000D01*
X162750000Y-105600000D01*
X162750000Y-106400000D01*
G37*
G36*
X163550000Y-106400000D02*
G01*
X163150000Y-106400000D01*
X163150000Y-105600000D01*
X163550000Y-105600000D01*
X163550000Y-106400000D01*
G37*
G36*
X164350000Y-106400000D02*
G01*
X163950000Y-106400000D01*
X163950000Y-105600000D01*
X164350000Y-105600000D01*
X164350000Y-106400000D01*
G37*
G36*
X165150000Y-106400000D02*
G01*
X164750000Y-106400000D01*
X164750000Y-105600000D01*
X165150000Y-105600000D01*
X165150000Y-106400000D01*
G37*
G36*
X165950000Y-106400000D02*
G01*
X165550000Y-106400000D01*
X165550000Y-105600000D01*
X165950000Y-105600000D01*
X165950000Y-106400000D01*
G37*
G36*
X166750000Y-106400000D02*
G01*
X166350000Y-106400000D01*
X166350000Y-105600000D01*
X166750000Y-105600000D01*
X166750000Y-106400000D01*
G37*
G36*
X167550000Y-106400000D02*
G01*
X167150000Y-106400000D01*
X167150000Y-105600000D01*
X167550000Y-105600000D01*
X167550000Y-106400000D01*
G37*
G36*
X168850000Y-106400000D02*
G01*
X168150000Y-106400000D01*
X168150000Y-105700000D01*
X168850000Y-105700000D01*
X168850000Y-106400000D01*
G37*
G36*
X186250168Y-103111445D02*
G01*
X186474025Y-103184181D01*
X186683748Y-103291040D01*
X186874172Y-103429391D01*
X187040609Y-103595828D01*
X187178960Y-103786252D01*
X187285819Y-103995975D01*
X187358555Y-104219832D01*
X187395376Y-104452311D01*
X187395376Y-104687689D01*
X187358555Y-104920168D01*
X187285819Y-105144025D01*
X187178960Y-105353748D01*
X187040609Y-105544172D01*
X186874172Y-105710609D01*
X186683748Y-105848960D01*
X186474025Y-105955819D01*
X186250168Y-106028555D01*
X186017689Y-106065376D01*
X185782311Y-106065376D01*
X185549832Y-106028555D01*
X185325975Y-105955819D01*
X185116252Y-105848960D01*
X184925828Y-105710609D01*
X184759391Y-105544172D01*
X184621040Y-105353748D01*
X184514181Y-105144025D01*
X184441445Y-104920168D01*
X184404624Y-104687689D01*
X184404624Y-104452311D01*
X184441445Y-104219832D01*
X184514181Y-103995975D01*
X184621040Y-103786252D01*
X184759391Y-103595828D01*
X184925828Y-103429391D01*
X185116252Y-103291040D01*
X185325975Y-103184181D01*
X185549832Y-103111445D01*
X185782311Y-103074624D01*
X186017689Y-103074624D01*
X186250168Y-103111445D01*
G37*
G36*
X144354850Y-104413464D02*
G01*
X144405040Y-104419287D01*
X144422189Y-104426859D01*
X144445671Y-104431530D01*
X144470810Y-104448327D01*
X144490696Y-104457108D01*
X144504277Y-104470689D01*
X144526777Y-104485723D01*
X144541810Y-104508222D01*
X144555391Y-104521803D01*
X144564170Y-104541686D01*
X144580970Y-104566829D01*
X144585641Y-104590312D01*
X144593212Y-104607459D01*
X144599033Y-104657639D01*
X144600000Y-104662500D01*
X144600000Y-105187500D01*
X144599032Y-105192363D01*
X144593212Y-105242540D01*
X144585641Y-105259685D01*
X144580970Y-105283171D01*
X144564169Y-105308315D01*
X144555391Y-105328196D01*
X144541812Y-105341774D01*
X144526777Y-105364277D01*
X144504274Y-105379312D01*
X144490696Y-105392891D01*
X144470815Y-105401669D01*
X144445671Y-105418470D01*
X144422185Y-105423141D01*
X144405040Y-105430712D01*
X144354861Y-105436532D01*
X144350000Y-105437500D01*
X143450000Y-105437500D01*
X143445138Y-105436532D01*
X143394959Y-105430712D01*
X143377812Y-105423141D01*
X143354329Y-105418470D01*
X143329186Y-105401670D01*
X143309303Y-105392891D01*
X143295722Y-105379310D01*
X143273223Y-105364277D01*
X143258189Y-105341777D01*
X143244608Y-105328196D01*
X143235827Y-105308310D01*
X143219030Y-105283171D01*
X143214359Y-105259689D01*
X143206787Y-105242540D01*
X143200964Y-105192349D01*
X143200000Y-105187500D01*
X143200000Y-104662500D01*
X143200964Y-104657650D01*
X143206787Y-104607459D01*
X143214359Y-104590308D01*
X143219030Y-104566829D01*
X143235826Y-104541691D01*
X143244608Y-104521803D01*
X143258191Y-104508219D01*
X143273223Y-104485723D01*
X143295719Y-104470691D01*
X143309303Y-104457108D01*
X143329191Y-104448326D01*
X143354329Y-104431530D01*
X143377808Y-104426859D01*
X143394959Y-104419287D01*
X143445151Y-104413464D01*
X143450000Y-104412500D01*
X144350000Y-104412500D01*
X144354850Y-104413464D01*
G37*
G36*
X152854850Y-104413464D02*
G01*
X152905040Y-104419287D01*
X152922189Y-104426859D01*
X152945671Y-104431530D01*
X152970810Y-104448327D01*
X152990696Y-104457108D01*
X153004277Y-104470689D01*
X153026777Y-104485723D01*
X153041810Y-104508222D01*
X153055391Y-104521803D01*
X153064170Y-104541686D01*
X153080970Y-104566829D01*
X153085641Y-104590312D01*
X153093212Y-104607459D01*
X153099033Y-104657639D01*
X153100000Y-104662500D01*
X153100000Y-105187500D01*
X153099032Y-105192363D01*
X153093212Y-105242540D01*
X153085641Y-105259685D01*
X153080970Y-105283171D01*
X153064169Y-105308315D01*
X153055391Y-105328196D01*
X153041812Y-105341774D01*
X153026777Y-105364277D01*
X153004274Y-105379312D01*
X152990696Y-105392891D01*
X152970815Y-105401669D01*
X152945671Y-105418470D01*
X152922185Y-105423141D01*
X152905040Y-105430712D01*
X152854861Y-105436532D01*
X152850000Y-105437500D01*
X151950000Y-105437500D01*
X151945138Y-105436532D01*
X151894959Y-105430712D01*
X151877812Y-105423141D01*
X151854329Y-105418470D01*
X151829186Y-105401670D01*
X151809303Y-105392891D01*
X151795722Y-105379310D01*
X151773223Y-105364277D01*
X151758189Y-105341777D01*
X151744608Y-105328196D01*
X151735827Y-105308310D01*
X151719030Y-105283171D01*
X151714359Y-105259689D01*
X151706787Y-105242540D01*
X151700964Y-105192349D01*
X151700000Y-105187500D01*
X151700000Y-104662500D01*
X151700964Y-104657650D01*
X151706787Y-104607459D01*
X151714359Y-104590308D01*
X151719030Y-104566829D01*
X151735826Y-104541691D01*
X151744608Y-104521803D01*
X151758191Y-104508219D01*
X151773223Y-104485723D01*
X151795719Y-104470691D01*
X151809303Y-104457108D01*
X151829191Y-104448326D01*
X151854329Y-104431530D01*
X151877808Y-104426859D01*
X151894959Y-104419287D01*
X151945151Y-104413464D01*
X151950000Y-104412500D01*
X152850000Y-104412500D01*
X152854850Y-104413464D01*
G37*
G36*
X157050000Y-105300000D02*
G01*
X156250000Y-105300000D01*
X156250000Y-104900000D01*
X157050000Y-104900000D01*
X157050000Y-105300000D01*
G37*
G36*
X168850000Y-105300000D02*
G01*
X168050000Y-105300000D01*
X168050000Y-104900000D01*
X168850000Y-104900000D01*
X168850000Y-105300000D01*
G37*
G36*
X157050000Y-104500000D02*
G01*
X156250000Y-104500000D01*
X156250000Y-104100000D01*
X157050000Y-104100000D01*
X157050000Y-104500000D01*
G37*
G36*
X168850000Y-104500000D02*
G01*
X168050000Y-104500000D01*
X168050000Y-104100000D01*
X168850000Y-104100000D01*
X168850000Y-104500000D01*
G37*
G36*
X131604850Y-101900964D02*
G01*
X131655040Y-101906787D01*
X131672189Y-101914359D01*
X131695671Y-101919030D01*
X131720810Y-101935827D01*
X131740696Y-101944608D01*
X131754277Y-101958189D01*
X131776777Y-101973223D01*
X131791810Y-101995722D01*
X131805391Y-102009303D01*
X131814170Y-102029186D01*
X131830970Y-102054329D01*
X131835641Y-102077812D01*
X131843212Y-102094959D01*
X131849033Y-102145139D01*
X131850000Y-102150000D01*
X131850000Y-103750000D01*
X131849032Y-103754863D01*
X131843212Y-103805040D01*
X131835641Y-103822185D01*
X131830970Y-103845671D01*
X131814169Y-103870815D01*
X131805391Y-103890696D01*
X131791812Y-103904274D01*
X131776777Y-103926777D01*
X131754274Y-103941812D01*
X131740696Y-103955391D01*
X131720815Y-103964169D01*
X131695671Y-103980970D01*
X131672185Y-103985641D01*
X131655040Y-103993212D01*
X131604861Y-103999032D01*
X131600000Y-104000000D01*
X130700000Y-104000000D01*
X130695138Y-103999032D01*
X130644959Y-103993212D01*
X130627812Y-103985641D01*
X130604329Y-103980970D01*
X130579186Y-103964170D01*
X130559303Y-103955391D01*
X130545722Y-103941810D01*
X130523223Y-103926777D01*
X130508189Y-103904277D01*
X130494608Y-103890696D01*
X130485827Y-103870810D01*
X130469030Y-103845671D01*
X130464359Y-103822189D01*
X130456787Y-103805040D01*
X130450964Y-103754849D01*
X130450000Y-103750000D01*
X130450000Y-102150000D01*
X130450964Y-102145150D01*
X130456787Y-102094959D01*
X130464359Y-102077808D01*
X130469030Y-102054329D01*
X130485826Y-102029191D01*
X130494608Y-102009303D01*
X130508191Y-101995719D01*
X130523223Y-101973223D01*
X130545719Y-101958191D01*
X130559303Y-101944608D01*
X130579191Y-101935826D01*
X130604329Y-101919030D01*
X130627808Y-101914359D01*
X130644959Y-101906787D01*
X130695151Y-101900964D01*
X130700000Y-101900000D01*
X131600000Y-101900000D01*
X131604850Y-101900964D01*
G37*
G36*
X136104850Y-101900964D02*
G01*
X136155040Y-101906787D01*
X136172189Y-101914359D01*
X136195671Y-101919030D01*
X136220810Y-101935827D01*
X136240696Y-101944608D01*
X136254277Y-101958189D01*
X136276777Y-101973223D01*
X136291810Y-101995722D01*
X136305391Y-102009303D01*
X136314170Y-102029186D01*
X136330970Y-102054329D01*
X136335641Y-102077812D01*
X136343212Y-102094959D01*
X136349033Y-102145139D01*
X136350000Y-102150000D01*
X136350000Y-103750000D01*
X136349032Y-103754863D01*
X136343212Y-103805040D01*
X136335641Y-103822185D01*
X136330970Y-103845671D01*
X136314169Y-103870815D01*
X136305391Y-103890696D01*
X136291812Y-103904274D01*
X136276777Y-103926777D01*
X136254274Y-103941812D01*
X136240696Y-103955391D01*
X136220815Y-103964169D01*
X136195671Y-103980970D01*
X136172185Y-103985641D01*
X136155040Y-103993212D01*
X136104861Y-103999032D01*
X136100000Y-104000000D01*
X135200000Y-104000000D01*
X135195138Y-103999032D01*
X135144959Y-103993212D01*
X135127812Y-103985641D01*
X135104329Y-103980970D01*
X135079186Y-103964170D01*
X135059303Y-103955391D01*
X135045722Y-103941810D01*
X135023223Y-103926777D01*
X135008189Y-103904277D01*
X134994608Y-103890696D01*
X134985827Y-103870810D01*
X134969030Y-103845671D01*
X134964359Y-103822189D01*
X134956787Y-103805040D01*
X134950964Y-103754849D01*
X134950000Y-103750000D01*
X134950000Y-102150000D01*
X134950964Y-102145150D01*
X134956787Y-102094959D01*
X134964359Y-102077808D01*
X134969030Y-102054329D01*
X134985826Y-102029191D01*
X134994608Y-102009303D01*
X135008191Y-101995719D01*
X135023223Y-101973223D01*
X135045719Y-101958191D01*
X135059303Y-101944608D01*
X135079191Y-101935826D01*
X135104329Y-101919030D01*
X135127808Y-101914359D01*
X135144959Y-101906787D01*
X135195151Y-101900964D01*
X135200000Y-101900000D01*
X136100000Y-101900000D01*
X136104850Y-101900964D01*
G37*
G36*
X171654850Y-102375964D02*
G01*
X171705040Y-102381787D01*
X171722189Y-102389359D01*
X171745671Y-102394030D01*
X171770810Y-102410827D01*
X171790696Y-102419608D01*
X171804277Y-102433189D01*
X171826777Y-102448223D01*
X171841810Y-102470722D01*
X171855391Y-102484303D01*
X171864170Y-102504186D01*
X171880970Y-102529329D01*
X171885641Y-102552812D01*
X171893212Y-102569959D01*
X171899033Y-102620139D01*
X171900000Y-102625000D01*
X171900000Y-103575000D01*
X171899032Y-103579863D01*
X171893212Y-103630040D01*
X171885641Y-103647185D01*
X171880970Y-103670671D01*
X171864169Y-103695815D01*
X171855391Y-103715696D01*
X171841812Y-103729274D01*
X171826777Y-103751777D01*
X171804274Y-103766812D01*
X171790696Y-103780391D01*
X171770815Y-103789169D01*
X171745671Y-103805970D01*
X171722185Y-103810641D01*
X171705040Y-103818212D01*
X171654861Y-103824032D01*
X171650000Y-103825000D01*
X171150000Y-103825000D01*
X171145138Y-103824032D01*
X171094959Y-103818212D01*
X171077812Y-103810641D01*
X171054329Y-103805970D01*
X171029186Y-103789170D01*
X171009303Y-103780391D01*
X170995722Y-103766810D01*
X170973223Y-103751777D01*
X170958189Y-103729277D01*
X170944608Y-103715696D01*
X170935827Y-103695810D01*
X170919030Y-103670671D01*
X170914359Y-103647189D01*
X170906787Y-103630040D01*
X170900964Y-103579849D01*
X170900000Y-103575000D01*
X170900000Y-102625000D01*
X170900964Y-102620150D01*
X170906787Y-102569959D01*
X170914359Y-102552808D01*
X170919030Y-102529329D01*
X170935826Y-102504191D01*
X170944608Y-102484303D01*
X170958191Y-102470719D01*
X170973223Y-102448223D01*
X170995719Y-102433191D01*
X171009303Y-102419608D01*
X171029191Y-102410826D01*
X171054329Y-102394030D01*
X171077808Y-102389359D01*
X171094959Y-102381787D01*
X171145151Y-102375964D01*
X171150000Y-102375000D01*
X171650000Y-102375000D01*
X171654850Y-102375964D01*
G37*
G36*
X173554850Y-102375964D02*
G01*
X173605040Y-102381787D01*
X173622189Y-102389359D01*
X173645671Y-102394030D01*
X173670810Y-102410827D01*
X173690696Y-102419608D01*
X173704277Y-102433189D01*
X173726777Y-102448223D01*
X173741810Y-102470722D01*
X173755391Y-102484303D01*
X173764170Y-102504186D01*
X173780970Y-102529329D01*
X173785641Y-102552812D01*
X173793212Y-102569959D01*
X173799033Y-102620139D01*
X173800000Y-102625000D01*
X173800000Y-103575000D01*
X173799032Y-103579863D01*
X173793212Y-103630040D01*
X173785641Y-103647185D01*
X173780970Y-103670671D01*
X173764169Y-103695815D01*
X173755391Y-103715696D01*
X173741812Y-103729274D01*
X173726777Y-103751777D01*
X173704274Y-103766812D01*
X173690696Y-103780391D01*
X173670815Y-103789169D01*
X173645671Y-103805970D01*
X173622185Y-103810641D01*
X173605040Y-103818212D01*
X173554861Y-103824032D01*
X173550000Y-103825000D01*
X173050000Y-103825000D01*
X173045138Y-103824032D01*
X172994959Y-103818212D01*
X172977812Y-103810641D01*
X172954329Y-103805970D01*
X172929186Y-103789170D01*
X172909303Y-103780391D01*
X172895722Y-103766810D01*
X172873223Y-103751777D01*
X172858189Y-103729277D01*
X172844608Y-103715696D01*
X172835827Y-103695810D01*
X172819030Y-103670671D01*
X172814359Y-103647189D01*
X172806787Y-103630040D01*
X172800964Y-103579849D01*
X172800000Y-103575000D01*
X172800000Y-102625000D01*
X172800964Y-102620150D01*
X172806787Y-102569959D01*
X172814359Y-102552808D01*
X172819030Y-102529329D01*
X172835826Y-102504191D01*
X172844608Y-102484303D01*
X172858191Y-102470719D01*
X172873223Y-102448223D01*
X172895719Y-102433191D01*
X172909303Y-102419608D01*
X172929191Y-102410826D01*
X172954329Y-102394030D01*
X172977808Y-102389359D01*
X172994959Y-102381787D01*
X173045151Y-102375964D01*
X173050000Y-102375000D01*
X173550000Y-102375000D01*
X173554850Y-102375964D01*
G37*
G36*
X165253536Y-102346464D02*
G01*
X165255000Y-102350000D01*
X165255000Y-103200000D01*
X165253536Y-103203536D01*
X164653536Y-103803536D01*
X164650000Y-103805000D01*
X164638065Y-103805000D01*
X163811935Y-103805000D01*
X163800000Y-103805000D01*
X163796464Y-103803536D01*
X163795000Y-103800000D01*
X163795000Y-102350000D01*
X163796464Y-102346464D01*
X163800000Y-102345000D01*
X165250000Y-102345000D01*
X165253536Y-102346464D01*
G37*
G36*
X161300000Y-103800000D02*
G01*
X159850000Y-103800000D01*
X159850000Y-102350000D01*
X161300000Y-102350000D01*
X161300000Y-103800000D01*
G37*
G36*
X163275000Y-103800000D02*
G01*
X161825000Y-103800000D01*
X161825000Y-102350000D01*
X163275000Y-102350000D01*
X163275000Y-103800000D01*
G37*
G36*
X157050000Y-103700000D02*
G01*
X156250000Y-103700000D01*
X156250000Y-103300000D01*
X157050000Y-103300000D01*
X157050000Y-103700000D01*
G37*
G36*
X168850000Y-103700000D02*
G01*
X168050000Y-103700000D01*
X168050000Y-103300000D01*
X168850000Y-103300000D01*
X168850000Y-103700000D01*
G37*
G36*
X144354850Y-102588464D02*
G01*
X144405040Y-102594287D01*
X144422189Y-102601859D01*
X144445671Y-102606530D01*
X144470810Y-102623327D01*
X144490696Y-102632108D01*
X144504277Y-102645689D01*
X144526777Y-102660723D01*
X144541810Y-102683222D01*
X144555391Y-102696803D01*
X144564170Y-102716686D01*
X144580970Y-102741829D01*
X144585641Y-102765312D01*
X144593212Y-102782459D01*
X144599033Y-102832639D01*
X144600000Y-102837500D01*
X144600000Y-103362500D01*
X144599032Y-103367363D01*
X144593212Y-103417540D01*
X144585641Y-103434685D01*
X144580970Y-103458171D01*
X144564169Y-103483315D01*
X144555391Y-103503196D01*
X144541812Y-103516774D01*
X144526777Y-103539277D01*
X144504274Y-103554312D01*
X144490696Y-103567891D01*
X144470815Y-103576669D01*
X144445671Y-103593470D01*
X144422185Y-103598141D01*
X144405040Y-103605712D01*
X144354861Y-103611532D01*
X144350000Y-103612500D01*
X143450000Y-103612500D01*
X143445138Y-103611532D01*
X143394959Y-103605712D01*
X143377812Y-103598141D01*
X143354329Y-103593470D01*
X143329186Y-103576670D01*
X143309303Y-103567891D01*
X143295722Y-103554310D01*
X143273223Y-103539277D01*
X143258189Y-103516777D01*
X143244608Y-103503196D01*
X143235827Y-103483310D01*
X143219030Y-103458171D01*
X143214359Y-103434689D01*
X143206787Y-103417540D01*
X143200964Y-103367349D01*
X143200000Y-103362500D01*
X143200000Y-102837500D01*
X143200964Y-102832650D01*
X143206787Y-102782459D01*
X143214359Y-102765308D01*
X143219030Y-102741829D01*
X143235826Y-102716691D01*
X143244608Y-102696803D01*
X143258191Y-102683219D01*
X143273223Y-102660723D01*
X143295719Y-102645691D01*
X143309303Y-102632108D01*
X143329191Y-102623326D01*
X143354329Y-102606530D01*
X143377808Y-102601859D01*
X143394959Y-102594287D01*
X143445151Y-102588464D01*
X143450000Y-102587500D01*
X144350000Y-102587500D01*
X144354850Y-102588464D01*
G37*
G36*
X152854850Y-102588464D02*
G01*
X152905040Y-102594287D01*
X152922189Y-102601859D01*
X152945671Y-102606530D01*
X152970810Y-102623327D01*
X152990696Y-102632108D01*
X153004277Y-102645689D01*
X153026777Y-102660723D01*
X153041810Y-102683222D01*
X153055391Y-102696803D01*
X153064170Y-102716686D01*
X153080970Y-102741829D01*
X153085641Y-102765312D01*
X153093212Y-102782459D01*
X153099033Y-102832639D01*
X153100000Y-102837500D01*
X153100000Y-103362500D01*
X153099032Y-103367363D01*
X153093212Y-103417540D01*
X153085641Y-103434685D01*
X153080970Y-103458171D01*
X153064169Y-103483315D01*
X153055391Y-103503196D01*
X153041812Y-103516774D01*
X153026777Y-103539277D01*
X153004274Y-103554312D01*
X152990696Y-103567891D01*
X152970815Y-103576669D01*
X152945671Y-103593470D01*
X152922185Y-103598141D01*
X152905040Y-103605712D01*
X152854861Y-103611532D01*
X152850000Y-103612500D01*
X151950000Y-103612500D01*
X151945138Y-103611532D01*
X151894959Y-103605712D01*
X151877812Y-103598141D01*
X151854329Y-103593470D01*
X151829186Y-103576670D01*
X151809303Y-103567891D01*
X151795722Y-103554310D01*
X151773223Y-103539277D01*
X151758189Y-103516777D01*
X151744608Y-103503196D01*
X151735827Y-103483310D01*
X151719030Y-103458171D01*
X151714359Y-103434689D01*
X151706787Y-103417540D01*
X151700964Y-103367349D01*
X151700000Y-103362500D01*
X151700000Y-102837500D01*
X151700964Y-102832650D01*
X151706787Y-102782459D01*
X151714359Y-102765308D01*
X151719030Y-102741829D01*
X151735826Y-102716691D01*
X151744608Y-102696803D01*
X151758191Y-102683219D01*
X151773223Y-102660723D01*
X151795719Y-102645691D01*
X151809303Y-102632108D01*
X151829191Y-102623326D01*
X151854329Y-102606530D01*
X151877808Y-102601859D01*
X151894959Y-102594287D01*
X151945151Y-102588464D01*
X151950000Y-102587500D01*
X152850000Y-102587500D01*
X152854850Y-102588464D01*
G37*
G36*
X179295000Y-103385000D02*
G01*
X177105000Y-103385000D01*
X177105000Y-101335000D01*
X179295000Y-101335000D01*
X179295000Y-103385000D01*
G37*
G36*
X157050000Y-102900000D02*
G01*
X156250000Y-102900000D01*
X156250000Y-102500000D01*
X157050000Y-102500000D01*
X157050000Y-102900000D01*
G37*
G36*
X168850000Y-102900000D02*
G01*
X168050000Y-102900000D01*
X168050000Y-102500000D01*
X168850000Y-102500000D01*
X168850000Y-102900000D01*
G37*
G36*
X188432228Y-100834448D02*
G01*
X188577117Y-100894463D01*
X188707515Y-100981592D01*
X188818408Y-101092485D01*
X188905537Y-101222883D01*
X188965552Y-101367772D01*
X188996148Y-101521586D01*
X188996148Y-101678414D01*
X188965552Y-101832228D01*
X188905537Y-101977117D01*
X188818408Y-102107515D01*
X188707515Y-102218408D01*
X188577117Y-102305537D01*
X188432228Y-102365552D01*
X188278414Y-102396148D01*
X188121586Y-102396148D01*
X187967772Y-102365552D01*
X187822883Y-102305537D01*
X187692485Y-102218408D01*
X187581592Y-102107515D01*
X187494463Y-101977117D01*
X187434448Y-101832228D01*
X187403852Y-101678414D01*
X187403852Y-101521586D01*
X187434448Y-101367772D01*
X187494463Y-101222883D01*
X187581592Y-101092485D01*
X187692485Y-100981592D01*
X187822883Y-100894463D01*
X187967772Y-100834448D01*
X188121586Y-100803852D01*
X188278414Y-100803852D01*
X188432228Y-100834448D01*
G37*
G36*
X157050000Y-102100000D02*
G01*
X156250000Y-102100000D01*
X156250000Y-101700000D01*
X157050000Y-101700000D01*
X157050000Y-102100000D01*
G37*
G36*
X168850000Y-102100000D02*
G01*
X168050000Y-102100000D01*
X168050000Y-101700000D01*
X168850000Y-101700000D01*
X168850000Y-102100000D01*
G37*
G36*
X161300000Y-101825000D02*
G01*
X159850000Y-101825000D01*
X159850000Y-100375000D01*
X161300000Y-100375000D01*
X161300000Y-101825000D01*
G37*
G36*
X163275000Y-101825000D02*
G01*
X161825000Y-101825000D01*
X161825000Y-100375000D01*
X163275000Y-100375000D01*
X163275000Y-101825000D01*
G37*
G36*
X165250000Y-101825000D02*
G01*
X163800000Y-101825000D01*
X163800000Y-100375000D01*
X165250000Y-100375000D01*
X165250000Y-101825000D01*
G37*
G36*
X152854850Y-100413464D02*
G01*
X152905040Y-100419287D01*
X152922189Y-100426859D01*
X152945671Y-100431530D01*
X152970810Y-100448327D01*
X152990696Y-100457108D01*
X153004277Y-100470689D01*
X153026777Y-100485723D01*
X153041810Y-100508222D01*
X153055391Y-100521803D01*
X153064170Y-100541686D01*
X153080970Y-100566829D01*
X153085641Y-100590312D01*
X153093212Y-100607459D01*
X153099033Y-100657639D01*
X153100000Y-100662500D01*
X153100000Y-101187500D01*
X153099032Y-101192363D01*
X153093212Y-101242540D01*
X153085641Y-101259685D01*
X153080970Y-101283171D01*
X153064169Y-101308315D01*
X153055391Y-101328196D01*
X153041812Y-101341774D01*
X153026777Y-101364277D01*
X153004274Y-101379312D01*
X152990696Y-101392891D01*
X152970815Y-101401669D01*
X152945671Y-101418470D01*
X152922185Y-101423141D01*
X152905040Y-101430712D01*
X152854861Y-101436532D01*
X152850000Y-101437500D01*
X151950000Y-101437500D01*
X151945138Y-101436532D01*
X151894959Y-101430712D01*
X151877812Y-101423141D01*
X151854329Y-101418470D01*
X151829186Y-101401670D01*
X151809303Y-101392891D01*
X151795722Y-101379310D01*
X151773223Y-101364277D01*
X151758189Y-101341777D01*
X151744608Y-101328196D01*
X151735827Y-101308310D01*
X151719030Y-101283171D01*
X151714359Y-101259689D01*
X151706787Y-101242540D01*
X151700964Y-101192349D01*
X151700000Y-101187500D01*
X151700000Y-100662500D01*
X151700964Y-100657650D01*
X151706787Y-100607459D01*
X151714359Y-100590308D01*
X151719030Y-100566829D01*
X151735826Y-100541691D01*
X151744608Y-100521803D01*
X151758191Y-100508219D01*
X151773223Y-100485723D01*
X151795719Y-100470691D01*
X151809303Y-100457108D01*
X151829191Y-100448326D01*
X151854329Y-100431530D01*
X151877808Y-100426859D01*
X151894959Y-100419287D01*
X151945151Y-100413464D01*
X151950000Y-100412500D01*
X152850000Y-100412500D01*
X152854850Y-100413464D01*
G37*
G36*
X144354850Y-100388464D02*
G01*
X144405040Y-100394287D01*
X144422189Y-100401859D01*
X144445671Y-100406530D01*
X144470810Y-100423327D01*
X144490696Y-100432108D01*
X144504277Y-100445689D01*
X144526777Y-100460723D01*
X144541810Y-100483222D01*
X144555391Y-100496803D01*
X144564170Y-100516686D01*
X144580970Y-100541829D01*
X144585641Y-100565312D01*
X144593212Y-100582459D01*
X144599033Y-100632639D01*
X144600000Y-100637500D01*
X144600000Y-101162500D01*
X144599032Y-101167363D01*
X144593212Y-101217540D01*
X144585641Y-101234685D01*
X144580970Y-101258171D01*
X144564169Y-101283315D01*
X144555391Y-101303196D01*
X144541812Y-101316774D01*
X144526777Y-101339277D01*
X144504274Y-101354312D01*
X144490696Y-101367891D01*
X144470815Y-101376669D01*
X144445671Y-101393470D01*
X144422185Y-101398141D01*
X144405040Y-101405712D01*
X144354861Y-101411532D01*
X144350000Y-101412500D01*
X143450000Y-101412500D01*
X143445138Y-101411532D01*
X143394959Y-101405712D01*
X143377812Y-101398141D01*
X143354329Y-101393470D01*
X143329186Y-101376670D01*
X143309303Y-101367891D01*
X143295722Y-101354310D01*
X143273223Y-101339277D01*
X143258189Y-101316777D01*
X143244608Y-101303196D01*
X143235827Y-101283310D01*
X143219030Y-101258171D01*
X143214359Y-101234689D01*
X143206787Y-101217540D01*
X143200964Y-101167349D01*
X143200000Y-101162500D01*
X143200000Y-100637500D01*
X143200964Y-100632650D01*
X143206787Y-100582459D01*
X143214359Y-100565308D01*
X143219030Y-100541829D01*
X143235826Y-100516691D01*
X143244608Y-100496803D01*
X143258191Y-100483219D01*
X143273223Y-100460723D01*
X143295719Y-100445691D01*
X143309303Y-100432108D01*
X143329191Y-100423326D01*
X143354329Y-100406530D01*
X143377808Y-100401859D01*
X143394959Y-100394287D01*
X143445151Y-100388464D01*
X143450000Y-100387500D01*
X144350000Y-100387500D01*
X144354850Y-100388464D01*
G37*
G36*
X157050000Y-101300000D02*
G01*
X156250000Y-101300000D01*
X156250000Y-100900000D01*
X157050000Y-100900000D01*
X157050000Y-101300000D01*
G37*
G36*
X168850000Y-101300000D02*
G01*
X168050000Y-101300000D01*
X168050000Y-100900000D01*
X168850000Y-100900000D01*
X168850000Y-101300000D01*
G37*
G36*
X157050000Y-100500000D02*
G01*
X156250000Y-100500000D01*
X156250000Y-100100000D01*
X157050000Y-100100000D01*
X157050000Y-100500000D01*
G37*
G36*
X168850000Y-100500000D02*
G01*
X168050000Y-100500000D01*
X168050000Y-100100000D01*
X168850000Y-100100000D01*
X168850000Y-100500000D01*
G37*
G36*
X188432228Y-98334448D02*
G01*
X188577117Y-98394463D01*
X188707515Y-98481592D01*
X188818408Y-98592485D01*
X188905537Y-98722883D01*
X188965552Y-98867772D01*
X188996148Y-99021586D01*
X188996148Y-99178414D01*
X188965552Y-99332228D01*
X188905537Y-99477117D01*
X188818408Y-99607515D01*
X188707515Y-99718408D01*
X188577117Y-99805537D01*
X188432228Y-99865552D01*
X188278414Y-99896148D01*
X188121586Y-99896148D01*
X187967772Y-99865552D01*
X187822883Y-99805537D01*
X187692485Y-99718408D01*
X187581592Y-99607515D01*
X187494463Y-99477117D01*
X187434448Y-99332228D01*
X187403852Y-99178414D01*
X187403852Y-99021586D01*
X187434448Y-98867772D01*
X187494463Y-98722883D01*
X187581592Y-98592485D01*
X187692485Y-98481592D01*
X187822883Y-98394463D01*
X187967772Y-98334448D01*
X188121586Y-98303852D01*
X188278414Y-98303852D01*
X188432228Y-98334448D01*
G37*
G36*
X161300000Y-99850000D02*
G01*
X159850000Y-99850000D01*
X159850000Y-98400000D01*
X161300000Y-98400000D01*
X161300000Y-99850000D01*
G37*
G36*
X163275000Y-99850000D02*
G01*
X161825000Y-99850000D01*
X161825000Y-98400000D01*
X163275000Y-98400000D01*
X163275000Y-99850000D01*
G37*
G36*
X165250000Y-99850000D02*
G01*
X163800000Y-99850000D01*
X163800000Y-98400000D01*
X165250000Y-98400000D01*
X165250000Y-99850000D01*
G37*
G36*
X171654850Y-98375964D02*
G01*
X171705040Y-98381787D01*
X171722189Y-98389359D01*
X171745671Y-98394030D01*
X171770810Y-98410827D01*
X171790696Y-98419608D01*
X171804277Y-98433189D01*
X171826777Y-98448223D01*
X171841810Y-98470722D01*
X171855391Y-98484303D01*
X171864170Y-98504186D01*
X171880970Y-98529329D01*
X171885641Y-98552812D01*
X171893212Y-98569959D01*
X171899033Y-98620139D01*
X171900000Y-98625000D01*
X171900000Y-99575000D01*
X171899032Y-99579863D01*
X171893212Y-99630040D01*
X171885641Y-99647185D01*
X171880970Y-99670671D01*
X171864169Y-99695815D01*
X171855391Y-99715696D01*
X171841812Y-99729274D01*
X171826777Y-99751777D01*
X171804274Y-99766812D01*
X171790696Y-99780391D01*
X171770815Y-99789169D01*
X171745671Y-99805970D01*
X171722185Y-99810641D01*
X171705040Y-99818212D01*
X171654861Y-99824032D01*
X171650000Y-99825000D01*
X171150000Y-99825000D01*
X171145138Y-99824032D01*
X171094959Y-99818212D01*
X171077812Y-99810641D01*
X171054329Y-99805970D01*
X171029186Y-99789170D01*
X171009303Y-99780391D01*
X170995722Y-99766810D01*
X170973223Y-99751777D01*
X170958189Y-99729277D01*
X170944608Y-99715696D01*
X170935827Y-99695810D01*
X170919030Y-99670671D01*
X170914359Y-99647189D01*
X170906787Y-99630040D01*
X170900964Y-99579849D01*
X170900000Y-99575000D01*
X170900000Y-98625000D01*
X170900964Y-98620150D01*
X170906787Y-98569959D01*
X170914359Y-98552808D01*
X170919030Y-98529329D01*
X170935826Y-98504191D01*
X170944608Y-98484303D01*
X170958191Y-98470719D01*
X170973223Y-98448223D01*
X170995719Y-98433191D01*
X171009303Y-98419608D01*
X171029191Y-98410826D01*
X171054329Y-98394030D01*
X171077808Y-98389359D01*
X171094959Y-98381787D01*
X171145151Y-98375964D01*
X171150000Y-98375000D01*
X171650000Y-98375000D01*
X171654850Y-98375964D01*
G37*
G36*
X173554850Y-98375964D02*
G01*
X173605040Y-98381787D01*
X173622189Y-98389359D01*
X173645671Y-98394030D01*
X173670810Y-98410827D01*
X173690696Y-98419608D01*
X173704277Y-98433189D01*
X173726777Y-98448223D01*
X173741810Y-98470722D01*
X173755391Y-98484303D01*
X173764170Y-98504186D01*
X173780970Y-98529329D01*
X173785641Y-98552812D01*
X173793212Y-98569959D01*
X173799033Y-98620139D01*
X173800000Y-98625000D01*
X173800000Y-99575000D01*
X173799032Y-99579863D01*
X173793212Y-99630040D01*
X173785641Y-99647185D01*
X173780970Y-99670671D01*
X173764169Y-99695815D01*
X173755391Y-99715696D01*
X173741812Y-99729274D01*
X173726777Y-99751777D01*
X173704274Y-99766812D01*
X173690696Y-99780391D01*
X173670815Y-99789169D01*
X173645671Y-99805970D01*
X173622185Y-99810641D01*
X173605040Y-99818212D01*
X173554861Y-99824032D01*
X173550000Y-99825000D01*
X173050000Y-99825000D01*
X173045138Y-99824032D01*
X172994959Y-99818212D01*
X172977812Y-99810641D01*
X172954329Y-99805970D01*
X172929186Y-99789170D01*
X172909303Y-99780391D01*
X172895722Y-99766810D01*
X172873223Y-99751777D01*
X172858189Y-99729277D01*
X172844608Y-99715696D01*
X172835827Y-99695810D01*
X172819030Y-99670671D01*
X172814359Y-99647189D01*
X172806787Y-99630040D01*
X172800964Y-99579849D01*
X172800000Y-99575000D01*
X172800000Y-98625000D01*
X172800964Y-98620150D01*
X172806787Y-98569959D01*
X172814359Y-98552808D01*
X172819030Y-98529329D01*
X172835826Y-98504191D01*
X172844608Y-98484303D01*
X172858191Y-98470719D01*
X172873223Y-98448223D01*
X172895719Y-98433191D01*
X172909303Y-98419608D01*
X172929191Y-98410826D01*
X172954329Y-98394030D01*
X172977808Y-98389359D01*
X172994959Y-98381787D01*
X173045151Y-98375964D01*
X173050000Y-98375000D01*
X173550000Y-98375000D01*
X173554850Y-98375964D01*
G37*
G36*
X146542208Y-97849254D02*
G01*
X146643943Y-97907991D01*
X146727009Y-97991057D01*
X146785746Y-98092792D01*
X146816150Y-98206263D01*
X146820000Y-98265000D01*
X146820000Y-99265000D01*
X146816150Y-99323737D01*
X146785746Y-99437208D01*
X146727009Y-99538943D01*
X146643943Y-99622009D01*
X146542208Y-99680746D01*
X146428737Y-99711150D01*
X146311263Y-99711150D01*
X146197792Y-99680746D01*
X146096057Y-99622009D01*
X146012991Y-99538943D01*
X145954254Y-99437208D01*
X145923850Y-99323737D01*
X145920000Y-99265000D01*
X145920000Y-98265000D01*
X145923850Y-98206263D01*
X145954254Y-98092792D01*
X146012991Y-97991057D01*
X146096057Y-97907991D01*
X146197792Y-97849254D01*
X146311263Y-97818850D01*
X146428737Y-97818850D01*
X146542208Y-97849254D01*
G37*
G36*
X149402208Y-97849254D02*
G01*
X149503943Y-97907991D01*
X149587009Y-97991057D01*
X149645746Y-98092792D01*
X149676150Y-98206263D01*
X149680000Y-98265000D01*
X149680000Y-99265000D01*
X149676150Y-99323737D01*
X149645746Y-99437208D01*
X149587009Y-99538943D01*
X149503943Y-99622009D01*
X149402208Y-99680746D01*
X149288737Y-99711150D01*
X149171263Y-99711150D01*
X149057792Y-99680746D01*
X148956057Y-99622009D01*
X148872991Y-99538943D01*
X148814254Y-99437208D01*
X148783850Y-99323737D01*
X148780000Y-99265000D01*
X148780000Y-98265000D01*
X148783850Y-98206263D01*
X148814254Y-98092792D01*
X148872991Y-97991057D01*
X148956057Y-97907991D01*
X149057792Y-97849254D01*
X149171263Y-97818850D01*
X149288737Y-97818850D01*
X149402208Y-97849254D01*
G37*
G36*
X157050000Y-99700000D02*
G01*
X156250000Y-99700000D01*
X156250000Y-99300000D01*
X157050000Y-99300000D01*
X157050000Y-99700000D01*
G37*
G36*
X168850000Y-99700000D02*
G01*
X168050000Y-99700000D01*
X168050000Y-99300000D01*
X168850000Y-99300000D01*
X168850000Y-99700000D01*
G37*
G36*
X152854850Y-98588464D02*
G01*
X152905040Y-98594287D01*
X152922189Y-98601859D01*
X152945671Y-98606530D01*
X152970810Y-98623327D01*
X152990696Y-98632108D01*
X153004277Y-98645689D01*
X153026777Y-98660723D01*
X153041810Y-98683222D01*
X153055391Y-98696803D01*
X153064170Y-98716686D01*
X153080970Y-98741829D01*
X153085641Y-98765312D01*
X153093212Y-98782459D01*
X153099033Y-98832639D01*
X153100000Y-98837500D01*
X153100000Y-99362500D01*
X153099032Y-99367363D01*
X153093212Y-99417540D01*
X153085641Y-99434685D01*
X153080970Y-99458171D01*
X153064169Y-99483315D01*
X153055391Y-99503196D01*
X153041812Y-99516774D01*
X153026777Y-99539277D01*
X153004274Y-99554312D01*
X152990696Y-99567891D01*
X152970815Y-99576669D01*
X152945671Y-99593470D01*
X152922185Y-99598141D01*
X152905040Y-99605712D01*
X152854861Y-99611532D01*
X152850000Y-99612500D01*
X151950000Y-99612500D01*
X151945138Y-99611532D01*
X151894959Y-99605712D01*
X151877812Y-99598141D01*
X151854329Y-99593470D01*
X151829186Y-99576670D01*
X151809303Y-99567891D01*
X151795722Y-99554310D01*
X151773223Y-99539277D01*
X151758189Y-99516777D01*
X151744608Y-99503196D01*
X151735827Y-99483310D01*
X151719030Y-99458171D01*
X151714359Y-99434689D01*
X151706787Y-99417540D01*
X151700964Y-99367349D01*
X151700000Y-99362500D01*
X151700000Y-98837500D01*
X151700964Y-98832650D01*
X151706787Y-98782459D01*
X151714359Y-98765308D01*
X151719030Y-98741829D01*
X151735826Y-98716691D01*
X151744608Y-98696803D01*
X151758191Y-98683219D01*
X151773223Y-98660723D01*
X151795719Y-98645691D01*
X151809303Y-98632108D01*
X151829191Y-98623326D01*
X151854329Y-98606530D01*
X151877808Y-98601859D01*
X151894959Y-98594287D01*
X151945151Y-98588464D01*
X151950000Y-98587500D01*
X152850000Y-98587500D01*
X152854850Y-98588464D01*
G37*
G36*
X144354850Y-98563464D02*
G01*
X144405040Y-98569287D01*
X144422189Y-98576859D01*
X144445671Y-98581530D01*
X144470810Y-98598327D01*
X144490696Y-98607108D01*
X144504277Y-98620689D01*
X144526777Y-98635723D01*
X144541810Y-98658222D01*
X144555391Y-98671803D01*
X144564170Y-98691686D01*
X144580970Y-98716829D01*
X144585641Y-98740312D01*
X144593212Y-98757459D01*
X144599033Y-98807639D01*
X144600000Y-98812500D01*
X144600000Y-99337500D01*
X144599032Y-99342363D01*
X144593212Y-99392540D01*
X144585641Y-99409685D01*
X144580970Y-99433171D01*
X144564169Y-99458315D01*
X144555391Y-99478196D01*
X144541812Y-99491774D01*
X144526777Y-99514277D01*
X144504274Y-99529312D01*
X144490696Y-99542891D01*
X144470815Y-99551669D01*
X144445671Y-99568470D01*
X144422185Y-99573141D01*
X144405040Y-99580712D01*
X144354861Y-99586532D01*
X144350000Y-99587500D01*
X143450000Y-99587500D01*
X143445138Y-99586532D01*
X143394959Y-99580712D01*
X143377812Y-99573141D01*
X143354329Y-99568470D01*
X143329186Y-99551670D01*
X143309303Y-99542891D01*
X143295722Y-99529310D01*
X143273223Y-99514277D01*
X143258189Y-99491777D01*
X143244608Y-99478196D01*
X143235827Y-99458310D01*
X143219030Y-99433171D01*
X143214359Y-99409689D01*
X143206787Y-99392540D01*
X143200964Y-99342349D01*
X143200000Y-99337500D01*
X143200000Y-98812500D01*
X143200964Y-98807650D01*
X143206787Y-98757459D01*
X143214359Y-98740308D01*
X143219030Y-98716829D01*
X143235826Y-98691691D01*
X143244608Y-98671803D01*
X143258191Y-98658219D01*
X143273223Y-98635723D01*
X143295719Y-98620691D01*
X143309303Y-98607108D01*
X143329191Y-98598326D01*
X143354329Y-98581530D01*
X143377808Y-98576859D01*
X143394959Y-98569287D01*
X143445151Y-98563464D01*
X143450000Y-98562500D01*
X144350000Y-98562500D01*
X144354850Y-98563464D01*
G37*
G36*
X148304805Y-98997836D02*
G01*
X148372628Y-99036994D01*
X148428006Y-99092372D01*
X148467164Y-99160195D01*
X148487433Y-99235842D01*
X148487433Y-99314158D01*
X148467164Y-99389805D01*
X148428006Y-99457628D01*
X148372628Y-99513006D01*
X148304805Y-99552164D01*
X148229158Y-99572433D01*
X148150842Y-99572433D01*
X148075195Y-99552164D01*
X148007372Y-99513006D01*
X147951994Y-99457628D01*
X147912836Y-99389805D01*
X147892567Y-99314158D01*
X147892567Y-99235842D01*
X147912836Y-99160195D01*
X147951994Y-99092372D01*
X148007372Y-99036994D01*
X148075195Y-98997836D01*
X148150842Y-98977567D01*
X148229158Y-98977567D01*
X148304805Y-98997836D01*
G37*
G36*
X147524805Y-98547836D02*
G01*
X147592628Y-98586994D01*
X147648006Y-98642372D01*
X147687164Y-98710195D01*
X147707433Y-98785842D01*
X147707433Y-98864158D01*
X147687164Y-98939805D01*
X147648006Y-99007628D01*
X147592628Y-99063006D01*
X147524805Y-99102164D01*
X147449158Y-99122433D01*
X147370842Y-99122433D01*
X147295195Y-99102164D01*
X147227372Y-99063006D01*
X147171994Y-99007628D01*
X147132836Y-98939805D01*
X147112567Y-98864158D01*
X147112567Y-98785842D01*
X147132836Y-98710195D01*
X147171994Y-98642372D01*
X147227372Y-98586994D01*
X147295195Y-98547836D01*
X147370842Y-98527567D01*
X147449158Y-98527567D01*
X147524805Y-98547836D01*
G37*
G36*
X139354850Y-97888464D02*
G01*
X139405040Y-97894287D01*
X139422189Y-97901859D01*
X139445671Y-97906530D01*
X139470810Y-97923327D01*
X139490696Y-97932108D01*
X139504277Y-97945689D01*
X139526777Y-97960723D01*
X139541810Y-97983222D01*
X139555391Y-97996803D01*
X139564170Y-98016686D01*
X139580970Y-98041829D01*
X139585641Y-98065312D01*
X139593212Y-98082459D01*
X139599033Y-98132639D01*
X139600000Y-98137500D01*
X139600000Y-98662500D01*
X139599032Y-98667363D01*
X139593212Y-98717540D01*
X139585641Y-98734685D01*
X139580970Y-98758171D01*
X139564169Y-98783315D01*
X139555391Y-98803196D01*
X139541812Y-98816774D01*
X139526777Y-98839277D01*
X139504274Y-98854312D01*
X139490696Y-98867891D01*
X139470815Y-98876669D01*
X139445671Y-98893470D01*
X139422185Y-98898141D01*
X139405040Y-98905712D01*
X139354861Y-98911532D01*
X139350000Y-98912500D01*
X138450000Y-98912500D01*
X138445138Y-98911532D01*
X138394959Y-98905712D01*
X138377812Y-98898141D01*
X138354329Y-98893470D01*
X138329186Y-98876670D01*
X138309303Y-98867891D01*
X138295722Y-98854310D01*
X138273223Y-98839277D01*
X138258189Y-98816777D01*
X138244608Y-98803196D01*
X138235827Y-98783310D01*
X138219030Y-98758171D01*
X138214359Y-98734689D01*
X138206787Y-98717540D01*
X138200964Y-98667349D01*
X138200000Y-98662500D01*
X138200000Y-98137500D01*
X138200964Y-98132650D01*
X138206787Y-98082459D01*
X138214359Y-98065308D01*
X138219030Y-98041829D01*
X138235826Y-98016691D01*
X138244608Y-97996803D01*
X138258191Y-97983219D01*
X138273223Y-97960723D01*
X138295719Y-97945691D01*
X138309303Y-97932108D01*
X138329191Y-97923326D01*
X138354329Y-97906530D01*
X138377808Y-97901859D01*
X138394959Y-97894287D01*
X138445151Y-97888464D01*
X138450000Y-97887500D01*
X139350000Y-97887500D01*
X139354850Y-97888464D01*
G37*
G36*
X157050000Y-98900000D02*
G01*
X156250000Y-98900000D01*
X156250000Y-98500000D01*
X157050000Y-98500000D01*
X157050000Y-98900000D01*
G37*
G36*
X168850000Y-98900000D02*
G01*
X168050000Y-98900000D01*
X168050000Y-98500000D01*
X168850000Y-98500000D01*
X168850000Y-98900000D01*
G37*
G36*
X179295000Y-98665000D02*
G01*
X177105000Y-98665000D01*
X177105000Y-96615000D01*
X179295000Y-96615000D01*
X179295000Y-98665000D01*
G37*
G36*
X148304805Y-98087836D02*
G01*
X148372628Y-98126994D01*
X148428006Y-98182372D01*
X148467164Y-98250195D01*
X148487433Y-98325842D01*
X148487433Y-98404158D01*
X148467164Y-98479805D01*
X148428006Y-98547628D01*
X148372628Y-98603006D01*
X148304805Y-98642164D01*
X148229158Y-98662433D01*
X148150842Y-98662433D01*
X148075195Y-98642164D01*
X148007372Y-98603006D01*
X147951994Y-98547628D01*
X147912836Y-98479805D01*
X147892567Y-98404158D01*
X147892567Y-98325842D01*
X147912836Y-98250195D01*
X147951994Y-98182372D01*
X148007372Y-98126994D01*
X148075195Y-98087836D01*
X148150842Y-98067567D01*
X148229158Y-98067567D01*
X148304805Y-98087836D01*
G37*
G36*
X147524805Y-97647836D02*
G01*
X147592628Y-97686994D01*
X147648006Y-97742372D01*
X147687164Y-97810195D01*
X147707433Y-97885842D01*
X147707433Y-97964158D01*
X147687164Y-98039805D01*
X147648006Y-98107628D01*
X147592628Y-98163006D01*
X147524805Y-98202164D01*
X147449158Y-98222433D01*
X147370842Y-98222433D01*
X147295195Y-98202164D01*
X147227372Y-98163006D01*
X147171994Y-98107628D01*
X147132836Y-98039805D01*
X147112567Y-97964158D01*
X147112567Y-97885842D01*
X147132836Y-97810195D01*
X147171994Y-97742372D01*
X147227372Y-97686994D01*
X147295195Y-97647836D01*
X147370842Y-97627567D01*
X147449158Y-97627567D01*
X147524805Y-97647836D01*
G37*
G36*
X157050000Y-98100000D02*
G01*
X156250000Y-98100000D01*
X156250000Y-97700000D01*
X157050000Y-97700000D01*
X157050000Y-98100000D01*
G37*
G36*
X168850000Y-98100000D02*
G01*
X168050000Y-98100000D01*
X168050000Y-97700000D01*
X168850000Y-97700000D01*
X168850000Y-98100000D01*
G37*
G36*
X188432228Y-96334448D02*
G01*
X188577117Y-96394463D01*
X188707515Y-96481592D01*
X188818408Y-96592485D01*
X188905537Y-96722883D01*
X188965552Y-96867772D01*
X188996148Y-97021586D01*
X188996148Y-97178414D01*
X188965552Y-97332228D01*
X188905537Y-97477117D01*
X188818408Y-97607515D01*
X188707515Y-97718408D01*
X188577117Y-97805537D01*
X188432228Y-97865552D01*
X188278414Y-97896148D01*
X188121586Y-97896148D01*
X187967772Y-97865552D01*
X187822883Y-97805537D01*
X187692485Y-97718408D01*
X187581592Y-97607515D01*
X187494463Y-97477117D01*
X187434448Y-97332228D01*
X187403852Y-97178414D01*
X187403852Y-97021586D01*
X187434448Y-96867772D01*
X187494463Y-96722883D01*
X187581592Y-96592485D01*
X187692485Y-96481592D01*
X187822883Y-96394463D01*
X187967772Y-96334448D01*
X188121586Y-96303852D01*
X188278414Y-96303852D01*
X188432228Y-96334448D01*
G37*
G36*
X148304805Y-97187836D02*
G01*
X148372628Y-97226994D01*
X148428006Y-97282372D01*
X148467164Y-97350195D01*
X148487433Y-97425842D01*
X148487433Y-97504158D01*
X148467164Y-97579805D01*
X148428006Y-97647628D01*
X148372628Y-97703006D01*
X148304805Y-97742164D01*
X148229158Y-97762433D01*
X148150842Y-97762433D01*
X148075195Y-97742164D01*
X148007372Y-97703006D01*
X147951994Y-97647628D01*
X147912836Y-97579805D01*
X147892567Y-97504158D01*
X147892567Y-97425842D01*
X147912836Y-97350195D01*
X147951994Y-97282372D01*
X148007372Y-97226994D01*
X148075195Y-97187836D01*
X148150842Y-97167567D01*
X148229158Y-97167567D01*
X148304805Y-97187836D01*
G37*
G36*
X147524805Y-96737836D02*
G01*
X147592628Y-96776994D01*
X147648006Y-96832372D01*
X147687164Y-96900195D01*
X147707433Y-96975842D01*
X147707433Y-97054158D01*
X147687164Y-97129805D01*
X147648006Y-97197628D01*
X147592628Y-97253006D01*
X147524805Y-97292164D01*
X147449158Y-97312433D01*
X147370842Y-97312433D01*
X147295195Y-97292164D01*
X147227372Y-97253006D01*
X147171994Y-97197628D01*
X147132836Y-97129805D01*
X147112567Y-97054158D01*
X147112567Y-96975842D01*
X147132836Y-96900195D01*
X147171994Y-96832372D01*
X147227372Y-96776994D01*
X147295195Y-96737836D01*
X147370842Y-96717567D01*
X147449158Y-96717567D01*
X147524805Y-96737836D01*
G37*
G36*
X157050000Y-97300000D02*
G01*
X156250000Y-97300000D01*
X156250000Y-96900000D01*
X157050000Y-96900000D01*
X157050000Y-97300000D01*
G37*
G36*
X168850000Y-97300000D02*
G01*
X168050000Y-97300000D01*
X168050000Y-96900000D01*
X168850000Y-96900000D01*
X168850000Y-97300000D01*
G37*
G36*
X139354850Y-96063464D02*
G01*
X139405040Y-96069287D01*
X139422189Y-96076859D01*
X139445671Y-96081530D01*
X139470810Y-96098327D01*
X139490696Y-96107108D01*
X139504277Y-96120689D01*
X139526777Y-96135723D01*
X139541810Y-96158222D01*
X139555391Y-96171803D01*
X139564170Y-96191686D01*
X139580970Y-96216829D01*
X139585641Y-96240312D01*
X139593212Y-96257459D01*
X139599033Y-96307639D01*
X139600000Y-96312500D01*
X139600000Y-96837500D01*
X139599032Y-96842363D01*
X139593212Y-96892540D01*
X139585641Y-96909685D01*
X139580970Y-96933171D01*
X139564169Y-96958315D01*
X139555391Y-96978196D01*
X139541812Y-96991774D01*
X139526777Y-97014277D01*
X139504274Y-97029312D01*
X139490696Y-97042891D01*
X139470815Y-97051669D01*
X139445671Y-97068470D01*
X139422185Y-97073141D01*
X139405040Y-97080712D01*
X139354861Y-97086532D01*
X139350000Y-97087500D01*
X138450000Y-97087500D01*
X138445138Y-97086532D01*
X138394959Y-97080712D01*
X138377812Y-97073141D01*
X138354329Y-97068470D01*
X138329186Y-97051670D01*
X138309303Y-97042891D01*
X138295722Y-97029310D01*
X138273223Y-97014277D01*
X138258189Y-96991777D01*
X138244608Y-96978196D01*
X138235827Y-96958310D01*
X138219030Y-96933171D01*
X138214359Y-96909689D01*
X138206787Y-96892540D01*
X138200964Y-96842349D01*
X138200000Y-96837500D01*
X138200000Y-96312500D01*
X138200964Y-96307650D01*
X138206787Y-96257459D01*
X138214359Y-96240308D01*
X138219030Y-96216829D01*
X138235826Y-96191691D01*
X138244608Y-96171803D01*
X138258191Y-96158219D01*
X138273223Y-96135723D01*
X138295719Y-96120691D01*
X138309303Y-96107108D01*
X138329191Y-96098326D01*
X138354329Y-96081530D01*
X138377808Y-96076859D01*
X138394959Y-96069287D01*
X138445151Y-96063464D01*
X138450000Y-96062500D01*
X139350000Y-96062500D01*
X139354850Y-96063464D01*
G37*
G36*
X148304805Y-96297836D02*
G01*
X148372628Y-96336994D01*
X148428006Y-96392372D01*
X148467164Y-96460195D01*
X148487433Y-96535842D01*
X148487433Y-96614158D01*
X148467164Y-96689805D01*
X148428006Y-96757628D01*
X148372628Y-96813006D01*
X148304805Y-96852164D01*
X148229158Y-96872433D01*
X148150842Y-96872433D01*
X148075195Y-96852164D01*
X148007372Y-96813006D01*
X147951994Y-96757628D01*
X147912836Y-96689805D01*
X147892567Y-96614158D01*
X147892567Y-96535842D01*
X147912836Y-96460195D01*
X147951994Y-96392372D01*
X148007372Y-96336994D01*
X148075195Y-96297836D01*
X148150842Y-96277567D01*
X148229158Y-96277567D01*
X148304805Y-96297836D01*
G37*
G36*
X157950000Y-96600000D02*
G01*
X157550000Y-96600000D01*
X157550000Y-95800000D01*
X157950000Y-95800000D01*
X157950000Y-96600000D01*
G37*
G36*
X158750000Y-96600000D02*
G01*
X158350000Y-96600000D01*
X158350000Y-95800000D01*
X158750000Y-95800000D01*
X158750000Y-96600000D01*
G37*
G36*
X159550000Y-96600000D02*
G01*
X159150000Y-96600000D01*
X159150000Y-95800000D01*
X159550000Y-95800000D01*
X159550000Y-96600000D01*
G37*
G36*
X160350000Y-96600000D02*
G01*
X159950000Y-96600000D01*
X159950000Y-95800000D01*
X160350000Y-95800000D01*
X160350000Y-96600000D01*
G37*
G36*
X161150000Y-96600000D02*
G01*
X160750000Y-96600000D01*
X160750000Y-95800000D01*
X161150000Y-95800000D01*
X161150000Y-96600000D01*
G37*
G36*
X161950000Y-96600000D02*
G01*
X161550000Y-96600000D01*
X161550000Y-95800000D01*
X161950000Y-95800000D01*
X161950000Y-96600000D01*
G37*
G36*
X162750000Y-96600000D02*
G01*
X162350000Y-96600000D01*
X162350000Y-95800000D01*
X162750000Y-95800000D01*
X162750000Y-96600000D01*
G37*
G36*
X163550000Y-96600000D02*
G01*
X163150000Y-96600000D01*
X163150000Y-95800000D01*
X163550000Y-95800000D01*
X163550000Y-96600000D01*
G37*
G36*
X164350000Y-96600000D02*
G01*
X163950000Y-96600000D01*
X163950000Y-95800000D01*
X164350000Y-95800000D01*
X164350000Y-96600000D01*
G37*
G36*
X165150000Y-96600000D02*
G01*
X164750000Y-96600000D01*
X164750000Y-95800000D01*
X165150000Y-95800000D01*
X165150000Y-96600000D01*
G37*
G36*
X165950000Y-96600000D02*
G01*
X165550000Y-96600000D01*
X165550000Y-95800000D01*
X165950000Y-95800000D01*
X165950000Y-96600000D01*
G37*
G36*
X166750000Y-96600000D02*
G01*
X166350000Y-96600000D01*
X166350000Y-95800000D01*
X166750000Y-95800000D01*
X166750000Y-96600000D01*
G37*
G36*
X167550000Y-96600000D02*
G01*
X167150000Y-96600000D01*
X167150000Y-95800000D01*
X167550000Y-95800000D01*
X167550000Y-96600000D01*
G37*
G36*
X156950000Y-96500000D02*
G01*
X156250000Y-96500000D01*
X156250000Y-95800000D01*
X156950000Y-95800000D01*
X156950000Y-96500000D01*
G37*
G36*
X168850000Y-96500000D02*
G01*
X168150000Y-96500000D01*
X168150000Y-95800000D01*
X168850000Y-95800000D01*
X168850000Y-96500000D01*
G37*
G36*
X147524805Y-95837836D02*
G01*
X147592628Y-95876994D01*
X147648006Y-95932372D01*
X147687164Y-96000195D01*
X147707433Y-96075842D01*
X147707433Y-96154158D01*
X147687164Y-96229805D01*
X147648006Y-96297628D01*
X147592628Y-96353006D01*
X147524805Y-96392164D01*
X147449158Y-96412433D01*
X147370842Y-96412433D01*
X147295195Y-96392164D01*
X147227372Y-96353006D01*
X147171994Y-96297628D01*
X147132836Y-96229805D01*
X147112567Y-96154158D01*
X147112567Y-96075842D01*
X147132836Y-96000195D01*
X147171994Y-95932372D01*
X147227372Y-95876994D01*
X147295195Y-95837836D01*
X147370842Y-95817567D01*
X147449158Y-95817567D01*
X147524805Y-95837836D01*
G37*
G36*
X151980000Y-96300000D02*
G01*
X151780000Y-96300000D01*
X151780000Y-96100000D01*
X151980000Y-96100000D01*
X151980000Y-96300000D01*
G37*
G36*
X148304805Y-95397836D02*
G01*
X148372628Y-95436994D01*
X148428006Y-95492372D01*
X148467164Y-95560195D01*
X148487433Y-95635842D01*
X148487433Y-95714158D01*
X148467164Y-95789805D01*
X148428006Y-95857628D01*
X148372628Y-95913006D01*
X148304805Y-95952164D01*
X148229158Y-95972433D01*
X148150842Y-95972433D01*
X148075195Y-95952164D01*
X148007372Y-95913006D01*
X147951994Y-95857628D01*
X147912836Y-95789805D01*
X147892567Y-95714158D01*
X147892567Y-95635842D01*
X147912836Y-95560195D01*
X147951994Y-95492372D01*
X148007372Y-95436994D01*
X148075195Y-95397836D01*
X148150842Y-95377567D01*
X148229158Y-95377567D01*
X148304805Y-95397836D01*
G37*
G36*
X171654850Y-94475964D02*
G01*
X171705040Y-94481787D01*
X171722189Y-94489359D01*
X171745671Y-94494030D01*
X171770810Y-94510827D01*
X171790696Y-94519608D01*
X171804277Y-94533189D01*
X171826777Y-94548223D01*
X171841810Y-94570722D01*
X171855391Y-94584303D01*
X171864170Y-94604186D01*
X171880970Y-94629329D01*
X171885641Y-94652812D01*
X171893212Y-94669959D01*
X171899033Y-94720139D01*
X171900000Y-94725000D01*
X171900000Y-95675000D01*
X171899032Y-95679863D01*
X171893212Y-95730040D01*
X171885641Y-95747185D01*
X171880970Y-95770671D01*
X171864169Y-95795815D01*
X171855391Y-95815696D01*
X171841812Y-95829274D01*
X171826777Y-95851777D01*
X171804274Y-95866812D01*
X171790696Y-95880391D01*
X171770815Y-95889169D01*
X171745671Y-95905970D01*
X171722185Y-95910641D01*
X171705040Y-95918212D01*
X171654861Y-95924032D01*
X171650000Y-95925000D01*
X171150000Y-95925000D01*
X171145138Y-95924032D01*
X171094959Y-95918212D01*
X171077812Y-95910641D01*
X171054329Y-95905970D01*
X171029186Y-95889170D01*
X171009303Y-95880391D01*
X170995722Y-95866810D01*
X170973223Y-95851777D01*
X170958189Y-95829277D01*
X170944608Y-95815696D01*
X170935827Y-95795810D01*
X170919030Y-95770671D01*
X170914359Y-95747189D01*
X170906787Y-95730040D01*
X170900964Y-95679849D01*
X170900000Y-95675000D01*
X170900000Y-94725000D01*
X170900964Y-94720150D01*
X170906787Y-94669959D01*
X170914359Y-94652808D01*
X170919030Y-94629329D01*
X170935826Y-94604191D01*
X170944608Y-94584303D01*
X170958191Y-94570719D01*
X170973223Y-94548223D01*
X170995719Y-94533191D01*
X171009303Y-94519608D01*
X171029191Y-94510826D01*
X171054329Y-94494030D01*
X171077808Y-94489359D01*
X171094959Y-94481787D01*
X171145151Y-94475964D01*
X171150000Y-94475000D01*
X171650000Y-94475000D01*
X171654850Y-94475964D01*
G37*
G36*
X173554850Y-94475964D02*
G01*
X173605040Y-94481787D01*
X173622189Y-94489359D01*
X173645671Y-94494030D01*
X173670810Y-94510827D01*
X173690696Y-94519608D01*
X173704277Y-94533189D01*
X173726777Y-94548223D01*
X173741810Y-94570722D01*
X173755391Y-94584303D01*
X173764170Y-94604186D01*
X173780970Y-94629329D01*
X173785641Y-94652812D01*
X173793212Y-94669959D01*
X173799033Y-94720139D01*
X173800000Y-94725000D01*
X173800000Y-95675000D01*
X173799032Y-95679863D01*
X173793212Y-95730040D01*
X173785641Y-95747185D01*
X173780970Y-95770671D01*
X173764169Y-95795815D01*
X173755391Y-95815696D01*
X173741812Y-95829274D01*
X173726777Y-95851777D01*
X173704274Y-95866812D01*
X173690696Y-95880391D01*
X173670815Y-95889169D01*
X173645671Y-95905970D01*
X173622185Y-95910641D01*
X173605040Y-95918212D01*
X173554861Y-95924032D01*
X173550000Y-95925000D01*
X173050000Y-95925000D01*
X173045138Y-95924032D01*
X172994959Y-95918212D01*
X172977812Y-95910641D01*
X172954329Y-95905970D01*
X172929186Y-95889170D01*
X172909303Y-95880391D01*
X172895722Y-95866810D01*
X172873223Y-95851777D01*
X172858189Y-95829277D01*
X172844608Y-95815696D01*
X172835827Y-95795810D01*
X172819030Y-95770671D01*
X172814359Y-95747189D01*
X172806787Y-95730040D01*
X172800964Y-95679849D01*
X172800000Y-95675000D01*
X172800000Y-94725000D01*
X172800964Y-94720150D01*
X172806787Y-94669959D01*
X172814359Y-94652808D01*
X172819030Y-94629329D01*
X172835826Y-94604191D01*
X172844608Y-94584303D01*
X172858191Y-94570719D01*
X172873223Y-94548223D01*
X172895719Y-94533191D01*
X172909303Y-94519608D01*
X172929191Y-94510826D01*
X172954329Y-94494030D01*
X172977808Y-94489359D01*
X172994959Y-94481787D01*
X173045151Y-94475964D01*
X173050000Y-94475000D01*
X173550000Y-94475000D01*
X173554850Y-94475964D01*
G37*
G36*
X152220000Y-95800000D02*
G01*
X152020000Y-95800000D01*
X152020000Y-95600000D01*
X152220000Y-95600000D01*
X152220000Y-95800000D01*
G37*
G36*
X177504850Y-94275964D02*
G01*
X177555040Y-94281787D01*
X177572189Y-94289359D01*
X177595671Y-94294030D01*
X177620810Y-94310827D01*
X177640696Y-94319608D01*
X177654277Y-94333189D01*
X177676777Y-94348223D01*
X177691810Y-94370722D01*
X177705391Y-94384303D01*
X177714170Y-94404186D01*
X177730970Y-94429329D01*
X177735641Y-94452812D01*
X177743212Y-94469959D01*
X177749033Y-94520139D01*
X177750000Y-94525000D01*
X177750000Y-95475000D01*
X177749032Y-95479863D01*
X177743212Y-95530040D01*
X177735641Y-95547185D01*
X177730970Y-95570671D01*
X177714169Y-95595815D01*
X177705391Y-95615696D01*
X177691812Y-95629274D01*
X177676777Y-95651777D01*
X177654274Y-95666812D01*
X177640696Y-95680391D01*
X177620815Y-95689169D01*
X177595671Y-95705970D01*
X177572185Y-95710641D01*
X177555040Y-95718212D01*
X177504861Y-95724032D01*
X177500000Y-95725000D01*
X177000000Y-95725000D01*
X176995138Y-95724032D01*
X176944959Y-95718212D01*
X176927812Y-95710641D01*
X176904329Y-95705970D01*
X176879186Y-95689170D01*
X176859303Y-95680391D01*
X176845722Y-95666810D01*
X176823223Y-95651777D01*
X176808189Y-95629277D01*
X176794608Y-95615696D01*
X176785827Y-95595810D01*
X176769030Y-95570671D01*
X176764359Y-95547189D01*
X176756787Y-95530040D01*
X176750964Y-95479849D01*
X176750000Y-95475000D01*
X176750000Y-94525000D01*
X176750964Y-94520150D01*
X176756787Y-94469959D01*
X176764359Y-94452808D01*
X176769030Y-94429329D01*
X176785826Y-94404191D01*
X176794608Y-94384303D01*
X176808191Y-94370719D01*
X176823223Y-94348223D01*
X176845719Y-94333191D01*
X176859303Y-94319608D01*
X176879191Y-94310826D01*
X176904329Y-94294030D01*
X176927808Y-94289359D01*
X176944959Y-94281787D01*
X176995151Y-94275964D01*
X177000000Y-94275000D01*
X177500000Y-94275000D01*
X177504850Y-94275964D01*
G37*
G36*
X179404850Y-94275964D02*
G01*
X179455040Y-94281787D01*
X179472189Y-94289359D01*
X179495671Y-94294030D01*
X179520810Y-94310827D01*
X179540696Y-94319608D01*
X179554277Y-94333189D01*
X179576777Y-94348223D01*
X179591810Y-94370722D01*
X179605391Y-94384303D01*
X179614170Y-94404186D01*
X179630970Y-94429329D01*
X179635641Y-94452812D01*
X179643212Y-94469959D01*
X179649033Y-94520139D01*
X179650000Y-94525000D01*
X179650000Y-95475000D01*
X179649032Y-95479863D01*
X179643212Y-95530040D01*
X179635641Y-95547185D01*
X179630970Y-95570671D01*
X179614169Y-95595815D01*
X179605391Y-95615696D01*
X179591812Y-95629274D01*
X179576777Y-95651777D01*
X179554274Y-95666812D01*
X179540696Y-95680391D01*
X179520815Y-95689169D01*
X179495671Y-95705970D01*
X179472185Y-95710641D01*
X179455040Y-95718212D01*
X179404861Y-95724032D01*
X179400000Y-95725000D01*
X178900000Y-95725000D01*
X178895138Y-95724032D01*
X178844959Y-95718212D01*
X178827812Y-95710641D01*
X178804329Y-95705970D01*
X178779186Y-95689170D01*
X178759303Y-95680391D01*
X178745722Y-95666810D01*
X178723223Y-95651777D01*
X178708189Y-95629277D01*
X178694608Y-95615696D01*
X178685827Y-95595810D01*
X178669030Y-95570671D01*
X178664359Y-95547189D01*
X178656787Y-95530040D01*
X178650964Y-95479849D01*
X178650000Y-95475000D01*
X178650000Y-94525000D01*
X178650964Y-94520150D01*
X178656787Y-94469959D01*
X178664359Y-94452808D01*
X178669030Y-94429329D01*
X178685826Y-94404191D01*
X178694608Y-94384303D01*
X178708191Y-94370719D01*
X178723223Y-94348223D01*
X178745719Y-94333191D01*
X178759303Y-94319608D01*
X178779191Y-94310826D01*
X178804329Y-94294030D01*
X178827808Y-94289359D01*
X178844959Y-94281787D01*
X178895151Y-94275964D01*
X178900000Y-94275000D01*
X179400000Y-94275000D01*
X179404850Y-94275964D01*
G37*
G36*
X147524805Y-94947836D02*
G01*
X147592628Y-94986994D01*
X147648006Y-95042372D01*
X147687164Y-95110195D01*
X147707433Y-95185842D01*
X147707433Y-95264158D01*
X147687164Y-95339805D01*
X147648006Y-95407628D01*
X147592628Y-95463006D01*
X147524805Y-95502164D01*
X147449158Y-95522433D01*
X147370842Y-95522433D01*
X147295195Y-95502164D01*
X147227372Y-95463006D01*
X147171994Y-95407628D01*
X147132836Y-95339805D01*
X147112567Y-95264158D01*
X147112567Y-95185842D01*
X147132836Y-95110195D01*
X147171994Y-95042372D01*
X147227372Y-94986994D01*
X147295195Y-94947836D01*
X147370842Y-94927567D01*
X147449158Y-94927567D01*
X147524805Y-94947836D01*
G37*
G36*
X189000000Y-95400000D02*
G01*
X187400000Y-95400000D01*
X187400000Y-93800000D01*
X189000000Y-93800000D01*
X189000000Y-95400000D01*
G37*
G36*
X151980000Y-95300000D02*
G01*
X151780000Y-95300000D01*
X151780000Y-95100000D01*
X151980000Y-95100000D01*
X151980000Y-95300000D01*
G37*
G36*
X139379850Y-94200964D02*
G01*
X139430040Y-94206787D01*
X139447189Y-94214359D01*
X139470671Y-94219030D01*
X139495810Y-94235827D01*
X139515696Y-94244608D01*
X139529277Y-94258189D01*
X139551777Y-94273223D01*
X139566810Y-94295722D01*
X139580391Y-94309303D01*
X139589170Y-94329186D01*
X139605970Y-94354329D01*
X139610641Y-94377812D01*
X139618212Y-94394959D01*
X139624033Y-94445139D01*
X139625000Y-94450000D01*
X139625000Y-94950000D01*
X139624032Y-94954863D01*
X139618212Y-95005040D01*
X139610641Y-95022185D01*
X139605970Y-95045671D01*
X139589169Y-95070815D01*
X139580391Y-95090696D01*
X139566812Y-95104274D01*
X139551777Y-95126777D01*
X139529274Y-95141812D01*
X139515696Y-95155391D01*
X139495815Y-95164169D01*
X139470671Y-95180970D01*
X139447185Y-95185641D01*
X139430040Y-95193212D01*
X139379861Y-95199032D01*
X139375000Y-95200000D01*
X138425000Y-95200000D01*
X138420138Y-95199032D01*
X138369959Y-95193212D01*
X138352812Y-95185641D01*
X138329329Y-95180970D01*
X138304186Y-95164170D01*
X138284303Y-95155391D01*
X138270722Y-95141810D01*
X138248223Y-95126777D01*
X138233189Y-95104277D01*
X138219608Y-95090696D01*
X138210827Y-95070810D01*
X138194030Y-95045671D01*
X138189359Y-95022189D01*
X138181787Y-95005040D01*
X138175964Y-94954849D01*
X138175000Y-94950000D01*
X138175000Y-94450000D01*
X138175964Y-94445150D01*
X138181787Y-94394959D01*
X138189359Y-94377808D01*
X138194030Y-94354329D01*
X138210826Y-94329191D01*
X138219608Y-94309303D01*
X138233191Y-94295719D01*
X138248223Y-94273223D01*
X138270719Y-94258191D01*
X138284303Y-94244608D01*
X138304191Y-94235826D01*
X138329329Y-94219030D01*
X138352808Y-94214359D01*
X138369959Y-94206787D01*
X138420151Y-94200964D01*
X138425000Y-94200000D01*
X139375000Y-94200000D01*
X139379850Y-94200964D01*
G37*
G36*
X148304805Y-94487836D02*
G01*
X148372628Y-94526994D01*
X148428006Y-94582372D01*
X148467164Y-94650195D01*
X148487433Y-94725842D01*
X148487433Y-94804158D01*
X148467164Y-94879805D01*
X148428006Y-94947628D01*
X148372628Y-95003006D01*
X148304805Y-95042164D01*
X148229158Y-95062433D01*
X148150842Y-95062433D01*
X148075195Y-95042164D01*
X148007372Y-95003006D01*
X147951994Y-94947628D01*
X147912836Y-94879805D01*
X147892567Y-94804158D01*
X147892567Y-94725842D01*
X147912836Y-94650195D01*
X147951994Y-94582372D01*
X148007372Y-94526994D01*
X148075195Y-94487836D01*
X148150842Y-94467567D01*
X148229158Y-94467567D01*
X148304805Y-94487836D01*
G37*
G36*
X146542208Y-93059254D02*
G01*
X146643943Y-93117991D01*
X146727009Y-93201057D01*
X146785746Y-93302792D01*
X146816150Y-93416263D01*
X146820000Y-93475000D01*
X146820000Y-94475000D01*
X146816150Y-94533737D01*
X146785746Y-94647208D01*
X146727009Y-94748943D01*
X146643943Y-94832009D01*
X146542208Y-94890746D01*
X146428737Y-94921150D01*
X146311263Y-94921150D01*
X146197792Y-94890746D01*
X146096057Y-94832009D01*
X146012991Y-94748943D01*
X145954254Y-94647208D01*
X145923850Y-94533737D01*
X145920000Y-94475000D01*
X145920000Y-93475000D01*
X145923850Y-93416263D01*
X145954254Y-93302792D01*
X146012991Y-93201057D01*
X146096057Y-93117991D01*
X146197792Y-93059254D01*
X146311263Y-93028850D01*
X146428737Y-93028850D01*
X146542208Y-93059254D01*
G37*
G36*
X149402208Y-93059254D02*
G01*
X149503943Y-93117991D01*
X149587009Y-93201057D01*
X149645746Y-93302792D01*
X149676150Y-93416263D01*
X149680000Y-93475000D01*
X149680000Y-94475000D01*
X149676150Y-94533737D01*
X149645746Y-94647208D01*
X149587009Y-94748943D01*
X149503943Y-94832009D01*
X149402208Y-94890746D01*
X149288737Y-94921150D01*
X149171263Y-94921150D01*
X149057792Y-94890746D01*
X148956057Y-94832009D01*
X148872991Y-94748943D01*
X148814254Y-94647208D01*
X148783850Y-94533737D01*
X148780000Y-94475000D01*
X148780000Y-93475000D01*
X148783850Y-93416263D01*
X148814254Y-93302792D01*
X148872991Y-93201057D01*
X148956057Y-93117991D01*
X149057792Y-93059254D01*
X149171263Y-93028850D01*
X149288737Y-93028850D01*
X149402208Y-93059254D01*
G37*
G36*
X131604850Y-92800964D02*
G01*
X131655040Y-92806787D01*
X131672189Y-92814359D01*
X131695671Y-92819030D01*
X131720810Y-92835827D01*
X131740696Y-92844608D01*
X131754277Y-92858189D01*
X131776777Y-92873223D01*
X131791810Y-92895722D01*
X131805391Y-92909303D01*
X131814170Y-92929186D01*
X131830970Y-92954329D01*
X131835641Y-92977812D01*
X131843212Y-92994959D01*
X131849033Y-93045139D01*
X131850000Y-93050000D01*
X131850000Y-94650000D01*
X131849032Y-94654863D01*
X131843212Y-94705040D01*
X131835641Y-94722185D01*
X131830970Y-94745671D01*
X131814169Y-94770815D01*
X131805391Y-94790696D01*
X131791812Y-94804274D01*
X131776777Y-94826777D01*
X131754274Y-94841812D01*
X131740696Y-94855391D01*
X131720815Y-94864169D01*
X131695671Y-94880970D01*
X131672185Y-94885641D01*
X131655040Y-94893212D01*
X131604861Y-94899032D01*
X131600000Y-94900000D01*
X130700000Y-94900000D01*
X130695138Y-94899032D01*
X130644959Y-94893212D01*
X130627812Y-94885641D01*
X130604329Y-94880970D01*
X130579186Y-94864170D01*
X130559303Y-94855391D01*
X130545722Y-94841810D01*
X130523223Y-94826777D01*
X130508189Y-94804277D01*
X130494608Y-94790696D01*
X130485827Y-94770810D01*
X130469030Y-94745671D01*
X130464359Y-94722189D01*
X130456787Y-94705040D01*
X130450964Y-94654849D01*
X130450000Y-94650000D01*
X130450000Y-93050000D01*
X130450964Y-93045150D01*
X130456787Y-92994959D01*
X130464359Y-92977808D01*
X130469030Y-92954329D01*
X130485826Y-92929191D01*
X130494608Y-92909303D01*
X130508191Y-92895719D01*
X130523223Y-92873223D01*
X130545719Y-92858191D01*
X130559303Y-92844608D01*
X130579191Y-92835826D01*
X130604329Y-92819030D01*
X130627808Y-92814359D01*
X130644959Y-92806787D01*
X130695151Y-92800964D01*
X130700000Y-92800000D01*
X131600000Y-92800000D01*
X131604850Y-92800964D01*
G37*
G36*
X136104850Y-92800964D02*
G01*
X136155040Y-92806787D01*
X136172189Y-92814359D01*
X136195671Y-92819030D01*
X136220810Y-92835827D01*
X136240696Y-92844608D01*
X136254277Y-92858189D01*
X136276777Y-92873223D01*
X136291810Y-92895722D01*
X136305391Y-92909303D01*
X136314170Y-92929186D01*
X136330970Y-92954329D01*
X136335641Y-92977812D01*
X136343212Y-92994959D01*
X136349033Y-93045139D01*
X136350000Y-93050000D01*
X136350000Y-94650000D01*
X136349032Y-94654863D01*
X136343212Y-94705040D01*
X136335641Y-94722185D01*
X136330970Y-94745671D01*
X136314169Y-94770815D01*
X136305391Y-94790696D01*
X136291812Y-94804274D01*
X136276777Y-94826777D01*
X136254274Y-94841812D01*
X136240696Y-94855391D01*
X136220815Y-94864169D01*
X136195671Y-94880970D01*
X136172185Y-94885641D01*
X136155040Y-94893212D01*
X136104861Y-94899032D01*
X136100000Y-94900000D01*
X135200000Y-94900000D01*
X135195138Y-94899032D01*
X135144959Y-94893212D01*
X135127812Y-94885641D01*
X135104329Y-94880970D01*
X135079186Y-94864170D01*
X135059303Y-94855391D01*
X135045722Y-94841810D01*
X135023223Y-94826777D01*
X135008189Y-94804277D01*
X134994608Y-94790696D01*
X134985827Y-94770810D01*
X134969030Y-94745671D01*
X134964359Y-94722189D01*
X134956787Y-94705040D01*
X134950964Y-94654849D01*
X134950000Y-94650000D01*
X134950000Y-93050000D01*
X134950964Y-93045150D01*
X134956787Y-92994959D01*
X134964359Y-92977808D01*
X134969030Y-92954329D01*
X134985826Y-92929191D01*
X134994608Y-92909303D01*
X135008191Y-92895719D01*
X135023223Y-92873223D01*
X135045719Y-92858191D01*
X135059303Y-92844608D01*
X135079191Y-92835826D01*
X135104329Y-92819030D01*
X135127808Y-92814359D01*
X135144959Y-92806787D01*
X135195151Y-92800964D01*
X135200000Y-92800000D01*
X136100000Y-92800000D01*
X136104850Y-92800964D01*
G37*
G36*
X147524805Y-94047836D02*
G01*
X147592628Y-94086994D01*
X147648006Y-94142372D01*
X147687164Y-94210195D01*
X147707433Y-94285842D01*
X147707433Y-94364158D01*
X147687164Y-94439805D01*
X147648006Y-94507628D01*
X147592628Y-94563006D01*
X147524805Y-94602164D01*
X147449158Y-94622433D01*
X147370842Y-94622433D01*
X147295195Y-94602164D01*
X147227372Y-94563006D01*
X147171994Y-94507628D01*
X147132836Y-94439805D01*
X147112567Y-94364158D01*
X147112567Y-94285842D01*
X147132836Y-94210195D01*
X147171994Y-94142372D01*
X147227372Y-94086994D01*
X147295195Y-94047836D01*
X147370842Y-94027567D01*
X147449158Y-94027567D01*
X147524805Y-94047836D01*
G37*
G36*
X148304805Y-93597836D02*
G01*
X148372628Y-93636994D01*
X148428006Y-93692372D01*
X148467164Y-93760195D01*
X148487433Y-93835842D01*
X148487433Y-93914158D01*
X148467164Y-93989805D01*
X148428006Y-94057628D01*
X148372628Y-94113006D01*
X148304805Y-94152164D01*
X148229158Y-94172433D01*
X148150842Y-94172433D01*
X148075195Y-94152164D01*
X148007372Y-94113006D01*
X147951994Y-94057628D01*
X147912836Y-93989805D01*
X147892567Y-93914158D01*
X147892567Y-93835842D01*
X147912836Y-93760195D01*
X147951994Y-93692372D01*
X148007372Y-93636994D01*
X148075195Y-93597836D01*
X148150842Y-93577567D01*
X148229158Y-93577567D01*
X148304805Y-93597836D01*
G37*
G36*
X147524805Y-93137836D02*
G01*
X147592628Y-93176994D01*
X147648006Y-93232372D01*
X147687164Y-93300195D01*
X147707433Y-93375842D01*
X147707433Y-93454158D01*
X147687164Y-93529805D01*
X147648006Y-93597628D01*
X147592628Y-93653006D01*
X147524805Y-93692164D01*
X147449158Y-93712433D01*
X147370842Y-93712433D01*
X147295195Y-93692164D01*
X147227372Y-93653006D01*
X147171994Y-93597628D01*
X147132836Y-93529805D01*
X147112567Y-93454158D01*
X147112567Y-93375842D01*
X147132836Y-93300195D01*
X147171994Y-93232372D01*
X147227372Y-93176994D01*
X147295195Y-93137836D01*
X147370842Y-93117567D01*
X147449158Y-93117567D01*
X147524805Y-93137836D01*
G37*
G36*
X139379850Y-92300964D02*
G01*
X139430040Y-92306787D01*
X139447189Y-92314359D01*
X139470671Y-92319030D01*
X139495810Y-92335827D01*
X139515696Y-92344608D01*
X139529277Y-92358189D01*
X139551777Y-92373223D01*
X139566810Y-92395722D01*
X139580391Y-92409303D01*
X139589170Y-92429186D01*
X139605970Y-92454329D01*
X139610641Y-92477812D01*
X139618212Y-92494959D01*
X139624033Y-92545139D01*
X139625000Y-92550000D01*
X139625000Y-93050000D01*
X139624032Y-93054863D01*
X139618212Y-93105040D01*
X139610641Y-93122185D01*
X139605970Y-93145671D01*
X139589169Y-93170815D01*
X139580391Y-93190696D01*
X139566812Y-93204274D01*
X139551777Y-93226777D01*
X139529274Y-93241812D01*
X139515696Y-93255391D01*
X139495815Y-93264169D01*
X139470671Y-93280970D01*
X139447185Y-93285641D01*
X139430040Y-93293212D01*
X139379861Y-93299032D01*
X139375000Y-93300000D01*
X138425000Y-93300000D01*
X138420138Y-93299032D01*
X138369959Y-93293212D01*
X138352812Y-93285641D01*
X138329329Y-93280970D01*
X138304186Y-93264170D01*
X138284303Y-93255391D01*
X138270722Y-93241810D01*
X138248223Y-93226777D01*
X138233189Y-93204277D01*
X138219608Y-93190696D01*
X138210827Y-93170810D01*
X138194030Y-93145671D01*
X138189359Y-93122189D01*
X138181787Y-93105040D01*
X138175964Y-93054849D01*
X138175000Y-93050000D01*
X138175000Y-92550000D01*
X138175964Y-92545150D01*
X138181787Y-92494959D01*
X138189359Y-92477808D01*
X138194030Y-92454329D01*
X138210826Y-92429191D01*
X138219608Y-92409303D01*
X138233191Y-92395719D01*
X138248223Y-92373223D01*
X138270719Y-92358191D01*
X138284303Y-92344608D01*
X138304191Y-92335826D01*
X138329329Y-92319030D01*
X138352808Y-92314359D01*
X138369959Y-92306787D01*
X138420151Y-92300964D01*
X138425000Y-92300000D01*
X139375000Y-92300000D01*
X139379850Y-92300964D01*
G37*
G36*
X186250168Y-90311445D02*
G01*
X186474025Y-90384181D01*
X186683748Y-90491040D01*
X186874172Y-90629391D01*
X187040609Y-90795828D01*
X187178960Y-90986252D01*
X187285819Y-91195975D01*
X187358555Y-91419832D01*
X187395376Y-91652311D01*
X187395376Y-91887689D01*
X187358555Y-92120168D01*
X187285819Y-92344025D01*
X187178960Y-92553748D01*
X187040609Y-92744172D01*
X186874172Y-92910609D01*
X186683748Y-93048960D01*
X186474025Y-93155819D01*
X186250168Y-93228555D01*
X186017689Y-93265376D01*
X185782311Y-93265376D01*
X185549832Y-93228555D01*
X185325975Y-93155819D01*
X185116252Y-93048960D01*
X184925828Y-92910609D01*
X184759391Y-92744172D01*
X184621040Y-92553748D01*
X184514181Y-92344025D01*
X184441445Y-92120168D01*
X184404624Y-91887689D01*
X184404624Y-91652311D01*
X184441445Y-91419832D01*
X184514181Y-91195975D01*
X184621040Y-90986252D01*
X184759391Y-90795828D01*
X184925828Y-90629391D01*
X185116252Y-90491040D01*
X185325975Y-90384181D01*
X185549832Y-90311445D01*
X185782311Y-90274624D01*
X186017689Y-90274624D01*
X186250168Y-90311445D01*
G37*
G36*
X171742350Y-90600964D02*
G01*
X171792540Y-90606787D01*
X171809689Y-90614359D01*
X171833171Y-90619030D01*
X171858310Y-90635827D01*
X171878196Y-90644608D01*
X171891777Y-90658189D01*
X171914277Y-90673223D01*
X171929310Y-90695722D01*
X171942891Y-90709303D01*
X171951670Y-90729186D01*
X171968470Y-90754329D01*
X171973141Y-90777812D01*
X171980712Y-90794959D01*
X171986533Y-90845139D01*
X171987500Y-90850000D01*
X171987500Y-91750000D01*
X171986532Y-91754863D01*
X171980712Y-91805040D01*
X171973141Y-91822185D01*
X171968470Y-91845671D01*
X171951669Y-91870815D01*
X171942891Y-91890696D01*
X171929312Y-91904274D01*
X171914277Y-91926777D01*
X171891774Y-91941812D01*
X171878196Y-91955391D01*
X171858315Y-91964169D01*
X171833171Y-91980970D01*
X171809685Y-91985641D01*
X171792540Y-91993212D01*
X171742361Y-91999032D01*
X171737500Y-92000000D01*
X171212500Y-92000000D01*
X171207638Y-91999032D01*
X171157459Y-91993212D01*
X171140312Y-91985641D01*
X171116829Y-91980970D01*
X171091686Y-91964170D01*
X171071803Y-91955391D01*
X171058222Y-91941810D01*
X171035723Y-91926777D01*
X171020689Y-91904277D01*
X171007108Y-91890696D01*
X170998327Y-91870810D01*
X170981530Y-91845671D01*
X170976859Y-91822189D01*
X170969287Y-91805040D01*
X170963464Y-91754849D01*
X170962500Y-91750000D01*
X170962500Y-90850000D01*
X170963464Y-90845150D01*
X170969287Y-90794959D01*
X170976859Y-90777808D01*
X170981530Y-90754329D01*
X170998326Y-90729191D01*
X171007108Y-90709303D01*
X171020691Y-90695719D01*
X171035723Y-90673223D01*
X171058219Y-90658191D01*
X171071803Y-90644608D01*
X171091691Y-90635826D01*
X171116829Y-90619030D01*
X171140308Y-90614359D01*
X171157459Y-90606787D01*
X171207651Y-90600964D01*
X171212500Y-90600000D01*
X171737500Y-90600000D01*
X171742350Y-90600964D01*
G37*
G36*
X173567350Y-90600964D02*
G01*
X173617540Y-90606787D01*
X173634689Y-90614359D01*
X173658171Y-90619030D01*
X173683310Y-90635827D01*
X173703196Y-90644608D01*
X173716777Y-90658189D01*
X173739277Y-90673223D01*
X173754310Y-90695722D01*
X173767891Y-90709303D01*
X173776670Y-90729186D01*
X173793470Y-90754329D01*
X173798141Y-90777812D01*
X173805712Y-90794959D01*
X173811533Y-90845139D01*
X173812500Y-90850000D01*
X173812500Y-91750000D01*
X173811532Y-91754863D01*
X173805712Y-91805040D01*
X173798141Y-91822185D01*
X173793470Y-91845671D01*
X173776669Y-91870815D01*
X173767891Y-91890696D01*
X173754312Y-91904274D01*
X173739277Y-91926777D01*
X173716774Y-91941812D01*
X173703196Y-91955391D01*
X173683315Y-91964169D01*
X173658171Y-91980970D01*
X173634685Y-91985641D01*
X173617540Y-91993212D01*
X173567361Y-91999032D01*
X173562500Y-92000000D01*
X173037500Y-92000000D01*
X173032638Y-91999032D01*
X172982459Y-91993212D01*
X172965312Y-91985641D01*
X172941829Y-91980970D01*
X172916686Y-91964170D01*
X172896803Y-91955391D01*
X172883222Y-91941810D01*
X172860723Y-91926777D01*
X172845689Y-91904277D01*
X172832108Y-91890696D01*
X172823327Y-91870810D01*
X172806530Y-91845671D01*
X172801859Y-91822189D01*
X172794287Y-91805040D01*
X172788464Y-91754849D01*
X172787500Y-91750000D01*
X172787500Y-90850000D01*
X172788464Y-90845150D01*
X172794287Y-90794959D01*
X172801859Y-90777808D01*
X172806530Y-90754329D01*
X172823326Y-90729191D01*
X172832108Y-90709303D01*
X172845691Y-90695719D01*
X172860723Y-90673223D01*
X172883219Y-90658191D01*
X172896803Y-90644608D01*
X172916691Y-90635826D01*
X172941829Y-90619030D01*
X172965308Y-90614359D01*
X172982459Y-90606787D01*
X173032651Y-90600964D01*
X173037500Y-90600000D01*
X173562500Y-90600000D01*
X173567350Y-90600964D01*
G37*
G36*
X158057151Y-89886314D02*
G01*
X158120453Y-89922861D01*
X158172139Y-89974547D01*
X158208686Y-90037849D01*
X158227605Y-90108453D01*
X158230000Y-90145000D01*
X158230000Y-91335000D01*
X158227605Y-91371547D01*
X158208686Y-91442151D01*
X158172139Y-91505453D01*
X158120453Y-91557139D01*
X158057151Y-91593686D01*
X157986547Y-91612605D01*
X157913453Y-91612605D01*
X157842849Y-91593686D01*
X157779547Y-91557139D01*
X157727861Y-91505453D01*
X157691314Y-91442151D01*
X157672395Y-91371547D01*
X157670000Y-91335000D01*
X157670000Y-90145000D01*
X157672395Y-90108453D01*
X157691314Y-90037849D01*
X157727861Y-89974547D01*
X157779547Y-89922861D01*
X157842849Y-89886314D01*
X157913453Y-89867395D01*
X157986547Y-89867395D01*
X158057151Y-89886314D01*
G37*
G36*
X159327151Y-89886314D02*
G01*
X159390453Y-89922861D01*
X159442139Y-89974547D01*
X159478686Y-90037849D01*
X159497605Y-90108453D01*
X159500000Y-90145000D01*
X159500000Y-91335000D01*
X159497605Y-91371547D01*
X159478686Y-91442151D01*
X159442139Y-91505453D01*
X159390453Y-91557139D01*
X159327151Y-91593686D01*
X159256547Y-91612605D01*
X159183453Y-91612605D01*
X159112849Y-91593686D01*
X159049547Y-91557139D01*
X158997861Y-91505453D01*
X158961314Y-91442151D01*
X158942395Y-91371547D01*
X158940000Y-91335000D01*
X158940000Y-90145000D01*
X158942395Y-90108453D01*
X158961314Y-90037849D01*
X158997861Y-89974547D01*
X159049547Y-89922861D01*
X159112849Y-89886314D01*
X159183453Y-89867395D01*
X159256547Y-89867395D01*
X159327151Y-89886314D01*
G37*
G36*
X160597151Y-89886314D02*
G01*
X160660453Y-89922861D01*
X160712139Y-89974547D01*
X160748686Y-90037849D01*
X160767605Y-90108453D01*
X160770000Y-90145000D01*
X160770000Y-91335000D01*
X160767605Y-91371547D01*
X160748686Y-91442151D01*
X160712139Y-91505453D01*
X160660453Y-91557139D01*
X160597151Y-91593686D01*
X160526547Y-91612605D01*
X160453453Y-91612605D01*
X160382849Y-91593686D01*
X160319547Y-91557139D01*
X160267861Y-91505453D01*
X160231314Y-91442151D01*
X160212395Y-91371547D01*
X160210000Y-91335000D01*
X160210000Y-90145000D01*
X160212395Y-90108453D01*
X160231314Y-90037849D01*
X160267861Y-89974547D01*
X160319547Y-89922861D01*
X160382849Y-89886314D01*
X160453453Y-89867395D01*
X160526547Y-89867395D01*
X160597151Y-89886314D01*
G37*
G36*
X161867151Y-89886314D02*
G01*
X161930453Y-89922861D01*
X161982139Y-89974547D01*
X162018686Y-90037849D01*
X162037605Y-90108453D01*
X162040000Y-90145000D01*
X162040000Y-91335000D01*
X162037605Y-91371547D01*
X162018686Y-91442151D01*
X161982139Y-91505453D01*
X161930453Y-91557139D01*
X161867151Y-91593686D01*
X161796547Y-91612605D01*
X161723453Y-91612605D01*
X161652849Y-91593686D01*
X161589547Y-91557139D01*
X161537861Y-91505453D01*
X161501314Y-91442151D01*
X161482395Y-91371547D01*
X161480000Y-91335000D01*
X161480000Y-90145000D01*
X161482395Y-90108453D01*
X161501314Y-90037849D01*
X161537861Y-89974547D01*
X161589547Y-89922861D01*
X161652849Y-89886314D01*
X161723453Y-89867395D01*
X161796547Y-89867395D01*
X161867151Y-89886314D01*
G37*
G36*
X163127151Y-89886314D02*
G01*
X163190453Y-89922861D01*
X163242139Y-89974547D01*
X163278686Y-90037849D01*
X163297605Y-90108453D01*
X163300000Y-90145000D01*
X163300000Y-91335000D01*
X163297605Y-91371547D01*
X163278686Y-91442151D01*
X163242139Y-91505453D01*
X163190453Y-91557139D01*
X163127151Y-91593686D01*
X163056547Y-91612605D01*
X162983453Y-91612605D01*
X162912849Y-91593686D01*
X162849547Y-91557139D01*
X162797861Y-91505453D01*
X162761314Y-91442151D01*
X162742395Y-91371547D01*
X162740000Y-91335000D01*
X162740000Y-90145000D01*
X162742395Y-90108453D01*
X162761314Y-90037849D01*
X162797861Y-89974547D01*
X162849547Y-89922861D01*
X162912849Y-89886314D01*
X162983453Y-89867395D01*
X163056547Y-89867395D01*
X163127151Y-89886314D01*
G37*
G36*
X164407151Y-89886314D02*
G01*
X164470453Y-89922861D01*
X164522139Y-89974547D01*
X164558686Y-90037849D01*
X164577605Y-90108453D01*
X164580000Y-90145000D01*
X164580000Y-91335000D01*
X164577605Y-91371547D01*
X164558686Y-91442151D01*
X164522139Y-91505453D01*
X164470453Y-91557139D01*
X164407151Y-91593686D01*
X164336547Y-91612605D01*
X164263453Y-91612605D01*
X164192849Y-91593686D01*
X164129547Y-91557139D01*
X164077861Y-91505453D01*
X164041314Y-91442151D01*
X164022395Y-91371547D01*
X164020000Y-91335000D01*
X164020000Y-90145000D01*
X164022395Y-90108453D01*
X164041314Y-90037849D01*
X164077861Y-89974547D01*
X164129547Y-89922861D01*
X164192849Y-89886314D01*
X164263453Y-89867395D01*
X164336547Y-89867395D01*
X164407151Y-89886314D01*
G37*
G36*
X165677151Y-89886314D02*
G01*
X165740453Y-89922861D01*
X165792139Y-89974547D01*
X165828686Y-90037849D01*
X165847605Y-90108453D01*
X165850000Y-90145000D01*
X165850000Y-91335000D01*
X165847605Y-91371547D01*
X165828686Y-91442151D01*
X165792139Y-91505453D01*
X165740453Y-91557139D01*
X165677151Y-91593686D01*
X165606547Y-91612605D01*
X165533453Y-91612605D01*
X165462849Y-91593686D01*
X165399547Y-91557139D01*
X165347861Y-91505453D01*
X165311314Y-91442151D01*
X165292395Y-91371547D01*
X165290000Y-91335000D01*
X165290000Y-90145000D01*
X165292395Y-90108453D01*
X165311314Y-90037849D01*
X165347861Y-89974547D01*
X165399547Y-89922861D01*
X165462849Y-89886314D01*
X165533453Y-89867395D01*
X165606547Y-89867395D01*
X165677151Y-89886314D01*
G37*
G36*
X166947151Y-89886314D02*
G01*
X167010453Y-89922861D01*
X167062139Y-89974547D01*
X167098686Y-90037849D01*
X167117605Y-90108453D01*
X167120000Y-90145000D01*
X167120000Y-91335000D01*
X167117605Y-91371547D01*
X167098686Y-91442151D01*
X167062139Y-91505453D01*
X167010453Y-91557139D01*
X166947151Y-91593686D01*
X166876547Y-91612605D01*
X166803453Y-91612605D01*
X166732849Y-91593686D01*
X166669547Y-91557139D01*
X166617861Y-91505453D01*
X166581314Y-91442151D01*
X166562395Y-91371547D01*
X166560000Y-91335000D01*
X166560000Y-90145000D01*
X166562395Y-90108453D01*
X166581314Y-90037849D01*
X166617861Y-89974547D01*
X166669547Y-89922861D01*
X166732849Y-89886314D01*
X166803453Y-89867395D01*
X166876547Y-89867395D01*
X166947151Y-89886314D01*
G37*
G36*
X131604850Y-89500964D02*
G01*
X131655040Y-89506787D01*
X131672189Y-89514359D01*
X131695671Y-89519030D01*
X131720810Y-89535827D01*
X131740696Y-89544608D01*
X131754277Y-89558189D01*
X131776777Y-89573223D01*
X131791810Y-89595722D01*
X131805391Y-89609303D01*
X131814170Y-89629186D01*
X131830970Y-89654329D01*
X131835641Y-89677812D01*
X131843212Y-89694959D01*
X131849033Y-89745139D01*
X131850000Y-89750000D01*
X131850000Y-91350000D01*
X131849032Y-91354863D01*
X131843212Y-91405040D01*
X131835641Y-91422185D01*
X131830970Y-91445671D01*
X131814169Y-91470815D01*
X131805391Y-91490696D01*
X131791812Y-91504274D01*
X131776777Y-91526777D01*
X131754274Y-91541812D01*
X131740696Y-91555391D01*
X131720815Y-91564169D01*
X131695671Y-91580970D01*
X131672185Y-91585641D01*
X131655040Y-91593212D01*
X131604861Y-91599032D01*
X131600000Y-91600000D01*
X130700000Y-91600000D01*
X130695138Y-91599032D01*
X130644959Y-91593212D01*
X130627812Y-91585641D01*
X130604329Y-91580970D01*
X130579186Y-91564170D01*
X130559303Y-91555391D01*
X130545722Y-91541810D01*
X130523223Y-91526777D01*
X130508189Y-91504277D01*
X130494608Y-91490696D01*
X130485827Y-91470810D01*
X130469030Y-91445671D01*
X130464359Y-91422189D01*
X130456787Y-91405040D01*
X130450964Y-91354849D01*
X130450000Y-91350000D01*
X130450000Y-89750000D01*
X130450964Y-89745150D01*
X130456787Y-89694959D01*
X130464359Y-89677808D01*
X130469030Y-89654329D01*
X130485826Y-89629191D01*
X130494608Y-89609303D01*
X130508191Y-89595719D01*
X130523223Y-89573223D01*
X130545719Y-89558191D01*
X130559303Y-89544608D01*
X130579191Y-89535826D01*
X130604329Y-89519030D01*
X130627808Y-89514359D01*
X130644959Y-89506787D01*
X130695151Y-89500964D01*
X130700000Y-89500000D01*
X131600000Y-89500000D01*
X131604850Y-89500964D01*
G37*
G36*
X136104850Y-89500964D02*
G01*
X136155040Y-89506787D01*
X136172189Y-89514359D01*
X136195671Y-89519030D01*
X136220810Y-89535827D01*
X136240696Y-89544608D01*
X136254277Y-89558189D01*
X136276777Y-89573223D01*
X136291810Y-89595722D01*
X136305391Y-89609303D01*
X136314170Y-89629186D01*
X136330970Y-89654329D01*
X136335641Y-89677812D01*
X136343212Y-89694959D01*
X136349033Y-89745139D01*
X136350000Y-89750000D01*
X136350000Y-91350000D01*
X136349032Y-91354863D01*
X136343212Y-91405040D01*
X136335641Y-91422185D01*
X136330970Y-91445671D01*
X136314169Y-91470815D01*
X136305391Y-91490696D01*
X136291812Y-91504274D01*
X136276777Y-91526777D01*
X136254274Y-91541812D01*
X136240696Y-91555391D01*
X136220815Y-91564169D01*
X136195671Y-91580970D01*
X136172185Y-91585641D01*
X136155040Y-91593212D01*
X136104861Y-91599032D01*
X136100000Y-91600000D01*
X135200000Y-91600000D01*
X135195138Y-91599032D01*
X135144959Y-91593212D01*
X135127812Y-91585641D01*
X135104329Y-91580970D01*
X135079186Y-91564170D01*
X135059303Y-91555391D01*
X135045722Y-91541810D01*
X135023223Y-91526777D01*
X135008189Y-91504277D01*
X134994608Y-91490696D01*
X134985827Y-91470810D01*
X134969030Y-91445671D01*
X134964359Y-91422189D01*
X134956787Y-91405040D01*
X134950964Y-91354849D01*
X134950000Y-91350000D01*
X134950000Y-89750000D01*
X134950964Y-89745150D01*
X134956787Y-89694959D01*
X134964359Y-89677808D01*
X134969030Y-89654329D01*
X134985826Y-89629191D01*
X134994608Y-89609303D01*
X135008191Y-89595719D01*
X135023223Y-89573223D01*
X135045719Y-89558191D01*
X135059303Y-89544608D01*
X135079191Y-89535826D01*
X135104329Y-89519030D01*
X135127808Y-89514359D01*
X135144959Y-89506787D01*
X135195151Y-89500964D01*
X135200000Y-89500000D01*
X136100000Y-89500000D01*
X136104850Y-89500964D01*
G37*
G36*
X139354850Y-90013464D02*
G01*
X139405040Y-90019287D01*
X139422189Y-90026859D01*
X139445671Y-90031530D01*
X139470810Y-90048327D01*
X139490696Y-90057108D01*
X139504277Y-90070689D01*
X139526777Y-90085723D01*
X139541810Y-90108222D01*
X139555391Y-90121803D01*
X139564170Y-90141686D01*
X139580970Y-90166829D01*
X139585641Y-90190312D01*
X139593212Y-90207459D01*
X139599033Y-90257639D01*
X139600000Y-90262500D01*
X139600000Y-90787500D01*
X139599032Y-90792363D01*
X139593212Y-90842540D01*
X139585641Y-90859685D01*
X139580970Y-90883171D01*
X139564169Y-90908315D01*
X139555391Y-90928196D01*
X139541812Y-90941774D01*
X139526777Y-90964277D01*
X139504274Y-90979312D01*
X139490696Y-90992891D01*
X139470815Y-91001669D01*
X139445671Y-91018470D01*
X139422185Y-91023141D01*
X139405040Y-91030712D01*
X139354861Y-91036532D01*
X139350000Y-91037500D01*
X138450000Y-91037500D01*
X138445138Y-91036532D01*
X138394959Y-91030712D01*
X138377812Y-91023141D01*
X138354329Y-91018470D01*
X138329186Y-91001670D01*
X138309303Y-90992891D01*
X138295722Y-90979310D01*
X138273223Y-90964277D01*
X138258189Y-90941777D01*
X138244608Y-90928196D01*
X138235827Y-90908310D01*
X138219030Y-90883171D01*
X138214359Y-90859689D01*
X138206787Y-90842540D01*
X138200964Y-90792349D01*
X138200000Y-90787500D01*
X138200000Y-90262500D01*
X138200964Y-90257650D01*
X138206787Y-90207459D01*
X138214359Y-90190308D01*
X138219030Y-90166829D01*
X138235826Y-90141691D01*
X138244608Y-90121803D01*
X138258191Y-90108219D01*
X138273223Y-90085723D01*
X138295719Y-90070691D01*
X138309303Y-90057108D01*
X138329191Y-90048326D01*
X138354329Y-90031530D01*
X138377808Y-90026859D01*
X138394959Y-90019287D01*
X138445151Y-90013464D01*
X138450000Y-90012500D01*
X139350000Y-90012500D01*
X139354850Y-90013464D01*
G37*
G36*
X144854850Y-89413464D02*
G01*
X144905040Y-89419287D01*
X144922189Y-89426859D01*
X144945671Y-89431530D01*
X144970810Y-89448327D01*
X144990696Y-89457108D01*
X145004277Y-89470689D01*
X145026777Y-89485723D01*
X145041810Y-89508222D01*
X145055391Y-89521803D01*
X145064170Y-89541686D01*
X145080970Y-89566829D01*
X145085641Y-89590312D01*
X145093212Y-89607459D01*
X145099033Y-89657639D01*
X145100000Y-89662500D01*
X145100000Y-90187500D01*
X145099032Y-90192363D01*
X145093212Y-90242540D01*
X145085641Y-90259685D01*
X145080970Y-90283171D01*
X145064169Y-90308315D01*
X145055391Y-90328196D01*
X145041812Y-90341774D01*
X145026777Y-90364277D01*
X145004274Y-90379312D01*
X144990696Y-90392891D01*
X144970815Y-90401669D01*
X144945671Y-90418470D01*
X144922185Y-90423141D01*
X144905040Y-90430712D01*
X144854861Y-90436532D01*
X144850000Y-90437500D01*
X143950000Y-90437500D01*
X143945138Y-90436532D01*
X143894959Y-90430712D01*
X143877812Y-90423141D01*
X143854329Y-90418470D01*
X143829186Y-90401670D01*
X143809303Y-90392891D01*
X143795722Y-90379310D01*
X143773223Y-90364277D01*
X143758189Y-90341777D01*
X143744608Y-90328196D01*
X143735827Y-90308310D01*
X143719030Y-90283171D01*
X143714359Y-90259689D01*
X143706787Y-90242540D01*
X143700964Y-90192349D01*
X143700000Y-90187500D01*
X143700000Y-89662500D01*
X143700964Y-89657650D01*
X143706787Y-89607459D01*
X143714359Y-89590308D01*
X143719030Y-89566829D01*
X143735826Y-89541691D01*
X143744608Y-89521803D01*
X143758191Y-89508219D01*
X143773223Y-89485723D01*
X143795719Y-89470691D01*
X143809303Y-89457108D01*
X143829191Y-89448326D01*
X143854329Y-89431530D01*
X143877808Y-89426859D01*
X143894959Y-89419287D01*
X143945151Y-89413464D01*
X143950000Y-89412500D01*
X144850000Y-89412500D01*
X144854850Y-89413464D01*
G37*
G36*
X177032228Y-88534448D02*
G01*
X177177117Y-88594463D01*
X177307515Y-88681592D01*
X177418408Y-88792485D01*
X177505537Y-88922883D01*
X177565552Y-89067772D01*
X177596148Y-89221586D01*
X177596148Y-89378414D01*
X177565552Y-89532228D01*
X177505537Y-89677117D01*
X177418408Y-89807515D01*
X177307515Y-89918408D01*
X177177117Y-90005537D01*
X177032228Y-90065552D01*
X176878414Y-90096148D01*
X176721586Y-90096148D01*
X176567772Y-90065552D01*
X176422883Y-90005537D01*
X176292485Y-89918408D01*
X176181592Y-89807515D01*
X176094463Y-89677117D01*
X176034448Y-89532228D01*
X176003852Y-89378414D01*
X176003852Y-89221586D01*
X176034448Y-89067772D01*
X176094463Y-88922883D01*
X176181592Y-88792485D01*
X176292485Y-88681592D01*
X176422883Y-88594463D01*
X176567772Y-88534448D01*
X176721586Y-88503852D01*
X176878414Y-88503852D01*
X177032228Y-88534448D01*
G37*
G36*
X179572228Y-88534448D02*
G01*
X179717117Y-88594463D01*
X179847515Y-88681592D01*
X179958408Y-88792485D01*
X180045537Y-88922883D01*
X180105552Y-89067772D01*
X180136148Y-89221586D01*
X180136148Y-89378414D01*
X180105552Y-89532228D01*
X180045537Y-89677117D01*
X179958408Y-89807515D01*
X179847515Y-89918408D01*
X179717117Y-90005537D01*
X179572228Y-90065552D01*
X179418414Y-90096148D01*
X179261586Y-90096148D01*
X179107772Y-90065552D01*
X178962883Y-90005537D01*
X178832485Y-89918408D01*
X178721592Y-89807515D01*
X178634463Y-89677117D01*
X178574448Y-89532228D01*
X178543852Y-89378414D01*
X178543852Y-89221586D01*
X178574448Y-89067772D01*
X178634463Y-88922883D01*
X178721592Y-88792485D01*
X178832485Y-88681592D01*
X178962883Y-88594463D01*
X179107772Y-88534448D01*
X179261586Y-88503852D01*
X179418414Y-88503852D01*
X179572228Y-88534448D01*
G37*
G36*
X150242350Y-88200964D02*
G01*
X150292540Y-88206787D01*
X150309689Y-88214359D01*
X150333171Y-88219030D01*
X150358310Y-88235827D01*
X150378196Y-88244608D01*
X150391777Y-88258189D01*
X150414277Y-88273223D01*
X150429310Y-88295722D01*
X150442891Y-88309303D01*
X150451670Y-88329186D01*
X150468470Y-88354329D01*
X150473141Y-88377812D01*
X150480712Y-88394959D01*
X150486533Y-88445139D01*
X150487500Y-88450000D01*
X150487500Y-89350000D01*
X150486532Y-89354863D01*
X150480712Y-89405040D01*
X150473141Y-89422185D01*
X150468470Y-89445671D01*
X150451669Y-89470815D01*
X150442891Y-89490696D01*
X150429312Y-89504274D01*
X150414277Y-89526777D01*
X150391774Y-89541812D01*
X150378196Y-89555391D01*
X150358315Y-89564169D01*
X150333171Y-89580970D01*
X150309685Y-89585641D01*
X150292540Y-89593212D01*
X150242361Y-89599032D01*
X150237500Y-89600000D01*
X149712500Y-89600000D01*
X149707638Y-89599032D01*
X149657459Y-89593212D01*
X149640312Y-89585641D01*
X149616829Y-89580970D01*
X149591686Y-89564170D01*
X149571803Y-89555391D01*
X149558222Y-89541810D01*
X149535723Y-89526777D01*
X149520689Y-89504277D01*
X149507108Y-89490696D01*
X149498327Y-89470810D01*
X149481530Y-89445671D01*
X149476859Y-89422189D01*
X149469287Y-89405040D01*
X149463464Y-89354849D01*
X149462500Y-89350000D01*
X149462500Y-88450000D01*
X149463464Y-88445150D01*
X149469287Y-88394959D01*
X149476859Y-88377808D01*
X149481530Y-88354329D01*
X149498326Y-88329191D01*
X149507108Y-88309303D01*
X149520691Y-88295719D01*
X149535723Y-88273223D01*
X149558219Y-88258191D01*
X149571803Y-88244608D01*
X149591691Y-88235826D01*
X149616829Y-88219030D01*
X149640308Y-88214359D01*
X149657459Y-88206787D01*
X149707651Y-88200964D01*
X149712500Y-88200000D01*
X150237500Y-88200000D01*
X150242350Y-88200964D01*
G37*
G36*
X152067350Y-88200964D02*
G01*
X152117540Y-88206787D01*
X152134689Y-88214359D01*
X152158171Y-88219030D01*
X152183310Y-88235827D01*
X152203196Y-88244608D01*
X152216777Y-88258189D01*
X152239277Y-88273223D01*
X152254310Y-88295722D01*
X152267891Y-88309303D01*
X152276670Y-88329186D01*
X152293470Y-88354329D01*
X152298141Y-88377812D01*
X152305712Y-88394959D01*
X152311533Y-88445139D01*
X152312500Y-88450000D01*
X152312500Y-89350000D01*
X152311532Y-89354863D01*
X152305712Y-89405040D01*
X152298141Y-89422185D01*
X152293470Y-89445671D01*
X152276669Y-89470815D01*
X152267891Y-89490696D01*
X152254312Y-89504274D01*
X152239277Y-89526777D01*
X152216774Y-89541812D01*
X152203196Y-89555391D01*
X152183315Y-89564169D01*
X152158171Y-89580970D01*
X152134685Y-89585641D01*
X152117540Y-89593212D01*
X152067361Y-89599032D01*
X152062500Y-89600000D01*
X151537500Y-89600000D01*
X151532638Y-89599032D01*
X151482459Y-89593212D01*
X151465312Y-89585641D01*
X151441829Y-89580970D01*
X151416686Y-89564170D01*
X151396803Y-89555391D01*
X151383222Y-89541810D01*
X151360723Y-89526777D01*
X151345689Y-89504277D01*
X151332108Y-89490696D01*
X151323327Y-89470810D01*
X151306530Y-89445671D01*
X151301859Y-89422189D01*
X151294287Y-89405040D01*
X151288464Y-89354849D01*
X151287500Y-89350000D01*
X151287500Y-88450000D01*
X151288464Y-88445150D01*
X151294287Y-88394959D01*
X151301859Y-88377808D01*
X151306530Y-88354329D01*
X151323326Y-88329191D01*
X151332108Y-88309303D01*
X151345691Y-88295719D01*
X151360723Y-88273223D01*
X151383219Y-88258191D01*
X151396803Y-88244608D01*
X151416691Y-88235826D01*
X151441829Y-88219030D01*
X151465308Y-88214359D01*
X151482459Y-88206787D01*
X151532651Y-88200964D01*
X151537500Y-88200000D01*
X152062500Y-88200000D01*
X152067350Y-88200964D01*
G37*
G36*
X155879850Y-88300964D02*
G01*
X155930040Y-88306787D01*
X155947189Y-88314359D01*
X155970671Y-88319030D01*
X155995810Y-88335827D01*
X156015696Y-88344608D01*
X156029277Y-88358189D01*
X156051777Y-88373223D01*
X156066810Y-88395722D01*
X156080391Y-88409303D01*
X156089170Y-88429186D01*
X156105970Y-88454329D01*
X156110641Y-88477812D01*
X156118212Y-88494959D01*
X156124033Y-88545139D01*
X156125000Y-88550000D01*
X156125000Y-89050000D01*
X156124032Y-89054863D01*
X156118212Y-89105040D01*
X156110641Y-89122185D01*
X156105970Y-89145671D01*
X156089169Y-89170815D01*
X156080391Y-89190696D01*
X156066812Y-89204274D01*
X156051777Y-89226777D01*
X156029274Y-89241812D01*
X156015696Y-89255391D01*
X155995815Y-89264169D01*
X155970671Y-89280970D01*
X155947185Y-89285641D01*
X155930040Y-89293212D01*
X155879861Y-89299032D01*
X155875000Y-89300000D01*
X154925000Y-89300000D01*
X154920138Y-89299032D01*
X154869959Y-89293212D01*
X154852812Y-89285641D01*
X154829329Y-89280970D01*
X154804186Y-89264170D01*
X154784303Y-89255391D01*
X154770722Y-89241810D01*
X154748223Y-89226777D01*
X154733189Y-89204277D01*
X154719608Y-89190696D01*
X154710827Y-89170810D01*
X154694030Y-89145671D01*
X154689359Y-89122189D01*
X154681787Y-89105040D01*
X154675964Y-89054849D01*
X154675000Y-89050000D01*
X154675000Y-88550000D01*
X154675964Y-88545150D01*
X154681787Y-88494959D01*
X154689359Y-88477808D01*
X154694030Y-88454329D01*
X154710826Y-88429191D01*
X154719608Y-88409303D01*
X154733191Y-88395719D01*
X154748223Y-88373223D01*
X154770719Y-88358191D01*
X154784303Y-88344608D01*
X154804191Y-88335826D01*
X154829329Y-88319030D01*
X154852808Y-88314359D01*
X154869959Y-88306787D01*
X154920151Y-88300964D01*
X154925000Y-88300000D01*
X155875000Y-88300000D01*
X155879850Y-88300964D01*
G37*
G36*
X139354850Y-88188464D02*
G01*
X139405040Y-88194287D01*
X139422189Y-88201859D01*
X139445671Y-88206530D01*
X139470810Y-88223327D01*
X139490696Y-88232108D01*
X139504277Y-88245689D01*
X139526777Y-88260723D01*
X139541810Y-88283222D01*
X139555391Y-88296803D01*
X139564170Y-88316686D01*
X139580970Y-88341829D01*
X139585641Y-88365312D01*
X139593212Y-88382459D01*
X139599033Y-88432639D01*
X139600000Y-88437500D01*
X139600000Y-88962500D01*
X139599032Y-88967363D01*
X139593212Y-89017540D01*
X139585641Y-89034685D01*
X139580970Y-89058171D01*
X139564169Y-89083315D01*
X139555391Y-89103196D01*
X139541812Y-89116774D01*
X139526777Y-89139277D01*
X139504274Y-89154312D01*
X139490696Y-89167891D01*
X139470815Y-89176669D01*
X139445671Y-89193470D01*
X139422185Y-89198141D01*
X139405040Y-89205712D01*
X139354861Y-89211532D01*
X139350000Y-89212500D01*
X138450000Y-89212500D01*
X138445138Y-89211532D01*
X138394959Y-89205712D01*
X138377812Y-89198141D01*
X138354329Y-89193470D01*
X138329186Y-89176670D01*
X138309303Y-89167891D01*
X138295722Y-89154310D01*
X138273223Y-89139277D01*
X138258189Y-89116777D01*
X138244608Y-89103196D01*
X138235827Y-89083310D01*
X138219030Y-89058171D01*
X138214359Y-89034689D01*
X138206787Y-89017540D01*
X138200964Y-88967349D01*
X138200000Y-88962500D01*
X138200000Y-88437500D01*
X138200964Y-88432650D01*
X138206787Y-88382459D01*
X138214359Y-88365308D01*
X138219030Y-88341829D01*
X138235826Y-88316691D01*
X138244608Y-88296803D01*
X138258191Y-88283219D01*
X138273223Y-88260723D01*
X138295719Y-88245691D01*
X138309303Y-88232108D01*
X138329191Y-88223326D01*
X138354329Y-88206530D01*
X138377808Y-88201859D01*
X138394959Y-88194287D01*
X138445151Y-88188464D01*
X138450000Y-88187500D01*
X139350000Y-88187500D01*
X139354850Y-88188464D01*
G37*
G36*
X189354850Y-88113464D02*
G01*
X189405040Y-88119287D01*
X189422189Y-88126859D01*
X189445671Y-88131530D01*
X189470810Y-88148327D01*
X189490696Y-88157108D01*
X189504277Y-88170689D01*
X189526777Y-88185723D01*
X189541810Y-88208222D01*
X189555391Y-88221803D01*
X189564170Y-88241686D01*
X189580970Y-88266829D01*
X189585641Y-88290312D01*
X189593212Y-88307459D01*
X189599033Y-88357639D01*
X189600000Y-88362500D01*
X189600000Y-88887500D01*
X189599032Y-88892363D01*
X189593212Y-88942540D01*
X189585641Y-88959685D01*
X189580970Y-88983171D01*
X189564169Y-89008315D01*
X189555391Y-89028196D01*
X189541812Y-89041774D01*
X189526777Y-89064277D01*
X189504274Y-89079312D01*
X189490696Y-89092891D01*
X189470815Y-89101669D01*
X189445671Y-89118470D01*
X189422185Y-89123141D01*
X189405040Y-89130712D01*
X189354861Y-89136532D01*
X189350000Y-89137500D01*
X188450000Y-89137500D01*
X188445138Y-89136532D01*
X188394959Y-89130712D01*
X188377812Y-89123141D01*
X188354329Y-89118470D01*
X188329186Y-89101670D01*
X188309303Y-89092891D01*
X188295722Y-89079310D01*
X188273223Y-89064277D01*
X188258189Y-89041777D01*
X188244608Y-89028196D01*
X188235827Y-89008310D01*
X188219030Y-88983171D01*
X188214359Y-88959689D01*
X188206787Y-88942540D01*
X188200964Y-88892349D01*
X188200000Y-88887500D01*
X188200000Y-88362500D01*
X188200964Y-88357650D01*
X188206787Y-88307459D01*
X188214359Y-88290308D01*
X188219030Y-88266829D01*
X188235826Y-88241691D01*
X188244608Y-88221803D01*
X188258191Y-88208219D01*
X188273223Y-88185723D01*
X188295719Y-88170691D01*
X188309303Y-88157108D01*
X188329191Y-88148326D01*
X188354329Y-88131530D01*
X188377808Y-88126859D01*
X188394959Y-88119287D01*
X188445151Y-88113464D01*
X188450000Y-88112500D01*
X189350000Y-88112500D01*
X189354850Y-88113464D01*
G37*
G36*
X144854850Y-87588464D02*
G01*
X144905040Y-87594287D01*
X144922189Y-87601859D01*
X144945671Y-87606530D01*
X144970810Y-87623327D01*
X144990696Y-87632108D01*
X145004277Y-87645689D01*
X145026777Y-87660723D01*
X145041810Y-87683222D01*
X145055391Y-87696803D01*
X145064170Y-87716686D01*
X145080970Y-87741829D01*
X145085641Y-87765312D01*
X145093212Y-87782459D01*
X145099033Y-87832639D01*
X145100000Y-87837500D01*
X145100000Y-88362500D01*
X145099032Y-88367363D01*
X145093212Y-88417540D01*
X145085641Y-88434685D01*
X145080970Y-88458171D01*
X145064169Y-88483315D01*
X145055391Y-88503196D01*
X145041812Y-88516774D01*
X145026777Y-88539277D01*
X145004274Y-88554312D01*
X144990696Y-88567891D01*
X144970815Y-88576669D01*
X144945671Y-88593470D01*
X144922185Y-88598141D01*
X144905040Y-88605712D01*
X144854861Y-88611532D01*
X144850000Y-88612500D01*
X143950000Y-88612500D01*
X143945138Y-88611532D01*
X143894959Y-88605712D01*
X143877812Y-88598141D01*
X143854329Y-88593470D01*
X143829186Y-88576670D01*
X143809303Y-88567891D01*
X143795722Y-88554310D01*
X143773223Y-88539277D01*
X143758189Y-88516777D01*
X143744608Y-88503196D01*
X143735827Y-88483310D01*
X143719030Y-88458171D01*
X143714359Y-88434689D01*
X143706787Y-88417540D01*
X143700964Y-88367349D01*
X143700000Y-88362500D01*
X143700000Y-87837500D01*
X143700964Y-87832650D01*
X143706787Y-87782459D01*
X143714359Y-87765308D01*
X143719030Y-87741829D01*
X143735826Y-87716691D01*
X143744608Y-87696803D01*
X143758191Y-87683219D01*
X143773223Y-87660723D01*
X143795719Y-87645691D01*
X143809303Y-87632108D01*
X143829191Y-87623326D01*
X143854329Y-87606530D01*
X143877808Y-87601859D01*
X143894959Y-87594287D01*
X143945151Y-87588464D01*
X143950000Y-87587500D01*
X144850000Y-87587500D01*
X144854850Y-87588464D01*
G37*
G36*
X170479850Y-87000964D02*
G01*
X170530040Y-87006787D01*
X170547189Y-87014359D01*
X170570671Y-87019030D01*
X170595810Y-87035827D01*
X170615696Y-87044608D01*
X170629277Y-87058189D01*
X170651777Y-87073223D01*
X170666810Y-87095722D01*
X170680391Y-87109303D01*
X170689170Y-87129186D01*
X170705970Y-87154329D01*
X170710641Y-87177812D01*
X170718212Y-87194959D01*
X170724033Y-87245139D01*
X170725000Y-87250000D01*
X170725000Y-87750000D01*
X170724032Y-87754863D01*
X170718212Y-87805040D01*
X170710641Y-87822185D01*
X170705970Y-87845671D01*
X170689169Y-87870815D01*
X170680391Y-87890696D01*
X170666812Y-87904274D01*
X170651777Y-87926777D01*
X170629274Y-87941812D01*
X170615696Y-87955391D01*
X170595815Y-87964169D01*
X170570671Y-87980970D01*
X170547185Y-87985641D01*
X170530040Y-87993212D01*
X170479861Y-87999032D01*
X170475000Y-88000000D01*
X169525000Y-88000000D01*
X169520138Y-87999032D01*
X169469959Y-87993212D01*
X169452812Y-87985641D01*
X169429329Y-87980970D01*
X169404186Y-87964170D01*
X169384303Y-87955391D01*
X169370722Y-87941810D01*
X169348223Y-87926777D01*
X169333189Y-87904277D01*
X169319608Y-87890696D01*
X169310827Y-87870810D01*
X169294030Y-87845671D01*
X169289359Y-87822189D01*
X169281787Y-87805040D01*
X169275964Y-87754849D01*
X169275000Y-87750000D01*
X169275000Y-87250000D01*
X169275964Y-87245150D01*
X169281787Y-87194959D01*
X169289359Y-87177808D01*
X169294030Y-87154329D01*
X169310826Y-87129191D01*
X169319608Y-87109303D01*
X169333191Y-87095719D01*
X169348223Y-87073223D01*
X169370719Y-87058191D01*
X169384303Y-87044608D01*
X169404191Y-87035826D01*
X169429329Y-87019030D01*
X169452808Y-87014359D01*
X169469959Y-87006787D01*
X169520151Y-87000964D01*
X169525000Y-87000000D01*
X170475000Y-87000000D01*
X170479850Y-87000964D01*
G37*
G36*
X183500000Y-87450000D02*
G01*
X182500000Y-87450000D01*
X182500000Y-85950000D01*
X183500000Y-85950000D01*
X183500000Y-87450000D01*
G37*
G36*
X185700000Y-87450000D02*
G01*
X184700000Y-87450000D01*
X184700000Y-85950000D01*
X185700000Y-85950000D01*
X185700000Y-87450000D01*
G37*
G36*
X150242350Y-86000964D02*
G01*
X150292540Y-86006787D01*
X150309689Y-86014359D01*
X150333171Y-86019030D01*
X150358310Y-86035827D01*
X150378196Y-86044608D01*
X150391777Y-86058189D01*
X150414277Y-86073223D01*
X150429310Y-86095722D01*
X150442891Y-86109303D01*
X150451670Y-86129186D01*
X150468470Y-86154329D01*
X150473141Y-86177812D01*
X150480712Y-86194959D01*
X150486533Y-86245139D01*
X150487500Y-86250000D01*
X150487500Y-87150000D01*
X150486532Y-87154863D01*
X150480712Y-87205040D01*
X150473141Y-87222185D01*
X150468470Y-87245671D01*
X150451669Y-87270815D01*
X150442891Y-87290696D01*
X150429312Y-87304274D01*
X150414277Y-87326777D01*
X150391774Y-87341812D01*
X150378196Y-87355391D01*
X150358315Y-87364169D01*
X150333171Y-87380970D01*
X150309685Y-87385641D01*
X150292540Y-87393212D01*
X150242361Y-87399032D01*
X150237500Y-87400000D01*
X149712500Y-87400000D01*
X149707638Y-87399032D01*
X149657459Y-87393212D01*
X149640312Y-87385641D01*
X149616829Y-87380970D01*
X149591686Y-87364170D01*
X149571803Y-87355391D01*
X149558222Y-87341810D01*
X149535723Y-87326777D01*
X149520689Y-87304277D01*
X149507108Y-87290696D01*
X149498327Y-87270810D01*
X149481530Y-87245671D01*
X149476859Y-87222189D01*
X149469287Y-87205040D01*
X149463464Y-87154849D01*
X149462500Y-87150000D01*
X149462500Y-86250000D01*
X149463464Y-86245150D01*
X149469287Y-86194959D01*
X149476859Y-86177808D01*
X149481530Y-86154329D01*
X149498326Y-86129191D01*
X149507108Y-86109303D01*
X149520691Y-86095719D01*
X149535723Y-86073223D01*
X149558219Y-86058191D01*
X149571803Y-86044608D01*
X149591691Y-86035826D01*
X149616829Y-86019030D01*
X149640308Y-86014359D01*
X149657459Y-86006787D01*
X149707651Y-86000964D01*
X149712500Y-86000000D01*
X150237500Y-86000000D01*
X150242350Y-86000964D01*
G37*
G36*
X152067350Y-86000964D02*
G01*
X152117540Y-86006787D01*
X152134689Y-86014359D01*
X152158171Y-86019030D01*
X152183310Y-86035827D01*
X152203196Y-86044608D01*
X152216777Y-86058189D01*
X152239277Y-86073223D01*
X152254310Y-86095722D01*
X152267891Y-86109303D01*
X152276670Y-86129186D01*
X152293470Y-86154329D01*
X152298141Y-86177812D01*
X152305712Y-86194959D01*
X152311533Y-86245139D01*
X152312500Y-86250000D01*
X152312500Y-87150000D01*
X152311532Y-87154863D01*
X152305712Y-87205040D01*
X152298141Y-87222185D01*
X152293470Y-87245671D01*
X152276669Y-87270815D01*
X152267891Y-87290696D01*
X152254312Y-87304274D01*
X152239277Y-87326777D01*
X152216774Y-87341812D01*
X152203196Y-87355391D01*
X152183315Y-87364169D01*
X152158171Y-87380970D01*
X152134685Y-87385641D01*
X152117540Y-87393212D01*
X152067361Y-87399032D01*
X152062500Y-87400000D01*
X151537500Y-87400000D01*
X151532638Y-87399032D01*
X151482459Y-87393212D01*
X151465312Y-87385641D01*
X151441829Y-87380970D01*
X151416686Y-87364170D01*
X151396803Y-87355391D01*
X151383222Y-87341810D01*
X151360723Y-87326777D01*
X151345689Y-87304277D01*
X151332108Y-87290696D01*
X151323327Y-87270810D01*
X151306530Y-87245671D01*
X151301859Y-87222189D01*
X151294287Y-87205040D01*
X151288464Y-87154849D01*
X151287500Y-87150000D01*
X151287500Y-86250000D01*
X151288464Y-86245150D01*
X151294287Y-86194959D01*
X151301859Y-86177808D01*
X151306530Y-86154329D01*
X151323326Y-86129191D01*
X151332108Y-86109303D01*
X151345691Y-86095719D01*
X151360723Y-86073223D01*
X151383219Y-86058191D01*
X151396803Y-86044608D01*
X151416691Y-86035826D01*
X151441829Y-86019030D01*
X151465308Y-86014359D01*
X151482459Y-86006787D01*
X151532651Y-86000964D01*
X151537500Y-86000000D01*
X152062500Y-86000000D01*
X152067350Y-86000964D01*
G37*
G36*
X155879850Y-86400964D02*
G01*
X155930040Y-86406787D01*
X155947189Y-86414359D01*
X155970671Y-86419030D01*
X155995810Y-86435827D01*
X156015696Y-86444608D01*
X156029277Y-86458189D01*
X156051777Y-86473223D01*
X156066810Y-86495722D01*
X156080391Y-86509303D01*
X156089170Y-86529186D01*
X156105970Y-86554329D01*
X156110641Y-86577812D01*
X156118212Y-86594959D01*
X156124033Y-86645139D01*
X156125000Y-86650000D01*
X156125000Y-87150000D01*
X156124032Y-87154863D01*
X156118212Y-87205040D01*
X156110641Y-87222185D01*
X156105970Y-87245671D01*
X156089169Y-87270815D01*
X156080391Y-87290696D01*
X156066812Y-87304274D01*
X156051777Y-87326777D01*
X156029274Y-87341812D01*
X156015696Y-87355391D01*
X155995815Y-87364169D01*
X155970671Y-87380970D01*
X155947185Y-87385641D01*
X155930040Y-87393212D01*
X155879861Y-87399032D01*
X155875000Y-87400000D01*
X154925000Y-87400000D01*
X154920138Y-87399032D01*
X154869959Y-87393212D01*
X154852812Y-87385641D01*
X154829329Y-87380970D01*
X154804186Y-87364170D01*
X154784303Y-87355391D01*
X154770722Y-87341810D01*
X154748223Y-87326777D01*
X154733189Y-87304277D01*
X154719608Y-87290696D01*
X154710827Y-87270810D01*
X154694030Y-87245671D01*
X154689359Y-87222189D01*
X154681787Y-87205040D01*
X154675964Y-87154849D01*
X154675000Y-87150000D01*
X154675000Y-86650000D01*
X154675964Y-86645150D01*
X154681787Y-86594959D01*
X154689359Y-86577808D01*
X154694030Y-86554329D01*
X154710826Y-86529191D01*
X154719608Y-86509303D01*
X154733191Y-86495719D01*
X154748223Y-86473223D01*
X154770719Y-86458191D01*
X154784303Y-86444608D01*
X154804191Y-86435826D01*
X154829329Y-86419030D01*
X154852808Y-86414359D01*
X154869959Y-86406787D01*
X154920151Y-86400964D01*
X154925000Y-86400000D01*
X155875000Y-86400000D01*
X155879850Y-86400964D01*
G37*
G36*
X189354850Y-86288464D02*
G01*
X189405040Y-86294287D01*
X189422189Y-86301859D01*
X189445671Y-86306530D01*
X189470810Y-86323327D01*
X189490696Y-86332108D01*
X189504277Y-86345689D01*
X189526777Y-86360723D01*
X189541810Y-86383222D01*
X189555391Y-86396803D01*
X189564170Y-86416686D01*
X189580970Y-86441829D01*
X189585641Y-86465312D01*
X189593212Y-86482459D01*
X189599033Y-86532639D01*
X189600000Y-86537500D01*
X189600000Y-87062500D01*
X189599032Y-87067363D01*
X189593212Y-87117540D01*
X189585641Y-87134685D01*
X189580970Y-87158171D01*
X189564169Y-87183315D01*
X189555391Y-87203196D01*
X189541812Y-87216774D01*
X189526777Y-87239277D01*
X189504274Y-87254312D01*
X189490696Y-87267891D01*
X189470815Y-87276669D01*
X189445671Y-87293470D01*
X189422185Y-87298141D01*
X189405040Y-87305712D01*
X189354861Y-87311532D01*
X189350000Y-87312500D01*
X188450000Y-87312500D01*
X188445138Y-87311532D01*
X188394959Y-87305712D01*
X188377812Y-87298141D01*
X188354329Y-87293470D01*
X188329186Y-87276670D01*
X188309303Y-87267891D01*
X188295722Y-87254310D01*
X188273223Y-87239277D01*
X188258189Y-87216777D01*
X188244608Y-87203196D01*
X188235827Y-87183310D01*
X188219030Y-87158171D01*
X188214359Y-87134689D01*
X188206787Y-87117540D01*
X188200964Y-87067349D01*
X188200000Y-87062500D01*
X188200000Y-86537500D01*
X188200964Y-86532650D01*
X188206787Y-86482459D01*
X188214359Y-86465308D01*
X188219030Y-86441829D01*
X188235826Y-86416691D01*
X188244608Y-86396803D01*
X188258191Y-86383219D01*
X188273223Y-86360723D01*
X188295719Y-86345691D01*
X188309303Y-86332108D01*
X188329191Y-86323326D01*
X188354329Y-86306530D01*
X188377808Y-86301859D01*
X188394959Y-86294287D01*
X188445151Y-86288464D01*
X188450000Y-86287500D01*
X189350000Y-86287500D01*
X189354850Y-86288464D01*
G37*
G36*
X139379850Y-86225964D02*
G01*
X139430040Y-86231787D01*
X139447189Y-86239359D01*
X139470671Y-86244030D01*
X139495810Y-86260827D01*
X139515696Y-86269608D01*
X139529277Y-86283189D01*
X139551777Y-86298223D01*
X139566810Y-86320722D01*
X139580391Y-86334303D01*
X139589170Y-86354186D01*
X139605970Y-86379329D01*
X139610641Y-86402812D01*
X139618212Y-86419959D01*
X139624033Y-86470139D01*
X139625000Y-86475000D01*
X139625000Y-86975000D01*
X139624032Y-86979863D01*
X139618212Y-87030040D01*
X139610641Y-87047185D01*
X139605970Y-87070671D01*
X139589169Y-87095815D01*
X139580391Y-87115696D01*
X139566812Y-87129274D01*
X139551777Y-87151777D01*
X139529274Y-87166812D01*
X139515696Y-87180391D01*
X139495815Y-87189169D01*
X139470671Y-87205970D01*
X139447185Y-87210641D01*
X139430040Y-87218212D01*
X139379861Y-87224032D01*
X139375000Y-87225000D01*
X138425000Y-87225000D01*
X138420138Y-87224032D01*
X138369959Y-87218212D01*
X138352812Y-87210641D01*
X138329329Y-87205970D01*
X138304186Y-87189170D01*
X138284303Y-87180391D01*
X138270722Y-87166810D01*
X138248223Y-87151777D01*
X138233189Y-87129277D01*
X138219608Y-87115696D01*
X138210827Y-87095810D01*
X138194030Y-87070671D01*
X138189359Y-87047189D01*
X138181787Y-87030040D01*
X138175964Y-86979849D01*
X138175000Y-86975000D01*
X138175000Y-86475000D01*
X138175964Y-86470150D01*
X138181787Y-86419959D01*
X138189359Y-86402808D01*
X138194030Y-86379329D01*
X138210826Y-86354191D01*
X138219608Y-86334303D01*
X138233191Y-86320719D01*
X138248223Y-86298223D01*
X138270719Y-86283191D01*
X138284303Y-86269608D01*
X138304191Y-86260826D01*
X138329329Y-86244030D01*
X138352808Y-86239359D01*
X138369959Y-86231787D01*
X138420151Y-86225964D01*
X138425000Y-86225000D01*
X139375000Y-86225000D01*
X139379850Y-86225964D01*
G37*
G36*
X170479850Y-85100964D02*
G01*
X170530040Y-85106787D01*
X170547189Y-85114359D01*
X170570671Y-85119030D01*
X170595810Y-85135827D01*
X170615696Y-85144608D01*
X170629277Y-85158189D01*
X170651777Y-85173223D01*
X170666810Y-85195722D01*
X170680391Y-85209303D01*
X170689170Y-85229186D01*
X170705970Y-85254329D01*
X170710641Y-85277812D01*
X170718212Y-85294959D01*
X170724033Y-85345139D01*
X170725000Y-85350000D01*
X170725000Y-85850000D01*
X170724032Y-85854863D01*
X170718212Y-85905040D01*
X170710641Y-85922185D01*
X170705970Y-85945671D01*
X170689169Y-85970815D01*
X170680391Y-85990696D01*
X170666812Y-86004274D01*
X170651777Y-86026777D01*
X170629274Y-86041812D01*
X170615696Y-86055391D01*
X170595815Y-86064169D01*
X170570671Y-86080970D01*
X170547185Y-86085641D01*
X170530040Y-86093212D01*
X170479861Y-86099032D01*
X170475000Y-86100000D01*
X169525000Y-86100000D01*
X169520138Y-86099032D01*
X169469959Y-86093212D01*
X169452812Y-86085641D01*
X169429329Y-86080970D01*
X169404186Y-86064170D01*
X169384303Y-86055391D01*
X169370722Y-86041810D01*
X169348223Y-86026777D01*
X169333189Y-86004277D01*
X169319608Y-85990696D01*
X169310827Y-85970810D01*
X169294030Y-85945671D01*
X169289359Y-85922189D01*
X169281787Y-85905040D01*
X169275964Y-85854849D01*
X169275000Y-85850000D01*
X169275000Y-85350000D01*
X169275964Y-85345150D01*
X169281787Y-85294959D01*
X169289359Y-85277808D01*
X169294030Y-85254329D01*
X169310826Y-85229191D01*
X169319608Y-85209303D01*
X169333191Y-85195719D01*
X169348223Y-85173223D01*
X169370719Y-85158191D01*
X169384303Y-85144608D01*
X169404191Y-85135826D01*
X169429329Y-85119030D01*
X169452808Y-85114359D01*
X169469959Y-85106787D01*
X169520151Y-85100964D01*
X169525000Y-85100000D01*
X170475000Y-85100000D01*
X170479850Y-85100964D01*
G37*
G36*
X158057151Y-84146314D02*
G01*
X158120453Y-84182861D01*
X158172139Y-84234547D01*
X158208686Y-84297849D01*
X158227605Y-84368453D01*
X158230000Y-84405000D01*
X158230000Y-85595000D01*
X158227605Y-85631547D01*
X158208686Y-85702151D01*
X158172139Y-85765453D01*
X158120453Y-85817139D01*
X158057151Y-85853686D01*
X157986547Y-85872605D01*
X157913453Y-85872605D01*
X157842849Y-85853686D01*
X157779547Y-85817139D01*
X157727861Y-85765453D01*
X157691314Y-85702151D01*
X157672395Y-85631547D01*
X157670000Y-85595000D01*
X157670000Y-84405000D01*
X157672395Y-84368453D01*
X157691314Y-84297849D01*
X157727861Y-84234547D01*
X157779547Y-84182861D01*
X157842849Y-84146314D01*
X157913453Y-84127395D01*
X157986547Y-84127395D01*
X158057151Y-84146314D01*
G37*
G36*
X159327151Y-84146314D02*
G01*
X159390453Y-84182861D01*
X159442139Y-84234547D01*
X159478686Y-84297849D01*
X159497605Y-84368453D01*
X159500000Y-84405000D01*
X159500000Y-85595000D01*
X159497605Y-85631547D01*
X159478686Y-85702151D01*
X159442139Y-85765453D01*
X159390453Y-85817139D01*
X159327151Y-85853686D01*
X159256547Y-85872605D01*
X159183453Y-85872605D01*
X159112849Y-85853686D01*
X159049547Y-85817139D01*
X158997861Y-85765453D01*
X158961314Y-85702151D01*
X158942395Y-85631547D01*
X158940000Y-85595000D01*
X158940000Y-84405000D01*
X158942395Y-84368453D01*
X158961314Y-84297849D01*
X158997861Y-84234547D01*
X159049547Y-84182861D01*
X159112849Y-84146314D01*
X159183453Y-84127395D01*
X159256547Y-84127395D01*
X159327151Y-84146314D01*
G37*
G36*
X160597151Y-84146314D02*
G01*
X160660453Y-84182861D01*
X160712139Y-84234547D01*
X160748686Y-84297849D01*
X160767605Y-84368453D01*
X160770000Y-84405000D01*
X160770000Y-85595000D01*
X160767605Y-85631547D01*
X160748686Y-85702151D01*
X160712139Y-85765453D01*
X160660453Y-85817139D01*
X160597151Y-85853686D01*
X160526547Y-85872605D01*
X160453453Y-85872605D01*
X160382849Y-85853686D01*
X160319547Y-85817139D01*
X160267861Y-85765453D01*
X160231314Y-85702151D01*
X160212395Y-85631547D01*
X160210000Y-85595000D01*
X160210000Y-84405000D01*
X160212395Y-84368453D01*
X160231314Y-84297849D01*
X160267861Y-84234547D01*
X160319547Y-84182861D01*
X160382849Y-84146314D01*
X160453453Y-84127395D01*
X160526547Y-84127395D01*
X160597151Y-84146314D01*
G37*
G36*
X161867151Y-84146314D02*
G01*
X161930453Y-84182861D01*
X161982139Y-84234547D01*
X162018686Y-84297849D01*
X162037605Y-84368453D01*
X162040000Y-84405000D01*
X162040000Y-85595000D01*
X162037605Y-85631547D01*
X162018686Y-85702151D01*
X161982139Y-85765453D01*
X161930453Y-85817139D01*
X161867151Y-85853686D01*
X161796547Y-85872605D01*
X161723453Y-85872605D01*
X161652849Y-85853686D01*
X161589547Y-85817139D01*
X161537861Y-85765453D01*
X161501314Y-85702151D01*
X161482395Y-85631547D01*
X161480000Y-85595000D01*
X161480000Y-84405000D01*
X161482395Y-84368453D01*
X161501314Y-84297849D01*
X161537861Y-84234547D01*
X161589547Y-84182861D01*
X161652849Y-84146314D01*
X161723453Y-84127395D01*
X161796547Y-84127395D01*
X161867151Y-84146314D01*
G37*
G36*
X163127151Y-84146314D02*
G01*
X163190453Y-84182861D01*
X163242139Y-84234547D01*
X163278686Y-84297849D01*
X163297605Y-84368453D01*
X163300000Y-84405000D01*
X163300000Y-85595000D01*
X163297605Y-85631547D01*
X163278686Y-85702151D01*
X163242139Y-85765453D01*
X163190453Y-85817139D01*
X163127151Y-85853686D01*
X163056547Y-85872605D01*
X162983453Y-85872605D01*
X162912849Y-85853686D01*
X162849547Y-85817139D01*
X162797861Y-85765453D01*
X162761314Y-85702151D01*
X162742395Y-85631547D01*
X162740000Y-85595000D01*
X162740000Y-84405000D01*
X162742395Y-84368453D01*
X162761314Y-84297849D01*
X162797861Y-84234547D01*
X162849547Y-84182861D01*
X162912849Y-84146314D01*
X162983453Y-84127395D01*
X163056547Y-84127395D01*
X163127151Y-84146314D01*
G37*
G36*
X164407151Y-84146314D02*
G01*
X164470453Y-84182861D01*
X164522139Y-84234547D01*
X164558686Y-84297849D01*
X164577605Y-84368453D01*
X164580000Y-84405000D01*
X164580000Y-85595000D01*
X164577605Y-85631547D01*
X164558686Y-85702151D01*
X164522139Y-85765453D01*
X164470453Y-85817139D01*
X164407151Y-85853686D01*
X164336547Y-85872605D01*
X164263453Y-85872605D01*
X164192849Y-85853686D01*
X164129547Y-85817139D01*
X164077861Y-85765453D01*
X164041314Y-85702151D01*
X164022395Y-85631547D01*
X164020000Y-85595000D01*
X164020000Y-84405000D01*
X164022395Y-84368453D01*
X164041314Y-84297849D01*
X164077861Y-84234547D01*
X164129547Y-84182861D01*
X164192849Y-84146314D01*
X164263453Y-84127395D01*
X164336547Y-84127395D01*
X164407151Y-84146314D01*
G37*
G36*
X165677151Y-84146314D02*
G01*
X165740453Y-84182861D01*
X165792139Y-84234547D01*
X165828686Y-84297849D01*
X165847605Y-84368453D01*
X165850000Y-84405000D01*
X165850000Y-85595000D01*
X165847605Y-85631547D01*
X165828686Y-85702151D01*
X165792139Y-85765453D01*
X165740453Y-85817139D01*
X165677151Y-85853686D01*
X165606547Y-85872605D01*
X165533453Y-85872605D01*
X165462849Y-85853686D01*
X165399547Y-85817139D01*
X165347861Y-85765453D01*
X165311314Y-85702151D01*
X165292395Y-85631547D01*
X165290000Y-85595000D01*
X165290000Y-84405000D01*
X165292395Y-84368453D01*
X165311314Y-84297849D01*
X165347861Y-84234547D01*
X165399547Y-84182861D01*
X165462849Y-84146314D01*
X165533453Y-84127395D01*
X165606547Y-84127395D01*
X165677151Y-84146314D01*
G37*
G36*
X166947151Y-84146314D02*
G01*
X167010453Y-84182861D01*
X167062139Y-84234547D01*
X167098686Y-84297849D01*
X167117605Y-84368453D01*
X167120000Y-84405000D01*
X167120000Y-85595000D01*
X167117605Y-85631547D01*
X167098686Y-85702151D01*
X167062139Y-85765453D01*
X167010453Y-85817139D01*
X166947151Y-85853686D01*
X166876547Y-85872605D01*
X166803453Y-85872605D01*
X166732849Y-85853686D01*
X166669547Y-85817139D01*
X166617861Y-85765453D01*
X166581314Y-85702151D01*
X166562395Y-85631547D01*
X166560000Y-85595000D01*
X166560000Y-84405000D01*
X166562395Y-84368453D01*
X166581314Y-84297849D01*
X166617861Y-84234547D01*
X166669547Y-84182861D01*
X166732849Y-84146314D01*
X166803453Y-84127395D01*
X166876547Y-84127395D01*
X166947151Y-84146314D01*
G37*
G36*
X139379850Y-84325964D02*
G01*
X139430040Y-84331787D01*
X139447189Y-84339359D01*
X139470671Y-84344030D01*
X139495810Y-84360827D01*
X139515696Y-84369608D01*
X139529277Y-84383189D01*
X139551777Y-84398223D01*
X139566810Y-84420722D01*
X139580391Y-84434303D01*
X139589170Y-84454186D01*
X139605970Y-84479329D01*
X139610641Y-84502812D01*
X139618212Y-84519959D01*
X139624033Y-84570139D01*
X139625000Y-84575000D01*
X139625000Y-85075000D01*
X139624032Y-85079863D01*
X139618212Y-85130040D01*
X139610641Y-85147185D01*
X139605970Y-85170671D01*
X139589169Y-85195815D01*
X139580391Y-85215696D01*
X139566812Y-85229274D01*
X139551777Y-85251777D01*
X139529274Y-85266812D01*
X139515696Y-85280391D01*
X139495815Y-85289169D01*
X139470671Y-85305970D01*
X139447185Y-85310641D01*
X139430040Y-85318212D01*
X139379861Y-85324032D01*
X139375000Y-85325000D01*
X138425000Y-85325000D01*
X138420138Y-85324032D01*
X138369959Y-85318212D01*
X138352812Y-85310641D01*
X138329329Y-85305970D01*
X138304186Y-85289170D01*
X138284303Y-85280391D01*
X138270722Y-85266810D01*
X138248223Y-85251777D01*
X138233189Y-85229277D01*
X138219608Y-85215696D01*
X138210827Y-85195810D01*
X138194030Y-85170671D01*
X138189359Y-85147189D01*
X138181787Y-85130040D01*
X138175964Y-85079849D01*
X138175000Y-85075000D01*
X138175000Y-84575000D01*
X138175964Y-84570150D01*
X138181787Y-84519959D01*
X138189359Y-84502808D01*
X138194030Y-84479329D01*
X138210826Y-84454191D01*
X138219608Y-84434303D01*
X138233191Y-84420719D01*
X138248223Y-84398223D01*
X138270719Y-84383191D01*
X138284303Y-84369608D01*
X138304191Y-84360826D01*
X138329329Y-84344030D01*
X138352808Y-84339359D01*
X138369959Y-84331787D01*
X138420151Y-84325964D01*
X138425000Y-84325000D01*
X139375000Y-84325000D01*
X139379850Y-84325964D01*
G37*
G36*
X180695000Y-84685000D02*
G01*
X178505000Y-84685000D01*
X178505000Y-82635000D01*
X180695000Y-82635000D01*
X180695000Y-84685000D01*
G37*
G36*
X173954850Y-82975964D02*
G01*
X174005040Y-82981787D01*
X174022189Y-82989359D01*
X174045671Y-82994030D01*
X174070810Y-83010827D01*
X174090696Y-83019608D01*
X174104277Y-83033189D01*
X174126777Y-83048223D01*
X174141810Y-83070722D01*
X174155391Y-83084303D01*
X174164170Y-83104186D01*
X174180970Y-83129329D01*
X174185641Y-83152812D01*
X174193212Y-83169959D01*
X174199033Y-83220139D01*
X174200000Y-83225000D01*
X174200000Y-84175000D01*
X174199032Y-84179863D01*
X174193212Y-84230040D01*
X174185641Y-84247185D01*
X174180970Y-84270671D01*
X174164169Y-84295815D01*
X174155391Y-84315696D01*
X174141812Y-84329274D01*
X174126777Y-84351777D01*
X174104274Y-84366812D01*
X174090696Y-84380391D01*
X174070815Y-84389169D01*
X174045671Y-84405970D01*
X174022185Y-84410641D01*
X174005040Y-84418212D01*
X173954861Y-84424032D01*
X173950000Y-84425000D01*
X173450000Y-84425000D01*
X173445138Y-84424032D01*
X173394959Y-84418212D01*
X173377812Y-84410641D01*
X173354329Y-84405970D01*
X173329186Y-84389170D01*
X173309303Y-84380391D01*
X173295722Y-84366810D01*
X173273223Y-84351777D01*
X173258189Y-84329277D01*
X173244608Y-84315696D01*
X173235827Y-84295810D01*
X173219030Y-84270671D01*
X173214359Y-84247189D01*
X173206787Y-84230040D01*
X173200964Y-84179849D01*
X173200000Y-84175000D01*
X173200000Y-83225000D01*
X173200964Y-83220150D01*
X173206787Y-83169959D01*
X173214359Y-83152808D01*
X173219030Y-83129329D01*
X173235826Y-83104191D01*
X173244608Y-83084303D01*
X173258191Y-83070719D01*
X173273223Y-83048223D01*
X173295719Y-83033191D01*
X173309303Y-83019608D01*
X173329191Y-83010826D01*
X173354329Y-82994030D01*
X173377808Y-82989359D01*
X173394959Y-82981787D01*
X173445151Y-82975964D01*
X173450000Y-82975000D01*
X173950000Y-82975000D01*
X173954850Y-82975964D01*
G37*
G36*
X175854850Y-82975964D02*
G01*
X175905040Y-82981787D01*
X175922189Y-82989359D01*
X175945671Y-82994030D01*
X175970810Y-83010827D01*
X175990696Y-83019608D01*
X176004277Y-83033189D01*
X176026777Y-83048223D01*
X176041810Y-83070722D01*
X176055391Y-83084303D01*
X176064170Y-83104186D01*
X176080970Y-83129329D01*
X176085641Y-83152812D01*
X176093212Y-83169959D01*
X176099033Y-83220139D01*
X176100000Y-83225000D01*
X176100000Y-84175000D01*
X176099032Y-84179863D01*
X176093212Y-84230040D01*
X176085641Y-84247185D01*
X176080970Y-84270671D01*
X176064169Y-84295815D01*
X176055391Y-84315696D01*
X176041812Y-84329274D01*
X176026777Y-84351777D01*
X176004274Y-84366812D01*
X175990696Y-84380391D01*
X175970815Y-84389169D01*
X175945671Y-84405970D01*
X175922185Y-84410641D01*
X175905040Y-84418212D01*
X175854861Y-84424032D01*
X175850000Y-84425000D01*
X175350000Y-84425000D01*
X175345138Y-84424032D01*
X175294959Y-84418212D01*
X175277812Y-84410641D01*
X175254329Y-84405970D01*
X175229186Y-84389170D01*
X175209303Y-84380391D01*
X175195722Y-84366810D01*
X175173223Y-84351777D01*
X175158189Y-84329277D01*
X175144608Y-84315696D01*
X175135827Y-84295810D01*
X175119030Y-84270671D01*
X175114359Y-84247189D01*
X175106787Y-84230040D01*
X175100964Y-84179849D01*
X175100000Y-84175000D01*
X175100000Y-83225000D01*
X175100964Y-83220150D01*
X175106787Y-83169959D01*
X175114359Y-83152808D01*
X175119030Y-83129329D01*
X175135826Y-83104191D01*
X175144608Y-83084303D01*
X175158191Y-83070719D01*
X175173223Y-83048223D01*
X175195719Y-83033191D01*
X175209303Y-83019608D01*
X175229191Y-83010826D01*
X175254329Y-82994030D01*
X175277808Y-82989359D01*
X175294959Y-82981787D01*
X175345151Y-82975964D01*
X175350000Y-82975000D01*
X175850000Y-82975000D01*
X175854850Y-82975964D01*
G37*
G36*
X186742208Y-82109254D02*
G01*
X186843943Y-82167991D01*
X186927009Y-82251057D01*
X186985746Y-82352792D01*
X187016150Y-82466263D01*
X187020000Y-82525000D01*
X187020000Y-83525000D01*
X187016150Y-83583737D01*
X186985746Y-83697208D01*
X186927009Y-83798943D01*
X186843943Y-83882009D01*
X186742208Y-83940746D01*
X186628737Y-83971150D01*
X186511263Y-83971150D01*
X186397792Y-83940746D01*
X186296057Y-83882009D01*
X186212991Y-83798943D01*
X186154254Y-83697208D01*
X186123850Y-83583737D01*
X186120000Y-83525000D01*
X186120000Y-82525000D01*
X186123850Y-82466263D01*
X186154254Y-82352792D01*
X186212991Y-82251057D01*
X186296057Y-82167991D01*
X186397792Y-82109254D01*
X186511263Y-82078850D01*
X186628737Y-82078850D01*
X186742208Y-82109254D01*
G37*
G36*
X189602208Y-82109254D02*
G01*
X189703943Y-82167991D01*
X189787009Y-82251057D01*
X189845746Y-82352792D01*
X189876150Y-82466263D01*
X189880000Y-82525000D01*
X189880000Y-83525000D01*
X189876150Y-83583737D01*
X189845746Y-83697208D01*
X189787009Y-83798943D01*
X189703943Y-83882009D01*
X189602208Y-83940746D01*
X189488737Y-83971150D01*
X189371263Y-83971150D01*
X189257792Y-83940746D01*
X189156057Y-83882009D01*
X189072991Y-83798943D01*
X189014254Y-83697208D01*
X188983850Y-83583737D01*
X188980000Y-83525000D01*
X188980000Y-82525000D01*
X188983850Y-82466263D01*
X189014254Y-82352792D01*
X189072991Y-82251057D01*
X189156057Y-82167991D01*
X189257792Y-82109254D01*
X189371263Y-82078850D01*
X189488737Y-82078850D01*
X189602208Y-82109254D01*
G37*
G36*
X188504805Y-83307836D02*
G01*
X188572628Y-83346994D01*
X188628006Y-83402372D01*
X188667164Y-83470195D01*
X188687433Y-83545842D01*
X188687433Y-83624158D01*
X188667164Y-83699805D01*
X188628006Y-83767628D01*
X188572628Y-83823006D01*
X188504805Y-83862164D01*
X188429158Y-83882433D01*
X188350842Y-83882433D01*
X188275195Y-83862164D01*
X188207372Y-83823006D01*
X188151994Y-83767628D01*
X188112836Y-83699805D01*
X188092567Y-83624158D01*
X188092567Y-83545842D01*
X188112836Y-83470195D01*
X188151994Y-83402372D01*
X188207372Y-83346994D01*
X188275195Y-83307836D01*
X188350842Y-83287567D01*
X188429158Y-83287567D01*
X188504805Y-83307836D01*
G37*
G36*
X187724805Y-82847836D02*
G01*
X187792628Y-82886994D01*
X187848006Y-82942372D01*
X187887164Y-83010195D01*
X187907433Y-83085842D01*
X187907433Y-83164158D01*
X187887164Y-83239805D01*
X187848006Y-83307628D01*
X187792628Y-83363006D01*
X187724805Y-83402164D01*
X187649158Y-83422433D01*
X187570842Y-83422433D01*
X187495195Y-83402164D01*
X187427372Y-83363006D01*
X187371994Y-83307628D01*
X187332836Y-83239805D01*
X187312567Y-83164158D01*
X187312567Y-83085842D01*
X187332836Y-83010195D01*
X187371994Y-82942372D01*
X187427372Y-82886994D01*
X187495195Y-82847836D01*
X187570842Y-82827567D01*
X187649158Y-82827567D01*
X187724805Y-82847836D01*
G37*
G36*
X162054850Y-81775964D02*
G01*
X162105040Y-81781787D01*
X162122189Y-81789359D01*
X162145671Y-81794030D01*
X162170810Y-81810827D01*
X162190696Y-81819608D01*
X162204277Y-81833189D01*
X162226777Y-81848223D01*
X162241810Y-81870722D01*
X162255391Y-81884303D01*
X162264170Y-81904186D01*
X162280970Y-81929329D01*
X162285641Y-81952812D01*
X162293212Y-81969959D01*
X162299033Y-82020139D01*
X162300000Y-82025000D01*
X162300000Y-82975000D01*
X162299032Y-82979863D01*
X162293212Y-83030040D01*
X162285641Y-83047185D01*
X162280970Y-83070671D01*
X162264169Y-83095815D01*
X162255391Y-83115696D01*
X162241812Y-83129274D01*
X162226777Y-83151777D01*
X162204274Y-83166812D01*
X162190696Y-83180391D01*
X162170815Y-83189169D01*
X162145671Y-83205970D01*
X162122185Y-83210641D01*
X162105040Y-83218212D01*
X162054861Y-83224032D01*
X162050000Y-83225000D01*
X161550000Y-83225000D01*
X161545138Y-83224032D01*
X161494959Y-83218212D01*
X161477812Y-83210641D01*
X161454329Y-83205970D01*
X161429186Y-83189170D01*
X161409303Y-83180391D01*
X161395722Y-83166810D01*
X161373223Y-83151777D01*
X161358189Y-83129277D01*
X161344608Y-83115696D01*
X161335827Y-83095810D01*
X161319030Y-83070671D01*
X161314359Y-83047189D01*
X161306787Y-83030040D01*
X161300964Y-82979849D01*
X161300000Y-82975000D01*
X161300000Y-82025000D01*
X161300964Y-82020150D01*
X161306787Y-81969959D01*
X161314359Y-81952808D01*
X161319030Y-81929329D01*
X161335826Y-81904191D01*
X161344608Y-81884303D01*
X161358191Y-81870719D01*
X161373223Y-81848223D01*
X161395719Y-81833191D01*
X161409303Y-81819608D01*
X161429191Y-81810826D01*
X161454329Y-81794030D01*
X161477808Y-81789359D01*
X161494959Y-81781787D01*
X161545151Y-81775964D01*
X161550000Y-81775000D01*
X162050000Y-81775000D01*
X162054850Y-81775964D01*
G37*
G36*
X163954850Y-81775964D02*
G01*
X164005040Y-81781787D01*
X164022189Y-81789359D01*
X164045671Y-81794030D01*
X164070810Y-81810827D01*
X164090696Y-81819608D01*
X164104277Y-81833189D01*
X164126777Y-81848223D01*
X164141810Y-81870722D01*
X164155391Y-81884303D01*
X164164170Y-81904186D01*
X164180970Y-81929329D01*
X164185641Y-81952812D01*
X164193212Y-81969959D01*
X164199033Y-82020139D01*
X164200000Y-82025000D01*
X164200000Y-82975000D01*
X164199032Y-82979863D01*
X164193212Y-83030040D01*
X164185641Y-83047185D01*
X164180970Y-83070671D01*
X164164169Y-83095815D01*
X164155391Y-83115696D01*
X164141812Y-83129274D01*
X164126777Y-83151777D01*
X164104274Y-83166812D01*
X164090696Y-83180391D01*
X164070815Y-83189169D01*
X164045671Y-83205970D01*
X164022185Y-83210641D01*
X164005040Y-83218212D01*
X163954861Y-83224032D01*
X163950000Y-83225000D01*
X163450000Y-83225000D01*
X163445138Y-83224032D01*
X163394959Y-83218212D01*
X163377812Y-83210641D01*
X163354329Y-83205970D01*
X163329186Y-83189170D01*
X163309303Y-83180391D01*
X163295722Y-83166810D01*
X163273223Y-83151777D01*
X163258189Y-83129277D01*
X163244608Y-83115696D01*
X163235827Y-83095810D01*
X163219030Y-83070671D01*
X163214359Y-83047189D01*
X163206787Y-83030040D01*
X163200964Y-82979849D01*
X163200000Y-82975000D01*
X163200000Y-82025000D01*
X163200964Y-82020150D01*
X163206787Y-81969959D01*
X163214359Y-81952808D01*
X163219030Y-81929329D01*
X163235826Y-81904191D01*
X163244608Y-81884303D01*
X163258191Y-81870719D01*
X163273223Y-81848223D01*
X163295719Y-81833191D01*
X163309303Y-81819608D01*
X163329191Y-81810826D01*
X163354329Y-81794030D01*
X163377808Y-81789359D01*
X163394959Y-81781787D01*
X163445151Y-81775964D01*
X163450000Y-81775000D01*
X163950000Y-81775000D01*
X163954850Y-81775964D01*
G37*
G36*
X188504805Y-82397836D02*
G01*
X188572628Y-82436994D01*
X188628006Y-82492372D01*
X188667164Y-82560195D01*
X188687433Y-82635842D01*
X188687433Y-82714158D01*
X188667164Y-82789805D01*
X188628006Y-82857628D01*
X188572628Y-82913006D01*
X188504805Y-82952164D01*
X188429158Y-82972433D01*
X188350842Y-82972433D01*
X188275195Y-82952164D01*
X188207372Y-82913006D01*
X188151994Y-82857628D01*
X188112836Y-82789805D01*
X188092567Y-82714158D01*
X188092567Y-82635842D01*
X188112836Y-82560195D01*
X188151994Y-82492372D01*
X188207372Y-82436994D01*
X188275195Y-82397836D01*
X188350842Y-82377567D01*
X188429158Y-82377567D01*
X188504805Y-82397836D01*
G37*
G36*
X139354850Y-81588464D02*
G01*
X139405040Y-81594287D01*
X139422189Y-81601859D01*
X139445671Y-81606530D01*
X139470810Y-81623327D01*
X139490696Y-81632108D01*
X139504277Y-81645689D01*
X139526777Y-81660723D01*
X139541810Y-81683222D01*
X139555391Y-81696803D01*
X139564170Y-81716686D01*
X139580970Y-81741829D01*
X139585641Y-81765312D01*
X139593212Y-81782459D01*
X139599033Y-81832639D01*
X139600000Y-81837500D01*
X139600000Y-82362500D01*
X139599032Y-82367363D01*
X139593212Y-82417540D01*
X139585641Y-82434685D01*
X139580970Y-82458171D01*
X139564169Y-82483315D01*
X139555391Y-82503196D01*
X139541812Y-82516774D01*
X139526777Y-82539277D01*
X139504274Y-82554312D01*
X139490696Y-82567891D01*
X139470815Y-82576669D01*
X139445671Y-82593470D01*
X139422185Y-82598141D01*
X139405040Y-82605712D01*
X139354861Y-82611532D01*
X139350000Y-82612500D01*
X138450000Y-82612500D01*
X138445138Y-82611532D01*
X138394959Y-82605712D01*
X138377812Y-82598141D01*
X138354329Y-82593470D01*
X138329186Y-82576670D01*
X138309303Y-82567891D01*
X138295722Y-82554310D01*
X138273223Y-82539277D01*
X138258189Y-82516777D01*
X138244608Y-82503196D01*
X138235827Y-82483310D01*
X138219030Y-82458171D01*
X138214359Y-82434689D01*
X138206787Y-82417540D01*
X138200964Y-82367349D01*
X138200000Y-82362500D01*
X138200000Y-81837500D01*
X138200964Y-81832650D01*
X138206787Y-81782459D01*
X138214359Y-81765308D01*
X138219030Y-81741829D01*
X138235826Y-81716691D01*
X138244608Y-81696803D01*
X138258191Y-81683219D01*
X138273223Y-81660723D01*
X138295719Y-81645691D01*
X138309303Y-81632108D01*
X138329191Y-81623326D01*
X138354329Y-81606530D01*
X138377808Y-81601859D01*
X138394959Y-81594287D01*
X138445151Y-81588464D01*
X138450000Y-81587500D01*
X139350000Y-81587500D01*
X139354850Y-81588464D01*
G37*
G36*
X187724805Y-81957836D02*
G01*
X187792628Y-81996994D01*
X187848006Y-82052372D01*
X187887164Y-82120195D01*
X187907433Y-82195842D01*
X187907433Y-82274158D01*
X187887164Y-82349805D01*
X187848006Y-82417628D01*
X187792628Y-82473006D01*
X187724805Y-82512164D01*
X187649158Y-82532433D01*
X187570842Y-82532433D01*
X187495195Y-82512164D01*
X187427372Y-82473006D01*
X187371994Y-82417628D01*
X187332836Y-82349805D01*
X187312567Y-82274158D01*
X187312567Y-82195842D01*
X187332836Y-82120195D01*
X187371994Y-82052372D01*
X187427372Y-81996994D01*
X187495195Y-81957836D01*
X187570842Y-81937567D01*
X187649158Y-81937567D01*
X187724805Y-81957836D01*
G37*
G36*
X131604850Y-80400964D02*
G01*
X131655040Y-80406787D01*
X131672189Y-80414359D01*
X131695671Y-80419030D01*
X131720810Y-80435827D01*
X131740696Y-80444608D01*
X131754277Y-80458189D01*
X131776777Y-80473223D01*
X131791810Y-80495722D01*
X131805391Y-80509303D01*
X131814170Y-80529186D01*
X131830970Y-80554329D01*
X131835641Y-80577812D01*
X131843212Y-80594959D01*
X131849033Y-80645139D01*
X131850000Y-80650000D01*
X131850000Y-82250000D01*
X131849032Y-82254863D01*
X131843212Y-82305040D01*
X131835641Y-82322185D01*
X131830970Y-82345671D01*
X131814169Y-82370815D01*
X131805391Y-82390696D01*
X131791812Y-82404274D01*
X131776777Y-82426777D01*
X131754274Y-82441812D01*
X131740696Y-82455391D01*
X131720815Y-82464169D01*
X131695671Y-82480970D01*
X131672185Y-82485641D01*
X131655040Y-82493212D01*
X131604861Y-82499032D01*
X131600000Y-82500000D01*
X130700000Y-82500000D01*
X130695138Y-82499032D01*
X130644959Y-82493212D01*
X130627812Y-82485641D01*
X130604329Y-82480970D01*
X130579186Y-82464170D01*
X130559303Y-82455391D01*
X130545722Y-82441810D01*
X130523223Y-82426777D01*
X130508189Y-82404277D01*
X130494608Y-82390696D01*
X130485827Y-82370810D01*
X130469030Y-82345671D01*
X130464359Y-82322189D01*
X130456787Y-82305040D01*
X130450964Y-82254849D01*
X130450000Y-82250000D01*
X130450000Y-80650000D01*
X130450964Y-80645150D01*
X130456787Y-80594959D01*
X130464359Y-80577808D01*
X130469030Y-80554329D01*
X130485826Y-80529191D01*
X130494608Y-80509303D01*
X130508191Y-80495719D01*
X130523223Y-80473223D01*
X130545719Y-80458191D01*
X130559303Y-80444608D01*
X130579191Y-80435826D01*
X130604329Y-80419030D01*
X130627808Y-80414359D01*
X130644959Y-80406787D01*
X130695151Y-80400964D01*
X130700000Y-80400000D01*
X131600000Y-80400000D01*
X131604850Y-80400964D01*
G37*
G36*
X136104850Y-80400964D02*
G01*
X136155040Y-80406787D01*
X136172189Y-80414359D01*
X136195671Y-80419030D01*
X136220810Y-80435827D01*
X136240696Y-80444608D01*
X136254277Y-80458189D01*
X136276777Y-80473223D01*
X136291810Y-80495722D01*
X136305391Y-80509303D01*
X136314170Y-80529186D01*
X136330970Y-80554329D01*
X136335641Y-80577812D01*
X136343212Y-80594959D01*
X136349033Y-80645139D01*
X136350000Y-80650000D01*
X136350000Y-82250000D01*
X136349032Y-82254863D01*
X136343212Y-82305040D01*
X136335641Y-82322185D01*
X136330970Y-82345671D01*
X136314169Y-82370815D01*
X136305391Y-82390696D01*
X136291812Y-82404274D01*
X136276777Y-82426777D01*
X136254274Y-82441812D01*
X136240696Y-82455391D01*
X136220815Y-82464169D01*
X136195671Y-82480970D01*
X136172185Y-82485641D01*
X136155040Y-82493212D01*
X136104861Y-82499032D01*
X136100000Y-82500000D01*
X135200000Y-82500000D01*
X135195138Y-82499032D01*
X135144959Y-82493212D01*
X135127812Y-82485641D01*
X135104329Y-82480970D01*
X135079186Y-82464170D01*
X135059303Y-82455391D01*
X135045722Y-82441810D01*
X135023223Y-82426777D01*
X135008189Y-82404277D01*
X134994608Y-82390696D01*
X134985827Y-82370810D01*
X134969030Y-82345671D01*
X134964359Y-82322189D01*
X134956787Y-82305040D01*
X134950964Y-82254849D01*
X134950000Y-82250000D01*
X134950000Y-80650000D01*
X134950964Y-80645150D01*
X134956787Y-80594959D01*
X134964359Y-80577808D01*
X134969030Y-80554329D01*
X134985826Y-80529191D01*
X134994608Y-80509303D01*
X135008191Y-80495719D01*
X135023223Y-80473223D01*
X135045719Y-80458191D01*
X135059303Y-80444608D01*
X135079191Y-80435826D01*
X135104329Y-80419030D01*
X135127808Y-80414359D01*
X135144959Y-80406787D01*
X135195151Y-80400964D01*
X135200000Y-80400000D01*
X136100000Y-80400000D01*
X136104850Y-80400964D01*
G37*
G36*
X188504805Y-81497836D02*
G01*
X188572628Y-81536994D01*
X188628006Y-81592372D01*
X188667164Y-81660195D01*
X188687433Y-81735842D01*
X188687433Y-81814158D01*
X188667164Y-81889805D01*
X188628006Y-81957628D01*
X188572628Y-82013006D01*
X188504805Y-82052164D01*
X188429158Y-82072433D01*
X188350842Y-82072433D01*
X188275195Y-82052164D01*
X188207372Y-82013006D01*
X188151994Y-81957628D01*
X188112836Y-81889805D01*
X188092567Y-81814158D01*
X188092567Y-81735842D01*
X188112836Y-81660195D01*
X188151994Y-81592372D01*
X188207372Y-81536994D01*
X188275195Y-81497836D01*
X188350842Y-81477567D01*
X188429158Y-81477567D01*
X188504805Y-81497836D01*
G37*
G36*
X187724805Y-81047836D02*
G01*
X187792628Y-81086994D01*
X187848006Y-81142372D01*
X187887164Y-81210195D01*
X187907433Y-81285842D01*
X187907433Y-81364158D01*
X187887164Y-81439805D01*
X187848006Y-81507628D01*
X187792628Y-81563006D01*
X187724805Y-81602164D01*
X187649158Y-81622433D01*
X187570842Y-81622433D01*
X187495195Y-81602164D01*
X187427372Y-81563006D01*
X187371994Y-81507628D01*
X187332836Y-81439805D01*
X187312567Y-81364158D01*
X187312567Y-81285842D01*
X187332836Y-81210195D01*
X187371994Y-81142372D01*
X187427372Y-81086994D01*
X187495195Y-81047836D01*
X187570842Y-81027567D01*
X187649158Y-81027567D01*
X187724805Y-81047836D01*
G37*
G36*
X144630000Y-81550000D02*
G01*
X142930000Y-81550000D01*
X142930000Y-79850000D01*
X144630000Y-79850000D01*
X144630000Y-81550000D01*
G37*
G36*
X146566742Y-79886601D02*
G01*
X146720687Y-79950367D01*
X146859234Y-80042941D01*
X146977059Y-80160766D01*
X147069633Y-80299313D01*
X147133399Y-80453258D01*
X147165907Y-80616685D01*
X147165907Y-80783315D01*
X147133399Y-80946742D01*
X147069633Y-81100687D01*
X146977059Y-81239234D01*
X146859234Y-81357059D01*
X146720687Y-81449633D01*
X146566742Y-81513399D01*
X146403315Y-81545907D01*
X146236685Y-81545907D01*
X146073258Y-81513399D01*
X145919313Y-81449633D01*
X145780766Y-81357059D01*
X145662941Y-81239234D01*
X145570367Y-81100687D01*
X145506601Y-80946742D01*
X145474093Y-80783315D01*
X145474093Y-80616685D01*
X145506601Y-80453258D01*
X145570367Y-80299313D01*
X145662941Y-80160766D01*
X145780766Y-80042941D01*
X145919313Y-79950367D01*
X146073258Y-79886601D01*
X146236685Y-79854093D01*
X146403315Y-79854093D01*
X146566742Y-79886601D01*
G37*
G36*
X149106742Y-79886601D02*
G01*
X149260687Y-79950367D01*
X149399234Y-80042941D01*
X149517059Y-80160766D01*
X149609633Y-80299313D01*
X149673399Y-80453258D01*
X149705907Y-80616685D01*
X149705907Y-80783315D01*
X149673399Y-80946742D01*
X149609633Y-81100687D01*
X149517059Y-81239234D01*
X149399234Y-81357059D01*
X149260687Y-81449633D01*
X149106742Y-81513399D01*
X148943315Y-81545907D01*
X148776685Y-81545907D01*
X148613258Y-81513399D01*
X148459313Y-81449633D01*
X148320766Y-81357059D01*
X148202941Y-81239234D01*
X148110367Y-81100687D01*
X148046601Y-80946742D01*
X148014093Y-80783315D01*
X148014093Y-80616685D01*
X148046601Y-80453258D01*
X148110367Y-80299313D01*
X148202941Y-80160766D01*
X148320766Y-80042941D01*
X148459313Y-79950367D01*
X148613258Y-79886601D01*
X148776685Y-79854093D01*
X148943315Y-79854093D01*
X149106742Y-79886601D01*
G37*
G36*
X151646742Y-79886601D02*
G01*
X151800687Y-79950367D01*
X151939234Y-80042941D01*
X152057059Y-80160766D01*
X152149633Y-80299313D01*
X152213399Y-80453258D01*
X152245907Y-80616685D01*
X152245907Y-80783315D01*
X152213399Y-80946742D01*
X152149633Y-81100687D01*
X152057059Y-81239234D01*
X151939234Y-81357059D01*
X151800687Y-81449633D01*
X151646742Y-81513399D01*
X151483315Y-81545907D01*
X151316685Y-81545907D01*
X151153258Y-81513399D01*
X150999313Y-81449633D01*
X150860766Y-81357059D01*
X150742941Y-81239234D01*
X150650367Y-81100687D01*
X150586601Y-80946742D01*
X150554093Y-80783315D01*
X150554093Y-80616685D01*
X150586601Y-80453258D01*
X150650367Y-80299313D01*
X150742941Y-80160766D01*
X150860766Y-80042941D01*
X150999313Y-79950367D01*
X151153258Y-79886601D01*
X151316685Y-79854093D01*
X151483315Y-79854093D01*
X151646742Y-79886601D01*
G37*
G36*
X188504805Y-80607836D02*
G01*
X188572628Y-80646994D01*
X188628006Y-80702372D01*
X188667164Y-80770195D01*
X188687433Y-80845842D01*
X188687433Y-80924158D01*
X188667164Y-80999805D01*
X188628006Y-81067628D01*
X188572628Y-81123006D01*
X188504805Y-81162164D01*
X188429158Y-81182433D01*
X188350842Y-81182433D01*
X188275195Y-81162164D01*
X188207372Y-81123006D01*
X188151994Y-81067628D01*
X188112836Y-80999805D01*
X188092567Y-80924158D01*
X188092567Y-80845842D01*
X188112836Y-80770195D01*
X188151994Y-80702372D01*
X188207372Y-80646994D01*
X188275195Y-80607836D01*
X188350842Y-80587567D01*
X188429158Y-80587567D01*
X188504805Y-80607836D01*
G37*
G36*
X174000000Y-81000000D02*
G01*
X173400000Y-81000000D01*
X173400000Y-80000000D01*
X174000000Y-80000000D01*
X174000000Y-81000000D01*
G37*
G36*
X174950000Y-81000000D02*
G01*
X174350000Y-81000000D01*
X174350000Y-80000000D01*
X174950000Y-80000000D01*
X174950000Y-81000000D01*
G37*
G36*
X175900000Y-81000000D02*
G01*
X175300000Y-81000000D01*
X175300000Y-80000000D01*
X175900000Y-80000000D01*
X175900000Y-81000000D01*
G37*
G36*
X139354850Y-79763464D02*
G01*
X139405040Y-79769287D01*
X139422189Y-79776859D01*
X139445671Y-79781530D01*
X139470810Y-79798327D01*
X139490696Y-79807108D01*
X139504277Y-79820689D01*
X139526777Y-79835723D01*
X139541810Y-79858222D01*
X139555391Y-79871803D01*
X139564170Y-79891686D01*
X139580970Y-79916829D01*
X139585641Y-79940312D01*
X139593212Y-79957459D01*
X139599033Y-80007639D01*
X139600000Y-80012500D01*
X139600000Y-80537500D01*
X139599032Y-80542363D01*
X139593212Y-80592540D01*
X139585641Y-80609685D01*
X139580970Y-80633171D01*
X139564169Y-80658315D01*
X139555391Y-80678196D01*
X139541812Y-80691774D01*
X139526777Y-80714277D01*
X139504274Y-80729312D01*
X139490696Y-80742891D01*
X139470815Y-80751669D01*
X139445671Y-80768470D01*
X139422185Y-80773141D01*
X139405040Y-80780712D01*
X139354861Y-80786532D01*
X139350000Y-80787500D01*
X138450000Y-80787500D01*
X138445138Y-80786532D01*
X138394959Y-80780712D01*
X138377812Y-80773141D01*
X138354329Y-80768470D01*
X138329186Y-80751670D01*
X138309303Y-80742891D01*
X138295722Y-80729310D01*
X138273223Y-80714277D01*
X138258189Y-80691777D01*
X138244608Y-80678196D01*
X138235827Y-80658310D01*
X138219030Y-80633171D01*
X138214359Y-80609689D01*
X138206787Y-80592540D01*
X138200964Y-80542349D01*
X138200000Y-80537500D01*
X138200000Y-80012500D01*
X138200964Y-80007650D01*
X138206787Y-79957459D01*
X138214359Y-79940308D01*
X138219030Y-79916829D01*
X138235826Y-79891691D01*
X138244608Y-79871803D01*
X138258191Y-79858219D01*
X138273223Y-79835723D01*
X138295719Y-79820691D01*
X138309303Y-79807108D01*
X138329191Y-79798326D01*
X138354329Y-79781530D01*
X138377808Y-79776859D01*
X138394959Y-79769287D01*
X138445151Y-79763464D01*
X138450000Y-79762500D01*
X139350000Y-79762500D01*
X139354850Y-79763464D01*
G37*
G36*
X187724805Y-80147836D02*
G01*
X187792628Y-80186994D01*
X187848006Y-80242372D01*
X187887164Y-80310195D01*
X187907433Y-80385842D01*
X187907433Y-80464158D01*
X187887164Y-80539805D01*
X187848006Y-80607628D01*
X187792628Y-80663006D01*
X187724805Y-80702164D01*
X187649158Y-80722433D01*
X187570842Y-80722433D01*
X187495195Y-80702164D01*
X187427372Y-80663006D01*
X187371994Y-80607628D01*
X187332836Y-80539805D01*
X187312567Y-80464158D01*
X187312567Y-80385842D01*
X187332836Y-80310195D01*
X187371994Y-80242372D01*
X187427372Y-80186994D01*
X187495195Y-80147836D01*
X187570842Y-80127567D01*
X187649158Y-80127567D01*
X187724805Y-80147836D01*
G37*
G36*
X188504805Y-79707836D02*
G01*
X188572628Y-79746994D01*
X188628006Y-79802372D01*
X188667164Y-79870195D01*
X188687433Y-79945842D01*
X188687433Y-80024158D01*
X188667164Y-80099805D01*
X188628006Y-80167628D01*
X188572628Y-80223006D01*
X188504805Y-80262164D01*
X188429158Y-80282433D01*
X188350842Y-80282433D01*
X188275195Y-80262164D01*
X188207372Y-80223006D01*
X188151994Y-80167628D01*
X188112836Y-80099805D01*
X188092567Y-80024158D01*
X188092567Y-79945842D01*
X188112836Y-79870195D01*
X188151994Y-79802372D01*
X188207372Y-79746994D01*
X188275195Y-79707836D01*
X188350842Y-79687567D01*
X188429158Y-79687567D01*
X188504805Y-79707836D01*
G37*
G36*
X180695000Y-79965000D02*
G01*
X178505000Y-79965000D01*
X178505000Y-77915000D01*
X180695000Y-77915000D01*
X180695000Y-79965000D01*
G37*
G36*
X187724805Y-79257836D02*
G01*
X187792628Y-79296994D01*
X187848006Y-79352372D01*
X187887164Y-79420195D01*
X187907433Y-79495842D01*
X187907433Y-79574158D01*
X187887164Y-79649805D01*
X187848006Y-79717628D01*
X187792628Y-79773006D01*
X187724805Y-79812164D01*
X187649158Y-79832433D01*
X187570842Y-79832433D01*
X187495195Y-79812164D01*
X187427372Y-79773006D01*
X187371994Y-79717628D01*
X187332836Y-79649805D01*
X187312567Y-79574158D01*
X187312567Y-79495842D01*
X187332836Y-79420195D01*
X187371994Y-79352372D01*
X187427372Y-79296994D01*
X187495195Y-79257836D01*
X187570842Y-79237567D01*
X187649158Y-79237567D01*
X187724805Y-79257836D01*
G37*
G36*
X188504805Y-78797836D02*
G01*
X188572628Y-78836994D01*
X188628006Y-78892372D01*
X188667164Y-78960195D01*
X188687433Y-79035842D01*
X188687433Y-79114158D01*
X188667164Y-79189805D01*
X188628006Y-79257628D01*
X188572628Y-79313006D01*
X188504805Y-79352164D01*
X188429158Y-79372433D01*
X188350842Y-79372433D01*
X188275195Y-79352164D01*
X188207372Y-79313006D01*
X188151994Y-79257628D01*
X188112836Y-79189805D01*
X188092567Y-79114158D01*
X188092567Y-79035842D01*
X188112836Y-78960195D01*
X188151994Y-78892372D01*
X188207372Y-78836994D01*
X188275195Y-78797836D01*
X188350842Y-78777567D01*
X188429158Y-78777567D01*
X188504805Y-78797836D01*
G37*
G36*
X186742208Y-77319254D02*
G01*
X186843943Y-77377991D01*
X186927009Y-77461057D01*
X186985746Y-77562792D01*
X187016150Y-77676263D01*
X187020000Y-77735000D01*
X187020000Y-78735000D01*
X187016150Y-78793737D01*
X186985746Y-78907208D01*
X186927009Y-79008943D01*
X186843943Y-79092009D01*
X186742208Y-79150746D01*
X186628737Y-79181150D01*
X186511263Y-79181150D01*
X186397792Y-79150746D01*
X186296057Y-79092009D01*
X186212991Y-79008943D01*
X186154254Y-78907208D01*
X186123850Y-78793737D01*
X186120000Y-78735000D01*
X186120000Y-77735000D01*
X186123850Y-77676263D01*
X186154254Y-77562792D01*
X186212991Y-77461057D01*
X186296057Y-77377991D01*
X186397792Y-77319254D01*
X186511263Y-77288850D01*
X186628737Y-77288850D01*
X186742208Y-77319254D01*
G37*
G36*
X189602208Y-77319254D02*
G01*
X189703943Y-77377991D01*
X189787009Y-77461057D01*
X189845746Y-77562792D01*
X189876150Y-77676263D01*
X189880000Y-77735000D01*
X189880000Y-78735000D01*
X189876150Y-78793737D01*
X189845746Y-78907208D01*
X189787009Y-79008943D01*
X189703943Y-79092009D01*
X189602208Y-79150746D01*
X189488737Y-79181150D01*
X189371263Y-79181150D01*
X189257792Y-79150746D01*
X189156057Y-79092009D01*
X189072991Y-79008943D01*
X189014254Y-78907208D01*
X188983850Y-78793737D01*
X188980000Y-78735000D01*
X188980000Y-77735000D01*
X188983850Y-77676263D01*
X189014254Y-77562792D01*
X189072991Y-77461057D01*
X189156057Y-77377991D01*
X189257792Y-77319254D01*
X189371263Y-77288850D01*
X189488737Y-77288850D01*
X189602208Y-77319254D01*
G37*
G36*
X187724805Y-78357836D02*
G01*
X187792628Y-78396994D01*
X187848006Y-78452372D01*
X187887164Y-78520195D01*
X187907433Y-78595842D01*
X187907433Y-78674158D01*
X187887164Y-78749805D01*
X187848006Y-78817628D01*
X187792628Y-78873006D01*
X187724805Y-78912164D01*
X187649158Y-78932433D01*
X187570842Y-78932433D01*
X187495195Y-78912164D01*
X187427372Y-78873006D01*
X187371994Y-78817628D01*
X187332836Y-78749805D01*
X187312567Y-78674158D01*
X187312567Y-78595842D01*
X187332836Y-78520195D01*
X187371994Y-78452372D01*
X187427372Y-78396994D01*
X187495195Y-78357836D01*
X187570842Y-78337567D01*
X187649158Y-78337567D01*
X187724805Y-78357836D01*
G37*
G36*
X174000000Y-78800000D02*
G01*
X173400000Y-78800000D01*
X173400000Y-77800000D01*
X174000000Y-77800000D01*
X174000000Y-78800000D01*
G37*
G36*
X175900000Y-78800000D02*
G01*
X175300000Y-78800000D01*
X175300000Y-77800000D01*
X175900000Y-77800000D01*
X175900000Y-78800000D01*
G37*
G36*
X159200000Y-78600000D02*
G01*
X157400000Y-78600000D01*
X157400000Y-76800000D01*
X159200000Y-76800000D01*
X159200000Y-78600000D01*
G37*
G36*
X167400000Y-78600000D02*
G01*
X165600000Y-78600000D01*
X165600000Y-76800000D01*
X167400000Y-76800000D01*
X167400000Y-78600000D01*
G37*
G36*
X188504805Y-77897836D02*
G01*
X188572628Y-77936994D01*
X188628006Y-77992372D01*
X188667164Y-78060195D01*
X188687433Y-78135842D01*
X188687433Y-78214158D01*
X188667164Y-78289805D01*
X188628006Y-78357628D01*
X188572628Y-78413006D01*
X188504805Y-78452164D01*
X188429158Y-78472433D01*
X188350842Y-78472433D01*
X188275195Y-78452164D01*
X188207372Y-78413006D01*
X188151994Y-78357628D01*
X188112836Y-78289805D01*
X188092567Y-78214158D01*
X188092567Y-78135842D01*
X188112836Y-78060195D01*
X188151994Y-77992372D01*
X188207372Y-77936994D01*
X188275195Y-77897836D01*
X188350842Y-77877567D01*
X188429158Y-77877567D01*
X188504805Y-77897836D01*
G37*
G36*
X139035000Y-78090000D02*
G01*
X137335000Y-78090000D01*
X137335000Y-76390000D01*
X139035000Y-76390000D01*
X139035000Y-78090000D01*
G37*
G36*
X187724805Y-77447836D02*
G01*
X187792628Y-77486994D01*
X187848006Y-77542372D01*
X187887164Y-77610195D01*
X187907433Y-77685842D01*
X187907433Y-77764158D01*
X187887164Y-77839805D01*
X187848006Y-77907628D01*
X187792628Y-77963006D01*
X187724805Y-78002164D01*
X187649158Y-78022433D01*
X187570842Y-78022433D01*
X187495195Y-78002164D01*
X187427372Y-77963006D01*
X187371994Y-77907628D01*
X187332836Y-77839805D01*
X187312567Y-77764158D01*
X187312567Y-77685842D01*
X187332836Y-77610195D01*
X187371994Y-77542372D01*
X187427372Y-77486994D01*
X187495195Y-77447836D01*
X187570842Y-77427567D01*
X187649158Y-77427567D01*
X187724805Y-77447836D01*
G37*
G36*
X182242350Y-75100964D02*
G01*
X182292540Y-75106787D01*
X182309689Y-75114359D01*
X182333171Y-75119030D01*
X182358310Y-75135827D01*
X182378196Y-75144608D01*
X182391777Y-75158189D01*
X182414277Y-75173223D01*
X182429310Y-75195722D01*
X182442891Y-75209303D01*
X182451670Y-75229186D01*
X182468470Y-75254329D01*
X182473141Y-75277812D01*
X182480712Y-75294959D01*
X182486533Y-75345139D01*
X182487500Y-75350000D01*
X182487500Y-76250000D01*
X182486532Y-76254863D01*
X182480712Y-76305040D01*
X182473141Y-76322185D01*
X182468470Y-76345671D01*
X182451669Y-76370815D01*
X182442891Y-76390696D01*
X182429312Y-76404274D01*
X182414277Y-76426777D01*
X182391774Y-76441812D01*
X182378196Y-76455391D01*
X182358315Y-76464169D01*
X182333171Y-76480970D01*
X182309685Y-76485641D01*
X182292540Y-76493212D01*
X182242361Y-76499032D01*
X182237500Y-76500000D01*
X181712500Y-76500000D01*
X181707638Y-76499032D01*
X181657459Y-76493212D01*
X181640312Y-76485641D01*
X181616829Y-76480970D01*
X181591686Y-76464170D01*
X181571803Y-76455391D01*
X181558222Y-76441810D01*
X181535723Y-76426777D01*
X181520689Y-76404277D01*
X181507108Y-76390696D01*
X181498327Y-76370810D01*
X181481530Y-76345671D01*
X181476859Y-76322189D01*
X181469287Y-76305040D01*
X181463464Y-76254849D01*
X181462500Y-76250000D01*
X181462500Y-75350000D01*
X181463464Y-75345150D01*
X181469287Y-75294959D01*
X181476859Y-75277808D01*
X181481530Y-75254329D01*
X181498326Y-75229191D01*
X181507108Y-75209303D01*
X181520691Y-75195719D01*
X181535723Y-75173223D01*
X181558219Y-75158191D01*
X181571803Y-75144608D01*
X181591691Y-75135826D01*
X181616829Y-75119030D01*
X181640308Y-75114359D01*
X181657459Y-75106787D01*
X181707651Y-75100964D01*
X181712500Y-75100000D01*
X182237500Y-75100000D01*
X182242350Y-75100964D01*
G37*
G36*
X184067350Y-75100964D02*
G01*
X184117540Y-75106787D01*
X184134689Y-75114359D01*
X184158171Y-75119030D01*
X184183310Y-75135827D01*
X184203196Y-75144608D01*
X184216777Y-75158189D01*
X184239277Y-75173223D01*
X184254310Y-75195722D01*
X184267891Y-75209303D01*
X184276670Y-75229186D01*
X184293470Y-75254329D01*
X184298141Y-75277812D01*
X184305712Y-75294959D01*
X184311533Y-75345139D01*
X184312500Y-75350000D01*
X184312500Y-76250000D01*
X184311532Y-76254863D01*
X184305712Y-76305040D01*
X184298141Y-76322185D01*
X184293470Y-76345671D01*
X184276669Y-76370815D01*
X184267891Y-76390696D01*
X184254312Y-76404274D01*
X184239277Y-76426777D01*
X184216774Y-76441812D01*
X184203196Y-76455391D01*
X184183315Y-76464169D01*
X184158171Y-76480970D01*
X184134685Y-76485641D01*
X184117540Y-76493212D01*
X184067361Y-76499032D01*
X184062500Y-76500000D01*
X183537500Y-76500000D01*
X183532638Y-76499032D01*
X183482459Y-76493212D01*
X183465312Y-76485641D01*
X183441829Y-76480970D01*
X183416686Y-76464170D01*
X183396803Y-76455391D01*
X183383222Y-76441810D01*
X183360723Y-76426777D01*
X183345689Y-76404277D01*
X183332108Y-76390696D01*
X183323327Y-76370810D01*
X183306530Y-76345671D01*
X183301859Y-76322189D01*
X183294287Y-76305040D01*
X183288464Y-76254849D01*
X183287500Y-76250000D01*
X183287500Y-75350000D01*
X183288464Y-75345150D01*
X183294287Y-75294959D01*
X183301859Y-75277808D01*
X183306530Y-75254329D01*
X183323326Y-75229191D01*
X183332108Y-75209303D01*
X183345691Y-75195719D01*
X183360723Y-75173223D01*
X183383219Y-75158191D01*
X183396803Y-75144608D01*
X183416691Y-75135826D01*
X183441829Y-75119030D01*
X183465308Y-75114359D01*
X183482459Y-75106787D01*
X183532651Y-75100964D01*
X183537500Y-75100000D01*
X184062500Y-75100000D01*
X184067350Y-75100964D01*
G37*
G36*
X158561256Y-74298754D02*
G01*
X158724257Y-74366271D01*
X158870954Y-74464291D01*
X158995709Y-74589046D01*
X159093729Y-74735743D01*
X159161246Y-74898744D01*
X159195666Y-75071785D01*
X159195666Y-75248215D01*
X159161246Y-75421256D01*
X159093729Y-75584257D01*
X158995709Y-75730954D01*
X158870954Y-75855709D01*
X158724257Y-75953729D01*
X158561256Y-76021246D01*
X158388215Y-76055666D01*
X158211785Y-76055666D01*
X158038744Y-76021246D01*
X157875743Y-75953729D01*
X157729046Y-75855709D01*
X157604291Y-75730954D01*
X157506271Y-75584257D01*
X157438754Y-75421256D01*
X157404334Y-75248215D01*
X157404334Y-75071785D01*
X157438754Y-74898744D01*
X157506271Y-74735743D01*
X157604291Y-74589046D01*
X157729046Y-74464291D01*
X157875743Y-74366271D01*
X158038744Y-74298754D01*
X158211785Y-74264334D01*
X158388215Y-74264334D01*
X158561256Y-74298754D01*
G37*
G36*
X166761256Y-74298754D02*
G01*
X166924257Y-74366271D01*
X167070954Y-74464291D01*
X167195709Y-74589046D01*
X167293729Y-74735743D01*
X167361246Y-74898744D01*
X167395666Y-75071785D01*
X167395666Y-75248215D01*
X167361246Y-75421256D01*
X167293729Y-75584257D01*
X167195709Y-75730954D01*
X167070954Y-75855709D01*
X166924257Y-75953729D01*
X166761256Y-76021246D01*
X166588215Y-76055666D01*
X166411785Y-76055666D01*
X166238744Y-76021246D01*
X166075743Y-75953729D01*
X165929046Y-75855709D01*
X165804291Y-75730954D01*
X165706271Y-75584257D01*
X165638754Y-75421256D01*
X165604334Y-75248215D01*
X165604334Y-75071785D01*
X165638754Y-74898744D01*
X165706271Y-74735743D01*
X165804291Y-74589046D01*
X165929046Y-74464291D01*
X166075743Y-74366271D01*
X166238744Y-74298754D01*
X166411785Y-74264334D01*
X166588215Y-74264334D01*
X166761256Y-74298754D01*
G37*
G36*
X138431742Y-73886601D02*
G01*
X138585687Y-73950367D01*
X138724234Y-74042941D01*
X138842059Y-74160766D01*
X138934633Y-74299313D01*
X138998399Y-74453258D01*
X139030907Y-74616685D01*
X139030907Y-74783315D01*
X138998399Y-74946742D01*
X138934633Y-75100687D01*
X138842059Y-75239234D01*
X138724234Y-75357059D01*
X138585687Y-75449633D01*
X138431742Y-75513399D01*
X138268315Y-75545907D01*
X138101685Y-75545907D01*
X137938258Y-75513399D01*
X137784313Y-75449633D01*
X137645766Y-75357059D01*
X137527941Y-75239234D01*
X137435367Y-75100687D01*
X137371601Y-74946742D01*
X137339093Y-74783315D01*
X137339093Y-74616685D01*
X137371601Y-74453258D01*
X137435367Y-74299313D01*
X137527941Y-74160766D01*
X137645766Y-74042941D01*
X137784313Y-73950367D01*
X137938258Y-73886601D01*
X138101685Y-73854093D01*
X138268315Y-73854093D01*
X138431742Y-73886601D01*
G37*
G36*
X173954850Y-73975964D02*
G01*
X174005040Y-73981787D01*
X174022189Y-73989359D01*
X174045671Y-73994030D01*
X174070810Y-74010827D01*
X174090696Y-74019608D01*
X174104277Y-74033189D01*
X174126777Y-74048223D01*
X174141810Y-74070722D01*
X174155391Y-74084303D01*
X174164170Y-74104186D01*
X174180970Y-74129329D01*
X174185641Y-74152812D01*
X174193212Y-74169959D01*
X174199033Y-74220139D01*
X174200000Y-74225000D01*
X174200000Y-75175000D01*
X174199032Y-75179863D01*
X174193212Y-75230040D01*
X174185641Y-75247185D01*
X174180970Y-75270671D01*
X174164169Y-75295815D01*
X174155391Y-75315696D01*
X174141812Y-75329274D01*
X174126777Y-75351777D01*
X174104274Y-75366812D01*
X174090696Y-75380391D01*
X174070815Y-75389169D01*
X174045671Y-75405970D01*
X174022185Y-75410641D01*
X174005040Y-75418212D01*
X173954861Y-75424032D01*
X173950000Y-75425000D01*
X173450000Y-75425000D01*
X173445138Y-75424032D01*
X173394959Y-75418212D01*
X173377812Y-75410641D01*
X173354329Y-75405970D01*
X173329186Y-75389170D01*
X173309303Y-75380391D01*
X173295722Y-75366810D01*
X173273223Y-75351777D01*
X173258189Y-75329277D01*
X173244608Y-75315696D01*
X173235827Y-75295810D01*
X173219030Y-75270671D01*
X173214359Y-75247189D01*
X173206787Y-75230040D01*
X173200964Y-75179849D01*
X173200000Y-75175000D01*
X173200000Y-74225000D01*
X173200964Y-74220150D01*
X173206787Y-74169959D01*
X173214359Y-74152808D01*
X173219030Y-74129329D01*
X173235826Y-74104191D01*
X173244608Y-74084303D01*
X173258191Y-74070719D01*
X173273223Y-74048223D01*
X173295719Y-74033191D01*
X173309303Y-74019608D01*
X173329191Y-74010826D01*
X173354329Y-73994030D01*
X173377808Y-73989359D01*
X173394959Y-73981787D01*
X173445151Y-73975964D01*
X173450000Y-73975000D01*
X173950000Y-73975000D01*
X173954850Y-73975964D01*
G37*
G36*
X175854850Y-73975964D02*
G01*
X175905040Y-73981787D01*
X175922189Y-73989359D01*
X175945671Y-73994030D01*
X175970810Y-74010827D01*
X175990696Y-74019608D01*
X176004277Y-74033189D01*
X176026777Y-74048223D01*
X176041810Y-74070722D01*
X176055391Y-74084303D01*
X176064170Y-74104186D01*
X176080970Y-74129329D01*
X176085641Y-74152812D01*
X176093212Y-74169959D01*
X176099033Y-74220139D01*
X176100000Y-74225000D01*
X176100000Y-75175000D01*
X176099032Y-75179863D01*
X176093212Y-75230040D01*
X176085641Y-75247185D01*
X176080970Y-75270671D01*
X176064169Y-75295815D01*
X176055391Y-75315696D01*
X176041812Y-75329274D01*
X176026777Y-75351777D01*
X176004274Y-75366812D01*
X175990696Y-75380391D01*
X175970815Y-75389169D01*
X175945671Y-75405970D01*
X175922185Y-75410641D01*
X175905040Y-75418212D01*
X175854861Y-75424032D01*
X175850000Y-75425000D01*
X175350000Y-75425000D01*
X175345138Y-75424032D01*
X175294959Y-75418212D01*
X175277812Y-75410641D01*
X175254329Y-75405970D01*
X175229186Y-75389170D01*
X175209303Y-75380391D01*
X175195722Y-75366810D01*
X175173223Y-75351777D01*
X175158189Y-75329277D01*
X175144608Y-75315696D01*
X175135827Y-75295810D01*
X175119030Y-75270671D01*
X175114359Y-75247189D01*
X175106787Y-75230040D01*
X175100964Y-75179849D01*
X175100000Y-75175000D01*
X175100000Y-74225000D01*
X175100964Y-74220150D01*
X175106787Y-74169959D01*
X175114359Y-74152808D01*
X175119030Y-74129329D01*
X175135826Y-74104191D01*
X175144608Y-74084303D01*
X175158191Y-74070719D01*
X175173223Y-74048223D01*
X175195719Y-74033191D01*
X175209303Y-74019608D01*
X175229191Y-74010826D01*
X175254329Y-73994030D01*
X175277808Y-73989359D01*
X175294959Y-73981787D01*
X175345151Y-73975964D01*
X175350000Y-73975000D01*
X175850000Y-73975000D01*
X175854850Y-73975964D01*
G37*
G36*
X138431742Y-71346601D02*
G01*
X138585687Y-71410367D01*
X138724234Y-71502941D01*
X138842059Y-71620766D01*
X138934633Y-71759313D01*
X138998399Y-71913258D01*
X139030907Y-72076685D01*
X139030907Y-72243315D01*
X138998399Y-72406742D01*
X138934633Y-72560687D01*
X138842059Y-72699234D01*
X138724234Y-72817059D01*
X138585687Y-72909633D01*
X138431742Y-72973399D01*
X138268315Y-73005907D01*
X138101685Y-73005907D01*
X137938258Y-72973399D01*
X137784313Y-72909633D01*
X137645766Y-72817059D01*
X137527941Y-72699234D01*
X137435367Y-72560687D01*
X137371601Y-72406742D01*
X137339093Y-72243315D01*
X137339093Y-72076685D01*
X137371601Y-71913258D01*
X137435367Y-71759313D01*
X137527941Y-71620766D01*
X137645766Y-71502941D01*
X137784313Y-71410367D01*
X137938258Y-71346601D01*
X138101685Y-71314093D01*
X138268315Y-71314093D01*
X138431742Y-71346601D01*
G37*
G36*
X182242350Y-71500964D02*
G01*
X182292540Y-71506787D01*
X182309689Y-71514359D01*
X182333171Y-71519030D01*
X182358310Y-71535827D01*
X182378196Y-71544608D01*
X182391777Y-71558189D01*
X182414277Y-71573223D01*
X182429310Y-71595722D01*
X182442891Y-71609303D01*
X182451670Y-71629186D01*
X182468470Y-71654329D01*
X182473141Y-71677812D01*
X182480712Y-71694959D01*
X182486533Y-71745139D01*
X182487500Y-71750000D01*
X182487500Y-72650000D01*
X182486532Y-72654863D01*
X182480712Y-72705040D01*
X182473141Y-72722185D01*
X182468470Y-72745671D01*
X182451669Y-72770815D01*
X182442891Y-72790696D01*
X182429312Y-72804274D01*
X182414277Y-72826777D01*
X182391774Y-72841812D01*
X182378196Y-72855391D01*
X182358315Y-72864169D01*
X182333171Y-72880970D01*
X182309685Y-72885641D01*
X182292540Y-72893212D01*
X182242361Y-72899032D01*
X182237500Y-72900000D01*
X181712500Y-72900000D01*
X181707638Y-72899032D01*
X181657459Y-72893212D01*
X181640312Y-72885641D01*
X181616829Y-72880970D01*
X181591686Y-72864170D01*
X181571803Y-72855391D01*
X181558222Y-72841810D01*
X181535723Y-72826777D01*
X181520689Y-72804277D01*
X181507108Y-72790696D01*
X181498327Y-72770810D01*
X181481530Y-72745671D01*
X181476859Y-72722189D01*
X181469287Y-72705040D01*
X181463464Y-72654849D01*
X181462500Y-72650000D01*
X181462500Y-71750000D01*
X181463464Y-71745150D01*
X181469287Y-71694959D01*
X181476859Y-71677808D01*
X181481530Y-71654329D01*
X181498326Y-71629191D01*
X181507108Y-71609303D01*
X181520691Y-71595719D01*
X181535723Y-71573223D01*
X181558219Y-71558191D01*
X181571803Y-71544608D01*
X181591691Y-71535826D01*
X181616829Y-71519030D01*
X181640308Y-71514359D01*
X181657459Y-71506787D01*
X181707651Y-71500964D01*
X181712500Y-71500000D01*
X182237500Y-71500000D01*
X182242350Y-71500964D01*
G37*
G36*
X184067350Y-71500964D02*
G01*
X184117540Y-71506787D01*
X184134689Y-71514359D01*
X184158171Y-71519030D01*
X184183310Y-71535827D01*
X184203196Y-71544608D01*
X184216777Y-71558189D01*
X184239277Y-71573223D01*
X184254310Y-71595722D01*
X184267891Y-71609303D01*
X184276670Y-71629186D01*
X184293470Y-71654329D01*
X184298141Y-71677812D01*
X184305712Y-71694959D01*
X184311533Y-71745139D01*
X184312500Y-71750000D01*
X184312500Y-72650000D01*
X184311532Y-72654863D01*
X184305712Y-72705040D01*
X184298141Y-72722185D01*
X184293470Y-72745671D01*
X184276669Y-72770815D01*
X184267891Y-72790696D01*
X184254312Y-72804274D01*
X184239277Y-72826777D01*
X184216774Y-72841812D01*
X184203196Y-72855391D01*
X184183315Y-72864169D01*
X184158171Y-72880970D01*
X184134685Y-72885641D01*
X184117540Y-72893212D01*
X184067361Y-72899032D01*
X184062500Y-72900000D01*
X183537500Y-72900000D01*
X183532638Y-72899032D01*
X183482459Y-72893212D01*
X183465312Y-72885641D01*
X183441829Y-72880970D01*
X183416686Y-72864170D01*
X183396803Y-72855391D01*
X183383222Y-72841810D01*
X183360723Y-72826777D01*
X183345689Y-72804277D01*
X183332108Y-72790696D01*
X183323327Y-72770810D01*
X183306530Y-72745671D01*
X183301859Y-72722189D01*
X183294287Y-72705040D01*
X183288464Y-72654849D01*
X183287500Y-72650000D01*
X183287500Y-71750000D01*
X183288464Y-71745150D01*
X183294287Y-71694959D01*
X183301859Y-71677808D01*
X183306530Y-71654329D01*
X183323326Y-71629191D01*
X183332108Y-71609303D01*
X183345691Y-71595719D01*
X183360723Y-71573223D01*
X183383219Y-71558191D01*
X183396803Y-71544608D01*
X183416691Y-71535826D01*
X183441829Y-71519030D01*
X183465308Y-71514359D01*
X183482459Y-71506787D01*
X183532651Y-71500964D01*
X183537500Y-71500000D01*
X184062500Y-71500000D01*
X184067350Y-71500964D01*
G37*
G36*
X157642350Y-71100964D02*
G01*
X157692540Y-71106787D01*
X157709689Y-71114359D01*
X157733171Y-71119030D01*
X157758310Y-71135827D01*
X157778196Y-71144608D01*
X157791777Y-71158189D01*
X157814277Y-71173223D01*
X157829310Y-71195722D01*
X157842891Y-71209303D01*
X157851670Y-71229186D01*
X157868470Y-71254329D01*
X157873141Y-71277812D01*
X157880712Y-71294959D01*
X157886533Y-71345139D01*
X157887500Y-71350000D01*
X157887500Y-72250000D01*
X157886532Y-72254863D01*
X157880712Y-72305040D01*
X157873141Y-72322185D01*
X157868470Y-72345671D01*
X157851669Y-72370815D01*
X157842891Y-72390696D01*
X157829312Y-72404274D01*
X157814277Y-72426777D01*
X157791774Y-72441812D01*
X157778196Y-72455391D01*
X157758315Y-72464169D01*
X157733171Y-72480970D01*
X157709685Y-72485641D01*
X157692540Y-72493212D01*
X157642361Y-72499032D01*
X157637500Y-72500000D01*
X157112500Y-72500000D01*
X157107638Y-72499032D01*
X157057459Y-72493212D01*
X157040312Y-72485641D01*
X157016829Y-72480970D01*
X156991686Y-72464170D01*
X156971803Y-72455391D01*
X156958222Y-72441810D01*
X156935723Y-72426777D01*
X156920689Y-72404277D01*
X156907108Y-72390696D01*
X156898327Y-72370810D01*
X156881530Y-72345671D01*
X156876859Y-72322189D01*
X156869287Y-72305040D01*
X156863464Y-72254849D01*
X156862500Y-72250000D01*
X156862500Y-71350000D01*
X156863464Y-71345150D01*
X156869287Y-71294959D01*
X156876859Y-71277808D01*
X156881530Y-71254329D01*
X156898326Y-71229191D01*
X156907108Y-71209303D01*
X156920691Y-71195719D01*
X156935723Y-71173223D01*
X156958219Y-71158191D01*
X156971803Y-71144608D01*
X156991691Y-71135826D01*
X157016829Y-71119030D01*
X157040308Y-71114359D01*
X157057459Y-71106787D01*
X157107651Y-71100964D01*
X157112500Y-71100000D01*
X157637500Y-71100000D01*
X157642350Y-71100964D01*
G37*
G36*
X159467350Y-71100964D02*
G01*
X159517540Y-71106787D01*
X159534689Y-71114359D01*
X159558171Y-71119030D01*
X159583310Y-71135827D01*
X159603196Y-71144608D01*
X159616777Y-71158189D01*
X159639277Y-71173223D01*
X159654310Y-71195722D01*
X159667891Y-71209303D01*
X159676670Y-71229186D01*
X159693470Y-71254329D01*
X159698141Y-71277812D01*
X159705712Y-71294959D01*
X159711533Y-71345139D01*
X159712500Y-71350000D01*
X159712500Y-72250000D01*
X159711532Y-72254863D01*
X159705712Y-72305040D01*
X159698141Y-72322185D01*
X159693470Y-72345671D01*
X159676669Y-72370815D01*
X159667891Y-72390696D01*
X159654312Y-72404274D01*
X159639277Y-72426777D01*
X159616774Y-72441812D01*
X159603196Y-72455391D01*
X159583315Y-72464169D01*
X159558171Y-72480970D01*
X159534685Y-72485641D01*
X159517540Y-72493212D01*
X159467361Y-72499032D01*
X159462500Y-72500000D01*
X158937500Y-72500000D01*
X158932638Y-72499032D01*
X158882459Y-72493212D01*
X158865312Y-72485641D01*
X158841829Y-72480970D01*
X158816686Y-72464170D01*
X158796803Y-72455391D01*
X158783222Y-72441810D01*
X158760723Y-72426777D01*
X158745689Y-72404277D01*
X158732108Y-72390696D01*
X158723327Y-72370810D01*
X158706530Y-72345671D01*
X158701859Y-72322189D01*
X158694287Y-72305040D01*
X158688464Y-72254849D01*
X158687500Y-72250000D01*
X158687500Y-71350000D01*
X158688464Y-71345150D01*
X158694287Y-71294959D01*
X158701859Y-71277808D01*
X158706530Y-71254329D01*
X158723326Y-71229191D01*
X158732108Y-71209303D01*
X158745691Y-71195719D01*
X158760723Y-71173223D01*
X158783219Y-71158191D01*
X158796803Y-71144608D01*
X158816691Y-71135826D01*
X158841829Y-71119030D01*
X158865308Y-71114359D01*
X158882459Y-71106787D01*
X158932651Y-71100964D01*
X158937500Y-71100000D01*
X159462500Y-71100000D01*
X159467350Y-71100964D01*
G37*
G36*
X165842350Y-71100964D02*
G01*
X165892540Y-71106787D01*
X165909689Y-71114359D01*
X165933171Y-71119030D01*
X165958310Y-71135827D01*
X165978196Y-71144608D01*
X165991777Y-71158189D01*
X166014277Y-71173223D01*
X166029310Y-71195722D01*
X166042891Y-71209303D01*
X166051670Y-71229186D01*
X166068470Y-71254329D01*
X166073141Y-71277812D01*
X166080712Y-71294959D01*
X166086533Y-71345139D01*
X166087500Y-71350000D01*
X166087500Y-72250000D01*
X166086532Y-72254863D01*
X166080712Y-72305040D01*
X166073141Y-72322185D01*
X166068470Y-72345671D01*
X166051669Y-72370815D01*
X166042891Y-72390696D01*
X166029312Y-72404274D01*
X166014277Y-72426777D01*
X165991774Y-72441812D01*
X165978196Y-72455391D01*
X165958315Y-72464169D01*
X165933171Y-72480970D01*
X165909685Y-72485641D01*
X165892540Y-72493212D01*
X165842361Y-72499032D01*
X165837500Y-72500000D01*
X165312500Y-72500000D01*
X165307638Y-72499032D01*
X165257459Y-72493212D01*
X165240312Y-72485641D01*
X165216829Y-72480970D01*
X165191686Y-72464170D01*
X165171803Y-72455391D01*
X165158222Y-72441810D01*
X165135723Y-72426777D01*
X165120689Y-72404277D01*
X165107108Y-72390696D01*
X165098327Y-72370810D01*
X165081530Y-72345671D01*
X165076859Y-72322189D01*
X165069287Y-72305040D01*
X165063464Y-72254849D01*
X165062500Y-72250000D01*
X165062500Y-71350000D01*
X165063464Y-71345150D01*
X165069287Y-71294959D01*
X165076859Y-71277808D01*
X165081530Y-71254329D01*
X165098326Y-71229191D01*
X165107108Y-71209303D01*
X165120691Y-71195719D01*
X165135723Y-71173223D01*
X165158219Y-71158191D01*
X165171803Y-71144608D01*
X165191691Y-71135826D01*
X165216829Y-71119030D01*
X165240308Y-71114359D01*
X165257459Y-71106787D01*
X165307651Y-71100964D01*
X165312500Y-71100000D01*
X165837500Y-71100000D01*
X165842350Y-71100964D01*
G37*
G36*
X167667350Y-71100964D02*
G01*
X167717540Y-71106787D01*
X167734689Y-71114359D01*
X167758171Y-71119030D01*
X167783310Y-71135827D01*
X167803196Y-71144608D01*
X167816777Y-71158189D01*
X167839277Y-71173223D01*
X167854310Y-71195722D01*
X167867891Y-71209303D01*
X167876670Y-71229186D01*
X167893470Y-71254329D01*
X167898141Y-71277812D01*
X167905712Y-71294959D01*
X167911533Y-71345139D01*
X167912500Y-71350000D01*
X167912500Y-72250000D01*
X167911532Y-72254863D01*
X167905712Y-72305040D01*
X167898141Y-72322185D01*
X167893470Y-72345671D01*
X167876669Y-72370815D01*
X167867891Y-72390696D01*
X167854312Y-72404274D01*
X167839277Y-72426777D01*
X167816774Y-72441812D01*
X167803196Y-72455391D01*
X167783315Y-72464169D01*
X167758171Y-72480970D01*
X167734685Y-72485641D01*
X167717540Y-72493212D01*
X167667361Y-72499032D01*
X167662500Y-72500000D01*
X167137500Y-72500000D01*
X167132638Y-72499032D01*
X167082459Y-72493212D01*
X167065312Y-72485641D01*
X167041829Y-72480970D01*
X167016686Y-72464170D01*
X166996803Y-72455391D01*
X166983222Y-72441810D01*
X166960723Y-72426777D01*
X166945689Y-72404277D01*
X166932108Y-72390696D01*
X166923327Y-72370810D01*
X166906530Y-72345671D01*
X166901859Y-72322189D01*
X166894287Y-72305040D01*
X166888464Y-72254849D01*
X166887500Y-72250000D01*
X166887500Y-71350000D01*
X166888464Y-71345150D01*
X166894287Y-71294959D01*
X166901859Y-71277808D01*
X166906530Y-71254329D01*
X166923326Y-71229191D01*
X166932108Y-71209303D01*
X166945691Y-71195719D01*
X166960723Y-71173223D01*
X166983219Y-71158191D01*
X166996803Y-71144608D01*
X167016691Y-71135826D01*
X167041829Y-71119030D01*
X167065308Y-71114359D01*
X167082459Y-71106787D01*
X167132651Y-71100964D01*
X167137500Y-71100000D01*
X167662500Y-71100000D01*
X167667350Y-71100964D01*
G37*
M02*
