%TF.GenerationSoftware,KiCad,Pcbnew,9.0.7*%
%TF.CreationDate,2026-02-22T17:50:49-05:00*%
%TF.ProjectId,mini-dyno,6d696e69-2d64-4796-9e6f-2e6b69636164,rev?*%
%TF.SameCoordinates,Original*%
%TF.FileFunction,Paste,Top*%
%TF.FilePolarity,Positive*%
%FSLAX46Y46*%
G04 Gerber Fmt 4.6, Leading zero omitted, Abs format (unit mm)*
G04 Created by KiCad (PCBNEW 9.0.7) date 2026-02-22 17:50:49*
%MOMM*%
%LPD*%
G01*
G04 APERTURE LIST*
G04 Aperture macros list*
%AMRoundRect*
0 Rectangle with rounded corners*
0 $1 Rounding radius*
0 $2 $3 $4 $5 $6 $7 $8 $9 X,Y pos of 4 corners*
0 Add a 4 corners polygon primitive as box body*
4,1,4,$2,$3,$4,$5,$6,$7,$8,$9,$2,$3,0*
0 Add four circle primitives for the rounded corners*
1,1,$1+$1,$2,$3*
1,1,$1+$1,$4,$5*
1,1,$1+$1,$6,$7*
1,1,$1+$1,$8,$9*
0 Add four rect primitives between the rounded corners*
20,1,$1+$1,$2,$3,$4,$5,0*
20,1,$1+$1,$4,$5,$6,$7,0*
20,1,$1+$1,$6,$7,$8,$9,0*
20,1,$1+$1,$8,$9,$2,$3,0*%
%AMFreePoly0*
4,1,6,0.725000,-0.725000,-0.725000,-0.725000,-0.725000,0.125000,-0.125000,0.725000,0.725000,0.725000,0.725000,-0.725000,0.725000,-0.725000,$1*%
G04 Aperture macros list end*
%ADD10RoundRect,0.250000X0.475000X-0.250000X0.475000X0.250000X-0.475000X0.250000X-0.475000X-0.250000X0*%
%ADD11RoundRect,0.250000X0.450000X-0.262500X0.450000X0.262500X-0.450000X0.262500X-0.450000X-0.262500X0*%
%ADD12R,2.190000X2.050000*%
%ADD13RoundRect,0.250000X0.450000X-0.800000X0.450000X0.800000X-0.450000X0.800000X-0.450000X-0.800000X0*%
%ADD14RoundRect,0.250000X0.262500X0.450000X-0.262500X0.450000X-0.262500X-0.450000X0.262500X-0.450000X0*%
%ADD15R,0.800000X0.400000*%
%ADD16R,0.400000X0.800000*%
%ADD17FreePoly0,180.000000*%
%ADD18R,1.450000X1.450000*%
%ADD19R,0.700000X0.700000*%
%ADD20RoundRect,0.250000X-0.450000X0.262500X-0.450000X-0.262500X0.450000X-0.262500X0.450000X0.262500X0*%
%ADD21RoundRect,0.250000X-0.250000X-0.475000X0.250000X-0.475000X0.250000X0.475000X-0.250000X0.475000X0*%
%ADD22RoundRect,0.250000X-0.262500X-0.450000X0.262500X-0.450000X0.262500X0.450000X-0.262500X0.450000X0*%
%ADD23RoundRect,0.250000X-0.475000X0.250000X-0.475000X-0.250000X0.475000X-0.250000X0.475000X0.250000X0*%
%ADD24RoundRect,0.250000X0.250000X0.475000X-0.250000X0.475000X-0.250000X-0.475000X0.250000X-0.475000X0*%
%ADD25RoundRect,0.250000X-0.450000X0.800000X-0.450000X-0.800000X0.450000X-0.800000X0.450000X0.800000X0*%
%ADD26R,0.200000X0.200000*%
%ADD27O,0.560000X1.750000*%
%ADD28R,1.000000X1.500000*%
%ADD29R,0.600000X1.000000*%
G04 APERTURE END LIST*
D10*
%TO.C,C8*%
X170000000Y-87500000D03*
X170000000Y-85600000D03*
%TD*%
D11*
%TO.C,R5*%
X152400000Y-104925000D03*
X152400000Y-103100000D03*
%TD*%
D12*
%TO.C,D5*%
X178200000Y-97640000D03*
X178200000Y-102360000D03*
%TD*%
D13*
%TO.C,SW1*%
X131150000Y-102950000D03*
X131150000Y-93850000D03*
X135650000Y-102950000D03*
X135650000Y-93850000D03*
%TD*%
D14*
%TO.C,R12*%
X167400000Y-71800000D03*
X165575000Y-71800000D03*
%TD*%
D10*
%TO.C,C10*%
X155400000Y-88800000D03*
X155400000Y-86900000D03*
%TD*%
D15*
%TO.C,U1*%
X168450000Y-105100000D03*
X168450000Y-104300000D03*
X168450000Y-103500000D03*
X168450000Y-102700000D03*
X168450000Y-101900000D03*
X168450000Y-101100000D03*
X168450000Y-100300000D03*
X168450000Y-99500000D03*
X168450000Y-98700000D03*
X168450000Y-97900000D03*
X168450000Y-97100000D03*
D16*
X167350000Y-96200000D03*
X166550000Y-96200000D03*
X165750000Y-96200000D03*
X164950000Y-96200000D03*
X164150000Y-96200000D03*
X163350000Y-96200000D03*
X162550000Y-96200000D03*
X161750000Y-96200000D03*
X160950000Y-96200000D03*
X160150000Y-96200000D03*
X159350000Y-96200000D03*
X158550000Y-96200000D03*
X157750000Y-96200000D03*
D15*
X156650000Y-97100000D03*
X156650000Y-97900000D03*
X156650000Y-98700000D03*
X156650000Y-99500000D03*
X156650000Y-100300000D03*
X156650000Y-101100000D03*
X156650000Y-101900000D03*
X156650000Y-102700000D03*
X156650000Y-103500000D03*
X156650000Y-104300000D03*
X156650000Y-105100000D03*
D16*
X157750000Y-106000000D03*
X158550000Y-106000000D03*
X159350000Y-106000000D03*
X160150000Y-106000000D03*
X160950000Y-106000000D03*
X161750000Y-106000000D03*
X162550000Y-106000000D03*
X163350000Y-106000000D03*
X164150000Y-106000000D03*
X164950000Y-106000000D03*
X165750000Y-106000000D03*
X166550000Y-106000000D03*
X167350000Y-106000000D03*
D17*
X164525000Y-103075000D03*
D18*
X164525000Y-101100000D03*
X164525000Y-99125000D03*
X162550000Y-103075000D03*
X162550000Y-101100000D03*
X162550000Y-99125000D03*
X160575000Y-103075000D03*
X160575000Y-101100000D03*
X160575000Y-99125000D03*
D19*
X156600000Y-106050000D03*
X156600000Y-96150000D03*
X168500000Y-96150000D03*
X168500000Y-106050000D03*
%TD*%
D20*
%TO.C,R13*%
X138900000Y-80275000D03*
X138900000Y-82100000D03*
%TD*%
D21*
%TO.C,C6*%
X173700000Y-74700000D03*
X175600000Y-74700000D03*
%TD*%
%TO.C,C2*%
X171400000Y-99100000D03*
X173300000Y-99100000D03*
%TD*%
D11*
%TO.C,R6*%
X152400000Y-100925000D03*
X152400000Y-99100000D03*
%TD*%
D22*
%TO.C,R4*%
X181975000Y-75800000D03*
X183800000Y-75800000D03*
%TD*%
%TO.C,R2*%
X181975000Y-72200000D03*
X183800000Y-72200000D03*
%TD*%
D20*
%TO.C,R10*%
X144400000Y-88100000D03*
X144400000Y-89925000D03*
%TD*%
D21*
%TO.C,C1*%
X171400000Y-103100000D03*
X173300000Y-103100000D03*
%TD*%
D23*
%TO.C,C4*%
X138900000Y-92800000D03*
X138900000Y-94700000D03*
%TD*%
D21*
%TO.C,C12*%
X177250000Y-95000000D03*
X179150000Y-95000000D03*
%TD*%
D24*
%TO.C,C3*%
X173300000Y-95200000D03*
X171400000Y-95200000D03*
%TD*%
D12*
%TO.C,D2*%
X179600000Y-83660000D03*
X179600000Y-78940000D03*
%TD*%
D22*
%TO.C,R16*%
X149975000Y-88900000D03*
X151800000Y-88900000D03*
%TD*%
D25*
%TO.C,SW2*%
X135650000Y-81450000D03*
X135650000Y-90550000D03*
X131150000Y-81450000D03*
X131150000Y-90550000D03*
%TD*%
D20*
%TO.C,R7*%
X138900000Y-96575000D03*
X138900000Y-98400000D03*
%TD*%
D21*
%TO.C,C9*%
X161800000Y-82500000D03*
X163700000Y-82500000D03*
%TD*%
%TO.C,C5*%
X173700000Y-83700000D03*
X175600000Y-83700000D03*
%TD*%
D11*
%TO.C,R3*%
X143900000Y-104925000D03*
X143900000Y-103100000D03*
%TD*%
D26*
%TO.C,D1*%
X152120000Y-95700000D03*
X151880000Y-95200000D03*
X151880000Y-96200000D03*
%TD*%
D27*
%TO.C,U4*%
X166840000Y-85000000D03*
X165570000Y-85000000D03*
X164300000Y-85000000D03*
X163020000Y-85000000D03*
X161760000Y-85000000D03*
X160490000Y-85000000D03*
X159220000Y-85000000D03*
X157950000Y-85000000D03*
X157950000Y-90740000D03*
X159220000Y-90740000D03*
X160490000Y-90740000D03*
X161760000Y-90740000D03*
X163020000Y-90740000D03*
X164300000Y-90740000D03*
X165570000Y-90740000D03*
X166840000Y-90740000D03*
%TD*%
D28*
%TO.C,F1*%
X185200000Y-86700000D03*
X183000000Y-86700000D03*
%TD*%
D20*
%TO.C,R9*%
X143900000Y-99075000D03*
X143900000Y-100900000D03*
%TD*%
D10*
%TO.C,C7*%
X138900000Y-86725000D03*
X138900000Y-84825000D03*
%TD*%
D11*
%TO.C,R11*%
X138900000Y-90525000D03*
X138900000Y-88700000D03*
%TD*%
D22*
%TO.C,R15*%
X149975000Y-86700000D03*
X151800000Y-86700000D03*
%TD*%
%TO.C,R14*%
X157375000Y-71800000D03*
X159200000Y-71800000D03*
%TD*%
D14*
%TO.C,R1*%
X173300000Y-91300000D03*
X171475000Y-91300000D03*
%TD*%
D29*
%TO.C,U2*%
X173700000Y-80500000D03*
X174650000Y-80500000D03*
X175600000Y-80500000D03*
X175600000Y-78300000D03*
X173700000Y-78300000D03*
%TD*%
D11*
%TO.C,R8*%
X188900000Y-88625000D03*
X188900000Y-86800000D03*
%TD*%
M02*
