%TF.GenerationSoftware,KiCad,Pcbnew,9.0.7*%
%TF.CreationDate,2026-02-22T18:01:21-05:00*%
%TF.ProjectId,mini-dyno,6d696e69-2d64-4796-9e6f-2e6b69636164,rev?*%
%TF.SameCoordinates,Original*%
%TF.FileFunction,Legend,Top*%
%TF.FilePolarity,Positive*%
%FSLAX46Y46*%
G04 Gerber Fmt 4.6, Leading zero omitted, Abs format (unit mm)*
G04 Created by KiCad (PCBNEW 9.0.7) date 2026-02-22 18:01:21*
%MOMM*%
%LPD*%
G01*
G04 APERTURE LIST*
%ADD10C,0.304800*%
%ADD11C,0.160000*%
%ADD12C,0.152400*%
%ADD13C,0.150000*%
%ADD14C,0.250000*%
%ADD15C,0.120000*%
%ADD16C,0.100000*%
%ADD17C,0.300000*%
G04 APERTURE END LIST*
D10*
X144997641Y-97136616D02*
X143473641Y-97136616D01*
X143473641Y-97136616D02*
X143473641Y-96773759D01*
X143473641Y-96773759D02*
X143546212Y-96556045D01*
X143546212Y-96556045D02*
X143691355Y-96410902D01*
X143691355Y-96410902D02*
X143836498Y-96338331D01*
X143836498Y-96338331D02*
X144126784Y-96265759D01*
X144126784Y-96265759D02*
X144344498Y-96265759D01*
X144344498Y-96265759D02*
X144634784Y-96338331D01*
X144634784Y-96338331D02*
X144779927Y-96410902D01*
X144779927Y-96410902D02*
X144925070Y-96556045D01*
X144925070Y-96556045D02*
X144997641Y-96773759D01*
X144997641Y-96773759D02*
X144997641Y-97136616D01*
X144562212Y-95685188D02*
X144562212Y-94959474D01*
X144997641Y-95830331D02*
X143473641Y-95322331D01*
X143473641Y-95322331D02*
X144997641Y-94814331D01*
X143473641Y-94524045D02*
X143473641Y-93653188D01*
X144997641Y-94088616D02*
X143473641Y-94088616D01*
X144562212Y-93217759D02*
X144562212Y-92492045D01*
X144997641Y-93362902D02*
X143473641Y-92854902D01*
X143473641Y-92854902D02*
X144997641Y-92346902D01*
D11*
X143795739Y-83374727D02*
X144062405Y-83374727D01*
X144176691Y-83793775D02*
X143795739Y-83793775D01*
X143795739Y-83793775D02*
X143795739Y-82993775D01*
X143795739Y-82993775D02*
X144176691Y-82993775D01*
X144519549Y-83489013D02*
X145129073Y-83489013D01*
X144824311Y-83793775D02*
X144824311Y-83184251D01*
X146119549Y-83374727D02*
X146386215Y-83374727D01*
X146500501Y-83793775D02*
X146119549Y-83793775D01*
X146119549Y-83793775D02*
X146119549Y-82993775D01*
X146119549Y-82993775D02*
X146500501Y-82993775D01*
X146843359Y-83489013D02*
X147452883Y-83489013D01*
X148405263Y-83755680D02*
X148519549Y-83793775D01*
X148519549Y-83793775D02*
X148710025Y-83793775D01*
X148710025Y-83793775D02*
X148786216Y-83755680D01*
X148786216Y-83755680D02*
X148824311Y-83717584D01*
X148824311Y-83717584D02*
X148862406Y-83641394D01*
X148862406Y-83641394D02*
X148862406Y-83565203D01*
X148862406Y-83565203D02*
X148824311Y-83489013D01*
X148824311Y-83489013D02*
X148786216Y-83450918D01*
X148786216Y-83450918D02*
X148710025Y-83412822D01*
X148710025Y-83412822D02*
X148557644Y-83374727D01*
X148557644Y-83374727D02*
X148481454Y-83336632D01*
X148481454Y-83336632D02*
X148443359Y-83298537D01*
X148443359Y-83298537D02*
X148405263Y-83222346D01*
X148405263Y-83222346D02*
X148405263Y-83146156D01*
X148405263Y-83146156D02*
X148443359Y-83069965D01*
X148443359Y-83069965D02*
X148481454Y-83031870D01*
X148481454Y-83031870D02*
X148557644Y-82993775D01*
X148557644Y-82993775D02*
X148748121Y-82993775D01*
X148748121Y-82993775D02*
X148862406Y-83031870D01*
X149205264Y-83489013D02*
X149814788Y-83489013D01*
X150767168Y-83755680D02*
X150881454Y-83793775D01*
X150881454Y-83793775D02*
X151071930Y-83793775D01*
X151071930Y-83793775D02*
X151148121Y-83755680D01*
X151148121Y-83755680D02*
X151186216Y-83717584D01*
X151186216Y-83717584D02*
X151224311Y-83641394D01*
X151224311Y-83641394D02*
X151224311Y-83565203D01*
X151224311Y-83565203D02*
X151186216Y-83489013D01*
X151186216Y-83489013D02*
X151148121Y-83450918D01*
X151148121Y-83450918D02*
X151071930Y-83412822D01*
X151071930Y-83412822D02*
X150919549Y-83374727D01*
X150919549Y-83374727D02*
X150843359Y-83336632D01*
X150843359Y-83336632D02*
X150805264Y-83298537D01*
X150805264Y-83298537D02*
X150767168Y-83222346D01*
X150767168Y-83222346D02*
X150767168Y-83146156D01*
X150767168Y-83146156D02*
X150805264Y-83069965D01*
X150805264Y-83069965D02*
X150843359Y-83031870D01*
X150843359Y-83031870D02*
X150919549Y-82993775D01*
X150919549Y-82993775D02*
X151110026Y-82993775D01*
X151110026Y-82993775D02*
X151224311Y-83031870D01*
X151567169Y-83489013D02*
X152176693Y-83489013D01*
X151871931Y-83793775D02*
X151871931Y-83184251D01*
D12*
X174364720Y-105466851D02*
X174480834Y-105505556D01*
X174480834Y-105505556D02*
X174519539Y-105544260D01*
X174519539Y-105544260D02*
X174558243Y-105621670D01*
X174558243Y-105621670D02*
X174558243Y-105737784D01*
X174558243Y-105737784D02*
X174519539Y-105815194D01*
X174519539Y-105815194D02*
X174480834Y-105853899D01*
X174480834Y-105853899D02*
X174403424Y-105892603D01*
X174403424Y-105892603D02*
X174093786Y-105892603D01*
X174093786Y-105892603D02*
X174093786Y-105079803D01*
X174093786Y-105079803D02*
X174364720Y-105079803D01*
X174364720Y-105079803D02*
X174442129Y-105118508D01*
X174442129Y-105118508D02*
X174480834Y-105157213D01*
X174480834Y-105157213D02*
X174519539Y-105234622D01*
X174519539Y-105234622D02*
X174519539Y-105312032D01*
X174519539Y-105312032D02*
X174480834Y-105389441D01*
X174480834Y-105389441D02*
X174442129Y-105428146D01*
X174442129Y-105428146D02*
X174364720Y-105466851D01*
X174364720Y-105466851D02*
X174093786Y-105466851D01*
X175061405Y-105505556D02*
X175061405Y-105892603D01*
X174790472Y-105079803D02*
X175061405Y-105505556D01*
X175061405Y-105505556D02*
X175332339Y-105079803D01*
X176183844Y-105853899D02*
X176299958Y-105892603D01*
X176299958Y-105892603D02*
X176493482Y-105892603D01*
X176493482Y-105892603D02*
X176570891Y-105853899D01*
X176570891Y-105853899D02*
X176609596Y-105815194D01*
X176609596Y-105815194D02*
X176648301Y-105737784D01*
X176648301Y-105737784D02*
X176648301Y-105660375D01*
X176648301Y-105660375D02*
X176609596Y-105582965D01*
X176609596Y-105582965D02*
X176570891Y-105544260D01*
X176570891Y-105544260D02*
X176493482Y-105505556D01*
X176493482Y-105505556D02*
X176338663Y-105466851D01*
X176338663Y-105466851D02*
X176261253Y-105428146D01*
X176261253Y-105428146D02*
X176222548Y-105389441D01*
X176222548Y-105389441D02*
X176183844Y-105312032D01*
X176183844Y-105312032D02*
X176183844Y-105234622D01*
X176183844Y-105234622D02*
X176222548Y-105157213D01*
X176222548Y-105157213D02*
X176261253Y-105118508D01*
X176261253Y-105118508D02*
X176338663Y-105079803D01*
X176338663Y-105079803D02*
X176532186Y-105079803D01*
X176532186Y-105079803D02*
X176648301Y-105118508D01*
X176957939Y-105660375D02*
X177344986Y-105660375D01*
X176880529Y-105892603D02*
X177151462Y-105079803D01*
X177151462Y-105079803D02*
X177422396Y-105892603D01*
X177693329Y-105892603D02*
X177693329Y-105079803D01*
X177693329Y-105079803D02*
X177964263Y-105660375D01*
X177964263Y-105660375D02*
X178235196Y-105079803D01*
X178235196Y-105079803D02*
X178235196Y-105892603D01*
X179241519Y-105466851D02*
X179512453Y-105466851D01*
X179628567Y-105892603D02*
X179241519Y-105892603D01*
X179241519Y-105892603D02*
X179241519Y-105079803D01*
X179241519Y-105079803D02*
X179628567Y-105079803D01*
X179976909Y-105892603D02*
X179976909Y-105079803D01*
X179976909Y-105466851D02*
X180441366Y-105466851D01*
X180441366Y-105892603D02*
X180441366Y-105079803D01*
X181215462Y-105892603D02*
X180828414Y-105892603D01*
X180828414Y-105892603D02*
X180828414Y-105079803D01*
X181486395Y-105466851D02*
X181757329Y-105466851D01*
X181873443Y-105892603D02*
X181486395Y-105892603D01*
X181486395Y-105892603D02*
X181486395Y-105079803D01*
X181486395Y-105079803D02*
X181873443Y-105079803D01*
X182686242Y-105892603D02*
X182415309Y-105505556D01*
X182221785Y-105892603D02*
X182221785Y-105079803D01*
X182221785Y-105079803D02*
X182531423Y-105079803D01*
X182531423Y-105079803D02*
X182608833Y-105118508D01*
X182608833Y-105118508D02*
X182647538Y-105157213D01*
X182647538Y-105157213D02*
X182686242Y-105234622D01*
X182686242Y-105234622D02*
X182686242Y-105350737D01*
X182686242Y-105350737D02*
X182647538Y-105428146D01*
X182647538Y-105428146D02*
X182608833Y-105466851D01*
X182608833Y-105466851D02*
X182531423Y-105505556D01*
X182531423Y-105505556D02*
X182221785Y-105505556D01*
X182995881Y-105853899D02*
X183111995Y-105892603D01*
X183111995Y-105892603D02*
X183305519Y-105892603D01*
X183305519Y-105892603D02*
X183382928Y-105853899D01*
X183382928Y-105853899D02*
X183421633Y-105815194D01*
X183421633Y-105815194D02*
X183460338Y-105737784D01*
X183460338Y-105737784D02*
X183460338Y-105660375D01*
X183460338Y-105660375D02*
X183421633Y-105582965D01*
X183421633Y-105582965D02*
X183382928Y-105544260D01*
X183382928Y-105544260D02*
X183305519Y-105505556D01*
X183305519Y-105505556D02*
X183150700Y-105466851D01*
X183150700Y-105466851D02*
X183073290Y-105428146D01*
X183073290Y-105428146D02*
X183034585Y-105389441D01*
X183034585Y-105389441D02*
X182995881Y-105312032D01*
X182995881Y-105312032D02*
X182995881Y-105234622D01*
X182995881Y-105234622D02*
X183034585Y-105157213D01*
X183034585Y-105157213D02*
X183073290Y-105118508D01*
X183073290Y-105118508D02*
X183150700Y-105079803D01*
X183150700Y-105079803D02*
X183344223Y-105079803D01*
X183344223Y-105079803D02*
X183460338Y-105118508D01*
D10*
X128102358Y-96234240D02*
X128828072Y-95726240D01*
X128102358Y-95363383D02*
X129626358Y-95363383D01*
X129626358Y-95363383D02*
X129626358Y-95943954D01*
X129626358Y-95943954D02*
X129553787Y-96089097D01*
X129553787Y-96089097D02*
X129481215Y-96161668D01*
X129481215Y-96161668D02*
X129336072Y-96234240D01*
X129336072Y-96234240D02*
X129118358Y-96234240D01*
X129118358Y-96234240D02*
X128973215Y-96161668D01*
X128973215Y-96161668D02*
X128900644Y-96089097D01*
X128900644Y-96089097D02*
X128828072Y-95943954D01*
X128828072Y-95943954D02*
X128828072Y-95363383D01*
X128900644Y-96887383D02*
X128900644Y-97395383D01*
X128102358Y-97613097D02*
X128102358Y-96887383D01*
X128102358Y-96887383D02*
X129626358Y-96887383D01*
X129626358Y-96887383D02*
X129626358Y-97613097D01*
X128174930Y-98193668D02*
X128102358Y-98411383D01*
X128102358Y-98411383D02*
X128102358Y-98774240D01*
X128102358Y-98774240D02*
X128174930Y-98919383D01*
X128174930Y-98919383D02*
X128247501Y-98991954D01*
X128247501Y-98991954D02*
X128392644Y-99064525D01*
X128392644Y-99064525D02*
X128537787Y-99064525D01*
X128537787Y-99064525D02*
X128682930Y-98991954D01*
X128682930Y-98991954D02*
X128755501Y-98919383D01*
X128755501Y-98919383D02*
X128828072Y-98774240D01*
X128828072Y-98774240D02*
X128900644Y-98483954D01*
X128900644Y-98483954D02*
X128973215Y-98338811D01*
X128973215Y-98338811D02*
X129045787Y-98266240D01*
X129045787Y-98266240D02*
X129190930Y-98193668D01*
X129190930Y-98193668D02*
X129336072Y-98193668D01*
X129336072Y-98193668D02*
X129481215Y-98266240D01*
X129481215Y-98266240D02*
X129553787Y-98338811D01*
X129553787Y-98338811D02*
X129626358Y-98483954D01*
X129626358Y-98483954D02*
X129626358Y-98846811D01*
X129626358Y-98846811D02*
X129553787Y-99064525D01*
X128900644Y-99717669D02*
X128900644Y-100225669D01*
X128102358Y-100443383D02*
X128102358Y-99717669D01*
X128102358Y-99717669D02*
X129626358Y-99717669D01*
X129626358Y-99717669D02*
X129626358Y-100443383D01*
X129626358Y-100878811D02*
X129626358Y-101749669D01*
X128102358Y-101314240D02*
X129626358Y-101314240D01*
D11*
X140993775Y-76504260D02*
X140193775Y-76504260D01*
X140193775Y-76504260D02*
X140193775Y-76313784D01*
X140193775Y-76313784D02*
X140231870Y-76199498D01*
X140231870Y-76199498D02*
X140308060Y-76123308D01*
X140308060Y-76123308D02*
X140384251Y-76085213D01*
X140384251Y-76085213D02*
X140536632Y-76047117D01*
X140536632Y-76047117D02*
X140650918Y-76047117D01*
X140650918Y-76047117D02*
X140803299Y-76085213D01*
X140803299Y-76085213D02*
X140879489Y-76123308D01*
X140879489Y-76123308D02*
X140955680Y-76199498D01*
X140955680Y-76199498D02*
X140993775Y-76313784D01*
X140993775Y-76313784D02*
X140993775Y-76504260D01*
X140689013Y-75094736D02*
X140689013Y-74485213D01*
X140689013Y-73494736D02*
X140689013Y-72885213D01*
X140993775Y-73189974D02*
X140384251Y-73189974D01*
D10*
X128800644Y-84171383D02*
X128728072Y-84389097D01*
X128728072Y-84389097D02*
X128655501Y-84461668D01*
X128655501Y-84461668D02*
X128510358Y-84534240D01*
X128510358Y-84534240D02*
X128292644Y-84534240D01*
X128292644Y-84534240D02*
X128147501Y-84461668D01*
X128147501Y-84461668D02*
X128074930Y-84389097D01*
X128074930Y-84389097D02*
X128002358Y-84243954D01*
X128002358Y-84243954D02*
X128002358Y-83663383D01*
X128002358Y-83663383D02*
X129526358Y-83663383D01*
X129526358Y-83663383D02*
X129526358Y-84171383D01*
X129526358Y-84171383D02*
X129453787Y-84316526D01*
X129453787Y-84316526D02*
X129381215Y-84389097D01*
X129381215Y-84389097D02*
X129236072Y-84461668D01*
X129236072Y-84461668D02*
X129090930Y-84461668D01*
X129090930Y-84461668D02*
X128945787Y-84389097D01*
X128945787Y-84389097D02*
X128873215Y-84316526D01*
X128873215Y-84316526D02*
X128800644Y-84171383D01*
X128800644Y-84171383D02*
X128800644Y-83663383D01*
X129526358Y-85477668D02*
X129526358Y-85767954D01*
X129526358Y-85767954D02*
X129453787Y-85913097D01*
X129453787Y-85913097D02*
X129308644Y-86058240D01*
X129308644Y-86058240D02*
X129018358Y-86130811D01*
X129018358Y-86130811D02*
X128510358Y-86130811D01*
X128510358Y-86130811D02*
X128220072Y-86058240D01*
X128220072Y-86058240D02*
X128074930Y-85913097D01*
X128074930Y-85913097D02*
X128002358Y-85767954D01*
X128002358Y-85767954D02*
X128002358Y-85477668D01*
X128002358Y-85477668D02*
X128074930Y-85332526D01*
X128074930Y-85332526D02*
X128220072Y-85187383D01*
X128220072Y-85187383D02*
X128510358Y-85114811D01*
X128510358Y-85114811D02*
X129018358Y-85114811D01*
X129018358Y-85114811D02*
X129308644Y-85187383D01*
X129308644Y-85187383D02*
X129453787Y-85332526D01*
X129453787Y-85332526D02*
X129526358Y-85477668D01*
X129526358Y-87074239D02*
X129526358Y-87364525D01*
X129526358Y-87364525D02*
X129453787Y-87509668D01*
X129453787Y-87509668D02*
X129308644Y-87654811D01*
X129308644Y-87654811D02*
X129018358Y-87727382D01*
X129018358Y-87727382D02*
X128510358Y-87727382D01*
X128510358Y-87727382D02*
X128220072Y-87654811D01*
X128220072Y-87654811D02*
X128074930Y-87509668D01*
X128074930Y-87509668D02*
X128002358Y-87364525D01*
X128002358Y-87364525D02*
X128002358Y-87074239D01*
X128002358Y-87074239D02*
X128074930Y-86929097D01*
X128074930Y-86929097D02*
X128220072Y-86783954D01*
X128220072Y-86783954D02*
X128510358Y-86711382D01*
X128510358Y-86711382D02*
X129018358Y-86711382D01*
X129018358Y-86711382D02*
X129308644Y-86783954D01*
X129308644Y-86783954D02*
X129453787Y-86929097D01*
X129453787Y-86929097D02*
X129526358Y-87074239D01*
X129526358Y-88162810D02*
X129526358Y-89033668D01*
X128002358Y-88598239D02*
X129526358Y-88598239D01*
X185197641Y-84436616D02*
X183673641Y-84436616D01*
X183673641Y-84436616D02*
X183673641Y-83856045D01*
X183673641Y-83856045D02*
X183746212Y-83710902D01*
X183746212Y-83710902D02*
X183818784Y-83638331D01*
X183818784Y-83638331D02*
X183963927Y-83565759D01*
X183963927Y-83565759D02*
X184181641Y-83565759D01*
X184181641Y-83565759D02*
X184326784Y-83638331D01*
X184326784Y-83638331D02*
X184399355Y-83710902D01*
X184399355Y-83710902D02*
X184471927Y-83856045D01*
X184471927Y-83856045D02*
X184471927Y-84436616D01*
X183673641Y-82622331D02*
X183673641Y-82332045D01*
X183673641Y-82332045D02*
X183746212Y-82186902D01*
X183746212Y-82186902D02*
X183891355Y-82041759D01*
X183891355Y-82041759D02*
X184181641Y-81969188D01*
X184181641Y-81969188D02*
X184689641Y-81969188D01*
X184689641Y-81969188D02*
X184979927Y-82041759D01*
X184979927Y-82041759D02*
X185125070Y-82186902D01*
X185125070Y-82186902D02*
X185197641Y-82332045D01*
X185197641Y-82332045D02*
X185197641Y-82622331D01*
X185197641Y-82622331D02*
X185125070Y-82767474D01*
X185125070Y-82767474D02*
X184979927Y-82912616D01*
X184979927Y-82912616D02*
X184689641Y-82985188D01*
X184689641Y-82985188D02*
X184181641Y-82985188D01*
X184181641Y-82985188D02*
X183891355Y-82912616D01*
X183891355Y-82912616D02*
X183746212Y-82767474D01*
X183746212Y-82767474D02*
X183673641Y-82622331D01*
X183673641Y-81461188D02*
X185197641Y-81098331D01*
X185197641Y-81098331D02*
X184109070Y-80808045D01*
X184109070Y-80808045D02*
X185197641Y-80517760D01*
X185197641Y-80517760D02*
X183673641Y-80154903D01*
X184399355Y-79574331D02*
X184399355Y-79066331D01*
X185197641Y-78848617D02*
X185197641Y-79574331D01*
X185197641Y-79574331D02*
X183673641Y-79574331D01*
X183673641Y-79574331D02*
X183673641Y-78848617D01*
X185197641Y-77324617D02*
X184471927Y-77832617D01*
X185197641Y-78195474D02*
X183673641Y-78195474D01*
X183673641Y-78195474D02*
X183673641Y-77614903D01*
X183673641Y-77614903D02*
X183746212Y-77469760D01*
X183746212Y-77469760D02*
X183818784Y-77397189D01*
X183818784Y-77397189D02*
X183963927Y-77324617D01*
X183963927Y-77324617D02*
X184181641Y-77324617D01*
X184181641Y-77324617D02*
X184326784Y-77397189D01*
X184326784Y-77397189D02*
X184399355Y-77469760D01*
X184399355Y-77469760D02*
X184471927Y-77614903D01*
X184471927Y-77614903D02*
X184471927Y-78195474D01*
D12*
X174493786Y-104692603D02*
X174493786Y-103879803D01*
X174493786Y-103879803D02*
X174687310Y-103879803D01*
X174687310Y-103879803D02*
X174803424Y-103918508D01*
X174803424Y-103918508D02*
X174880834Y-103995918D01*
X174880834Y-103995918D02*
X174919539Y-104073327D01*
X174919539Y-104073327D02*
X174958243Y-104228146D01*
X174958243Y-104228146D02*
X174958243Y-104344260D01*
X174958243Y-104344260D02*
X174919539Y-104499079D01*
X174919539Y-104499079D02*
X174880834Y-104576489D01*
X174880834Y-104576489D02*
X174803424Y-104653899D01*
X174803424Y-104653899D02*
X174687310Y-104692603D01*
X174687310Y-104692603D02*
X174493786Y-104692603D01*
X175461405Y-104305556D02*
X175461405Y-104692603D01*
X175190472Y-103879803D02*
X175461405Y-104305556D01*
X175461405Y-104305556D02*
X175732339Y-103879803D01*
X176003272Y-104692603D02*
X176003272Y-103879803D01*
X176003272Y-103879803D02*
X176467729Y-104692603D01*
X176467729Y-104692603D02*
X176467729Y-103879803D01*
X177009596Y-103879803D02*
X177164415Y-103879803D01*
X177164415Y-103879803D02*
X177241825Y-103918508D01*
X177241825Y-103918508D02*
X177319234Y-103995918D01*
X177319234Y-103995918D02*
X177357939Y-104150737D01*
X177357939Y-104150737D02*
X177357939Y-104421670D01*
X177357939Y-104421670D02*
X177319234Y-104576489D01*
X177319234Y-104576489D02*
X177241825Y-104653899D01*
X177241825Y-104653899D02*
X177164415Y-104692603D01*
X177164415Y-104692603D02*
X177009596Y-104692603D01*
X177009596Y-104692603D02*
X176932187Y-104653899D01*
X176932187Y-104653899D02*
X176854777Y-104576489D01*
X176854777Y-104576489D02*
X176816073Y-104421670D01*
X176816073Y-104421670D02*
X176816073Y-104150737D01*
X176816073Y-104150737D02*
X176854777Y-103995918D01*
X176854777Y-103995918D02*
X176932187Y-103918508D01*
X176932187Y-103918508D02*
X177009596Y-103879803D01*
X178790015Y-104615194D02*
X178751311Y-104653899D01*
X178751311Y-104653899D02*
X178635196Y-104692603D01*
X178635196Y-104692603D02*
X178557787Y-104692603D01*
X178557787Y-104692603D02*
X178441673Y-104653899D01*
X178441673Y-104653899D02*
X178364263Y-104576489D01*
X178364263Y-104576489D02*
X178325558Y-104499079D01*
X178325558Y-104499079D02*
X178286854Y-104344260D01*
X178286854Y-104344260D02*
X178286854Y-104228146D01*
X178286854Y-104228146D02*
X178325558Y-104073327D01*
X178325558Y-104073327D02*
X178364263Y-103995918D01*
X178364263Y-103995918D02*
X178441673Y-103918508D01*
X178441673Y-103918508D02*
X178557787Y-103879803D01*
X178557787Y-103879803D02*
X178635196Y-103879803D01*
X178635196Y-103879803D02*
X178751311Y-103918508D01*
X178751311Y-103918508D02*
X178790015Y-103957213D01*
X179293177Y-103879803D02*
X179447996Y-103879803D01*
X179447996Y-103879803D02*
X179525406Y-103918508D01*
X179525406Y-103918508D02*
X179602815Y-103995918D01*
X179602815Y-103995918D02*
X179641520Y-104150737D01*
X179641520Y-104150737D02*
X179641520Y-104421670D01*
X179641520Y-104421670D02*
X179602815Y-104576489D01*
X179602815Y-104576489D02*
X179525406Y-104653899D01*
X179525406Y-104653899D02*
X179447996Y-104692603D01*
X179447996Y-104692603D02*
X179293177Y-104692603D01*
X179293177Y-104692603D02*
X179215768Y-104653899D01*
X179215768Y-104653899D02*
X179138358Y-104576489D01*
X179138358Y-104576489D02*
X179099654Y-104421670D01*
X179099654Y-104421670D02*
X179099654Y-104150737D01*
X179099654Y-104150737D02*
X179138358Y-103995918D01*
X179138358Y-103995918D02*
X179215768Y-103918508D01*
X179215768Y-103918508D02*
X179293177Y-103879803D01*
X179989863Y-104692603D02*
X179989863Y-103879803D01*
X179989863Y-103879803D02*
X180454320Y-104692603D01*
X180454320Y-104692603D02*
X180454320Y-103879803D01*
X180725254Y-103879803D02*
X181189711Y-103879803D01*
X180957483Y-104692603D02*
X180957483Y-103879803D01*
X181925101Y-104692603D02*
X181654168Y-104305556D01*
X181460644Y-104692603D02*
X181460644Y-103879803D01*
X181460644Y-103879803D02*
X181770282Y-103879803D01*
X181770282Y-103879803D02*
X181847692Y-103918508D01*
X181847692Y-103918508D02*
X181886397Y-103957213D01*
X181886397Y-103957213D02*
X181925101Y-104034622D01*
X181925101Y-104034622D02*
X181925101Y-104150737D01*
X181925101Y-104150737D02*
X181886397Y-104228146D01*
X181886397Y-104228146D02*
X181847692Y-104266851D01*
X181847692Y-104266851D02*
X181770282Y-104305556D01*
X181770282Y-104305556D02*
X181460644Y-104305556D01*
X182428263Y-103879803D02*
X182583082Y-103879803D01*
X182583082Y-103879803D02*
X182660492Y-103918508D01*
X182660492Y-103918508D02*
X182737901Y-103995918D01*
X182737901Y-103995918D02*
X182776606Y-104150737D01*
X182776606Y-104150737D02*
X182776606Y-104421670D01*
X182776606Y-104421670D02*
X182737901Y-104576489D01*
X182737901Y-104576489D02*
X182660492Y-104653899D01*
X182660492Y-104653899D02*
X182583082Y-104692603D01*
X182583082Y-104692603D02*
X182428263Y-104692603D01*
X182428263Y-104692603D02*
X182350854Y-104653899D01*
X182350854Y-104653899D02*
X182273444Y-104576489D01*
X182273444Y-104576489D02*
X182234740Y-104421670D01*
X182234740Y-104421670D02*
X182234740Y-104150737D01*
X182234740Y-104150737D02*
X182273444Y-103995918D01*
X182273444Y-103995918D02*
X182350854Y-103918508D01*
X182350854Y-103918508D02*
X182428263Y-103879803D01*
X183511997Y-104692603D02*
X183124949Y-104692603D01*
X183124949Y-104692603D02*
X183124949Y-103879803D01*
D10*
X183097641Y-101536616D02*
X181573641Y-101536616D01*
X181573641Y-101536616D02*
X182662212Y-101028616D01*
X182662212Y-101028616D02*
X181573641Y-100520616D01*
X181573641Y-100520616D02*
X183097641Y-100520616D01*
X181573641Y-99504617D02*
X181573641Y-99214331D01*
X181573641Y-99214331D02*
X181646212Y-99069188D01*
X181646212Y-99069188D02*
X181791355Y-98924045D01*
X181791355Y-98924045D02*
X182081641Y-98851474D01*
X182081641Y-98851474D02*
X182589641Y-98851474D01*
X182589641Y-98851474D02*
X182879927Y-98924045D01*
X182879927Y-98924045D02*
X183025070Y-99069188D01*
X183025070Y-99069188D02*
X183097641Y-99214331D01*
X183097641Y-99214331D02*
X183097641Y-99504617D01*
X183097641Y-99504617D02*
X183025070Y-99649760D01*
X183025070Y-99649760D02*
X182879927Y-99794902D01*
X182879927Y-99794902D02*
X182589641Y-99867474D01*
X182589641Y-99867474D02*
X182081641Y-99867474D01*
X182081641Y-99867474D02*
X181791355Y-99794902D01*
X181791355Y-99794902D02*
X181646212Y-99649760D01*
X181646212Y-99649760D02*
X181573641Y-99504617D01*
X181573641Y-98416046D02*
X181573641Y-97545189D01*
X183097641Y-97980617D02*
X181573641Y-97980617D01*
X181573641Y-96746903D02*
X181573641Y-96456617D01*
X181573641Y-96456617D02*
X181646212Y-96311474D01*
X181646212Y-96311474D02*
X181791355Y-96166331D01*
X181791355Y-96166331D02*
X182081641Y-96093760D01*
X182081641Y-96093760D02*
X182589641Y-96093760D01*
X182589641Y-96093760D02*
X182879927Y-96166331D01*
X182879927Y-96166331D02*
X183025070Y-96311474D01*
X183025070Y-96311474D02*
X183097641Y-96456617D01*
X183097641Y-96456617D02*
X183097641Y-96746903D01*
X183097641Y-96746903D02*
X183025070Y-96892046D01*
X183025070Y-96892046D02*
X182879927Y-97037188D01*
X182879927Y-97037188D02*
X182589641Y-97109760D01*
X182589641Y-97109760D02*
X182081641Y-97109760D01*
X182081641Y-97109760D02*
X181791355Y-97037188D01*
X181791355Y-97037188D02*
X181646212Y-96892046D01*
X181646212Y-96892046D02*
X181573641Y-96746903D01*
X183097641Y-94569760D02*
X182371927Y-95077760D01*
X183097641Y-95440617D02*
X181573641Y-95440617D01*
X181573641Y-95440617D02*
X181573641Y-94860046D01*
X181573641Y-94860046D02*
X181646212Y-94714903D01*
X181646212Y-94714903D02*
X181718784Y-94642332D01*
X181718784Y-94642332D02*
X181863927Y-94569760D01*
X181863927Y-94569760D02*
X182081641Y-94569760D01*
X182081641Y-94569760D02*
X182226784Y-94642332D01*
X182226784Y-94642332D02*
X182299355Y-94714903D01*
X182299355Y-94714903D02*
X182371927Y-94860046D01*
X182371927Y-94860046D02*
X182371927Y-95440617D01*
D13*
X182659580Y-90242857D02*
X182707200Y-90290476D01*
X182707200Y-90290476D02*
X182754819Y-90433333D01*
X182754819Y-90433333D02*
X182754819Y-90528571D01*
X182754819Y-90528571D02*
X182707200Y-90671428D01*
X182707200Y-90671428D02*
X182611961Y-90766666D01*
X182611961Y-90766666D02*
X182516723Y-90814285D01*
X182516723Y-90814285D02*
X182326247Y-90861904D01*
X182326247Y-90861904D02*
X182183390Y-90861904D01*
X182183390Y-90861904D02*
X181992914Y-90814285D01*
X181992914Y-90814285D02*
X181897676Y-90766666D01*
X181897676Y-90766666D02*
X181802438Y-90671428D01*
X181802438Y-90671428D02*
X181754819Y-90528571D01*
X181754819Y-90528571D02*
X181754819Y-90433333D01*
X181754819Y-90433333D02*
X181802438Y-90290476D01*
X181802438Y-90290476D02*
X181850057Y-90242857D01*
X182754819Y-89290476D02*
X182754819Y-89861904D01*
X182754819Y-89576190D02*
X181754819Y-89576190D01*
X181754819Y-89576190D02*
X181897676Y-89671428D01*
X181897676Y-89671428D02*
X181992914Y-89766666D01*
X181992914Y-89766666D02*
X182040533Y-89861904D01*
X182754819Y-88338095D02*
X182754819Y-88909523D01*
X182754819Y-88623809D02*
X181754819Y-88623809D01*
X181754819Y-88623809D02*
X181897676Y-88719047D01*
X181897676Y-88719047D02*
X181992914Y-88814285D01*
X181992914Y-88814285D02*
X182040533Y-88909523D01*
X172259580Y-86716666D02*
X172307200Y-86764285D01*
X172307200Y-86764285D02*
X172354819Y-86907142D01*
X172354819Y-86907142D02*
X172354819Y-87002380D01*
X172354819Y-87002380D02*
X172307200Y-87145237D01*
X172307200Y-87145237D02*
X172211961Y-87240475D01*
X172211961Y-87240475D02*
X172116723Y-87288094D01*
X172116723Y-87288094D02*
X171926247Y-87335713D01*
X171926247Y-87335713D02*
X171783390Y-87335713D01*
X171783390Y-87335713D02*
X171592914Y-87288094D01*
X171592914Y-87288094D02*
X171497676Y-87240475D01*
X171497676Y-87240475D02*
X171402438Y-87145237D01*
X171402438Y-87145237D02*
X171354819Y-87002380D01*
X171354819Y-87002380D02*
X171354819Y-86907142D01*
X171354819Y-86907142D02*
X171402438Y-86764285D01*
X171402438Y-86764285D02*
X171450057Y-86716666D01*
X171783390Y-86145237D02*
X171735771Y-86240475D01*
X171735771Y-86240475D02*
X171688152Y-86288094D01*
X171688152Y-86288094D02*
X171592914Y-86335713D01*
X171592914Y-86335713D02*
X171545295Y-86335713D01*
X171545295Y-86335713D02*
X171450057Y-86288094D01*
X171450057Y-86288094D02*
X171402438Y-86240475D01*
X171402438Y-86240475D02*
X171354819Y-86145237D01*
X171354819Y-86145237D02*
X171354819Y-85954761D01*
X171354819Y-85954761D02*
X171402438Y-85859523D01*
X171402438Y-85859523D02*
X171450057Y-85811904D01*
X171450057Y-85811904D02*
X171545295Y-85764285D01*
X171545295Y-85764285D02*
X171592914Y-85764285D01*
X171592914Y-85764285D02*
X171688152Y-85811904D01*
X171688152Y-85811904D02*
X171735771Y-85859523D01*
X171735771Y-85859523D02*
X171783390Y-85954761D01*
X171783390Y-85954761D02*
X171783390Y-86145237D01*
X171783390Y-86145237D02*
X171831009Y-86240475D01*
X171831009Y-86240475D02*
X171878628Y-86288094D01*
X171878628Y-86288094D02*
X171973866Y-86335713D01*
X171973866Y-86335713D02*
X172164342Y-86335713D01*
X172164342Y-86335713D02*
X172259580Y-86288094D01*
X172259580Y-86288094D02*
X172307200Y-86240475D01*
X172307200Y-86240475D02*
X172354819Y-86145237D01*
X172354819Y-86145237D02*
X172354819Y-85954761D01*
X172354819Y-85954761D02*
X172307200Y-85859523D01*
X172307200Y-85859523D02*
X172259580Y-85811904D01*
X172259580Y-85811904D02*
X172164342Y-85764285D01*
X172164342Y-85764285D02*
X171973866Y-85764285D01*
X171973866Y-85764285D02*
X171878628Y-85811904D01*
X171878628Y-85811904D02*
X171831009Y-85859523D01*
X171831009Y-85859523D02*
X171783390Y-85954761D01*
X151204819Y-104179166D02*
X150728628Y-104512499D01*
X151204819Y-104750594D02*
X150204819Y-104750594D01*
X150204819Y-104750594D02*
X150204819Y-104369642D01*
X150204819Y-104369642D02*
X150252438Y-104274404D01*
X150252438Y-104274404D02*
X150300057Y-104226785D01*
X150300057Y-104226785D02*
X150395295Y-104179166D01*
X150395295Y-104179166D02*
X150538152Y-104179166D01*
X150538152Y-104179166D02*
X150633390Y-104226785D01*
X150633390Y-104226785D02*
X150681009Y-104274404D01*
X150681009Y-104274404D02*
X150728628Y-104369642D01*
X150728628Y-104369642D02*
X150728628Y-104750594D01*
X150204819Y-103274404D02*
X150204819Y-103750594D01*
X150204819Y-103750594D02*
X150681009Y-103798213D01*
X150681009Y-103798213D02*
X150633390Y-103750594D01*
X150633390Y-103750594D02*
X150585771Y-103655356D01*
X150585771Y-103655356D02*
X150585771Y-103417261D01*
X150585771Y-103417261D02*
X150633390Y-103322023D01*
X150633390Y-103322023D02*
X150681009Y-103274404D01*
X150681009Y-103274404D02*
X150776247Y-103226785D01*
X150776247Y-103226785D02*
X151014342Y-103226785D01*
X151014342Y-103226785D02*
X151109580Y-103274404D01*
X151109580Y-103274404D02*
X151157200Y-103322023D01*
X151157200Y-103322023D02*
X151204819Y-103417261D01*
X151204819Y-103417261D02*
X151204819Y-103655356D01*
X151204819Y-103655356D02*
X151157200Y-103750594D01*
X151157200Y-103750594D02*
X151109580Y-103798213D01*
X175754819Y-100738094D02*
X174754819Y-100738094D01*
X174754819Y-100738094D02*
X174754819Y-100499999D01*
X174754819Y-100499999D02*
X174802438Y-100357142D01*
X174802438Y-100357142D02*
X174897676Y-100261904D01*
X174897676Y-100261904D02*
X174992914Y-100214285D01*
X174992914Y-100214285D02*
X175183390Y-100166666D01*
X175183390Y-100166666D02*
X175326247Y-100166666D01*
X175326247Y-100166666D02*
X175516723Y-100214285D01*
X175516723Y-100214285D02*
X175611961Y-100261904D01*
X175611961Y-100261904D02*
X175707200Y-100357142D01*
X175707200Y-100357142D02*
X175754819Y-100499999D01*
X175754819Y-100499999D02*
X175754819Y-100738094D01*
X174754819Y-99261904D02*
X174754819Y-99738094D01*
X174754819Y-99738094D02*
X175231009Y-99785713D01*
X175231009Y-99785713D02*
X175183390Y-99738094D01*
X175183390Y-99738094D02*
X175135771Y-99642856D01*
X175135771Y-99642856D02*
X175135771Y-99404761D01*
X175135771Y-99404761D02*
X175183390Y-99309523D01*
X175183390Y-99309523D02*
X175231009Y-99261904D01*
X175231009Y-99261904D02*
X175326247Y-99214285D01*
X175326247Y-99214285D02*
X175564342Y-99214285D01*
X175564342Y-99214285D02*
X175659580Y-99261904D01*
X175659580Y-99261904D02*
X175707200Y-99309523D01*
X175707200Y-99309523D02*
X175754819Y-99404761D01*
X175754819Y-99404761D02*
X175754819Y-99642856D01*
X175754819Y-99642856D02*
X175707200Y-99738094D01*
X175707200Y-99738094D02*
X175659580Y-99785713D01*
X169257142Y-72254819D02*
X168923809Y-71778628D01*
X168685714Y-72254819D02*
X168685714Y-71254819D01*
X168685714Y-71254819D02*
X169066666Y-71254819D01*
X169066666Y-71254819D02*
X169161904Y-71302438D01*
X169161904Y-71302438D02*
X169209523Y-71350057D01*
X169209523Y-71350057D02*
X169257142Y-71445295D01*
X169257142Y-71445295D02*
X169257142Y-71588152D01*
X169257142Y-71588152D02*
X169209523Y-71683390D01*
X169209523Y-71683390D02*
X169161904Y-71731009D01*
X169161904Y-71731009D02*
X169066666Y-71778628D01*
X169066666Y-71778628D02*
X168685714Y-71778628D01*
X170209523Y-72254819D02*
X169638095Y-72254819D01*
X169923809Y-72254819D02*
X169923809Y-71254819D01*
X169923809Y-71254819D02*
X169828571Y-71397676D01*
X169828571Y-71397676D02*
X169733333Y-71492914D01*
X169733333Y-71492914D02*
X169638095Y-71540533D01*
X170590476Y-71350057D02*
X170638095Y-71302438D01*
X170638095Y-71302438D02*
X170733333Y-71254819D01*
X170733333Y-71254819D02*
X170971428Y-71254819D01*
X170971428Y-71254819D02*
X171066666Y-71302438D01*
X171066666Y-71302438D02*
X171114285Y-71350057D01*
X171114285Y-71350057D02*
X171161904Y-71445295D01*
X171161904Y-71445295D02*
X171161904Y-71540533D01*
X171161904Y-71540533D02*
X171114285Y-71683390D01*
X171114285Y-71683390D02*
X170542857Y-72254819D01*
X170542857Y-72254819D02*
X171161904Y-72254819D01*
X153959580Y-88542857D02*
X154007200Y-88590476D01*
X154007200Y-88590476D02*
X154054819Y-88733333D01*
X154054819Y-88733333D02*
X154054819Y-88828571D01*
X154054819Y-88828571D02*
X154007200Y-88971428D01*
X154007200Y-88971428D02*
X153911961Y-89066666D01*
X153911961Y-89066666D02*
X153816723Y-89114285D01*
X153816723Y-89114285D02*
X153626247Y-89161904D01*
X153626247Y-89161904D02*
X153483390Y-89161904D01*
X153483390Y-89161904D02*
X153292914Y-89114285D01*
X153292914Y-89114285D02*
X153197676Y-89066666D01*
X153197676Y-89066666D02*
X153102438Y-88971428D01*
X153102438Y-88971428D02*
X153054819Y-88828571D01*
X153054819Y-88828571D02*
X153054819Y-88733333D01*
X153054819Y-88733333D02*
X153102438Y-88590476D01*
X153102438Y-88590476D02*
X153150057Y-88542857D01*
X154054819Y-87590476D02*
X154054819Y-88161904D01*
X154054819Y-87876190D02*
X153054819Y-87876190D01*
X153054819Y-87876190D02*
X153197676Y-87971428D01*
X153197676Y-87971428D02*
X153292914Y-88066666D01*
X153292914Y-88066666D02*
X153340533Y-88161904D01*
X153054819Y-86971428D02*
X153054819Y-86876190D01*
X153054819Y-86876190D02*
X153102438Y-86780952D01*
X153102438Y-86780952D02*
X153150057Y-86733333D01*
X153150057Y-86733333D02*
X153245295Y-86685714D01*
X153245295Y-86685714D02*
X153435771Y-86638095D01*
X153435771Y-86638095D02*
X153673866Y-86638095D01*
X153673866Y-86638095D02*
X153864342Y-86685714D01*
X153864342Y-86685714D02*
X153959580Y-86733333D01*
X153959580Y-86733333D02*
X154007200Y-86780952D01*
X154007200Y-86780952D02*
X154054819Y-86876190D01*
X154054819Y-86876190D02*
X154054819Y-86971428D01*
X154054819Y-86971428D02*
X154007200Y-87066666D01*
X154007200Y-87066666D02*
X153959580Y-87114285D01*
X153959580Y-87114285D02*
X153864342Y-87161904D01*
X153864342Y-87161904D02*
X153673866Y-87209523D01*
X153673866Y-87209523D02*
X153435771Y-87209523D01*
X153435771Y-87209523D02*
X153245295Y-87161904D01*
X153245295Y-87161904D02*
X153150057Y-87114285D01*
X153150057Y-87114285D02*
X153102438Y-87066666D01*
X153102438Y-87066666D02*
X153054819Y-86971428D01*
X161813095Y-94054819D02*
X161813095Y-94864342D01*
X161813095Y-94864342D02*
X161860714Y-94959580D01*
X161860714Y-94959580D02*
X161908333Y-95007200D01*
X161908333Y-95007200D02*
X162003571Y-95054819D01*
X162003571Y-95054819D02*
X162194047Y-95054819D01*
X162194047Y-95054819D02*
X162289285Y-95007200D01*
X162289285Y-95007200D02*
X162336904Y-94959580D01*
X162336904Y-94959580D02*
X162384523Y-94864342D01*
X162384523Y-94864342D02*
X162384523Y-94054819D01*
X163384523Y-95054819D02*
X162813095Y-95054819D01*
X163098809Y-95054819D02*
X163098809Y-94054819D01*
X163098809Y-94054819D02*
X163003571Y-94197676D01*
X163003571Y-94197676D02*
X162908333Y-94292914D01*
X162908333Y-94292914D02*
X162813095Y-94340533D01*
X157788094Y-109819104D02*
X158264284Y-109819104D01*
X157692856Y-110104819D02*
X158026189Y-109104819D01*
X158026189Y-109104819D02*
X158359522Y-110104819D01*
X158692856Y-109438152D02*
X158692856Y-110104819D01*
X158692856Y-109533390D02*
X158740475Y-109485771D01*
X158740475Y-109485771D02*
X158835713Y-109438152D01*
X158835713Y-109438152D02*
X158978570Y-109438152D01*
X158978570Y-109438152D02*
X159073808Y-109485771D01*
X159073808Y-109485771D02*
X159121427Y-109581009D01*
X159121427Y-109581009D02*
X159121427Y-110104819D01*
X159454761Y-109438152D02*
X159835713Y-109438152D01*
X159597618Y-109104819D02*
X159597618Y-109961961D01*
X159597618Y-109961961D02*
X159645237Y-110057200D01*
X159645237Y-110057200D02*
X159740475Y-110104819D01*
X159740475Y-110104819D02*
X159835713Y-110104819D01*
X160549999Y-110057200D02*
X160454761Y-110104819D01*
X160454761Y-110104819D02*
X160264285Y-110104819D01*
X160264285Y-110104819D02*
X160169047Y-110057200D01*
X160169047Y-110057200D02*
X160121428Y-109961961D01*
X160121428Y-109961961D02*
X160121428Y-109581009D01*
X160121428Y-109581009D02*
X160169047Y-109485771D01*
X160169047Y-109485771D02*
X160264285Y-109438152D01*
X160264285Y-109438152D02*
X160454761Y-109438152D01*
X160454761Y-109438152D02*
X160549999Y-109485771D01*
X160549999Y-109485771D02*
X160597618Y-109581009D01*
X160597618Y-109581009D02*
X160597618Y-109676247D01*
X160597618Y-109676247D02*
X160121428Y-109771485D01*
X161026190Y-109438152D02*
X161026190Y-110104819D01*
X161026190Y-109533390D02*
X161073809Y-109485771D01*
X161073809Y-109485771D02*
X161169047Y-109438152D01*
X161169047Y-109438152D02*
X161311904Y-109438152D01*
X161311904Y-109438152D02*
X161407142Y-109485771D01*
X161407142Y-109485771D02*
X161454761Y-109581009D01*
X161454761Y-109581009D02*
X161454761Y-110104819D01*
X161930952Y-109438152D02*
X161930952Y-110104819D01*
X161930952Y-109533390D02*
X161978571Y-109485771D01*
X161978571Y-109485771D02*
X162073809Y-109438152D01*
X162073809Y-109438152D02*
X162216666Y-109438152D01*
X162216666Y-109438152D02*
X162311904Y-109485771D01*
X162311904Y-109485771D02*
X162359523Y-109581009D01*
X162359523Y-109581009D02*
X162359523Y-110104819D01*
X163264285Y-110104819D02*
X163264285Y-109581009D01*
X163264285Y-109581009D02*
X163216666Y-109485771D01*
X163216666Y-109485771D02*
X163121428Y-109438152D01*
X163121428Y-109438152D02*
X162930952Y-109438152D01*
X162930952Y-109438152D02*
X162835714Y-109485771D01*
X163264285Y-110057200D02*
X163169047Y-110104819D01*
X163169047Y-110104819D02*
X162930952Y-110104819D01*
X162930952Y-110104819D02*
X162835714Y-110057200D01*
X162835714Y-110057200D02*
X162788095Y-109961961D01*
X162788095Y-109961961D02*
X162788095Y-109866723D01*
X162788095Y-109866723D02*
X162835714Y-109771485D01*
X162835714Y-109771485D02*
X162930952Y-109723866D01*
X162930952Y-109723866D02*
X163169047Y-109723866D01*
X163169047Y-109723866D02*
X163264285Y-109676247D01*
X164454762Y-109819104D02*
X164930952Y-109819104D01*
X164359524Y-110104819D02*
X164692857Y-109104819D01*
X164692857Y-109104819D02*
X165026190Y-110104819D01*
X165359524Y-110104819D02*
X165359524Y-109438152D01*
X165359524Y-109628628D02*
X165407143Y-109533390D01*
X165407143Y-109533390D02*
X165454762Y-109485771D01*
X165454762Y-109485771D02*
X165550000Y-109438152D01*
X165550000Y-109438152D02*
X165645238Y-109438152D01*
X166359524Y-110057200D02*
X166264286Y-110104819D01*
X166264286Y-110104819D02*
X166073810Y-110104819D01*
X166073810Y-110104819D02*
X165978572Y-110057200D01*
X165978572Y-110057200D02*
X165930953Y-109961961D01*
X165930953Y-109961961D02*
X165930953Y-109581009D01*
X165930953Y-109581009D02*
X165978572Y-109485771D01*
X165978572Y-109485771D02*
X166073810Y-109438152D01*
X166073810Y-109438152D02*
X166264286Y-109438152D01*
X166264286Y-109438152D02*
X166359524Y-109485771D01*
X166359524Y-109485771D02*
X166407143Y-109581009D01*
X166407143Y-109581009D02*
X166407143Y-109676247D01*
X166407143Y-109676247D02*
X165930953Y-109771485D01*
X167264286Y-110104819D02*
X167264286Y-109581009D01*
X167264286Y-109581009D02*
X167216667Y-109485771D01*
X167216667Y-109485771D02*
X167121429Y-109438152D01*
X167121429Y-109438152D02*
X166930953Y-109438152D01*
X166930953Y-109438152D02*
X166835715Y-109485771D01*
X167264286Y-110057200D02*
X167169048Y-110104819D01*
X167169048Y-110104819D02*
X166930953Y-110104819D01*
X166930953Y-110104819D02*
X166835715Y-110057200D01*
X166835715Y-110057200D02*
X166788096Y-109961961D01*
X166788096Y-109961961D02*
X166788096Y-109866723D01*
X166788096Y-109866723D02*
X166835715Y-109771485D01*
X166835715Y-109771485D02*
X166930953Y-109723866D01*
X166930953Y-109723866D02*
X167169048Y-109723866D01*
X167169048Y-109723866D02*
X167264286Y-109676247D01*
X141154819Y-81842857D02*
X140678628Y-82176190D01*
X141154819Y-82414285D02*
X140154819Y-82414285D01*
X140154819Y-82414285D02*
X140154819Y-82033333D01*
X140154819Y-82033333D02*
X140202438Y-81938095D01*
X140202438Y-81938095D02*
X140250057Y-81890476D01*
X140250057Y-81890476D02*
X140345295Y-81842857D01*
X140345295Y-81842857D02*
X140488152Y-81842857D01*
X140488152Y-81842857D02*
X140583390Y-81890476D01*
X140583390Y-81890476D02*
X140631009Y-81938095D01*
X140631009Y-81938095D02*
X140678628Y-82033333D01*
X140678628Y-82033333D02*
X140678628Y-82414285D01*
X141154819Y-80890476D02*
X141154819Y-81461904D01*
X141154819Y-81176190D02*
X140154819Y-81176190D01*
X140154819Y-81176190D02*
X140297676Y-81271428D01*
X140297676Y-81271428D02*
X140392914Y-81366666D01*
X140392914Y-81366666D02*
X140440533Y-81461904D01*
X140154819Y-80557142D02*
X140154819Y-79938095D01*
X140154819Y-79938095D02*
X140535771Y-80271428D01*
X140535771Y-80271428D02*
X140535771Y-80128571D01*
X140535771Y-80128571D02*
X140583390Y-80033333D01*
X140583390Y-80033333D02*
X140631009Y-79985714D01*
X140631009Y-79985714D02*
X140726247Y-79938095D01*
X140726247Y-79938095D02*
X140964342Y-79938095D01*
X140964342Y-79938095D02*
X141059580Y-79985714D01*
X141059580Y-79985714D02*
X141107200Y-80033333D01*
X141107200Y-80033333D02*
X141154819Y-80128571D01*
X141154819Y-80128571D02*
X141154819Y-80414285D01*
X141154819Y-80414285D02*
X141107200Y-80509523D01*
X141107200Y-80509523D02*
X141059580Y-80557142D01*
X174483333Y-73379580D02*
X174435714Y-73427200D01*
X174435714Y-73427200D02*
X174292857Y-73474819D01*
X174292857Y-73474819D02*
X174197619Y-73474819D01*
X174197619Y-73474819D02*
X174054762Y-73427200D01*
X174054762Y-73427200D02*
X173959524Y-73331961D01*
X173959524Y-73331961D02*
X173911905Y-73236723D01*
X173911905Y-73236723D02*
X173864286Y-73046247D01*
X173864286Y-73046247D02*
X173864286Y-72903390D01*
X173864286Y-72903390D02*
X173911905Y-72712914D01*
X173911905Y-72712914D02*
X173959524Y-72617676D01*
X173959524Y-72617676D02*
X174054762Y-72522438D01*
X174054762Y-72522438D02*
X174197619Y-72474819D01*
X174197619Y-72474819D02*
X174292857Y-72474819D01*
X174292857Y-72474819D02*
X174435714Y-72522438D01*
X174435714Y-72522438D02*
X174483333Y-72570057D01*
X175340476Y-72474819D02*
X175150000Y-72474819D01*
X175150000Y-72474819D02*
X175054762Y-72522438D01*
X175054762Y-72522438D02*
X175007143Y-72570057D01*
X175007143Y-72570057D02*
X174911905Y-72712914D01*
X174911905Y-72712914D02*
X174864286Y-72903390D01*
X174864286Y-72903390D02*
X174864286Y-73284342D01*
X174864286Y-73284342D02*
X174911905Y-73379580D01*
X174911905Y-73379580D02*
X174959524Y-73427200D01*
X174959524Y-73427200D02*
X175054762Y-73474819D01*
X175054762Y-73474819D02*
X175245238Y-73474819D01*
X175245238Y-73474819D02*
X175340476Y-73427200D01*
X175340476Y-73427200D02*
X175388095Y-73379580D01*
X175388095Y-73379580D02*
X175435714Y-73284342D01*
X175435714Y-73284342D02*
X175435714Y-73046247D01*
X175435714Y-73046247D02*
X175388095Y-72951009D01*
X175388095Y-72951009D02*
X175340476Y-72903390D01*
X175340476Y-72903390D02*
X175245238Y-72855771D01*
X175245238Y-72855771D02*
X175054762Y-72855771D01*
X175054762Y-72855771D02*
X174959524Y-72903390D01*
X174959524Y-72903390D02*
X174911905Y-72951009D01*
X174911905Y-72951009D02*
X174864286Y-73046247D01*
X172183333Y-97779580D02*
X172135714Y-97827200D01*
X172135714Y-97827200D02*
X171992857Y-97874819D01*
X171992857Y-97874819D02*
X171897619Y-97874819D01*
X171897619Y-97874819D02*
X171754762Y-97827200D01*
X171754762Y-97827200D02*
X171659524Y-97731961D01*
X171659524Y-97731961D02*
X171611905Y-97636723D01*
X171611905Y-97636723D02*
X171564286Y-97446247D01*
X171564286Y-97446247D02*
X171564286Y-97303390D01*
X171564286Y-97303390D02*
X171611905Y-97112914D01*
X171611905Y-97112914D02*
X171659524Y-97017676D01*
X171659524Y-97017676D02*
X171754762Y-96922438D01*
X171754762Y-96922438D02*
X171897619Y-96874819D01*
X171897619Y-96874819D02*
X171992857Y-96874819D01*
X171992857Y-96874819D02*
X172135714Y-96922438D01*
X172135714Y-96922438D02*
X172183333Y-96970057D01*
X172564286Y-96970057D02*
X172611905Y-96922438D01*
X172611905Y-96922438D02*
X172707143Y-96874819D01*
X172707143Y-96874819D02*
X172945238Y-96874819D01*
X172945238Y-96874819D02*
X173040476Y-96922438D01*
X173040476Y-96922438D02*
X173088095Y-96970057D01*
X173088095Y-96970057D02*
X173135714Y-97065295D01*
X173135714Y-97065295D02*
X173135714Y-97160533D01*
X173135714Y-97160533D02*
X173088095Y-97303390D01*
X173088095Y-97303390D02*
X172516667Y-97874819D01*
X172516667Y-97874819D02*
X173135714Y-97874819D01*
X151204819Y-100179166D02*
X150728628Y-100512499D01*
X151204819Y-100750594D02*
X150204819Y-100750594D01*
X150204819Y-100750594D02*
X150204819Y-100369642D01*
X150204819Y-100369642D02*
X150252438Y-100274404D01*
X150252438Y-100274404D02*
X150300057Y-100226785D01*
X150300057Y-100226785D02*
X150395295Y-100179166D01*
X150395295Y-100179166D02*
X150538152Y-100179166D01*
X150538152Y-100179166D02*
X150633390Y-100226785D01*
X150633390Y-100226785D02*
X150681009Y-100274404D01*
X150681009Y-100274404D02*
X150728628Y-100369642D01*
X150728628Y-100369642D02*
X150728628Y-100750594D01*
X150204819Y-99322023D02*
X150204819Y-99512499D01*
X150204819Y-99512499D02*
X150252438Y-99607737D01*
X150252438Y-99607737D02*
X150300057Y-99655356D01*
X150300057Y-99655356D02*
X150442914Y-99750594D01*
X150442914Y-99750594D02*
X150633390Y-99798213D01*
X150633390Y-99798213D02*
X151014342Y-99798213D01*
X151014342Y-99798213D02*
X151109580Y-99750594D01*
X151109580Y-99750594D02*
X151157200Y-99702975D01*
X151157200Y-99702975D02*
X151204819Y-99607737D01*
X151204819Y-99607737D02*
X151204819Y-99417261D01*
X151204819Y-99417261D02*
X151157200Y-99322023D01*
X151157200Y-99322023D02*
X151109580Y-99274404D01*
X151109580Y-99274404D02*
X151014342Y-99226785D01*
X151014342Y-99226785D02*
X150776247Y-99226785D01*
X150776247Y-99226785D02*
X150681009Y-99274404D01*
X150681009Y-99274404D02*
X150633390Y-99322023D01*
X150633390Y-99322023D02*
X150585771Y-99417261D01*
X150585771Y-99417261D02*
X150585771Y-99607737D01*
X150585771Y-99607737D02*
X150633390Y-99702975D01*
X150633390Y-99702975D02*
X150681009Y-99750594D01*
X150681009Y-99750594D02*
X150776247Y-99798213D01*
X179833333Y-76454819D02*
X179500000Y-75978628D01*
X179261905Y-76454819D02*
X179261905Y-75454819D01*
X179261905Y-75454819D02*
X179642857Y-75454819D01*
X179642857Y-75454819D02*
X179738095Y-75502438D01*
X179738095Y-75502438D02*
X179785714Y-75550057D01*
X179785714Y-75550057D02*
X179833333Y-75645295D01*
X179833333Y-75645295D02*
X179833333Y-75788152D01*
X179833333Y-75788152D02*
X179785714Y-75883390D01*
X179785714Y-75883390D02*
X179738095Y-75931009D01*
X179738095Y-75931009D02*
X179642857Y-75978628D01*
X179642857Y-75978628D02*
X179261905Y-75978628D01*
X180690476Y-75788152D02*
X180690476Y-76454819D01*
X180452381Y-75407200D02*
X180214286Y-76121485D01*
X180214286Y-76121485D02*
X180833333Y-76121485D01*
X179833333Y-72454819D02*
X179500000Y-71978628D01*
X179261905Y-72454819D02*
X179261905Y-71454819D01*
X179261905Y-71454819D02*
X179642857Y-71454819D01*
X179642857Y-71454819D02*
X179738095Y-71502438D01*
X179738095Y-71502438D02*
X179785714Y-71550057D01*
X179785714Y-71550057D02*
X179833333Y-71645295D01*
X179833333Y-71645295D02*
X179833333Y-71788152D01*
X179833333Y-71788152D02*
X179785714Y-71883390D01*
X179785714Y-71883390D02*
X179738095Y-71931009D01*
X179738095Y-71931009D02*
X179642857Y-71978628D01*
X179642857Y-71978628D02*
X179261905Y-71978628D01*
X180214286Y-71550057D02*
X180261905Y-71502438D01*
X180261905Y-71502438D02*
X180357143Y-71454819D01*
X180357143Y-71454819D02*
X180595238Y-71454819D01*
X180595238Y-71454819D02*
X180690476Y-71502438D01*
X180690476Y-71502438D02*
X180738095Y-71550057D01*
X180738095Y-71550057D02*
X180785714Y-71645295D01*
X180785714Y-71645295D02*
X180785714Y-71740533D01*
X180785714Y-71740533D02*
X180738095Y-71883390D01*
X180738095Y-71883390D02*
X180166667Y-72454819D01*
X180166667Y-72454819D02*
X180785714Y-72454819D01*
X146504819Y-89655357D02*
X146028628Y-89988690D01*
X146504819Y-90226785D02*
X145504819Y-90226785D01*
X145504819Y-90226785D02*
X145504819Y-89845833D01*
X145504819Y-89845833D02*
X145552438Y-89750595D01*
X145552438Y-89750595D02*
X145600057Y-89702976D01*
X145600057Y-89702976D02*
X145695295Y-89655357D01*
X145695295Y-89655357D02*
X145838152Y-89655357D01*
X145838152Y-89655357D02*
X145933390Y-89702976D01*
X145933390Y-89702976D02*
X145981009Y-89750595D01*
X145981009Y-89750595D02*
X146028628Y-89845833D01*
X146028628Y-89845833D02*
X146028628Y-90226785D01*
X146504819Y-88702976D02*
X146504819Y-89274404D01*
X146504819Y-88988690D02*
X145504819Y-88988690D01*
X145504819Y-88988690D02*
X145647676Y-89083928D01*
X145647676Y-89083928D02*
X145742914Y-89179166D01*
X145742914Y-89179166D02*
X145790533Y-89274404D01*
X145504819Y-88083928D02*
X145504819Y-87988690D01*
X145504819Y-87988690D02*
X145552438Y-87893452D01*
X145552438Y-87893452D02*
X145600057Y-87845833D01*
X145600057Y-87845833D02*
X145695295Y-87798214D01*
X145695295Y-87798214D02*
X145885771Y-87750595D01*
X145885771Y-87750595D02*
X146123866Y-87750595D01*
X146123866Y-87750595D02*
X146314342Y-87798214D01*
X146314342Y-87798214D02*
X146409580Y-87845833D01*
X146409580Y-87845833D02*
X146457200Y-87893452D01*
X146457200Y-87893452D02*
X146504819Y-87988690D01*
X146504819Y-87988690D02*
X146504819Y-88083928D01*
X146504819Y-88083928D02*
X146457200Y-88179166D01*
X146457200Y-88179166D02*
X146409580Y-88226785D01*
X146409580Y-88226785D02*
X146314342Y-88274404D01*
X146314342Y-88274404D02*
X146123866Y-88322023D01*
X146123866Y-88322023D02*
X145885771Y-88322023D01*
X145885771Y-88322023D02*
X145695295Y-88274404D01*
X145695295Y-88274404D02*
X145600057Y-88226785D01*
X145600057Y-88226785D02*
X145552438Y-88179166D01*
X145552438Y-88179166D02*
X145504819Y-88083928D01*
X162994819Y-77168094D02*
X161994819Y-77168094D01*
X161994819Y-77168094D02*
X161994819Y-76929999D01*
X161994819Y-76929999D02*
X162042438Y-76787142D01*
X162042438Y-76787142D02*
X162137676Y-76691904D01*
X162137676Y-76691904D02*
X162232914Y-76644285D01*
X162232914Y-76644285D02*
X162423390Y-76596666D01*
X162423390Y-76596666D02*
X162566247Y-76596666D01*
X162566247Y-76596666D02*
X162756723Y-76644285D01*
X162756723Y-76644285D02*
X162851961Y-76691904D01*
X162851961Y-76691904D02*
X162947200Y-76787142D01*
X162947200Y-76787142D02*
X162994819Y-76929999D01*
X162994819Y-76929999D02*
X162994819Y-77168094D01*
X161994819Y-76263332D02*
X161994819Y-75644285D01*
X161994819Y-75644285D02*
X162375771Y-75977618D01*
X162375771Y-75977618D02*
X162375771Y-75834761D01*
X162375771Y-75834761D02*
X162423390Y-75739523D01*
X162423390Y-75739523D02*
X162471009Y-75691904D01*
X162471009Y-75691904D02*
X162566247Y-75644285D01*
X162566247Y-75644285D02*
X162804342Y-75644285D01*
X162804342Y-75644285D02*
X162899580Y-75691904D01*
X162899580Y-75691904D02*
X162947200Y-75739523D01*
X162947200Y-75739523D02*
X162994819Y-75834761D01*
X162994819Y-75834761D02*
X162994819Y-76120475D01*
X162994819Y-76120475D02*
X162947200Y-76215713D01*
X162947200Y-76215713D02*
X162899580Y-76263332D01*
X172183333Y-101779580D02*
X172135714Y-101827200D01*
X172135714Y-101827200D02*
X171992857Y-101874819D01*
X171992857Y-101874819D02*
X171897619Y-101874819D01*
X171897619Y-101874819D02*
X171754762Y-101827200D01*
X171754762Y-101827200D02*
X171659524Y-101731961D01*
X171659524Y-101731961D02*
X171611905Y-101636723D01*
X171611905Y-101636723D02*
X171564286Y-101446247D01*
X171564286Y-101446247D02*
X171564286Y-101303390D01*
X171564286Y-101303390D02*
X171611905Y-101112914D01*
X171611905Y-101112914D02*
X171659524Y-101017676D01*
X171659524Y-101017676D02*
X171754762Y-100922438D01*
X171754762Y-100922438D02*
X171897619Y-100874819D01*
X171897619Y-100874819D02*
X171992857Y-100874819D01*
X171992857Y-100874819D02*
X172135714Y-100922438D01*
X172135714Y-100922438D02*
X172183333Y-100970057D01*
X173135714Y-101874819D02*
X172564286Y-101874819D01*
X172850000Y-101874819D02*
X172850000Y-100874819D01*
X172850000Y-100874819D02*
X172754762Y-101017676D01*
X172754762Y-101017676D02*
X172659524Y-101112914D01*
X172659524Y-101112914D02*
X172564286Y-101160533D01*
X140939580Y-93916666D02*
X140987200Y-93964285D01*
X140987200Y-93964285D02*
X141034819Y-94107142D01*
X141034819Y-94107142D02*
X141034819Y-94202380D01*
X141034819Y-94202380D02*
X140987200Y-94345237D01*
X140987200Y-94345237D02*
X140891961Y-94440475D01*
X140891961Y-94440475D02*
X140796723Y-94488094D01*
X140796723Y-94488094D02*
X140606247Y-94535713D01*
X140606247Y-94535713D02*
X140463390Y-94535713D01*
X140463390Y-94535713D02*
X140272914Y-94488094D01*
X140272914Y-94488094D02*
X140177676Y-94440475D01*
X140177676Y-94440475D02*
X140082438Y-94345237D01*
X140082438Y-94345237D02*
X140034819Y-94202380D01*
X140034819Y-94202380D02*
X140034819Y-94107142D01*
X140034819Y-94107142D02*
X140082438Y-93964285D01*
X140082438Y-93964285D02*
X140130057Y-93916666D01*
X140368152Y-93059523D02*
X141034819Y-93059523D01*
X139987200Y-93297618D02*
X140701485Y-93535713D01*
X140701485Y-93535713D02*
X140701485Y-92916666D01*
X177557142Y-93679580D02*
X177509523Y-93727200D01*
X177509523Y-93727200D02*
X177366666Y-93774819D01*
X177366666Y-93774819D02*
X177271428Y-93774819D01*
X177271428Y-93774819D02*
X177128571Y-93727200D01*
X177128571Y-93727200D02*
X177033333Y-93631961D01*
X177033333Y-93631961D02*
X176985714Y-93536723D01*
X176985714Y-93536723D02*
X176938095Y-93346247D01*
X176938095Y-93346247D02*
X176938095Y-93203390D01*
X176938095Y-93203390D02*
X176985714Y-93012914D01*
X176985714Y-93012914D02*
X177033333Y-92917676D01*
X177033333Y-92917676D02*
X177128571Y-92822438D01*
X177128571Y-92822438D02*
X177271428Y-92774819D01*
X177271428Y-92774819D02*
X177366666Y-92774819D01*
X177366666Y-92774819D02*
X177509523Y-92822438D01*
X177509523Y-92822438D02*
X177557142Y-92870057D01*
X178509523Y-93774819D02*
X177938095Y-93774819D01*
X178223809Y-93774819D02*
X178223809Y-92774819D01*
X178223809Y-92774819D02*
X178128571Y-92917676D01*
X178128571Y-92917676D02*
X178033333Y-93012914D01*
X178033333Y-93012914D02*
X177938095Y-93060533D01*
X178890476Y-92870057D02*
X178938095Y-92822438D01*
X178938095Y-92822438D02*
X179033333Y-92774819D01*
X179033333Y-92774819D02*
X179271428Y-92774819D01*
X179271428Y-92774819D02*
X179366666Y-92822438D01*
X179366666Y-92822438D02*
X179414285Y-92870057D01*
X179414285Y-92870057D02*
X179461904Y-92965295D01*
X179461904Y-92965295D02*
X179461904Y-93060533D01*
X179461904Y-93060533D02*
X179414285Y-93203390D01*
X179414285Y-93203390D02*
X178842857Y-93774819D01*
X178842857Y-93774819D02*
X179461904Y-93774819D01*
X172183333Y-93759580D02*
X172135714Y-93807200D01*
X172135714Y-93807200D02*
X171992857Y-93854819D01*
X171992857Y-93854819D02*
X171897619Y-93854819D01*
X171897619Y-93854819D02*
X171754762Y-93807200D01*
X171754762Y-93807200D02*
X171659524Y-93711961D01*
X171659524Y-93711961D02*
X171611905Y-93616723D01*
X171611905Y-93616723D02*
X171564286Y-93426247D01*
X171564286Y-93426247D02*
X171564286Y-93283390D01*
X171564286Y-93283390D02*
X171611905Y-93092914D01*
X171611905Y-93092914D02*
X171659524Y-92997676D01*
X171659524Y-92997676D02*
X171754762Y-92902438D01*
X171754762Y-92902438D02*
X171897619Y-92854819D01*
X171897619Y-92854819D02*
X171992857Y-92854819D01*
X171992857Y-92854819D02*
X172135714Y-92902438D01*
X172135714Y-92902438D02*
X172183333Y-92950057D01*
X172516667Y-92854819D02*
X173135714Y-92854819D01*
X173135714Y-92854819D02*
X172802381Y-93235771D01*
X172802381Y-93235771D02*
X172945238Y-93235771D01*
X172945238Y-93235771D02*
X173040476Y-93283390D01*
X173040476Y-93283390D02*
X173088095Y-93331009D01*
X173088095Y-93331009D02*
X173135714Y-93426247D01*
X173135714Y-93426247D02*
X173135714Y-93664342D01*
X173135714Y-93664342D02*
X173088095Y-93759580D01*
X173088095Y-93759580D02*
X173040476Y-93807200D01*
X173040476Y-93807200D02*
X172945238Y-93854819D01*
X172945238Y-93854819D02*
X172659524Y-93854819D01*
X172659524Y-93854819D02*
X172564286Y-93807200D01*
X172564286Y-93807200D02*
X172516667Y-93759580D01*
X182954819Y-82138094D02*
X181954819Y-82138094D01*
X181954819Y-82138094D02*
X181954819Y-81899999D01*
X181954819Y-81899999D02*
X182002438Y-81757142D01*
X182002438Y-81757142D02*
X182097676Y-81661904D01*
X182097676Y-81661904D02*
X182192914Y-81614285D01*
X182192914Y-81614285D02*
X182383390Y-81566666D01*
X182383390Y-81566666D02*
X182526247Y-81566666D01*
X182526247Y-81566666D02*
X182716723Y-81614285D01*
X182716723Y-81614285D02*
X182811961Y-81661904D01*
X182811961Y-81661904D02*
X182907200Y-81757142D01*
X182907200Y-81757142D02*
X182954819Y-81899999D01*
X182954819Y-81899999D02*
X182954819Y-82138094D01*
X182050057Y-81185713D02*
X182002438Y-81138094D01*
X182002438Y-81138094D02*
X181954819Y-81042856D01*
X181954819Y-81042856D02*
X181954819Y-80804761D01*
X181954819Y-80804761D02*
X182002438Y-80709523D01*
X182002438Y-80709523D02*
X182050057Y-80661904D01*
X182050057Y-80661904D02*
X182145295Y-80614285D01*
X182145295Y-80614285D02*
X182240533Y-80614285D01*
X182240533Y-80614285D02*
X182383390Y-80661904D01*
X182383390Y-80661904D02*
X182954819Y-81233332D01*
X182954819Y-81233332D02*
X182954819Y-80614285D01*
X150257142Y-91054819D02*
X149923809Y-90578628D01*
X149685714Y-91054819D02*
X149685714Y-90054819D01*
X149685714Y-90054819D02*
X150066666Y-90054819D01*
X150066666Y-90054819D02*
X150161904Y-90102438D01*
X150161904Y-90102438D02*
X150209523Y-90150057D01*
X150209523Y-90150057D02*
X150257142Y-90245295D01*
X150257142Y-90245295D02*
X150257142Y-90388152D01*
X150257142Y-90388152D02*
X150209523Y-90483390D01*
X150209523Y-90483390D02*
X150161904Y-90531009D01*
X150161904Y-90531009D02*
X150066666Y-90578628D01*
X150066666Y-90578628D02*
X149685714Y-90578628D01*
X151209523Y-91054819D02*
X150638095Y-91054819D01*
X150923809Y-91054819D02*
X150923809Y-90054819D01*
X150923809Y-90054819D02*
X150828571Y-90197676D01*
X150828571Y-90197676D02*
X150733333Y-90292914D01*
X150733333Y-90292914D02*
X150638095Y-90340533D01*
X152066666Y-90054819D02*
X151876190Y-90054819D01*
X151876190Y-90054819D02*
X151780952Y-90102438D01*
X151780952Y-90102438D02*
X151733333Y-90150057D01*
X151733333Y-90150057D02*
X151638095Y-90292914D01*
X151638095Y-90292914D02*
X151590476Y-90483390D01*
X151590476Y-90483390D02*
X151590476Y-90864342D01*
X151590476Y-90864342D02*
X151638095Y-90959580D01*
X151638095Y-90959580D02*
X151685714Y-91007200D01*
X151685714Y-91007200D02*
X151780952Y-91054819D01*
X151780952Y-91054819D02*
X151971428Y-91054819D01*
X151971428Y-91054819D02*
X152066666Y-91007200D01*
X152066666Y-91007200D02*
X152114285Y-90959580D01*
X152114285Y-90959580D02*
X152161904Y-90864342D01*
X152161904Y-90864342D02*
X152161904Y-90626247D01*
X152161904Y-90626247D02*
X152114285Y-90531009D01*
X152114285Y-90531009D02*
X152066666Y-90483390D01*
X152066666Y-90483390D02*
X151971428Y-90435771D01*
X151971428Y-90435771D02*
X151780952Y-90435771D01*
X151780952Y-90435771D02*
X151685714Y-90483390D01*
X151685714Y-90483390D02*
X151638095Y-90531009D01*
X151638095Y-90531009D02*
X151590476Y-90626247D01*
X141004819Y-97654166D02*
X140528628Y-97987499D01*
X141004819Y-98225594D02*
X140004819Y-98225594D01*
X140004819Y-98225594D02*
X140004819Y-97844642D01*
X140004819Y-97844642D02*
X140052438Y-97749404D01*
X140052438Y-97749404D02*
X140100057Y-97701785D01*
X140100057Y-97701785D02*
X140195295Y-97654166D01*
X140195295Y-97654166D02*
X140338152Y-97654166D01*
X140338152Y-97654166D02*
X140433390Y-97701785D01*
X140433390Y-97701785D02*
X140481009Y-97749404D01*
X140481009Y-97749404D02*
X140528628Y-97844642D01*
X140528628Y-97844642D02*
X140528628Y-98225594D01*
X140004819Y-97320832D02*
X140004819Y-96654166D01*
X140004819Y-96654166D02*
X141004819Y-97082737D01*
X162583333Y-81179580D02*
X162535714Y-81227200D01*
X162535714Y-81227200D02*
X162392857Y-81274819D01*
X162392857Y-81274819D02*
X162297619Y-81274819D01*
X162297619Y-81274819D02*
X162154762Y-81227200D01*
X162154762Y-81227200D02*
X162059524Y-81131961D01*
X162059524Y-81131961D02*
X162011905Y-81036723D01*
X162011905Y-81036723D02*
X161964286Y-80846247D01*
X161964286Y-80846247D02*
X161964286Y-80703390D01*
X161964286Y-80703390D02*
X162011905Y-80512914D01*
X162011905Y-80512914D02*
X162059524Y-80417676D01*
X162059524Y-80417676D02*
X162154762Y-80322438D01*
X162154762Y-80322438D02*
X162297619Y-80274819D01*
X162297619Y-80274819D02*
X162392857Y-80274819D01*
X162392857Y-80274819D02*
X162535714Y-80322438D01*
X162535714Y-80322438D02*
X162583333Y-80370057D01*
X163059524Y-81274819D02*
X163250000Y-81274819D01*
X163250000Y-81274819D02*
X163345238Y-81227200D01*
X163345238Y-81227200D02*
X163392857Y-81179580D01*
X163392857Y-81179580D02*
X163488095Y-81036723D01*
X163488095Y-81036723D02*
X163535714Y-80846247D01*
X163535714Y-80846247D02*
X163535714Y-80465295D01*
X163535714Y-80465295D02*
X163488095Y-80370057D01*
X163488095Y-80370057D02*
X163440476Y-80322438D01*
X163440476Y-80322438D02*
X163345238Y-80274819D01*
X163345238Y-80274819D02*
X163154762Y-80274819D01*
X163154762Y-80274819D02*
X163059524Y-80322438D01*
X163059524Y-80322438D02*
X163011905Y-80370057D01*
X163011905Y-80370057D02*
X162964286Y-80465295D01*
X162964286Y-80465295D02*
X162964286Y-80703390D01*
X162964286Y-80703390D02*
X163011905Y-80798628D01*
X163011905Y-80798628D02*
X163059524Y-80846247D01*
X163059524Y-80846247D02*
X163154762Y-80893866D01*
X163154762Y-80893866D02*
X163345238Y-80893866D01*
X163345238Y-80893866D02*
X163440476Y-80846247D01*
X163440476Y-80846247D02*
X163488095Y-80798628D01*
X163488095Y-80798628D02*
X163535714Y-80703390D01*
X174483333Y-82379580D02*
X174435714Y-82427200D01*
X174435714Y-82427200D02*
X174292857Y-82474819D01*
X174292857Y-82474819D02*
X174197619Y-82474819D01*
X174197619Y-82474819D02*
X174054762Y-82427200D01*
X174054762Y-82427200D02*
X173959524Y-82331961D01*
X173959524Y-82331961D02*
X173911905Y-82236723D01*
X173911905Y-82236723D02*
X173864286Y-82046247D01*
X173864286Y-82046247D02*
X173864286Y-81903390D01*
X173864286Y-81903390D02*
X173911905Y-81712914D01*
X173911905Y-81712914D02*
X173959524Y-81617676D01*
X173959524Y-81617676D02*
X174054762Y-81522438D01*
X174054762Y-81522438D02*
X174197619Y-81474819D01*
X174197619Y-81474819D02*
X174292857Y-81474819D01*
X174292857Y-81474819D02*
X174435714Y-81522438D01*
X174435714Y-81522438D02*
X174483333Y-81570057D01*
X175388095Y-81474819D02*
X174911905Y-81474819D01*
X174911905Y-81474819D02*
X174864286Y-81951009D01*
X174864286Y-81951009D02*
X174911905Y-81903390D01*
X174911905Y-81903390D02*
X175007143Y-81855771D01*
X175007143Y-81855771D02*
X175245238Y-81855771D01*
X175245238Y-81855771D02*
X175340476Y-81903390D01*
X175340476Y-81903390D02*
X175388095Y-81951009D01*
X175388095Y-81951009D02*
X175435714Y-82046247D01*
X175435714Y-82046247D02*
X175435714Y-82284342D01*
X175435714Y-82284342D02*
X175388095Y-82379580D01*
X175388095Y-82379580D02*
X175340476Y-82427200D01*
X175340476Y-82427200D02*
X175245238Y-82474819D01*
X175245238Y-82474819D02*
X175007143Y-82474819D01*
X175007143Y-82474819D02*
X174911905Y-82427200D01*
X174911905Y-82427200D02*
X174864286Y-82379580D01*
X142704819Y-104179166D02*
X142228628Y-104512499D01*
X142704819Y-104750594D02*
X141704819Y-104750594D01*
X141704819Y-104750594D02*
X141704819Y-104369642D01*
X141704819Y-104369642D02*
X141752438Y-104274404D01*
X141752438Y-104274404D02*
X141800057Y-104226785D01*
X141800057Y-104226785D02*
X141895295Y-104179166D01*
X141895295Y-104179166D02*
X142038152Y-104179166D01*
X142038152Y-104179166D02*
X142133390Y-104226785D01*
X142133390Y-104226785D02*
X142181009Y-104274404D01*
X142181009Y-104274404D02*
X142228628Y-104369642D01*
X142228628Y-104369642D02*
X142228628Y-104750594D01*
X141704819Y-103845832D02*
X141704819Y-103226785D01*
X141704819Y-103226785D02*
X142085771Y-103560118D01*
X142085771Y-103560118D02*
X142085771Y-103417261D01*
X142085771Y-103417261D02*
X142133390Y-103322023D01*
X142133390Y-103322023D02*
X142181009Y-103274404D01*
X142181009Y-103274404D02*
X142276247Y-103226785D01*
X142276247Y-103226785D02*
X142514342Y-103226785D01*
X142514342Y-103226785D02*
X142609580Y-103274404D01*
X142609580Y-103274404D02*
X142657200Y-103322023D01*
X142657200Y-103322023D02*
X142704819Y-103417261D01*
X142704819Y-103417261D02*
X142704819Y-103702975D01*
X142704819Y-103702975D02*
X142657200Y-103798213D01*
X142657200Y-103798213D02*
X142609580Y-103845832D01*
X151261905Y-97854819D02*
X151261905Y-96854819D01*
X151261905Y-96854819D02*
X151500000Y-96854819D01*
X151500000Y-96854819D02*
X151642857Y-96902438D01*
X151642857Y-96902438D02*
X151738095Y-96997676D01*
X151738095Y-96997676D02*
X151785714Y-97092914D01*
X151785714Y-97092914D02*
X151833333Y-97283390D01*
X151833333Y-97283390D02*
X151833333Y-97426247D01*
X151833333Y-97426247D02*
X151785714Y-97616723D01*
X151785714Y-97616723D02*
X151738095Y-97711961D01*
X151738095Y-97711961D02*
X151642857Y-97807200D01*
X151642857Y-97807200D02*
X151500000Y-97854819D01*
X151500000Y-97854819D02*
X151261905Y-97854819D01*
X152785714Y-97854819D02*
X152214286Y-97854819D01*
X152500000Y-97854819D02*
X152500000Y-96854819D01*
X152500000Y-96854819D02*
X152404762Y-96997676D01*
X152404762Y-96997676D02*
X152309524Y-97092914D01*
X152309524Y-97092914D02*
X152214286Y-97140533D01*
X161688095Y-92054819D02*
X161688095Y-92864342D01*
X161688095Y-92864342D02*
X161735714Y-92959580D01*
X161735714Y-92959580D02*
X161783333Y-93007200D01*
X161783333Y-93007200D02*
X161878571Y-93054819D01*
X161878571Y-93054819D02*
X162069047Y-93054819D01*
X162069047Y-93054819D02*
X162164285Y-93007200D01*
X162164285Y-93007200D02*
X162211904Y-92959580D01*
X162211904Y-92959580D02*
X162259523Y-92864342D01*
X162259523Y-92864342D02*
X162259523Y-92054819D01*
X163164285Y-92388152D02*
X163164285Y-93054819D01*
X162926190Y-92007200D02*
X162688095Y-92721485D01*
X162688095Y-92721485D02*
X163307142Y-92721485D01*
X183766666Y-88431009D02*
X183433333Y-88431009D01*
X183433333Y-88954819D02*
X183433333Y-87954819D01*
X183433333Y-87954819D02*
X183909523Y-87954819D01*
X184814285Y-88954819D02*
X184242857Y-88954819D01*
X184528571Y-88954819D02*
X184528571Y-87954819D01*
X184528571Y-87954819D02*
X184433333Y-88097676D01*
X184433333Y-88097676D02*
X184338095Y-88192914D01*
X184338095Y-88192914D02*
X184242857Y-88240533D01*
X154794819Y-77168094D02*
X153794819Y-77168094D01*
X153794819Y-77168094D02*
X153794819Y-76929999D01*
X153794819Y-76929999D02*
X153842438Y-76787142D01*
X153842438Y-76787142D02*
X153937676Y-76691904D01*
X153937676Y-76691904D02*
X154032914Y-76644285D01*
X154032914Y-76644285D02*
X154223390Y-76596666D01*
X154223390Y-76596666D02*
X154366247Y-76596666D01*
X154366247Y-76596666D02*
X154556723Y-76644285D01*
X154556723Y-76644285D02*
X154651961Y-76691904D01*
X154651961Y-76691904D02*
X154747200Y-76787142D01*
X154747200Y-76787142D02*
X154794819Y-76929999D01*
X154794819Y-76929999D02*
X154794819Y-77168094D01*
X154128152Y-75739523D02*
X154794819Y-75739523D01*
X153747200Y-75977618D02*
X154461485Y-76215713D01*
X154461485Y-76215713D02*
X154461485Y-75596666D01*
X142754819Y-100241666D02*
X142278628Y-100574999D01*
X142754819Y-100813094D02*
X141754819Y-100813094D01*
X141754819Y-100813094D02*
X141754819Y-100432142D01*
X141754819Y-100432142D02*
X141802438Y-100336904D01*
X141802438Y-100336904D02*
X141850057Y-100289285D01*
X141850057Y-100289285D02*
X141945295Y-100241666D01*
X141945295Y-100241666D02*
X142088152Y-100241666D01*
X142088152Y-100241666D02*
X142183390Y-100289285D01*
X142183390Y-100289285D02*
X142231009Y-100336904D01*
X142231009Y-100336904D02*
X142278628Y-100432142D01*
X142278628Y-100432142D02*
X142278628Y-100813094D01*
X142754819Y-99765475D02*
X142754819Y-99574999D01*
X142754819Y-99574999D02*
X142707200Y-99479761D01*
X142707200Y-99479761D02*
X142659580Y-99432142D01*
X142659580Y-99432142D02*
X142516723Y-99336904D01*
X142516723Y-99336904D02*
X142326247Y-99289285D01*
X142326247Y-99289285D02*
X141945295Y-99289285D01*
X141945295Y-99289285D02*
X141850057Y-99336904D01*
X141850057Y-99336904D02*
X141802438Y-99384523D01*
X141802438Y-99384523D02*
X141754819Y-99479761D01*
X141754819Y-99479761D02*
X141754819Y-99670237D01*
X141754819Y-99670237D02*
X141802438Y-99765475D01*
X141802438Y-99765475D02*
X141850057Y-99813094D01*
X141850057Y-99813094D02*
X141945295Y-99860713D01*
X141945295Y-99860713D02*
X142183390Y-99860713D01*
X142183390Y-99860713D02*
X142278628Y-99813094D01*
X142278628Y-99813094D02*
X142326247Y-99765475D01*
X142326247Y-99765475D02*
X142373866Y-99670237D01*
X142373866Y-99670237D02*
X142373866Y-99479761D01*
X142373866Y-99479761D02*
X142326247Y-99384523D01*
X142326247Y-99384523D02*
X142278628Y-99336904D01*
X142278628Y-99336904D02*
X142183390Y-99289285D01*
X140859580Y-85941666D02*
X140907200Y-85989285D01*
X140907200Y-85989285D02*
X140954819Y-86132142D01*
X140954819Y-86132142D02*
X140954819Y-86227380D01*
X140954819Y-86227380D02*
X140907200Y-86370237D01*
X140907200Y-86370237D02*
X140811961Y-86465475D01*
X140811961Y-86465475D02*
X140716723Y-86513094D01*
X140716723Y-86513094D02*
X140526247Y-86560713D01*
X140526247Y-86560713D02*
X140383390Y-86560713D01*
X140383390Y-86560713D02*
X140192914Y-86513094D01*
X140192914Y-86513094D02*
X140097676Y-86465475D01*
X140097676Y-86465475D02*
X140002438Y-86370237D01*
X140002438Y-86370237D02*
X139954819Y-86227380D01*
X139954819Y-86227380D02*
X139954819Y-86132142D01*
X139954819Y-86132142D02*
X140002438Y-85989285D01*
X140002438Y-85989285D02*
X140050057Y-85941666D01*
X139954819Y-85608332D02*
X139954819Y-84941666D01*
X139954819Y-84941666D02*
X140954819Y-85370237D01*
X140954819Y-90267857D02*
X140478628Y-90601190D01*
X140954819Y-90839285D02*
X139954819Y-90839285D01*
X139954819Y-90839285D02*
X139954819Y-90458333D01*
X139954819Y-90458333D02*
X140002438Y-90363095D01*
X140002438Y-90363095D02*
X140050057Y-90315476D01*
X140050057Y-90315476D02*
X140145295Y-90267857D01*
X140145295Y-90267857D02*
X140288152Y-90267857D01*
X140288152Y-90267857D02*
X140383390Y-90315476D01*
X140383390Y-90315476D02*
X140431009Y-90363095D01*
X140431009Y-90363095D02*
X140478628Y-90458333D01*
X140478628Y-90458333D02*
X140478628Y-90839285D01*
X140954819Y-89315476D02*
X140954819Y-89886904D01*
X140954819Y-89601190D02*
X139954819Y-89601190D01*
X139954819Y-89601190D02*
X140097676Y-89696428D01*
X140097676Y-89696428D02*
X140192914Y-89791666D01*
X140192914Y-89791666D02*
X140240533Y-89886904D01*
X140954819Y-88363095D02*
X140954819Y-88934523D01*
X140954819Y-88648809D02*
X139954819Y-88648809D01*
X139954819Y-88648809D02*
X140097676Y-88744047D01*
X140097676Y-88744047D02*
X140192914Y-88839285D01*
X140192914Y-88839285D02*
X140240533Y-88934523D01*
X150244642Y-85504819D02*
X149911309Y-85028628D01*
X149673214Y-85504819D02*
X149673214Y-84504819D01*
X149673214Y-84504819D02*
X150054166Y-84504819D01*
X150054166Y-84504819D02*
X150149404Y-84552438D01*
X150149404Y-84552438D02*
X150197023Y-84600057D01*
X150197023Y-84600057D02*
X150244642Y-84695295D01*
X150244642Y-84695295D02*
X150244642Y-84838152D01*
X150244642Y-84838152D02*
X150197023Y-84933390D01*
X150197023Y-84933390D02*
X150149404Y-84981009D01*
X150149404Y-84981009D02*
X150054166Y-85028628D01*
X150054166Y-85028628D02*
X149673214Y-85028628D01*
X151197023Y-85504819D02*
X150625595Y-85504819D01*
X150911309Y-85504819D02*
X150911309Y-84504819D01*
X150911309Y-84504819D02*
X150816071Y-84647676D01*
X150816071Y-84647676D02*
X150720833Y-84742914D01*
X150720833Y-84742914D02*
X150625595Y-84790533D01*
X152101785Y-84504819D02*
X151625595Y-84504819D01*
X151625595Y-84504819D02*
X151577976Y-84981009D01*
X151577976Y-84981009D02*
X151625595Y-84933390D01*
X151625595Y-84933390D02*
X151720833Y-84885771D01*
X151720833Y-84885771D02*
X151958928Y-84885771D01*
X151958928Y-84885771D02*
X152054166Y-84933390D01*
X152054166Y-84933390D02*
X152101785Y-84981009D01*
X152101785Y-84981009D02*
X152149404Y-85076247D01*
X152149404Y-85076247D02*
X152149404Y-85314342D01*
X152149404Y-85314342D02*
X152101785Y-85409580D01*
X152101785Y-85409580D02*
X152054166Y-85457200D01*
X152054166Y-85457200D02*
X151958928Y-85504819D01*
X151958928Y-85504819D02*
X151720833Y-85504819D01*
X151720833Y-85504819D02*
X151625595Y-85457200D01*
X151625595Y-85457200D02*
X151577976Y-85409580D01*
X160957142Y-72254819D02*
X160623809Y-71778628D01*
X160385714Y-72254819D02*
X160385714Y-71254819D01*
X160385714Y-71254819D02*
X160766666Y-71254819D01*
X160766666Y-71254819D02*
X160861904Y-71302438D01*
X160861904Y-71302438D02*
X160909523Y-71350057D01*
X160909523Y-71350057D02*
X160957142Y-71445295D01*
X160957142Y-71445295D02*
X160957142Y-71588152D01*
X160957142Y-71588152D02*
X160909523Y-71683390D01*
X160909523Y-71683390D02*
X160861904Y-71731009D01*
X160861904Y-71731009D02*
X160766666Y-71778628D01*
X160766666Y-71778628D02*
X160385714Y-71778628D01*
X161909523Y-72254819D02*
X161338095Y-72254819D01*
X161623809Y-72254819D02*
X161623809Y-71254819D01*
X161623809Y-71254819D02*
X161528571Y-71397676D01*
X161528571Y-71397676D02*
X161433333Y-71492914D01*
X161433333Y-71492914D02*
X161338095Y-71540533D01*
X162766666Y-71588152D02*
X162766666Y-72254819D01*
X162528571Y-71207200D02*
X162290476Y-71921485D01*
X162290476Y-71921485D02*
X162909523Y-71921485D01*
X172220833Y-89854819D02*
X171887500Y-89378628D01*
X171649405Y-89854819D02*
X171649405Y-88854819D01*
X171649405Y-88854819D02*
X172030357Y-88854819D01*
X172030357Y-88854819D02*
X172125595Y-88902438D01*
X172125595Y-88902438D02*
X172173214Y-88950057D01*
X172173214Y-88950057D02*
X172220833Y-89045295D01*
X172220833Y-89045295D02*
X172220833Y-89188152D01*
X172220833Y-89188152D02*
X172173214Y-89283390D01*
X172173214Y-89283390D02*
X172125595Y-89331009D01*
X172125595Y-89331009D02*
X172030357Y-89378628D01*
X172030357Y-89378628D02*
X171649405Y-89378628D01*
X173173214Y-89854819D02*
X172601786Y-89854819D01*
X172887500Y-89854819D02*
X172887500Y-88854819D01*
X172887500Y-88854819D02*
X172792262Y-88997676D01*
X172792262Y-88997676D02*
X172697024Y-89092914D01*
X172697024Y-89092914D02*
X172601786Y-89140533D01*
X173938095Y-76254819D02*
X173938095Y-77064342D01*
X173938095Y-77064342D02*
X173985714Y-77159580D01*
X173985714Y-77159580D02*
X174033333Y-77207200D01*
X174033333Y-77207200D02*
X174128571Y-77254819D01*
X174128571Y-77254819D02*
X174319047Y-77254819D01*
X174319047Y-77254819D02*
X174414285Y-77207200D01*
X174414285Y-77207200D02*
X174461904Y-77159580D01*
X174461904Y-77159580D02*
X174509523Y-77064342D01*
X174509523Y-77064342D02*
X174509523Y-76254819D01*
X174938095Y-76350057D02*
X174985714Y-76302438D01*
X174985714Y-76302438D02*
X175080952Y-76254819D01*
X175080952Y-76254819D02*
X175319047Y-76254819D01*
X175319047Y-76254819D02*
X175414285Y-76302438D01*
X175414285Y-76302438D02*
X175461904Y-76350057D01*
X175461904Y-76350057D02*
X175509523Y-76445295D01*
X175509523Y-76445295D02*
X175509523Y-76540533D01*
X175509523Y-76540533D02*
X175461904Y-76683390D01*
X175461904Y-76683390D02*
X174890476Y-77254819D01*
X174890476Y-77254819D02*
X175509523Y-77254819D01*
X187704819Y-87879166D02*
X187228628Y-88212499D01*
X187704819Y-88450594D02*
X186704819Y-88450594D01*
X186704819Y-88450594D02*
X186704819Y-88069642D01*
X186704819Y-88069642D02*
X186752438Y-87974404D01*
X186752438Y-87974404D02*
X186800057Y-87926785D01*
X186800057Y-87926785D02*
X186895295Y-87879166D01*
X186895295Y-87879166D02*
X187038152Y-87879166D01*
X187038152Y-87879166D02*
X187133390Y-87926785D01*
X187133390Y-87926785D02*
X187181009Y-87974404D01*
X187181009Y-87974404D02*
X187228628Y-88069642D01*
X187228628Y-88069642D02*
X187228628Y-88450594D01*
X187133390Y-87307737D02*
X187085771Y-87402975D01*
X187085771Y-87402975D02*
X187038152Y-87450594D01*
X187038152Y-87450594D02*
X186942914Y-87498213D01*
X186942914Y-87498213D02*
X186895295Y-87498213D01*
X186895295Y-87498213D02*
X186800057Y-87450594D01*
X186800057Y-87450594D02*
X186752438Y-87402975D01*
X186752438Y-87402975D02*
X186704819Y-87307737D01*
X186704819Y-87307737D02*
X186704819Y-87117261D01*
X186704819Y-87117261D02*
X186752438Y-87022023D01*
X186752438Y-87022023D02*
X186800057Y-86974404D01*
X186800057Y-86974404D02*
X186895295Y-86926785D01*
X186895295Y-86926785D02*
X186942914Y-86926785D01*
X186942914Y-86926785D02*
X187038152Y-86974404D01*
X187038152Y-86974404D02*
X187085771Y-87022023D01*
X187085771Y-87022023D02*
X187133390Y-87117261D01*
X187133390Y-87117261D02*
X187133390Y-87307737D01*
X187133390Y-87307737D02*
X187181009Y-87402975D01*
X187181009Y-87402975D02*
X187228628Y-87450594D01*
X187228628Y-87450594D02*
X187323866Y-87498213D01*
X187323866Y-87498213D02*
X187514342Y-87498213D01*
X187514342Y-87498213D02*
X187609580Y-87450594D01*
X187609580Y-87450594D02*
X187657200Y-87402975D01*
X187657200Y-87402975D02*
X187704819Y-87307737D01*
X187704819Y-87307737D02*
X187704819Y-87117261D01*
X187704819Y-87117261D02*
X187657200Y-87022023D01*
X187657200Y-87022023D02*
X187609580Y-86974404D01*
X187609580Y-86974404D02*
X187514342Y-86926785D01*
X187514342Y-86926785D02*
X187323866Y-86926785D01*
X187323866Y-86926785D02*
X187228628Y-86974404D01*
X187228628Y-86974404D02*
X187181009Y-87022023D01*
X187181009Y-87022023D02*
X187133390Y-87117261D01*
D14*
%TO.C,C11*%
X179340000Y-91330000D02*
X179340000Y-90320000D01*
X179850000Y-90820000D02*
X178830000Y-90820000D01*
X181220000Y-89300000D02*
G75*
G02*
X174920000Y-89300000I-3150000J0D01*
G01*
X174920000Y-89300000D02*
G75*
G02*
X181220000Y-89300000I3150000J0D01*
G01*
D15*
%TO.C,C8*%
X169265000Y-86811252D02*
X169265000Y-86288748D01*
X170735000Y-86811252D02*
X170735000Y-86288748D01*
%TO.C,R5*%
X151665000Y-104239564D02*
X151665000Y-103785436D01*
X153135000Y-104239564D02*
X153135000Y-103785436D01*
D13*
%TO.C,D5*%
X176310000Y-97260000D02*
X176310000Y-102740000D01*
X176310000Y-102740000D02*
X176900000Y-102740000D01*
X180090000Y-97260000D02*
X180090000Y-102740000D01*
X180090000Y-98980000D02*
X176310000Y-98980000D01*
X180090000Y-102740000D02*
X179500000Y-102740000D01*
D15*
%TO.C,SW1*%
X130300000Y-101500000D02*
X130300000Y-95300000D01*
X130300000Y-101500000D02*
X130400000Y-101500000D01*
X130400000Y-95300000D02*
X130300000Y-95300000D01*
X131900000Y-95300000D02*
X134900000Y-95300000D01*
X131900000Y-101500000D02*
X134900000Y-101500000D01*
X136500000Y-95300000D02*
X136400000Y-95300000D01*
X136500000Y-101500000D02*
X136400000Y-101500000D01*
X136500000Y-101500000D02*
X136500000Y-95300000D01*
%TO.C,R12*%
X166714564Y-71065000D02*
X166260436Y-71065000D01*
X166714564Y-72535000D02*
X166260436Y-72535000D01*
%TO.C,C10*%
X154665000Y-88111252D02*
X154665000Y-87588748D01*
X156135000Y-88111252D02*
X156135000Y-87588748D01*
D14*
%TO.C,USB1*%
X145920000Y-92335000D02*
X145920000Y-92965000D01*
X145920000Y-94985000D02*
X145920000Y-97765000D01*
X145920000Y-99785000D02*
X145920000Y-106865000D01*
X145920000Y-106865000D02*
X149680000Y-106865000D01*
X149680000Y-92335000D02*
X145950000Y-92335000D01*
X149680000Y-92965000D02*
X149680000Y-92335000D01*
X149680000Y-97765000D02*
X149680000Y-94985000D01*
X149680000Y-106865000D02*
X149680000Y-99785000D01*
D15*
%TO.C,U1*%
X155750000Y-95300000D02*
X156550000Y-95300000D01*
X155750000Y-96100000D02*
X155750000Y-95300000D01*
X155750000Y-112300000D02*
X155750000Y-111700000D01*
X155950000Y-95500000D02*
X169150000Y-95500000D01*
X155950000Y-112100000D02*
X155950000Y-95500000D01*
X156500000Y-112300000D02*
X155750000Y-112300000D01*
X168475000Y-112300000D02*
X169325000Y-112300000D01*
X169150000Y-95500000D02*
X169150000Y-112100000D01*
X169150000Y-106700000D02*
X155950000Y-106700000D01*
X169150000Y-112100000D02*
X155950000Y-112100000D01*
X169350000Y-95300000D02*
X168550000Y-95300000D01*
X169350000Y-96100000D02*
X169350000Y-95300000D01*
%TO.C,R13*%
X138165000Y-80960436D02*
X138165000Y-81414564D01*
X139635000Y-80960436D02*
X139635000Y-81414564D01*
%TO.C,C6*%
X174388748Y-73965000D02*
X174911252Y-73965000D01*
X174388748Y-75435000D02*
X174911252Y-75435000D01*
%TO.C,C2*%
X172088748Y-98365000D02*
X172611252Y-98365000D01*
X172088748Y-99835000D02*
X172611252Y-99835000D01*
%TO.C,R6*%
X151665000Y-100239564D02*
X151665000Y-99785436D01*
X153135000Y-100239564D02*
X153135000Y-99785436D01*
%TO.C,R4*%
X182660436Y-75065000D02*
X183114564Y-75065000D01*
X182660436Y-76535000D02*
X183114564Y-76535000D01*
%TO.C,R2*%
X182660436Y-71465000D02*
X183114564Y-71465000D01*
X182660436Y-72935000D02*
X183114564Y-72935000D01*
%TO.C,R10*%
X143665000Y-88785436D02*
X143665000Y-89239564D01*
X145135000Y-88785436D02*
X145135000Y-89239564D01*
%TO.C,D3*%
X164955000Y-78990000D02*
X168045000Y-78990000D01*
X164955170Y-78990000D02*
G75*
G02*
X166500000Y-73440000I1544830J2560000D01*
G01*
X166500000Y-73440000D02*
G75*
G02*
X168044830Y-78990000I0J-2990000D01*
G01*
X169000000Y-76430000D02*
G75*
G02*
X164000000Y-76430000I-2500000J0D01*
G01*
X164000000Y-76430000D02*
G75*
G02*
X169000000Y-76430000I2500000J0D01*
G01*
%TO.C,C1*%
X172088748Y-102365000D02*
X172611252Y-102365000D01*
X172088748Y-103835000D02*
X172611252Y-103835000D01*
D14*
%TO.C,MOTOR1*%
X184050000Y-104670000D02*
X184050000Y-91670000D01*
X184170000Y-91670000D02*
X184050000Y-91670000D01*
X184170000Y-104670000D02*
X184050000Y-104670000D01*
X190050000Y-91670000D02*
X187620000Y-91670000D01*
X190050000Y-104670000D02*
X187620000Y-104670000D01*
X190050000Y-104670000D02*
X190050000Y-91670000D01*
D15*
%TO.C,C4*%
X138165000Y-93488748D02*
X138165000Y-94011252D01*
X139635000Y-93488748D02*
X139635000Y-94011252D01*
%TO.C,C12*%
X177938748Y-94265000D02*
X178461252Y-94265000D01*
X177938748Y-95735000D02*
X178461252Y-95735000D01*
%TO.C,C3*%
X172611252Y-94465000D02*
X172088748Y-94465000D01*
X172611252Y-95935000D02*
X172088748Y-95935000D01*
D13*
%TO.C,D2*%
X177710000Y-78560000D02*
X178300000Y-78560000D01*
X177710000Y-82320000D02*
X181490000Y-82320000D01*
X177710000Y-84040000D02*
X177710000Y-78560000D01*
X181490000Y-78560000D02*
X180900000Y-78560000D01*
X181490000Y-84040000D02*
X181490000Y-78560000D01*
D15*
%TO.C,R16*%
X150660436Y-88165000D02*
X151114564Y-88165000D01*
X150660436Y-89635000D02*
X151114564Y-89635000D01*
%TO.C,J2*%
X128035000Y-71730000D02*
X134035000Y-71730000D01*
X128035000Y-72590000D02*
X128035000Y-71730000D01*
X128035000Y-74270000D02*
X134035000Y-74270000D01*
X128035000Y-75130000D02*
X128035000Y-74270000D01*
X134035000Y-72590000D02*
X128035000Y-72590000D01*
X134035000Y-75130000D02*
X128035000Y-75130000D01*
X136795000Y-73430000D02*
X134035000Y-73430000D01*
X136795000Y-75970000D02*
X134035000Y-75970000D01*
X137025000Y-76810000D02*
X136795000Y-76810000D01*
X137025000Y-77670000D02*
X136795000Y-77670000D01*
X137107642Y-71730000D02*
X136795000Y-71730000D01*
X137107642Y-72590000D02*
X136795000Y-72590000D01*
X137107642Y-74270000D02*
X136795000Y-74270000D01*
X137107642Y-75130000D02*
X136795000Y-75130000D01*
X139455000Y-77240000D02*
X139455000Y-78510000D01*
X139455000Y-78510000D02*
X138185000Y-78510000D01*
X134035000Y-77670000D02*
X128035000Y-77670000D01*
X128035000Y-76810000D01*
X134035000Y-76810000D01*
X134035000Y-77670000D01*
G36*
X134035000Y-77670000D02*
G01*
X128035000Y-77670000D01*
X128035000Y-76810000D01*
X134035000Y-76810000D01*
X134035000Y-77670000D01*
G37*
X136795000Y-78620000D02*
X134035000Y-78620000D01*
X134035000Y-70780000D01*
X136795000Y-70780000D01*
X136795000Y-78620000D01*
%TO.C,SW2*%
X130300000Y-82900000D02*
X130300000Y-89100000D01*
X130300000Y-82900000D02*
X130400000Y-82900000D01*
X130300000Y-89100000D02*
X130400000Y-89100000D01*
X134900000Y-82900000D02*
X131900000Y-82900000D01*
X134900000Y-89100000D02*
X131900000Y-89100000D01*
X136400000Y-89100000D02*
X136500000Y-89100000D01*
X136500000Y-82900000D02*
X136400000Y-82900000D01*
X136500000Y-82900000D02*
X136500000Y-89100000D01*
%TO.C,R7*%
X138165000Y-97260436D02*
X138165000Y-97714564D01*
X139635000Y-97260436D02*
X139635000Y-97714564D01*
%TO.C,C9*%
X162488748Y-81765000D02*
X163011252Y-81765000D01*
X162488748Y-83235000D02*
X163011252Y-83235000D01*
%TO.C,C5*%
X174388748Y-82965000D02*
X174911252Y-82965000D01*
X174388748Y-84435000D02*
X174911252Y-84435000D01*
%TO.C,R3*%
X143165000Y-104239564D02*
X143165000Y-103785436D01*
X144635000Y-104239564D02*
X144635000Y-103785436D01*
D16*
%TO.C,D1*%
X151610000Y-95000000D02*
X151610000Y-95390000D01*
X151610000Y-95960000D02*
X151610000Y-96400000D01*
X151610000Y-96010000D02*
X151610000Y-95390000D01*
X152380000Y-95000000D02*
X151610000Y-95000000D01*
X152380000Y-96400000D02*
X151610000Y-96400000D01*
X152380000Y-96400000D02*
X152380000Y-95000000D01*
D13*
%TO.C,U4*%
X157310000Y-86100000D02*
X167470000Y-86100000D01*
X157310000Y-89640000D02*
X157310000Y-86100000D01*
X167470000Y-86100000D02*
X167470000Y-89640000D01*
X167470000Y-89640000D02*
X157310000Y-89640000D01*
D17*
X166990000Y-86850000D02*
G75*
G02*
X166690000Y-86850000I-150000J0D01*
G01*
X166690000Y-86850000D02*
G75*
G02*
X166990000Y-86850000I150000J0D01*
G01*
X167720000Y-85000000D02*
G75*
G02*
X167420000Y-85000000I-150000J0D01*
G01*
X167420000Y-85000000D02*
G75*
G02*
X167720000Y-85000000I150000J0D01*
G01*
D13*
%TO.C,F1*%
X182040000Y-87460000D02*
X182040000Y-85940000D01*
X182320000Y-87720000D02*
X183590000Y-87720000D01*
X183590000Y-85680000D02*
X182320000Y-85680000D01*
X184610000Y-85680000D02*
X185880000Y-85680000D01*
X185880000Y-87720000D02*
X184640000Y-87720000D01*
X186160000Y-87460000D02*
X186160000Y-85940000D01*
X184100000Y-86700000D02*
G75*
G02*
X184100000Y-86320000I0J190000D01*
G01*
X184100000Y-86700000D02*
G75*
G02*
X184100000Y-87080000I0J-190000D01*
G01*
D15*
%TO.C,D4*%
X156755000Y-78990000D02*
X159845000Y-78990000D01*
X156755170Y-78990000D02*
G75*
G02*
X158300000Y-73440000I1544830J2560000D01*
G01*
X158300000Y-73440000D02*
G75*
G02*
X159844830Y-78990000I0J-2990000D01*
G01*
X160800000Y-76430000D02*
G75*
G02*
X155800000Y-76430000I-2500000J0D01*
G01*
X155800000Y-76430000D02*
G75*
G02*
X160800000Y-76430000I2500000J0D01*
G01*
%TO.C,R9*%
X143165000Y-99760436D02*
X143165000Y-100214564D01*
X144635000Y-99760436D02*
X144635000Y-100214564D01*
%TO.C,C7*%
X138165000Y-86036252D02*
X138165000Y-85513748D01*
X139635000Y-86036252D02*
X139635000Y-85513748D01*
%TO.C,R11*%
X138165000Y-89839564D02*
X138165000Y-89385436D01*
X139635000Y-89839564D02*
X139635000Y-89385436D01*
%TO.C,R15*%
X150660436Y-85965000D02*
X151114564Y-85965000D01*
X150660436Y-87435000D02*
X151114564Y-87435000D01*
%TO.C,R14*%
X158060436Y-71065000D02*
X158514564Y-71065000D01*
X158060436Y-72535000D02*
X158514564Y-72535000D01*
%TO.C,R1*%
X172614564Y-90565000D02*
X172160436Y-90565000D01*
X172614564Y-92035000D02*
X172160436Y-92035000D01*
%TO.C,J1*%
X142510000Y-81970000D02*
X142510000Y-80700000D01*
X143350000Y-79540000D02*
X143350000Y-79310000D01*
X143780000Y-81970000D02*
X142510000Y-81970000D01*
X144210000Y-79540000D02*
X144210000Y-79310000D01*
X145050000Y-79310000D02*
X145050000Y-76550000D01*
X145890000Y-70550000D02*
X146750000Y-70550000D01*
X145890000Y-76550000D02*
X145890000Y-70550000D01*
X145890000Y-79622642D02*
X145890000Y-79310000D01*
X146750000Y-70550000D02*
X146750000Y-76550000D01*
X146750000Y-79622642D02*
X146750000Y-79310000D01*
X147590000Y-79310000D02*
X147590000Y-76550000D01*
X148430000Y-70550000D02*
X149290000Y-70550000D01*
X148430000Y-76550000D02*
X148430000Y-70550000D01*
X148430000Y-79622642D02*
X148430000Y-79310000D01*
X149290000Y-70550000D02*
X149290000Y-76550000D01*
X149290000Y-79622642D02*
X149290000Y-79310000D01*
X150130000Y-79310000D02*
X150130000Y-76550000D01*
X150970000Y-70550000D02*
X151830000Y-70550000D01*
X150970000Y-76550000D02*
X150970000Y-70550000D01*
X150970000Y-79622642D02*
X150970000Y-79310000D01*
X151830000Y-70550000D02*
X151830000Y-76550000D01*
X151830000Y-79622642D02*
X151830000Y-79310000D01*
X142400000Y-79310000D02*
X152780000Y-79310000D01*
X152780000Y-76550000D01*
X142400000Y-76550000D01*
X142400000Y-79310000D01*
X143350000Y-76550000D02*
X144210000Y-76550000D01*
X144210000Y-70550000D01*
X143350000Y-70550000D01*
X143350000Y-76550000D01*
G36*
X143350000Y-76550000D02*
G01*
X144210000Y-76550000D01*
X144210000Y-70550000D01*
X143350000Y-70550000D01*
X143350000Y-76550000D01*
G37*
D14*
%TO.C,U2*%
X173130000Y-78700000D02*
X173130000Y-80100000D01*
X174270000Y-78510000D02*
X175030000Y-78510000D01*
X176050000Y-78980000D02*
X176050000Y-79820000D01*
D15*
%TO.C,R8*%
X188165000Y-87939564D02*
X188165000Y-87485436D01*
X189635000Y-87939564D02*
X189635000Y-87485436D01*
D14*
%TO.C,USB3*%
X186120000Y-70135000D02*
X186120000Y-77215000D01*
X186120000Y-79235000D02*
X186120000Y-82015000D01*
X186120000Y-84035000D02*
X186120000Y-84665000D01*
X186120000Y-84665000D02*
X189850000Y-84665000D01*
X189880000Y-70135000D02*
X186120000Y-70135000D01*
X189880000Y-77215000D02*
X189880000Y-70135000D01*
X189880000Y-82015000D02*
X189880000Y-79235000D01*
X189880000Y-84665000D02*
X189880000Y-84035000D01*
%TD*%
M02*
