M48
; DRILL file {KiCad 9.0.7} date 2026-02-22T17:50:56-0500
; FORMAT={-:-/ absolute / metric / decimal}
; #@! TF.CreationDate,2026-02-22T17:50:56-05:00
; #@! TF.GenerationSoftware,Kicad,Pcbnew,9.0.7
; #@! TF.FileFunction,Plated,1,2,PTH
FMAT,2
METRIC
; #@! TA.AperFunction,Plated,PTH,ViaDrill
T1C0.300
; #@! TA.AperFunction,Plated,PTH,ComponentDrill
T2C0.400
; #@! TA.AperFunction,Plated,PTH,ComponentDrill
T3C0.600
; #@! TA.AperFunction,Plated,PTH,ComponentDrill
T4C0.900
; #@! TA.AperFunction,Plated,PTH,ComponentDrill
T5C1.000
; #@! TA.AperFunction,Plated,PTH,ComponentDrill
T6C1.000
; #@! TA.AperFunction,Plated,PTH,ComponentDrill
T7C2.400
%
G90
G05
T1
X138.8Y-99.8
X138.9Y-91.6
X141.6Y-74.6
X143.282Y-90.302
X143.8Y-83.8
X143.9Y-98.1
X144.1Y-97.0
X145.365Y-91.635
X146.7Y-97.0
X148.2Y-100.8
X148.3Y-90.3
X148.6Y-92.3
X150.6Y-98.4
X153.5Y-95.7
X154.2Y-83.8
X156.1Y-71.8
X158.314Y-71.8
X158.5Y-94.9
X160.6Y-100.1
X160.6Y-102.1
X161.6Y-99.1
X161.6Y-101.1
X161.6Y-103.1
X161.727Y-94.9
X162.6Y-100.1
X162.6Y-102.1
X163.5Y-99.1
X163.5Y-101.1
X163.5Y-103.1
X164.1Y-93.0
X164.5Y-100.1
X164.5Y-102.1
X165.7Y-94.8
X169.9Y-91.4
X170.0Y-97.0
X170.3Y-93.4
X171.5Y-74.7
X173.1Y-93.4
X173.3Y-96.4
X176.2Y-76.6
X185.1Y-75.6
X185.4Y-80.8
X187.6Y-76.1
X188.4Y-85.2
X190.2Y-72.2
X190.2Y-80.6
T2
X147.41Y-93.415
X147.41Y-94.325
X147.41Y-95.225
X147.41Y-96.115
X147.41Y-97.015
X147.41Y-97.925
X147.41Y-98.825
X148.19Y-93.875
X148.19Y-94.765
X148.19Y-95.675
X148.19Y-96.575
X148.19Y-97.465
X148.19Y-98.365
X148.19Y-99.275
X187.61Y-77.725
X187.61Y-78.635
X187.61Y-79.535
X187.61Y-80.425
X187.61Y-81.325
X187.61Y-82.235
X187.61Y-83.125
X188.39Y-78.175
X188.39Y-79.075
X188.39Y-79.985
X188.39Y-80.885
X188.39Y-81.775
X188.39Y-82.675
X188.39Y-83.585
T4
X158.3Y-75.16
X158.3Y-77.7
X166.5Y-75.16
X166.5Y-77.7
T5
X176.93Y-89.2
X179.47Y-89.2
X188.2Y-94.6
X188.2Y-97.1
X188.2Y-99.1
X188.2Y-101.6
T6
X138.185Y-72.16
X138.185Y-74.7
X138.185Y-77.24
X143.78Y-80.7
X146.32Y-80.7
X148.86Y-80.7
X151.4Y-80.7
T7
X185.9Y-91.77
X185.9Y-104.57
T3
X146.37Y-93.475G85X146.37Y-94.475
G05
X146.37Y-98.265G85X146.37Y-99.265
G05
X149.23Y-93.475G85X149.23Y-94.475
G05
X149.23Y-98.265G85X149.23Y-99.265
G05
X186.57Y-78.735G85X186.57Y-77.735
G05
X186.57Y-83.525G85X186.57Y-82.525
G05
X189.43Y-78.735G85X189.43Y-77.735
G05
X189.43Y-83.525G85X189.43Y-82.525
G05
M30
